<?xml version="1.0" encoding="UTF-8" standalone="no"?>
<!-- Created with Inkscape (http://www.inkscape.org/) -->

<svg
   width="864"
   height="358"
   version="1.1"
   id="svg29"
   sodipodi:docname="agpl3-grey.svg"
   inkscape:version="1.1 (c4e8f9e, 2021-05-24)"
   xmlns:inkscape="http://www.inkscape.org/namespaces/inkscape"
   xmlns:sodipodi="http://sodipodi.sourceforge.net/DTD/sodipodi-0.dtd"
   xmlns="http://www.w3.org/2000/svg"
   xmlns:svg="http://www.w3.org/2000/svg">
  <defs
     id="defs33" />
  <sodipodi:namedview
     id="namedview31"
     pagecolor="#505050"
     bordercolor="#ffffff"
     borderopacity="1"
     inkscape:pageshadow="0"
     inkscape:pageopacity="0"
     inkscape:pagecheckerboard="1"
     showgrid="false"
     inkscape:zoom="1.3229167"
     inkscape:cx="432"
     inkscape:cy="178.77165"
     inkscape:window-width="1312"
     inkscape:window-height="997"
     inkscape:window-x="49"
     inkscape:window-y="25"
     inkscape:window-maximized="0"
     inkscape:current-layer="svg29" />
  <g
     id="g1"
     transform="translate(-88.247957,-1761.1929)">
    <g
       id="g2"
       transform="scale(2.5964,2.5964)">
      <path
         id="path1"
         style="fill:#663366"
         d="m 62.777261,682.66638 c 0,0 -22.84339,99.66531 -22.84339,99.66531 0.0066,0 60.091419,0 60.104559,0 26.42484,0 105.67884,0 105.67884,0 1.2e-4,0 54.96371,0 54.96371,0 -6.54796,-0.57145 -11.71765,-2.87011 -14.79791,-7.06027 -0.57133,-0.77509 -1.04346,-1.60999 -1.45715,-2.48348 -0.26277,-0.64359 -0.5098,-1.293 -0.75945,-1.94971 -0.65682,-2.08863 -0.91869,-4.40613 -0.80043,-6.87568 0.32842,-6.883 3.5581,-15.07028 9.15381,-23.64386 5.94375,-9.11134 14.55819,-18.66102 25.22417,-27.52283 2.39067,-1.98475 4.86262,-3.94473 7.45021,-5.84947 3.19852,-2.35311 6.4217,-4.52039 9.64637,-6.54715 11.881,-7.48001 23.73254,-12.71397 34.23437,-15.37255 -10.03552,3.27397 -21.3098,8.83212 -32.4487,16.39877 -0.40067,0.27054 -0.79632,0.5477 -1.19049,0.82098 -6.18016,4.28216 -11.77917,8.82996 -16.66554,13.42273 -15.72323,14.78398 -24.0338,30.10322 -20.25732,39.07804 0.26928,0.61733 0.59027,1.20681 0.96458,1.76513 4.05888,5.97 14.11814,7.00193 26.86612,3.7969 0.86698,-0.21666 1.73396,-0.4622 2.62708,-0.71835 4.07201,-1.17554 8.39527,-2.76338 12.8482,-4.72051 1.07052,-0.47293 2.15256,-0.95887 3.24282,-1.4778 0.11164,-0.0525 0.21666,-0.10502 0.3283,-0.16415 14.05501,-6.98345 24.85648,-15.01891 27.19453,-19.84684 0.51232,-1.05019 0.63548,-1.94559 0.28732,-2.64763 -1.66821,-3.38242 -13.34145,-1.09733 -27.48185,5.02838 -1.13615,0.49267 -2.28554,0.99951 -3.44806,1.53933 0.94574,-0.87805 1.93019,-1.75953 2.93495,-2.62708 1.60257,-1.38055 3.26176,-2.73051 5.02848,-4.0638 2.76498,-2.09376 5.56032,-3.98662 8.31229,-5.66465 12.88587,-9.72159 19.40027,-18.91764 18.04072,-22.33031 -0.25615,-0.64301 -0.80122,-1.08524 -1.64195,-1.35464 -2.68621,-0.85442 -7.58902,0.16541 -13.5459,2.60665 -4.91274,2.01501 -10.55524,5.00338 -16.27572,8.72277 0,0 -0.77988,0.51312 -0.77988,0.51312 0,0 -0.14372,0.0821 -0.14372,0.0821 0,0 -2.75013,1.82665 -2.75013,1.82665 0,0 1.58031,-2.89385 1.58031,-2.89385 2.34467,-4.2921 6.16384,-8.77026 10.91882,-12.93028 3.48744,-3.04157 7.47167,-5.90734 11.76034,-8.41491 1.6222,-0.94974 3.24201,-1.83178 4.86422,-2.62708 1.6617,-0.81184 3.32409,-1.53328 4.9463,-2.17561 4.71308,-1.86387 9.89054,-4.21767 13.81404,-4.52565 -0.3573,0 -11.69996,1.22131 -11.69996,1.22131 0,0 -37.14877,0 -37.14877,0 0,0 -163.80326,0 -163.80326,0 0,0 -73.075879,0 -73.075879,0 z m 177.933719,0.14371 c -0.64359,9.82331 1.26103,24.21153 5.58258,40.18623 0.76846,2.84249 1.60497,5.73531 2.52446,8.66124 0.57144,1.80679 1.16092,3.58527 1.76512,5.33624 -0.35467,0.52145 -0.71173,1.03969 -1.04677,1.55988 -5.39206,8.26343 -8.54378,16.07287 -9.3385,22.86386 -2.27904,-7.63171 -3.99473,-15.99091 -4.96685,-24.85477 -0.27579,-2.53965 -0.49165,-5.05098 -0.63616,-7.53229 -1.06401,-18.02383 1.28888,-34.36245 6.11612,-46.22039 z m -107.60809,12.78645 c 0.12294,-0.003 0.24417,0 0.3694,0 0,0 24.28013,0 24.28013,0 2.07539,0 3.68036,0.38903 4.82313,1.16994 1.13615,0.78548 1.56228,1.80154 1.29299,3.03757 0,0 -2.89385,13.07388 -2.89385,13.07388 0,0 -8.55862,0 -8.55862,0 0,0 2.81178,-12.72492 2.81178,-12.72492 0,0 -21.42715,0 -21.42715,0 0,0 -7.73764,34.97305 -7.73764,34.97305 0,0 -2.79135,12.6635 -2.79135,12.6635 0,0 21.40671,0 21.40671,0 0,0 0.0206,-0.0821 0.0206,-0.0821 0,0 4.28958,-19.37493 4.28958,-19.37493 0,0 -10.05685,0 -10.05685,0 0,0 0.96469,-4.37155 0.96469,-4.37155 0,-1.1e-4 18.61537,0 18.61537,0 0,-1.1e-4 -5.33624,24.1774 -5.33624,24.1774 -0.0723,0.34417 -0.19874,0.65592 -0.36951,0.9647 -0.44006,0.80122 -1.20761,1.4875 -2.27812,2.05244 -1.48431,0.78148 -3.26085,1.16982 -5.33636,1.16982 0,0 -24.25947,0 -24.25947,0 -2.07539,0 -3.68036,-0.38834 -4.82324,-1.16982 -1.13615,-0.7816 -1.56884,-1.77974 -1.29299,-3.01714 0,0 10.69314,-48.33436 10.69314,-48.33436 0.27579,-1.23603 1.13615,-2.25209 2.62696,-3.03757 0.0526,-0.0283 0.11176,-0.0347 0.16427,-0.0615 1.3608,-0.6816 2.95778,-1.0648 4.80269,-1.10841 z m 38.05183,0 c -1.2e-4,0 30.5604,0 30.5604,0 2.04913,0 3.65981,0.38903 4.8027,1.16994 1.14927,0.78548 1.58933,1.80154 1.31354,3.03757 0,0 -5.70575,25.77837 -5.70575,25.77837 -0.26928,1.22816 -1.15019,2.23018 -2.64763,3.01703 -1.49744,0.78947 -3.26005,1.19037 -5.31581,1.19037 0,0 -22.20714,0 -22.20714,0 0,0 -4.28947,19.35427 -4.28947,19.35427 0,0 -0.69781,3.18128 -0.69781,3.18128 0,0 -8.37392,0 -8.37392,0 0,0 0.63628,-2.87342 0.63628,-2.87342 0,0 11.92461,-53.85541 11.92461,-53.85541 z m 42.21812,0 c 0,0 8.37381,0 8.37381,0 0,0 -9.48211,42.83397 -9.48211,42.83397 0,0 -2.07299,9.35905 -2.07299,9.35905 0,0 20.03165,0 20.03165,0 0.21015,1.53614 0.45557,3.045 0.71835,4.53581 0,0 -30.12948,0 -30.12948,0 0,0 2.38074,-10.75466 2.38074,-10.75466 0,0 10.18003,-45.97417 10.18003,-45.97417 z m -34.84999,4.55647 c 0,0 -5.56214,25.08045 -5.56214,25.08045 0,0 20.87316,0 20.87316,0 0,0 5.54149,-25.08045 5.54149,-25.08045 0,0 -20.85251,0 -20.85251,0 z m -44.50903,59.19428 c 0.082,-0.003 0.16381,0 0.24634,0 0.972,0 1.82094,0.17065 2.50391,0.49256 0.72909,0.34154 1.25042,0.84883 1.53934,1.51879 0.28241,0.6502 0.35626,1.38819 0.20524,2.19604 0,0 -0.0615,0.30787 -0.0615,0.30787 0,0 -2.40129,0 -2.40129,0 -1.1e-4,0 0.0204,-0.28732 0.0204,-0.28732 0.0621,-0.56448 -0.008,-1.0083 -0.22567,-1.31354 -0.0284,-0.0382 -0.0696,-0.0888 -0.10274,-0.12317 -0.0541,-0.0554 -0.1355,-0.11849 -0.20513,-0.16415 -0.33606,-0.21175 -0.86161,-0.32841 -1.53933,-0.32841 -0.89986,0 -1.57221,0.15673 -2.0319,0.47201 -0.44667,0.30867 -0.72908,0.65352 -0.82098,1.06732 -0.092,0.4203 0.059,0.64119 0.16415,0.75933 0.003,0.003 0.0166,0.0169 0.0205,0.0205 0.1331,0.11335 0.59519,0.37933 2.0319,0.71836 1.30041,0.31528 2.16157,0.59849 2.64763,0.84152 0.73559,0.3743 1.2495,0.85956 1.51878,1.45714 0.26929,0.5912 0.32842,1.28318 0.16415,2.0319 -0.16415,0.72909 -0.53605,1.40144 -1.08775,2.0319 -0.54507,0.63046 -1.23877,1.12964 -2.07299,1.4778 -0.82748,0.34154 -1.73544,0.53355 -2.66806,0.53355 -1.18227,0 -2.13132,-0.17888 -2.87342,-0.53355 -0.77498,-0.36779 -1.33409,-0.94825 -1.66239,-1.70359 -0.31529,-0.73548 -0.38263,-1.5705 -0.20536,-2.48337 0,0 0.0616,-0.28732 0.0616,-0.28732 0,0 2.36031,0 2.36031,0 0,0 -0.0205,0.28732 -0.0205,0.28732 -0.0591,0.54507 -8e-4,0.98513 0.1436,1.31354 0.13801,0.31529 0.40067,0.57635 0.82098,0.77988 0.44667,0.21678 1.00487,0.32842 1.64195,0.32842 0.57144,0 1.09357,-0.096 1.55988,-0.26677 0.45969,-0.16427 0.82509,-0.38093 1.08775,-0.65683 0.25616,-0.27579 0.40638,-0.56733 0.47202,-0.88251 0.0657,-0.28241 0.0501,-0.52133 -0.0615,-0.71835 -0.12477,-0.21015 -0.37191,-0.39656 -0.75945,-0.55409 0,-1.2e-4 -2.01135,-0.5953 -2.01135,-0.5953 -1.12302,-0.28241 -1.87916,-0.5517 -2.31921,-0.82098 -0.5977,-0.35456 -1.02862,-0.80945 -1.25202,-1.35452 -0.22328,-0.53857 -0.24702,-1.13547 -0.10251,-1.78567 0.15103,-0.69621 0.48675,-1.35863 1.00568,-1.94971 0.52544,-0.5977 1.2035,-1.06652 2.01135,-1.37518 0.71424,-0.2678 1.46582,-0.42488 2.25757,-0.45147 z m 21.55043,0.041 c 0.1299,-0.01 0.25205,0 0.38994,0 0,0 1.47769,0.16415 1.47769,0.16415 0,0 0.49257,0.0411 0.49257,0.0411 1.1e-4,0 -0.71825,1.82665 -0.71825,1.82665 0,0 -0.14371,0.28732 -0.14371,0.28732 0,0 -1.12885,-0.10262 -1.12885,-0.10262 -0.33332,0 -0.57817,0.0515 -0.7389,0.16427 -0.0106,0.008 -0.0312,0.0324 -0.041,0.041 -0.0216,0.0189 -0.0578,0.0518 -0.0821,0.0822 -0.0989,0.12957 -0.21917,0.36118 -0.30787,0.77989 0,0 -0.0427,0.17727 -0.0821,0.32841 0.51881,0 1.76501,0 1.76501,0 0,0 -0.45147,2.0319 -0.45147,2.0319 0,0 -1.2906,0 -1.72403,0 -0.13139,0.59107 -1.74458,7.8196 -1.74458,7.8196 0,0 -2.38086,0 -2.38086,0 0,0 1.54755,-6.94612 1.74458,-7.8196 -0.40067,0 -1.37507,0 -1.37507,0 0,0 0.45147,-2.0319 0.45147,-2.0319 0,0 0.98022,0 1.35464,0 0.0656,-0.28241 0.16414,-0.63628 0.16414,-0.63628 0.14452,-0.65683 0.29554,-1.12884 0.49257,-1.45726 0.2694,-0.45318 0.64941,-0.83239 1.12884,-1.10829 0.39497,-0.22945 0.89438,-0.36666 1.45726,-0.41049 z m 5.6852,0.10262 c 0,0 -0.62235,2.80036 -0.77988,3.5097 0.45969,0 1.53922,0 1.53922,0 0,0 -0.45147,2.0319 -0.45147,2.0319 0,0 -1.13216,0 -1.53934,0 -0.12476,0.5647 -1.10829,4.9463 -1.10829,4.9463 0,0 -0.0821,0.52623 -0.0821,0.67726 1.2e-4,0.005 -4.5e-4,0.0168 0,0.0205 3.4e-4,0.002 -4.5e-4,0.0192 0,0.0205 5.7e-4,10e-4 0.0196,-8e-4 0.0204,0 0,0 0.24633,0.0204 0.24633,0.0204 0,0 1.12885,-0.0821 1.12885,-0.0821 0,0 -0.12317,1.82665 -0.12317,1.82665 0,0 0.0205,0.32841 0.0205,0.32841 0,0 -1.62141,0.1847 -1.62141,0.1847 -0.64359,0 -1.11572,-0.10502 -1.45726,-0.32841 -0.36117,-0.23641 -0.57133,-0.54998 -0.65671,-0.94404 -0.0131,-0.0723 -0.0411,-0.17739 -0.0411,-0.32841 0,-0.29554 0.0558,-0.79552 0.24634,-1.6625 0,0 0.86276,-3.86506 1.04666,-4.67941 -0.30867,0 -1.12873,0 -1.12873,0 0,0 0.45147,-2.0319 0.45147,-2.0319 0,0 0.80043,0 1.12884,0 0.10513,-0.47293 0.47202,-2.09354 0.47202,-2.09354 0,0 1.90884,-1.00567 1.90884,-1.00567 0,0 0.77988,-0.41049 0.77988,-0.41049 z m -75.631539,0.0821 c 0,0 9.23587,0 9.23587,0 0,0 -0.5131,2.29879 -0.5131,2.29879 0,0 -6.16135,0 -6.75245,0 -0.10506,0.46631 -0.52622,2.35449 -0.67728,3.03757 0.85381,0 5.84937,0 5.84937,0 0,0 -0.51311,2.29867 -0.51311,2.29867 0,0 -5.25827,0 -5.84937,0 -0.12479,0.57144 -1.25198,5.6441 -1.25198,5.6441 0,0 -2.48343,0 -2.48343,0 0,0 2.95548,-13.27913 2.95548,-13.27913 z m 12.37608,3.24293 c 0.09266,-0.0114 0.19392,0 0.28731,0 0.5911,0 1.13707,0.17979 1.66248,0.5541 0,0 0.328389,0.22579 0.328389,0.22579 0,0 -1.272509,2.09342 -1.272509,2.09342 0,0 -0.34892,-0.24634 -0.34892,-0.24634 -0.25612,-0.16415 -0.53196,-0.24622 -0.82095,-0.24622 -0.24958,0 -0.4819,0.0887 -0.71834,0.24622 -0.24958,0.16427 -0.45811,0.38184 -0.61571,0.67738 -0.27585,0.50569 -0.47783,1.07211 -0.61575,1.68293 0,0 -1.10832,5.04892 -1.10832,5.04892 0,0 -2.38079,0 -2.38079,0 0,0 2.19611,-9.8515 2.19611,-9.8515 0,0 2.2166,0 2.2166,0 0,0 -0.07638,0.29874 -0.10264,0.41038 0.10511,-0.0788 0.21591,-0.1871 0.30789,-0.24623 0.3181,-0.18983 0.65411,-0.30832 0.98515,-0.34885 z m 7.060299,0 c 0.14335,-0.0109 0.28446,0 0.43102,0 1.3398,0 2.35368,0.46951 3.01703,1.39562 0.41377,0.59758 0.63628,1.33649 0.63628,2.21659 0,0.48595 -0.0599,1.00899 -0.18472,1.58032 0,0 -0.18472,0.71835 -0.18472,0.71835 0,0 -6.02097,0 -6.6909,0 -0.0131,0.1379 -0.0205,0.28572 -0.0205,0.41049 0,0.51231 0.10511,0.91538 0.32838,1.21092 0.10612,0.14451 0.22914,0.27465 0.36944,0.36939 0.26454,0.1726 0.60601,0.26689 1.00572,0.26689 0.48599,0 0.9129,-0.1339 1.31353,-0.38994 0.38091,-0.24303 0.74543,-0.63137 1.06726,-1.16994 0,0 2.54499,0 2.54499,0 0,0 -0.22574,0.49256 -0.22574,0.49256 -0.48603,0.98524 -1.16417,1.7536 -2.01139,2.29879 -0.84722,0.54507 -1.85948,0.84141 -2.97601,0.84141 -1.45145,0 -2.53185,-0.46951 -3.20175,-1.39562 -0.663349,-0.90636 -0.806199,-2.15917 -0.451559,-3.73538 0.354699,-1.60257 1.062339,-2.88324 2.093469,-3.77647 0.92422,-0.80135 1.97295,-1.24585 3.14021,-1.33398 z m 10.69313,0 c 0.14326,-0.0109 0.28446,0 0.43092,0 1.33991,0 2.3538,0.46951 3.01714,1.39562 0.41379,0.59758 0.63616,1.33649 0.63616,2.21659 0,0.47944 -0.0599,0.99495 -0.1847,1.55977 0,0 -0.18469,0.7389 -0.18469,0.7389 0,0 -6.02097,0 -6.69087,0 -0.007,0.092 -0.014,0.17488 -0.0205,0.26677 -0.005,0.0345 0.002,0.0869 0,0.12317 -1.9e-4,0.006 0,0.0148 0,0.0205 0,0.0985 0.0139,0.19543 0.0205,0.28732 0.0328,0.37442 0.13054,0.68719 0.30786,0.9236 0.0338,0.046 0.0655,0.10274 0.1026,0.14372 0.30081,0.32179 0.72656,0.49256 1.27251,0.49256 0.48602,0 0.91945,-0.1339 1.3135,-0.38994 0.38104,-0.24303 0.74552,-0.63137 1.06732,-1.16994 0,0 2.56544,0 2.56544,0 0,0 -0.24623,0.49256 -0.24623,0.49256 -0.48606,0.98524 -1.16412,1.7536 -2.01135,2.29879 -0.84723,0.54507 -1.85953,0.84141 -2.976,0.84141 -1.45149,0 -2.53189,-0.46951 -3.20178,-1.39562 -0.43346,-0.59108 -0.63624,-1.34391 -0.63624,-2.23714 0,-0.1379 0.007,-0.28652 0.0205,-0.43104 0.0263,-0.34142 0.0788,-0.68628 0.16419,-1.0672 0.35465,-1.59595 1.0418,-2.88324 2.07293,-3.77647 0.92419,-0.80135 1.99344,-1.24585 3.16076,-1.33398 z m 29.12369,0 c 0.14669,-0.0113 0.28161,0 0.43104,0 1.36616,0 2.41613,0.46209 3.0991,1.37507 0.67657,0.91287 0.84072,2.14434 0.49267,3.69429 -0.26928,1.20852 -0.65842,2.18463 -1.19048,2.89397 -0.53195,0.70933 -1.21001,1.28888 -2.01135,1.68293 -0.79461,0.39405 -1.63614,0.59519 -2.48337,0.59519 -1.39242,0 -2.42925,-0.47613 -3.09921,-1.39562 -0.43343,-0.58457 -0.65671,-1.33728 -0.65671,-2.23714 0,-0.48594 0.0533,-1.00236 0.18469,-1.58031 0.39405,-1.76022 1.19859,-3.10081 2.38075,-3.96117 0.86778,-0.62647 1.82619,-0.98833 2.85287,-1.06721 z m 36.06102,0 c 0.17317,-0.0107 0.33344,0 0.51311,0 0.82749,0 1.47769,0.0837 1.97026,0.28732 0.52544,0.21016 0.89814,0.50729 1.10829,0.86196 0.20365,0.33492 0.30787,0.74632 0.30787,1.25201 0,0 -0.24622,1.49824 -0.24622,1.49824 0,0 -0.45159,2.0319 -0.45159,2.0319 -0.38754,1.73385 -0.47281,2.38405 -0.49256,2.62708 -0.0197,0.32841 0.0106,0.6485 0.10262,0.94415 0,0 0.16415,0.53354 0.16415,0.53354 0,0 -2.42184,0 -2.42184,0 0,0 -0.10262,-0.30786 -0.10262,-0.30786 -0.0394,-0.14441 -0.0279,-0.3283 -0.041,-0.49257 -0.4598,0.28241 -0.92029,0.53286 -1.33409,0.67726 -0.61082,0.21027 -1.24459,0.32842 -1.88829,0.32842 -1.1164,0 -1.9432,-0.29063 -2.44239,-0.86196 -0.38081,-0.42031 -0.55409,-0.93422 -0.55409,-1.51879 0,-0.22328 0.0296,-0.45478 0.0821,-0.6978 0.11164,-0.49919 0.31449,-0.96139 0.63628,-1.37519 0.31528,-0.40718 0.68799,-0.7421 1.10829,-0.98513 0.40718,-0.24302 0.86116,-0.41539 1.33409,-0.53365 0,0 1.45726,-0.24623 1.45726,-0.24623 1.12302,-0.13139 1.96124,-0.29474 2.56544,-0.47213 0.0131,-0.0656 0.0411,-0.1436 0.0411,-0.1436 0.0952,-0.42259 0.0833,-0.74027 -0.0205,-0.90305 -0.008,-0.0105 -0.0324,-0.0321 -0.0411,-0.0411 -0.0221,-0.0236 -0.0562,-0.0607 -0.0821,-0.0821 -0.24702,-0.19543 -0.66824,-0.28732 -1.23147,-0.28732 -0.63708,0 -1.10829,0.10422 -1.43659,0.30786 -0.32191,0.20354 -0.61985,0.57624 -0.88262,1.1083 0,0 -2.48337,0 -2.48337,0 0,0 0.22568,-0.49256 0.22568,-0.49256 0.29554,-0.68308 0.64781,-1.24962 1.08786,-1.68305 0.44006,-0.43343 1.03444,-0.76927 1.72403,-1.00568 0.52841,-0.17442 1.10556,-0.29017 1.72403,-0.3283 z m 10.40571,0 c 0.0927,-0.0114 0.19394,0 0.28732,0 0.5977,0 1.15761,0.17979 1.68305,0.5541 0,0 0.30786,0.22579 0.30786,0.22579 0,0 -1.27256,2.09342 -1.27256,2.09342 0,0 -0.34884,-0.24634 -0.34884,-0.24634 -0.25616,-0.16415 -0.51814,-0.24622 -0.80043,-0.24622 -0.24965,0 -0.49599,0.0887 -0.73891,0.24622 -0.24965,0.16427 -0.43103,0.38184 -0.59518,0.67738 -0.26929,0.50569 -0.47784,1.07211 -0.61574,1.68293 0,0 -1.12884,5.04892 -1.12884,5.04892 0,0 -2.38086,0 -2.38086,0 0,0 2.19616,-9.8515 2.19616,-9.8515 0,0 2.2166,0 2.2166,0 0,0 -0.0558,0.29874 -0.0821,0.41038 0.10502,-0.0788 0.20936,-0.1871 0.30787,-0.24623 0.313,-0.18983 0.63377,-0.30832 0.96458,-0.34885 z m 7.03983,0 c 0.14315,-0.0109 0.28447,0 0.43093,0 1.33991,0 2.36031,0.46951 3.01713,1.39562 0.42031,0.59758 0.63617,1.33649 0.63617,2.21659 0,0.48595 -0.0804,1.00899 -0.20524,1.58032 0,0 -0.16415,0.71835 -0.16415,0.71835 0,0 -6.02754,0 -6.69088,0 -0.0131,0.1379 -0.0411,0.28572 -0.0411,0.41049 0,0.51231 0.11175,0.91538 0.32841,1.21092 0.0338,0.046 0.086,0.10274 0.12317,0.14372 0.0216,0.0229 0.0594,0.0607 0.0821,0.0821 0.2936,0.26689 0.69325,0.41049 1.19038,0.41049 0.48605,0 0.91298,-0.1339 1.31354,-0.38994 0.38104,-0.24303 0.7389,-0.63137 1.06731,-1.16994 0,0 2.56556,0 2.56556,0 0,0 -0.24634,0.49256 -0.24634,0.49256 -0.48606,0.98524 -1.17074,1.7536 -2.01135,2.29879 -0.85385,0.54507 -1.85291,0.84141 -2.97604,0.84141 -1.45144,0 -2.51134,-0.46951 -3.18118,-1.39562 -0.66333,-0.90636 -0.82017,-2.15917 -0.47213,-3.73538 0.35467,-1.60257 1.04186,-2.88324 2.07299,-3.77647 0.93,-0.80135 1.99457,-1.24585 3.16074,-1.33398 z m -35.93785,0.1847 c 0,0 2.44239,0 2.44239,0 0,0 0.30124,5.84604 0.30786,5.93143 0.0985,-0.20936 0.175,-0.38549 0.1847,-0.41049 0,0 2.68872,-5.52094 2.68872,-5.52094 0,0 2.23714,0 2.23714,0 0,0 0.20525,5.77538 0.20525,5.80826 0.0656,-0.11815 3.058,-5.80826 3.058,-5.80826 0,0 2.42184,0 2.42184,0 0,0 -5.33624,9.8515 -5.33624,9.8515 0,0 -2.19604,0 -2.19604,0 0,0 -0.21267,-5.34194 -0.2258,-5.6441 -0.90636,1.85872 -2.75025,5.6441 -2.75025,5.6441 0,0 -2.25769,0 -2.25769,0 0,0 -0.77988,-9.8515 -0.77988,-9.8515 z m -57.34448,1.86763 c -0.56575,0.0239 -1.07959,0.22785 -1.55984,0.61574 -0.38091,0.30216 -0.63789,0.71675 -0.84148,1.16982 0,1.2e-4 4.04324,0 4.04324,0 0.007,-0.0721 0.0205,-0.16004 0.0205,-0.22568 0,-0.37441 -0.0665,-0.66504 -0.18472,-0.86207 -0.28894,-0.47281 -0.7175,-0.69781 -1.35459,-0.69781 -0.0382,0 -0.0854,-0.002 -0.12313,0 z m 10.69306,0 c -0.56574,0.0239 -1.07953,0.22785 -1.55983,0.61574 -0.38091,0.30216 -0.6313,0.71675 -0.84148,1.16982 0,1.2e-4 4.04326,0 4.04326,0 0.007,-0.0721 0.0206,-0.16004 0.0206,-0.22568 0,-0.37441 -0.0599,-0.66504 -0.1847,-0.86207 -0.0574,-0.096 -0.13504,-0.19154 -0.20524,-0.26677 -0.27431,-0.28332 -0.65169,-0.43104 -1.14939,-0.43104 -0.0382,0 -0.0854,-0.002 -0.12317,0 z m 82.71244,0 c -0.58183,0.0179 -1.12519,0.21495 -1.62152,0.61574 -0.3743,0.30216 -0.63126,0.71675 -0.84141,1.16982 0,1.2e-4 4.0227,0 4.0227,0 0.007,-0.0721 0.0206,-0.16004 0.0206,-0.22568 0,-0.37441 -0.0599,-0.66504 -0.1847,-0.86207 -0.28241,-0.46631 -0.71756,-0.69119 -1.35464,-0.69781 -0.0188,2.3e-4 -0.0223,-5.7e-4 -0.041,0 z m -53.77333,0.0411 c -0.54291,0.0644 -1.0478,0.3122 -1.51879,0.73879 -0.56482,0.51231 -0.97451,1.31685 -1.21092,2.38085 -0.0985,0.44656 -0.14371,0.8284 -0.14371,1.16983 0,0.46631 0.0895,0.8325 0.26688,1.10829 0.0471,0.0709 0.10982,0.14566 0.16415,0.20525 0.292,0.31003 0.69964,0.47213 1.21092,0.47213 0.66334,0 1.24791,-0.24714 1.80611,-0.75945 0.56482,-0.51882 0.96789,-1.33158 1.21092,-2.42184 0.22328,-0.99825 0.19211,-1.74366 -0.12317,-2.21659 -0.30205,-0.45969 -0.74381,-0.67726 -1.35453,-0.67726 -0.10364,0 -0.20729,-0.012 -0.30786,0 z m 37.08713,3.59166 c -0.5582,0.15114 -1.18387,0.2783 -2.01135,0.39006 -0.61733,0.0919 -1.05739,0.1888 -1.31354,0.28731 -0.22328,0.0919 -0.40307,0.21918 -0.55421,0.38995 -0.1444,0.16415 -0.24131,0.33651 -0.28732,0.53365 -0.0131,0.0788 -0.0205,0.16004 -0.0205,0.22568 0,0.005 -1.2e-4,0.0153 0,0.0205 6.8e-4,0.0156 -0.002,0.0465 0,0.0616 0.004,0.0297 0.0124,0.0748 0.0205,0.10251 0.003,0.009 0.0171,0.0322 0.0205,0.0411 0.007,0.0177 0.0116,0.0448 0.0206,0.0616 0.009,0.0166 0.03,0.0455 0.041,0.0615 0.0172,0.0236 0.0406,0.0599 0.0616,0.0821 0.16415,0.1839 0.49176,0.26677 0.96458,0.26677 0.51893,0 1.018,-0.0985 1.4778,-0.3283 0.45319,-0.22339 0.81847,-0.55672 1.08775,-0.94415 0.19703,-0.27579 0.35467,-0.70032 0.49257,-1.25201 z m -125.364659,-16.45612 55.082599,-56.87199 8.99518,0 -13.2998,56.87199 -7.398629,0 3.776339,-16.37106 -23.091518,0 -15.692032,16.37106 -8.372139,0 m 29.675679,-22.22896 18.88598,0 3.48449,-14.27618 c 1.40629,-5.66388 2.75996,-10.38381 4.06102,-14.1598 -2.60007,3.25873 -6.04001,7.1252 -10.31982,11.59939 L 86.12566,729.8159" />
      <path
         id="path2"
         style="fill:none;stroke:#663366;stroke-width:3.28386545;stroke-linecap:butt;stroke-linejoin:miter;stroke-miterlimit:4;"
         d="m 242.27371,772.00406 c 0.26666,0.68537 0.5332,1.3697 0.81093,2.03897 0.42773,0.90933 0.922,1.77974 1.51639,2.59227 3.21051,4.36413 8.58716,6.75366 15.41353,7.34862 0,0 7.34302,0 7.34302,0 2.32173,-0.18116 4.75464,-0.51882 7.27636,-1.01207 4.34906,-0.85043 8.95929,-2.15678 13.74726,-3.90261 3.62705,-1.32245 7.3541,-2.88712 11.13662,-4.70567 8.23729,-3.94873 16.74671,-9.04148 25.09506,-15.18751 2.74946,-2.02242 5.38772,-4.09758 7.92063,-6.20767 2.32173,-1.93179 4.54905,-3.89371 6.67649,-5.8772 5.93759,-5.72219 10.42009,-11.53376 12.95848,-16.63667 2.64386,-5.31398 3.17158,-9.85744 1.00533,-12.71967 -1.32747,-1.7569 -3.54931,-2.69843 -6.40983,-2.91999 12.88633,-9.6692 20.3959,-21.3985 17.70204,-28.79369 -0.85545,-2.36008 -2.73838,-4.12086 -5.43784,-5.09458 -1.19973,-0.43149 -2.54946,-0.70488 -4.02144,-0.82931 0,0 -3.96585,0 -3.96585,0 -5.53772,0.39942 -13.59076,2.38234 -20.42273,5.73052" />
    </g>
    <g
       id="g3"
       style="fill:#663366"
       transform="matrix(1.705222,0,0,1.705222,858.2003,2786.4508)">
      <path
         id="path3"
         transform="translate(-451.3678,-427.5077)"
         d="m 0,36 c 0,0 7.46,0 7.46,0 0,0 3.35,-14 3.35,-14 0,0 12.12,0 12.12,0 0,0 1.56,-6 1.56,-6 0,0 -12.17,0 -12.17,0 0,0 2.02,-9 2.02,-9 0,0 12.95,0 12.95,0 0,0 1.56,-7 1.56,-7 C 28.85,0 8.4,0 8.4,0 8.4,0 0,36 0,36 z" />
      <path
         id="path4"
         transform="translate(-425.4178,-417.5077)"
         d="m 7.51,26 c 0,0 2.24,-9.4 2.24,-9.4 1.18,-5.09 3.67,-9.6 8.38,-9.6 0.42,0 0.83,0.21 1.14,0.26 0,0 1.82,-7.21 1.82,-7.21 -0.42,0 -0.88,-0.05 -1.4,-0.05 -3.47,0 -6.38,2.44 -8.32,5.94 0,0 -0.2,0 -0.2,0 C 11.46,4.23 11.71,2.61 11.9,1 11.9,1 5.47,1 5.47,1 5.1,3.08 4.53,7.15 3.66,10.82 3.66,10.82 0,26 0,26 c 0,0 7.51,0 7.51,0 z" />
      <path
         id="path5"
         transform="translate(-404.7878,-417.5077)"
         d="M 20.06,19.25 C 17.99,20.26 15.63,20 12.88,20 10.71,20 9.03,19.62 8.11,18.88 7.63,18.07 7.43,16.81 7.47,16 17.6,16.27 23.99,13.93 24.31,7.53 24.55,2.7 21.02,0 15.89,0 6.73,0 0.73,8.08 0.34,15.86 0,22.65 3.52,26 10.78,26 c 2.79,0 6.49,-0.32 9.52,-1.23 0,0 -0.24,-5.52 -0.24,-5.52 z M 17.32,7.53 C 17.2,9.91 14.26,10.05 8.47,10 9.1,7.91 11.22,6 14.69,6 c 1.71,0 2.69,0.65 2.63,1.53 z" />
      <path
         id="path6"
         transform="translate(-378.2678,-417.5077)"
         d="M 20.05,19.25 C 17.98,20.26 15.62,20 12.88,20 10.7,20 9.03,19.62 8.11,18.88 7.63,18.07 7.42,16.81 7.46,16 17.6,16.27 23.98,13.93 24.31,7.53 24.55,2.7 21.02,0 15.89,0 6.72,0 0.72,8.08 0.33,15.86 0,22.65 3.52,26 10.77,26 c 2.8,0 6.5,-0.32 9.53,-1.23 0,0 -0.25,-5.52 -0.25,-5.52 z M 17.32,7.53 C 17.2,9.91 14.26,10.05 8.46,10 9.1,7.91 11.21,6 14.68,6 c 1.71,0 2.7,0.65 2.64,1.53 z" />
      <path
         id="path7"
         transform="translate(-342.3578,-417.5077)"
         d="M 22.74,26 C 22.8,22.83 23.56,17.85 24.35,14.58 24.35,14.58 27.56,1 27.56,1 25.52,0.31 22.34,0 19.28,0 6.86,0 0.7,9.2 0.27,17.82 0,23.23 2.93,26 7.49,26 c 2.95,0 6.28,-1.43 8.87,-5.73 0,0 0.11,0 0.11,0 -0.2,2.07 -0.44,4.08 -0.57,5.73 0,0 6.84,0 6.84,0 z M 17.61,11.72 C 16.15,18.08 13.17,20 10.95,20 8.88,20 7.98,18.53 8.1,16.39 8.34,11.56 12.16,6 16.98,6 c 0.78,0 1.39,-0.14 1.96,-0.28 0,0 -1.33,6 -1.33,6 z" />
      <path
         id="path8"
         transform="translate(-314.7278,-417.5077)"
         d="m 0,24.82 c 1.44,1.12 4.46,1.13 7.61,1.18 6.73,0.05 11.81,-2.89 12.11,-8.29 0.17,-3.6 -2.62,-5.73 -5.35,-7.16 C 12.4,9.6 11.41,8.69 11.46,7.63 11.53,6.2 12.87,6 14.84,6 c 2.22,0 4,0.27 5.02,0.47 0,0 2.02,-5.42 2.02,-5.42 C 20.73,0.36 18.43,0 15.48,0 8.95,0 4.17,3.45 3.9,8.69 c -0.16,3.24 2.17,5.42 4.99,6.9 2.28,1.17 3.06,2.07 3,3.34 C 11.82,20.21 10.68,20 8.61,20 6.18,20 3.49,19.68 2.07,19.46 2.07,19.46 0,24.82 0,24.82 z" />
      <path
         id="path9"
         transform="translate(-282.2778,-428.5077)"
         d="m 7.45,37 c 0,0 6.05,-25 6.05,-25 0,0 -7.41,0 -7.41,0 0,0 -6.09,25 -6.09,25 0,0 7.45,0 7.45,0 z M 10.92,9 C 13.46,9 15.72,6.9 15.86,3.3 15.98,0.86 14.4,0 12.07,0 9.64,0 7.42,1.58 7.29,3.94 7.17,6.32 8.75,9 10.92,9 z" />
      <path
         id="path10"
         transform="translate(-267.9878,-416.8177)"
         d="m 7.46,25.31 c 0,0 2.64,-11.26 2.64,-11.26 1.37,-5.73 4.32,-7.74 6.75,-7.74 1.92,0 2.48,0.82 2.39,2.01 -0.05,0.96 -0.2,1.97 -0.4,2.87 0,0 -3.36,14.12 -3.36,14.12 0,0 7.46,0 7.46,0 0,0 3.54,-14.81 3.54,-14.81 C 26.75,9.22 27.05,7.31 27.11,6.15 27.33,1.64 25.08,0 20.94,0 c -3.32,0 -6.55,1.54 -9.1,4.88 0,0 -0.1,0 -0.1,0 0,0 0.68,-4.57 0.68,-4.57 0,0 -6.58,0 -6.58,0 C 5.41,2.45 4.86,5.04 4.08,8.06 4.08,8.06 0,25.31 0,25.31 c 0,0 7.46,0 7.46,0 z" />
      <path
         id="path11"
         transform="translate(-228.4278,-427.5077)"
         d="m 0,36 c 0,0 7.46,0 7.46,0 0,0 3.36,-14 3.36,-14 0,0 12.11,0 12.11,0 0,0 1.56,-6 1.56,-6 0,0 -12.17,0 -12.17,0 0,0 2.02,-9 2.02,-9 0,0 12.95,0 12.95,0 0,0 1.56,-7 1.56,-7 C 28.85,0 8.4,0 8.4,0 8.4,0 0,36 0,36 z" />
      <path
         id="path12"
         transform="translate(-202.4778,-417.5077)"
         d="m 7.51,26 c 0,0 2.24,-9.4 2.24,-9.4 1.18,-5.09 3.67,-9.6 8.38,-9.6 0.42,0 0.83,0.21 1.14,0.26 0,0 1.82,-7.21 1.82,-7.21 -0.42,0 -0.88,-0.05 -1.4,-0.05 -3.47,0 -6.38,2.44 -8.32,5.94 0,0 -0.2,0 -0.2,0 C 11.46,4.23 11.71,2.61 11.9,1 11.9,1 5.47,1 5.47,1 5.11,3.08 4.53,7.15 3.66,10.82 3.66,10.82 0,26 0,26 c 0,0 7.51,0 7.51,0 z" />
      <path
         id="path13"
         transform="translate(-181.8478,-417.5077)"
         d="M 20.06,19.25 C 17.99,20.26 15.63,20 12.88,20 10.71,20 9.03,19.62 8.11,18.88 7.63,18.07 7.43,16.81 7.47,16 17.6,16.27 23.99,13.93 24.31,7.53 24.55,2.7 21.02,0 15.89,0 6.73,0 0.73,8.08 0.34,15.86 0,22.65 3.53,26 10.78,26 c 2.79,0 6.5,-0.32 9.52,-1.23 0,0 -0.24,-5.52 -0.24,-5.52 z M 17.32,7.53 C 17.2,9.91 14.26,10.05 8.47,10 9.1,7.91 11.22,6 14.69,6 c 1.71,0 2.69,0.65 2.63,1.53 z" />
      <path
         id="path14"
         transform="translate(-155.3278,-417.5077)"
         d="M 20.05,19.25 C 17.98,20.26 15.62,20 12.88,20 10.7,20 9.03,19.62 8.11,18.88 7.63,18.07 7.42,16.81 7.46,16 17.6,16.27 23.98,13.93 24.31,7.53 24.55,2.7 21.02,0 15.89,0 6.72,0 0.72,8.08 0.33,15.86 0,22.65 3.52,26 10.77,26 c 2.8,0 6.5,-0.32 9.53,-1.23 0,0 -0.25,-5.52 -0.25,-5.52 z M 17.32,7.53 C 17.2,9.91 14.26,10.05 8.46,10 9.1,7.91 11.21,6 14.68,6 c 1.71,0 2.7,0.65 2.64,1.53 z" />
      <path
         id="path15"
         transform="translate(-128.9478,-428.5077)"
         d="M 23.31,0 C 23.31,0 20.5,11.36 20.5,11.36 19.48,10.94 18.15,11 17.11,11 7.53,11 0.75,19.2 0.3,28.08 0,34.34 3.34,37 7.64,37 c 3.01,0 6.18,-1.33 8.58,-4.77 0,0 0.1,0 0.1,0 0,0 -0.57,4.77 -0.57,4.77 0,0 6.78,0 6.78,0 0.31,-3 0.96,-6.57 1.69,-9.83 0,0 6.49,-27.17 6.49,-27.17 0,0 -7.4,0 -7.4,0 z M 17.47,24.42 C 16.3,29.35 13.54,31 11.36,31 9.19,31 7.98,29.49 8.13,26.8 8.38,21.82 11.8,17 16.25,17 c 1.25,0 2.32,0.19 2.91,0.47 0,0 -1.69,6.95 -1.69,6.95 z" />
      <path
         id="path16"
         transform="translate(-99.2378,-417.5077)"
         d="M 10.61,26 C 19.31,26 26.02,19.41 26.49,10.44 26.78,4.5 23.08,0 16.25,0 7.23,0 0.76,7.3 0.31,16.12 0,22.54 4.14,26 10.61,26 z m 1.17,-6 C 9.24,20 7.84,18.38 7.99,15.96 8.19,11.93 10.68,6 14.97,6 c 2.96,0 3.87,2.27 3.75,4.5 -0.22,4.4 -2.9,9.5 -6.94,9.5 z" />
      <path
         id="path17"
         transform="translate(-70.6778,-417.5077)"
         d="M 7.2,26 C 7.2,26 9.9,14.58 9.9,14.58 11.03,9.49 13.85,6 16.38,6 c 1.82,0 2.32,1.33 2.23,3.07 -0.05,0.9 -0.25,1.91 -0.46,2.91 0,0 -3.34,14.02 -3.34,14.02 0,0 7.2,0 7.2,0 0,0 2.7,-11.47 2.7,-11.47 C 25.95,9.28 28.61,6 31.09,6 c 1.71,0 2.42,1.22 2.34,2.96 -0.05,1.01 -0.26,2.12 -0.52,3.13 0,0 -3.24,13.91 -3.24,13.91 0,0 7.25,0 7.25,0 0,0 3.49,-14.81 3.49,-14.81 0.27,-1.33 0.58,-3.4 0.63,-4.46 C 41.26,2.33 39.11,0 35.23,0 31.91,0 28.68,1.5 26.23,4.66 26.14,2.38 24.51,0 20.47,0 17.2,0 14.08,1.48 11.58,4.83 c 0,0 -0.1,0 -0.1,0 0,0 0.67,-3.83 0.67,-3.83 0,0 -6.42,0 -6.42,0 C 5.31,3.14 4.8,5.73 4.02,8.75 4.02,8.75 0,26 0,26 c 0,0 7.2,0 7.2,0 z" />
    </g>
  </g>
  <path
     style="fill:#cccccc;stroke-width:0.755906"
     d="m 584.31496,278.81738 c -10.61945,-1.59492 -18.17264,-3.70289 -24.35283,-6.79644 l -3.56541,-1.78472 H 285.66925 c -257.460528,0 -270.710898,-0.0648 -270.389403,-1.32283 0.185934,-0.72756 13.559951,-59.06457 29.720037,-129.6378 L 74.381861,10.96063 425.91534,10.95513 777.44882,10.94963 786.14173,8.0097628 C 797.00334,4.336466 810.06531,1.3814424 820.45538,0.24695048 848.21155,-2.7837344 865.35141,9.4443727 863.79795,31.168785 862.69047,46.655059 852.92719,63.190192 833.67541,82.184338 l -10.51404,10.373306 2.84455,1.462972 c 9.62668,4.951174 13.06666,16.809734 8.99445,31.006264 -7.33206,25.56069 -32.93519,55.14343 -75.00378,86.66172 -56.23083,42.12885 -119.34223,68.02045 -164.57074,67.51555 -5.07162,-0.0566 -10.07152,-0.23067 -11.11089,-0.38677 z m 34.32267,-10.83674 c 41.68133,-7.12577 90.65858,-30.15069 135.48051,-63.69135 34.03014,-25.46506 55.50255,-47.80217 66.67528,-69.36016 7.83557,-15.11897 8.84281,-24.24668 3.34685,-30.33004 -3.16316,-3.50122 -7.27037,-4.849572 -17.02216,-5.588175 -3.6378,-0.275527 -6.61342,-0.725541 -6.61251,-1.000032 0,-0.274492 3.82768,-3.389934 8.50394,-6.923211 11.13872,-8.416168 25.07149,-21.986679 31.96573,-31.134704 8.2628,-10.963878 13.95386,-23.709171 13.95386,-31.250176 0,-4.473849 -2.1154,-9.727767 -5.07945,-12.615682 C 844.88035,11.245437 840.79763,9.9129812 829.93686,9.5882306 815.7219,9.1631879 801.10798,12.207232 783.4148,19.278685 745.12173,34.583277 711.72077,61.334553 696.11676,89.19685 l -2.54003,4.535433 2.25101,-1.47493 c 23.59602,-15.460898 45.35003,-26.285603 63.8573,-31.775122 6.28843,-1.865237 17.123,-2.358344 20.51565,-0.933712 8.85022,3.716387 2.7933,18.330536 -15.4724,37.331861 -10.22025,10.63185 -20.97907,19.78674 -31.12199,26.48232 -10.11493,6.6771 -26.2348,18.7782 -31.37008,23.54934 l -4.15748,3.86268 9.92984,-4.06825 c 12.33363,-5.05309 25.32534,-9.4466 36.1804,-12.23541 6.84531,-1.75865 9.94107,-2.14076 17.51514,-2.16191 8.18504,-0.0228 9.43614,0.14937 11.3386,1.56086 4.79463,3.55729 2.53092,10.01618 -6.8525,19.55216 -15.72191,15.97748 -50.93954,37.44406 -81.2597,49.5311 -38.66096,15.41209 -71.99475,19.0365 -90.10522,9.79723 -5.16335,-2.63414 -10.82019,-8.51644 -13.25112,-13.77926 -2.02771,-4.38985 -2.16833,-5.30847 -2.10852,-13.77439 0.0547,-7.73364 0.37136,-10.01807 2.14847,-15.49606 12.84653,-39.59992 61.55781,-89.342871 122.1339,-124.720619 5.19685,-3.035072 15.91181,-8.698449 23.81103,-12.58528 7.89921,-3.886831 14.10881,-7.068111 13.7991,-7.069511 -1.58345,-0.0072 -19.56985,7.74478 -30.66475,13.216159 -28.69511,14.150812 -55.30666,31.654082 -81.02412,53.292152 -11.71709,9.858489 -34.8394,32.722399 -43.20026,42.717489 -43.00895,51.41559 -55.29961,97.79488 -32.06113,120.98393 6.47808,6.46429 14.21599,10.42587 24.99367,12.79601 7.39067,1.62529 28.79755,1.43408 39.23606,-0.35048 z m -484.50004,-30.24836 1.56629,-7.1811 7.65713,-0.21452 c 7.17981,-0.20115 7.68513,-0.31895 8.10624,-1.88976 0.94224,-3.51464 0.84322,-3.56501 -7.008,-3.56501 h -7.47776 l 0.88003,-3.9685 0.88003,-3.96851 8.78337,-0.21226 c 8.34798,-0.20172 8.80566,-0.2954 9.23308,-1.88976 0.98489,-3.67387 1.1618,-3.61922 -11.00053,-3.39798 l -11.47088,0.20866 -3.62559,16.25197 c -1.99408,8.93858 -3.63533,16.52762 -3.64723,16.86453 -0.0119,0.33691 1.23367,0.50699 2.76794,0.37796 l 2.78958,-0.23461 z m 23.4416,6.61418 c 0.16687,-0.51969 1.03349,-4.25697 1.92584,-8.30507 1.94351,-8.81669 3.2001,-10.69841 7.0477,-10.55377 2.31764,0.0871 2.93301,-0.23992 3.87353,-2.05869 1.08497,-2.0981 1.0532,-2.18917 -1.07077,-3.06895 -1.31398,-0.54427 -2.89103,-0.66446 -3.94543,-0.3007 -0.96609,0.33329 -3.12733,0.50994 -4.80276,0.39257 l -3.04624,-0.2134 -1.32364,6.29022 c -0.728,3.45963 -1.95655,9.09653 -2.73012,12.52645 l -1.40649,6.23622 h 2.5875 c 1.42311,0 2.72402,-0.4252 2.89088,-0.94488 z m 28.62212,-0.0862 c 2.39792,-1.00191 6.5546,-5.17848 6.5546,-6.58598 0,-1.47032 -4.74562,-0.65544 -6.94101,1.19186 -4.06441,3.41998 -9.68892,1.80043 -9.68892,-2.78987 0,-1.16839 1.01534,-1.34404 8.85921,-1.53259 l 8.85921,-0.21297 0.62306,-3.15681 c 0.81498,-4.12916 -0.77785,-8.01283 -4.12276,-10.05216 -6.24635,-3.80829 -14.84389,0.4395 -18.03004,8.90812 -3.34508,8.89102 -0.16138,15.26148 7.62706,15.26148 2.08553,0 4.90235,-0.46398 6.25959,-1.03108 z m 28.21531,-0.20916 c 2.32108,-1.10142 6.30779,-5.25963 6.30779,-6.57914 0,-1.30591 -4.90238,-0.32121 -6.941,1.39418 -3.91612,3.2952 -9.68892,1.87425 -9.68892,-2.38487 0,-1.75661 0.0783,-1.77261 8.67851,-1.77261 h 8.67851 l 0.48559,-1.93475 c 0.75223,-2.99712 -0.13198,-8.54793 -1.62431,-10.19694 -3.69993,-4.08838 -10.91292,-3.53211 -16.20594,1.24982 -6.34325,5.73075 -7.15598,17.24209 -1.44097,20.40967 2.5141,1.39346 8.62682,1.29704 11.75074,-0.18536 z m 46.78001,-0.18061 c 7.78006,-3.53399 10.35233,-12.58057 4.64114,-16.32269 -1.0019,-0.65646 -4.33392,-1.88706 -7.4045,-2.73464 -3.07059,-0.84759 -5.88112,-1.83427 -6.24564,-2.19264 -1.37679,-1.35352 0.29911,-4.6249 2.9331,-5.72545 5.18149,-2.16496 10.2021,-0.60893 10.2021,3.16193 0,1.72469 0.25139,1.87173 2.83465,1.65793 3.35203,-0.27744 4.02445,-2.14132 2.10888,-5.84563 -1.83517,-3.54884 -4.43408,-4.85759 -9.74113,-4.90544 -7.95906,-0.0718 -14.10003,4.80996 -14.10003,11.2087 0,3.6238 2.29703,5.76221 8.06753,7.5104 8.03367,2.43384 8.56239,2.74645 8.56239,5.06254 0,3.20306 -3.07288,5.2545 -7.87075,5.2545 -4.84227,0 -7.24736,-1.51935 -7.24736,-4.57829 0,-2.09173 -0.18093,-2.22486 -3.02362,-2.22486 -2.90962,0 -3.0232,0.0926 -3.01248,2.45669 0.0153,3.36628 1.42625,5.87115 4.45811,7.91432 3.2737,2.20615 10.33017,2.35007 14.83761,0.30263 z m 30.11582,-0.88999 c 3.98051,-2.7246 6.7139,-8.23592 6.81219,-13.73543 0.0739,-4.13394 -0.10755,-4.64881 -2.34318,-6.64924 -3.23549,-2.8951 -6.94236,-3.53112 -11.17005,-1.91656 -6.28862,2.40165 -10.21771,8.60401 -10.21771,16.1294 0,2.81555 0.41935,3.76186 2.6599,6.00241 2.54886,2.54886 2.84572,2.64647 7.11045,2.33798 3.09108,-0.22359 5.27463,-0.88599 7.1484,-2.16856 z m 18.31072,-7.70491 2.20912,-10.01575 2.44606,-0.23687 c 1.43732,-0.13918 2.44606,-0.65922 2.44606,-1.26101 0,-0.56328 0.20647,-1.5622 0.45883,-2.21982 0.35771,-0.9322 -0.0587,-1.19568 -1.88977,-1.19568 -2.6461,0 -2.61662,0.0475 -1.61139,-2.59646 0.59339,-1.56074 1.2425,-1.93898 3.32762,-1.93898 2.17895,0 2.71186,-0.3483 3.3548,-2.19266 0.73395,-2.1054 0.66515,-2.20424 -1.72902,-2.48375 -5.38094,-0.62819 -8.98781,1.58981 -10.25835,6.30826 -0.638,2.36934 -1.12421,2.90359 -2.64248,2.90359 -1.02335,0 -1.86528,0.25511 -1.87095,0.56693 -0.006,0.31181 -0.21544,1.33228 -0.46612,2.26771 -0.36759,1.37165 -0.14617,1.70079 1.14418,1.70079 2.00965,0 2.00174,0.28473 -0.28979,10.43608 -1.03937,4.60435 -1.88977,8.73196 -1.88977,9.17246 0,0.4405 1.13667,0.80091 2.52592,0.80091 h 2.52592 z m 17.68392,7.37008 c 0,-2.33663 -0.2267,-2.64567 -1.94071,-2.64567 -1.48571,0 -1.8537,-0.31013 -1.56963,-1.32283 0.20409,-0.72756 0.95652,-4.12914 1.6721,-7.55906 1.26243,-6.05123 1.36505,-6.23622 3.45939,-6.23622 1.3593,0 2.15837,-0.39689 2.15837,-1.07203 0,-0.58962 0.20647,-1.6101 0.45883,-2.26772 0.34897,-0.9094 -0.0326,-1.19568 -1.59376,-1.19568 -1.74092,0 -1.993,-0.25825 -1.66022,-1.70079 1.06992,-4.63784 1.36607,-6.61417 0.99109,-6.61417 -0.2268,0 -1.59351,0.56324 -3.03714,1.25166 -2.11636,1.00923 -2.7184,1.80583 -3.10812,4.11263 -0.36713,2.17296 -0.8782,2.91718 -2.12529,3.09478 -2.02257,0.28805 -2.89738,4.39132 -0.93622,4.39132 1.49638,0 1.49067,0.13834 -0.32775,7.93701 -0.83149,3.56606 -1.51181,7.29666 -1.51181,8.29024 0,2.76507 1.93932,4.1822 5.72329,4.1822 3.32187,0 3.34758,-0.0203 3.34758,-2.64567 z m 17.56791,-5.10236 3.97539,-7.74803 0.21542,7.74803 0.21543,7.74803 h 2.56875 c 2.53991,0 2.64142,-0.13422 9.04441,-11.95825 3.56163,-6.57702 6.47568,-12.21117 6.47568,-12.52032 0,-0.30916 -1.10551,-0.45551 -2.45669,-0.32523 -2.25334,0.21726 -2.74,0.78297 -5.87931,6.83428 -5.06585,9.76491 -5.2703,9.79342 -5.2703,0.73487 v -7.71023 H 351.125 c -2.58538,0 -2.71885,0.15676 -6.59659,7.74803 -3.01158,5.89562 -3.99828,7.29622 -4.12708,5.85827 -0.0931,-1.03937 -0.38515,-4.52599 -0.64901,-7.74804 l -0.47973,-5.85826 h -2.68544 -2.68544 l 0.46866,5.48031 c 0.25777,3.01417 0.69365,8.62677 0.96864,12.47244 l 0.49995,6.99213 h 2.53032 c 2.44669,0 2.66172,-0.25609 6.50572,-7.74803 z m 35.34547,6.61417 c 2.43451,-1.39169 3.02362,-1.39169 3.02362,0 0,0.7919 0.79791,1.13386 2.64567,1.13386 2.62619,0 2.64567,-0.0247 2.64567,-3.35467 0,-1.84507 0.52116,-5.60187 1.15814,-8.34845 2.28198,-9.83973 1.39296,-12.67787 -4.27097,-13.63479 -4.68679,-0.79182 -10.07866,0.85487 -12.74585,3.89262 -1.25568,1.43014 -2.28305,2.92857 -2.28305,3.32986 0,1.18636 5.28745,0.86339 5.75362,-0.35143 0.58851,-1.53365 4.49598,-2.72732 7.17432,-2.19165 1.90379,0.38076 2.23374,0.76857 2.04151,2.39949 -0.21154,1.79466 -0.70211,2.03676 -6.3338,3.12578 -7.14797,1.38224 -9.8675,2.93999 -11.35726,6.50548 -1.29168,3.09144 -0.72957,5.97485 1.46437,7.51154 2.02682,1.41964 8.58802,1.4092 11.08401,-0.0176 z m 21.19626,-6.23622 c 0.91675,-4.05354 2.13874,-8.29543 2.71554,-9.42641 1.3667,-2.67981 3.62459,-3.89742 5.43275,-2.92971 1.1187,0.59871 1.62901,0.3082 2.72867,-1.5534 1.69333,-2.86656 0.80649,-3.95567 -3.1401,-3.85629 -1.5699,0.0395 -4.30005,0.083 -6.06698,0.0966 -1.76692,0.0136 -3.21259,0.24046 -3.21259,0.50413 0,0.26367 -1.19056,5.71543 -2.64567,12.11501 -1.45512,6.39958 -2.64567,11.81212 -2.64567,12.02787 0,0.21574 1.16263,0.39226 2.58361,0.39226 h 2.58362 z m 28.24914,5.55021 c 1.69952,-1.00094 3.70454,-2.8718 4.45561,-4.15748 l 1.36557,-2.33761 H 432.833 c -1.82311,0 -3.2457,0.59165 -4.54381,1.88976 -3.48509,3.48509 -9.51754,2.01353 -9.51754,-2.32171 v -1.83577 h 8.60476 c 9.60937,0 9.50651,0.0653 9.52383,-6.04724 0.0321,-11.34309 -15.88417,-11.80183 -21.45709,-0.61845 -3.43139,6.88591 -2.50642,13.78573 2.19465,16.371 2.73586,1.50454 8.66153,1.04021 12.02807,-0.9425 z m 106.89318,-36.54234 c 2.30965,-12.18907 10.96703,-32.11064 20.57271,-47.33995 l 4.70904,-7.46595 -4.22654,-13.32146 C 544.24622,96.667578 536.15709,53.03986 535.8801,21.581182 l -0.0569,-6.463072 -2.24555,6.425197 c -4.67623,13.38007 -9.06582,34.186463 -11.4025,54.047244 -1.32808,11.288058 -1.31452,57.418629 0.0205,69.543309 1.28026,11.6278 3.59941,27.79616 5.09601,35.52756 1.93422,9.99218 7.24305,31.37008 7.79021,31.37008 0.28074,0 0.9455,-2.29607 1.47725,-5.10237 z m -235.3307,-17.95275 c 2.63353,-1.31677 5.19187,-3.26055 6.10083,-4.63531 1.06939,-1.61738 3.65956,-11.91661 8.17448,-32.50393 3.63498,-16.57499 6.78025,-30.73163 6.98947,-31.45919 0.35655,-1.23987 -1.11131,-1.32283 -23.40617,-1.32283 h -23.78657 l -0.89729,3.9685 c -0.49353,2.18268 -1.06061,4.56378 -1.2602,5.29134 -0.33532,1.22235 0.61716,1.32284 12.53844,1.32284 9.81347,0 12.90299,0.22615 12.90821,0.94488 0.004,0.51968 -2.44338,12.08504 -5.43814,25.70078 l -5.445,24.75591 h -28.28782 c -26.73814,0 -28.26857,-0.0736 -27.93637,-1.34398 0.1933,-0.73918 6.42339,-28.80217 13.84463,-62.3622 l 13.49318,-61.018229 h 28.19628 c 15.50796,0 28.19629,0.112291 28.19629,0.249536 0,0.137245 -1.64932,7.62071 -3.66515,16.629921 l -3.66514,16.380385 h 10.72436 10.72436 l 3.99779,-18.02671 c 4.62167,-20.839886 4.61343,-20.94825 -1.84408,-24.263647 l -3.75934,-1.930115 h -37.81546 c -35.31194,0 -38.06567,0.09502 -41.59498,1.435237 -4.95706,1.882395 -7.70309,3.856789 -9.08748,6.533895 -1.1959,2.312608 -29.10265,127.331617 -29.06171,130.193067 0.0401,2.80236 2.71273,5.3657 7.33888,7.03879 2.27915,0.82427 10.39987,0.99421 41.01504,0.85827 l 38.17322,-0.1695 z m 50.21256,-26.60237 6.39731,-28.8701 32.56546,-0.23227 32.56546,-0.23227 5.26657,-2.64567 c 3.48338,-1.74988 5.69616,-3.41349 6.53531,-4.91339 0.6978,-1.24724 4.72888,-17.89475 8.95795,-36.994464 7.35191,-33.203394 7.63888,-34.832313 6.54177,-37.132983 -0.75538,-1.584049 -2.39401,-3.019946 -4.79571,-4.202378 l -3.64826,-1.796154 H 399.1342 356.44163 l -16.033,72.188979 c -8.81814,39.70393 -16.05373,72.62377 -16.07908,73.15519 -0.0358,0.74936 2.28352,0.91901 10.33398,0.7559 l 10.38006,-0.21031 z m 159.32333,28.23268 c -0.21429,-0.55844 -0.63004,-2.93954 -0.92387,-5.29134 l -0.53425,-4.27598 h -25.99164 c -20.29172,0 -25.99069,-0.20721 -25.98727,-0.94488 0.002,-0.51969 6.63548,-30.86643 14.74016,-67.4372 8.10468,-36.570782 14.73578,-66.769359 14.73578,-67.107952 0,-0.338592 -4.66868,-0.520984 -10.37483,-0.405315 l -10.37483,0.210308 -16.03591,72.188979 c -8.81975,39.70393 -16.05659,72.61417 -16.08186,73.13386 -0.0362,0.74418 8.15988,0.94488 38.5861,0.94488 32.02512,0 38.56542,-0.17365 38.24242,-1.01536 z M 95.321023,174.80315 c 8.466007,-8.83465 17.609697,-18.36513 20.319327,-21.17885 l 4.92658,-5.11585 30.30962,0.20247 30.30961,0.20247 -4.75835,20.40944 c -2.6171,11.2252 -4.77611,20.67504 -4.79781,20.99965 -0.0217,0.32461 4.09122,0.49469 9.13982,0.37795 l 9.17926,-0.21224 5.92597,-25.32284 c 21.8721,-93.463918 27.87298,-119.316366 27.87298,-120.079771 0,-0.610727 -3.30293,-0.865107 -11.23276,-0.865107 H 201.2825 l -5.53613,5.858268 c -5.70877,6.040938 -39.6874,41.214327 -60.42646,62.55118 -11.24219,11.56623 -20.51323,21.1312 -47.247568,48.74545 -6.646827,6.86559 -15.82553,16.30967 -20.397119,20.98683 l -8.31198,8.50394 H 69.645764 79.928285 Z M 744.56693,24.566929 c 0.62362,-0.403015 0.7937,-0.732755 0.37795,-0.732755 -0.41575,0 -1.26614,0.32974 -1.88976,0.732755 -0.62362,0.403016 -0.7937,0.732755 -0.37795,0.732755 0.41574,0 1.26614,-0.329739 1.88976,-0.732755 z"
     id="path226" />
  <path
     style="fill:#cccccc;stroke-width:0.755906"
     d="m 135.4296,133.49982 c 0.27556,-0.74892 3.39972,-4.08032 26.66045,-28.42895 25.27623,-26.45841 34.39893,-36.390627 39.92203,-43.464571 1.1361,-1.455118 2.06942,-2.187578 2.07403,-1.62769 0.005,0.559889 -1.36368,5.369934 -3.04063,10.68899 -1.67696,5.319056 -6.03734,21.698761 -9.68973,36.399341 l -6.6407,26.72834 -24.77045,0.19939 c -14.81889,0.11928 -24.66782,-0.0795 -24.515,-0.49485 z"
     id="path265" />
  <path
     style="fill:#cccccc;stroke-width:0.755906"
     d="m 360.5797,121.51181 c 0.0281,-1.24599 14.20197,-64.545448 14.52531,-64.868784 0.19094,-0.190943 12.57283,-0.257832 27.51531,-0.148641 l 27.16815,0.198528 -7.18294,32.692914 -7.18294,32.692913 h -27.42783 c -15.08531,0 -27.42208,-0.25512 -27.41506,-0.56693 z"
     id="path304" />
  <path
     style="fill:#cccccc;stroke-width:0.755906"
     d="m 178.3937,228.66142 c 0,-0.41575 0.67166,-1.42757 1.49258,-2.24849 3.29994,-3.29993 9.0901,-2.60026 9.0901,1.09842 0,1.85584 -0.13919,1.90597 -5.29134,1.90597 -3.02362,0 -5.29134,-0.32396 -5.29134,-0.7559 z"
     id="path417" />
  <path
     style="fill:#cccccc;stroke-width:0.755906"
     d="m 206.38011,227.87206 c 0.45484,-0.84989 2.02045,-2.11438 3.47912,-2.80997 2.38265,-1.1362 2.85816,-1.14944 4.67991,-0.13026 1.11528,0.62394 2.13649,1.88843 2.26934,2.80997 0.23129,1.60439 -0.003,1.67552 -5.50691,1.67552 -5.5557,0 -5.72073,-0.0518 -4.92146,-1.54526 z"
     id="path456" />
  <path
     style="fill:#cccccc;stroke-width:0.755906"
     d="m 280.93605,239.37355 c -1.65987,-1.83414 -1.55719,-5.80689 0.25318,-9.7957 2.84754,-6.27402 10.64457,-6.94278 11.21543,-0.96196 0.39741,4.16366 -0.51977,7.33191 -2.84227,9.81815 -2.56504,2.74589 -6.59443,3.18474 -8.62634,0.93951 z"
     id="path495" />
  <path
     style="fill:#cccccc;stroke-width:0.755906"
     d="m 372.93477,239.62205 c -1.08137,-2.81802 1.01472,-4.28594 7.47468,-5.23463 3.03687,-0.44599 3.59055,-0.33634 3.59055,0.71102 0,0.68108 -0.99431,2.23263 -2.20957,3.4479 -1.72505,1.72505 -2.89055,2.20957 -5.31506,2.20957 -2.06312,0 -3.25154,-0.38059 -3.5406,-1.13386 z"
     id="path534" />
  <path
     style="fill:#cccccc;stroke-width:0.755906"
     d="m 421.05727,227.87206 c 0.45485,-0.84989 2.02046,-2.11438 3.47912,-2.80997 2.38266,-1.1362 2.85817,-1.14944 4.67992,-0.13026 1.11528,0.62394 2.13648,1.88843 2.26933,2.80997 0.2313,1.60439 -0.003,1.67552 -5.50691,1.67552 -5.5557,0 -5.72073,-0.0518 -4.92146,-1.54526 z"
     id="path573" />
  <path
     style="fill:#cccccc;stroke-width:0.755906"
     d="M 0.01006193,357.35433 C 0.01559592,357.04252 3.1973579,343.1811 7.080644,326.55118 l 7.06052,-30.23622 17.8743,-0.20266 c 9.830865,-0.11146 17.860356,0.0586 17.843314,0.37796 -0.01704,0.31933 -0.624423,3.13179 -1.349733,6.2499 l -1.318748,5.66929 -11.059557,0.20882 -11.059558,0.20882 -1.574961,6.8404 c -0.866229,3.76222 -1.574961,6.98478 -1.574961,7.16126 0,0.17647 4.631799,0.32086 10.292886,0.32086 h 10.292887 l -0.449521,1.70078 c -0.247237,0.93544 -0.851276,3.48662 -1.342308,5.6693 l -0.892786,3.9685 H 29.410967 c -9.270744,0 -10.452,0.14493 -10.781544,1.32283 -0.20355,0.72756 -1.46942,6 -2.813043,11.71654 l -2.442951,10.3937 H 6.6867145 c -3.6776929,0 -6.68218663,-0.25512 -6.67665257,-0.56693 z"
     id="path612" />
  <path
     style="fill:#cccccc;stroke-width:0.755906"
     d="m 47.034232,345.66484 c 1.645755,-6.77078 3.754418,-16.3924 4.685918,-21.38138 l 1.693635,-9.07086 5.904414,-0.22271 5.904413,-0.2227 -0.468627,3.419 -0.468626,3.419 2.761143,-3.05625 c 3.559676,-3.94014 6.130379,-5.22611 10.447214,-5.22611 2.970781,0 3.431131,0.19682 3.094046,1.32284 -0.217804,0.72756 -0.967098,3.63762 -1.665098,6.4668 -0.96739,3.92108 -1.533556,5.04247 -2.38155,4.71707 -2.195232,-0.84239 -6.845506,1.1045 -9.291035,3.88981 -3.203399,3.64847 -4.237919,6.27024 -7.101479,17.99719 l -2.399563,9.82677 -6.853545,0.21602 -6.853543,0.21602 z"
     id="path651" />
  <path
     style="fill:#cccccc;stroke-width:0.755906"
     d="m 89.770644,356.84566 c -4.517907,-1.61246 -6.334582,-3.14669 -8.138563,-6.87321 -2.505779,-5.17625 -1.942057,-13.99772 1.343122,-21.01798 3.057481,-6.53369 8.509816,-11.9414 14.178285,-14.06225 4.928822,-1.84411 13.472952,-2.11094 17.236792,-0.53831 5.85016,2.44435 8.65752,9.58592 6.24821,15.89462 -2.36611,6.19558 -7.67048,9.10996 -18.69405,10.27106 -3.893065,0.41005 -7.503495,0.75144 -8.02318,0.75865 -1.644426,0.0228 -1.02106,2.95196 0.895459,4.20771 2.374948,1.55612 11.989621,2.28784 15.880931,1.2086 1.63962,-0.45474 3.05392,-0.75098 3.1429,-0.65831 0.089,0.0927 0.27818,2.37951 0.42045,5.08187 l 0.25869,4.91339 -4.15749,0.87199 c -5.73641,1.20316 -17.148215,1.17111 -20.591556,-0.0578 z M 106.229,328.85747 c 6.07846,-2.53974 0.8309,-6.52751 -5.45538,-4.1457 -2.269175,0.85977 -5.529526,3.58198 -5.529526,4.61685 0,1.04657 8.193576,0.69514 10.984906,-0.47115 z"
     id="path690" />
  <path
     style="fill:#cccccc;stroke-width:0.755906"
     d="m 136.0581,357.26789 c -6.57112,-2.18232 -9.56561,-5.48226 -10.54392,-11.61941 -1.85695,-11.64906 4.65385,-24.5809 15.19807,-30.18661 2.80561,-1.49157 4.40457,-1.74886 10.90337,-1.75449 7.17464,-0.006 7.77591,0.11556 10.38355,2.10287 3.68416,2.80774 4.55276,4.64189 4.54811,9.60381 -0.009,9.82879 -6.22413,14.00596 -23.11421,15.53554 -4.34405,0.3934 -5.10236,0.67522 -5.10236,1.89629 0,0.78882 0.81656,1.96925 1.81458,2.62318 2.34209,1.5346 11.20676,2.23384 15.55075,1.22663 1.85959,-0.43116 3.44784,-0.71717 3.52945,-0.63557 0.0816,0.0816 0.23782,2.34024 0.34715,5.0192 0.196,4.80233 0.16762,4.87986 -2.01763,5.51258 -3.17099,0.91813 -19.24575,1.42361 -21.49691,0.67598 z m 14.9496,-28.12386 c 2.64023,-0.92039 3.62708,-2.67566 2.3616,-4.20047 -1.91343,-2.30555 -10.15993,-0.18246 -12.36541,3.18353 l -1.19622,1.82567 h 4.44006 c 2.44203,0 5.48402,-0.36393 6.75997,-0.80873 z"
     id="path729" />
  <path
     style="fill:#cccccc;stroke-width:0.755906"
     d="m 193.13386,356.85419 c -5.61782,-2.49686 -7.76615,-8.00716 -6.44403,-16.52844 1.68905,-10.88619 8.43774,-20.12018 17.96959,-24.58713 4.12494,-1.93309 4.93906,-2.03783 15.83873,-2.03783 6.73855,0 11.80622,0.31614 12.25425,0.76448 0.51472,0.51507 -0.3225,5.41255 -2.56628,15.01193 -1.83163,7.8361 -3.74814,17.44169 -4.25891,21.34576 l -0.92868,7.0983 h -6.01019 -6.01019 l 0.34561,-4.1677 0.34562,-4.16771 -2.42959,2.65249 c -4.58287,5.00333 -12.62259,7.05294 -18.10593,4.61585 z m 16.02784,-11.47848 c 2.65552,-1.67328 5.33307,-7.00633 6.99187,-13.92618 0.84515,-3.52559 1.53901,-6.70952 1.54192,-7.0754 0.01,-1.24283 -6.64825,0.0778 -9.06374,1.7978 -5.26579,3.74957 -9.29153,12.64462 -8.01844,17.71705 0.84249,3.35675 4.55575,4.00256 8.54839,1.48673 z"
     id="path768" />
  <path
     style="fill:#cccccc;stroke-width:0.755906"
     d="m 235.23486,357.10398 c -2.73069,-0.82975 -2.72472,-0.61792 -0.20083,-7.11973 0.80693,-2.07874 1.74414,-3.73044 2.0827,-3.67045 3.82744,0.67825 14.45637,0.92062 15.31273,0.34917 1.86706,-1.24587 -0.18809,-4.17522 -4.72597,-6.73623 -5.12927,-2.89478 -7.46096,-6.05013 -7.90788,-10.70129 -0.53777,-5.59671 2.66697,-10.80256 8.51935,-13.83898 5.15163,-2.67284 22.29921,-2.79274 22.29921,-0.15591 0,0.58255 -0.69809,2.925 -1.55131,5.20544 l -1.55131,4.14625 -6.21024,-0.43826 c -5.29079,-0.37338 -6.36961,-0.24622 -7.28674,0.85885 -1.50385,1.81203 -0.39734,3.28194 4.72266,6.27368 6.97879,4.07788 9.62749,9.0306 7.9963,14.95204 -1.24912,4.53445 -3.27496,6.84821 -8.04311,9.18618 -3.84897,1.88727 -5.2489,2.1403 -12.64318,2.28518 -4.57322,0.0896 -9.4388,-0.17857 -10.81238,-0.59594 z"
     id="path807" />
  <path
     style="fill:#cccccc;stroke-width:0.755906"
     d="m 288.4528,356.59843 c 2.64306,-11.23279 10.16932,-41.29929 10.39439,-41.52436 0.16558,-0.16558 3.19121,-0.20215 6.72362,-0.0813 l 6.42255,0.2198 -4.46013,18.51968 c -2.45307,10.18583 -4.80327,19.79528 -5.22267,21.35433 l -0.76253,2.83465 h -6.70325 c -5.99868,0 -6.67053,-0.13904 -6.39198,-1.32283 z"
     id="path846" />
  <path
     style="fill:#cccccc;stroke-width:0.755906"
     d="m 304.44093,309.48275 c -1.93894,-1.12932 -3.59054,-4.76187 -3.59054,-7.89706 0,-2.02204 0.57978,-3.32113 2.20957,-4.95092 1.86187,-1.86187 2.81348,-2.20957 6.04725,-2.20957 4.72261,0 6.86129,1.75913 6.86129,5.64364 0,6.99573 -6.52737,12.32626 -11.52757,9.41391 z"
     id="path885" />
  <path
     style="fill:#cccccc;stroke-width:0.755906"
     d="m 312.9456,357.00581 c 4e-4,-0.53587 2.16279,-10.15857 4.80532,-21.38376 l 4.80459,-20.40945 6.00682,-0.21715 6.00682,-0.21715 -0.31216,2.67384 c -0.33173,2.84148 0.54325,3.44102 2.16681,1.48474 2.18564,-2.63353 7.02812,-4.40982 12.11892,-4.44538 11.92404,-0.0833 13.15881,4.89499 7.30344,29.44551 l -3.24514,13.6063 -6.59972,0.2184 c -5.16874,0.17105 -6.59973,-0.005 -6.59973,-0.81 0,-0.56562 1.35856,-6.78674 3.01901,-13.8247 1.66045,-7.03797 3.02108,-13.54969 3.02362,-14.47049 0.006,-2.03323 -2.51231,-3.53026 -4.92091,-2.92574 -2.44542,0.61376 -6.22879,3.94195 -7.69444,6.76871 -0.6749,1.30166 -2.47548,7.46901 -4.0013,13.70523 l -2.77421,11.33859 -6.55423,0.2184 c -4.95828,0.16523 -6.55405,-0.0188 -6.55351,-0.7559 z"
     id="path924" />
  <path
     style="fill:#cccccc;stroke-width:0.755906"
     d="m 380.22047,357.34568 c 0,-0.31657 3.17924,-14.17799 7.06498,-30.80315 l 7.06497,-30.22757 17.89775,-0.2027 17.89776,-0.2027 -0.4002,1.71451 c -0.22011,0.94298 -0.84992,3.75546 -1.39958,6.24995 l -0.99938,4.53543 -11.08136,0.20913 c -10.75233,0.20292 -11.09285,0.25903 -11.46813,1.88976 -1.99843,8.68411 -2.63483,11.58991 -2.64437,12.07434 -0.006,0.31181 4.60798,0.56693 10.25361,0.56693 h 10.26478 l -0.53601,2.44043 c -0.2948,1.34225 -0.93161,3.80839 -1.41513,5.48032 l -0.87911,3.03988 -10.33804,0.21015 -10.33803,0.21016 -0.70778,2.81346 c -0.38928,1.54741 -1.66046,6.81032 -2.82484,11.69536 l -2.11705,8.88189 h -6.64742 c -3.65608,0 -6.64742,-0.25901 -6.64742,-0.57558 z"
     id="path963" />
  <path
     style="fill:#cccccc;stroke-width:0.755906"
     d="m 425.21507,353.60237 c 0.56697,-2.40571 2.11335,-8.79607 3.4364,-14.2008 1.32305,-5.40472 2.97687,-13.05826 3.67516,-17.00787 l 1.26962,-7.1811 5.90689,-0.22241 5.90689,-0.22241 -0.52472,3.49909 -0.52472,3.49909 2.83376,-3.13664 c 3.63211,-4.02031 6.18189,-5.30649 10.51984,-5.30649 2.97078,0 3.43113,0.19682 3.09404,1.32284 -0.2178,0.72756 -0.96467,3.62797 -1.65971,6.44536 -1.09017,4.4191 -1.45962,5.06034 -2.69042,4.6697 -3.7881,-1.20229 -10.0059,3.45588 -12.58517,9.42839 -0.64146,1.48535 -2.22963,7.12269 -3.52927,12.52742 l -2.36299,9.82677 -6.89823,0.21654 -6.89823,0.21654 z"
     id="path1002" />
  <path
     style="fill:#cccccc;stroke-width:0.755906"
     d="m 469.99112,356.84566 c -4.6274,-1.65154 -6.67575,-3.39134 -8.29045,-7.04163 -2.22064,-5.02012 -1.67121,-14.77201 1.1663,-20.7009 2.72347,-5.69062 7.03288,-10.43601 11.95099,-13.1601 3.74355,-2.07351 4.62688,-2.24224 11.73843,-2.24224 6.58741,0 7.98995,0.2235 9.78007,1.55851 3.92761,2.9291 5.18165,5.35257 5.18165,10.01372 0,9.91269 -6.27497,14.14981 -23.2189,15.67835 -4.34468,0.39195 -5.10236,0.67328 -5.10236,1.89452 0,2.64748 3.41595,4.02373 10.10496,4.07115 3.38086,0.024 7.20688,-0.1939 8.50227,-0.48415 l 2.35526,-0.52775 0.43045,4.68523 c 0.23675,2.57687 0.19736,4.92061 -0.0875,5.20831 -1.92833,1.94728 -19.84439,2.71255 -24.51113,1.04698 z m 16.45836,-27.98819 c 6.07845,-2.53974 0.83089,-6.52751 -5.45539,-4.1457 -2.26917,0.85977 -5.52952,3.58198 -5.52952,4.61685 0,1.04657 8.19358,0.69514 10.98491,-0.47115 z"
     id="path1041" />
  <path
     style="fill:#cccccc;stroke-width:0.755906"
     d="m 516.27857,357.26789 c -6.4993,-2.15847 -9.41775,-5.32427 -10.58571,-11.48291 -2.10824,-11.11671 4.29006,-24.2536 14.53008,-29.83292 3.29943,-1.79771 5.12845,-2.23246 10.47353,-2.4895 5.50525,-0.26475 6.94829,-0.0705 9.62674,1.29595 5.15582,2.63031 7.43507,7.7953 6.0872,13.7942 -1.64987,7.34305 -7.23027,10.75531 -19.67829,12.03271 -4.27255,0.43845 -7.90197,0.93088 -8.06538,1.0943 -0.16342,0.16341 -0.0857,1.13933 0.17262,2.1687 0.39322,1.56674 1.17689,2.01839 4.81132,2.77289 4.14373,0.86024 11.95619,0.62074 14.75234,-0.45224 1.17022,-0.44906 1.31352,0.0724 1.31352,4.78005 0,5.14586 -0.0544,5.29646 -2.07874,5.75705 -3.55319,0.80843 -19.36433,1.22424 -21.35923,0.56172 z m 14.9496,-28.12386 c 2.86163,-0.99757 3.76027,-2.95718 1.95983,-4.27369 -2.92909,-2.14181 -9.79797,-0.20609 -12.22166,3.44419 -1.07493,1.61892 -1.03454,1.63823 3.42709,1.63823 2.48316,0 5.55879,-0.36393 6.83474,-0.80873 z"
     id="path1080" />
  <path
     style="fill:#cccccc;stroke-width:0.755906"
     d="m 557.48031,356.85419 c -4.92343,-2.18824 -7.1811,-6.36239 -7.1811,-13.277 0,-8.54154 4.11934,-17.93672 10.21821,-23.30516 5.48872,-4.83136 9.52861,-6.40488 17.42328,-6.7863 l 6.85409,-0.33115 2.24452,-9.17571 2.24451,-9.17572 6.58644,-0.21841 c 5.16553,-0.17129 6.58643,0.004 6.58643,0.81265 0,0.56707 -2.53985,11.58049 -5.64413,24.47424 -4.79747,19.92658 -7.96217,34.78895 -7.96217,37.39274 0,0.36129 -2.76549,0.65689 -6.14555,0.65689 h -6.14555 l 0.383,-3.398 0.38301,-3.398 -2.58056,2.26575 c -4.94819,4.34458 -12.06794,5.77277 -17.26443,3.46318 z m 16.12563,-11.23618 c 0.96989,-0.47831 2.54267,-2.24276 3.49509,-3.921 1.97058,-3.47235 5.23465,-15.95736 4.4878,-17.16578 -0.90239,-1.4601 -7.59921,-0.24552 -10.3922,1.88479 -3.61888,2.76025 -6.53821,8.89142 -6.52364,13.7009 0.0127,4.18072 0.37032,5.03776 2.6341,6.31222 1.57452,0.88642 3.30978,0.66296 6.29885,-0.81113 z"
     id="path1119" />
  <path
     style="fill:#cccccc;stroke-width:0.755906"
     d="m 611.19332,356.83805 c -4.416,-1.63936 -6.65006,-3.53353 -8.54765,-7.2472 -4.13573,-8.09381 -0.29073,-22.46381 8.01927,-29.9706 4.50365,-4.06833 9.14344,-5.79894 16.47455,-6.14487 6.47273,-0.30542 7.17118,-0.18924 10.82825,1.80119 5.94078,3.23338 7.96171,7.16872 7.9249,15.43209 -0.0241,5.40962 -0.36751,7.16865 -2.1726,11.12872 -2.53527,5.56196 -8.52823,11.61137 -13.8612,13.99177 -4.62942,2.06637 -14.39512,2.59422 -18.66552,1.0089 z m 14.77444,-11.82272 c 2.97075,-2.11536 5.48583,-7.82458 5.8342,-13.24358 0.27559,-4.2869 0.15247,-4.71919 -1.77612,-6.23622 -2.65343,-2.08718 -4.7852,-2.06051 -7.99279,0.10002 -3.20437,2.15836 -5.72925,6.64554 -6.83362,12.14459 -0.73133,3.64158 -0.67191,4.49635 0.42941,6.17718 2.37082,3.61833 6.19386,4.00955 10.33892,1.05801 z"
     id="path1158" />
  <path
     style="fill:#cccccc;stroke-width:0.755906"
     d="m 649.32283,357.22391 c 0,-0.38355 2.04095,-9.53834 4.53544,-20.34399 2.49449,-10.80566 4.53543,-20.18634 4.53543,-20.84596 0,-0.99619 1.03438,-1.19931 6.10731,-1.19931 h 6.1073 l -0.52031,2.36895 -0.52031,2.36896 2.53899,-1.90177 c 4.61074,-3.45356 7.15869,-4.34796 12.38637,-4.34796 4.4608,0 5.2374,0.22833 7.09508,2.08601 1.1473,1.14731 2.24849,2.57345 2.44708,3.16922 0.28367,0.85102 0.91776,0.66606 2.9582,-0.86291 4.65282,-3.4865 7.20475,-4.39232 12.37445,-4.39232 4.39164,0 5.21258,0.24483 7.40762,2.20918 2.46662,2.2074 2.46855,2.21488 2.3925,9.25985 -0.0576,5.3388 -0.74499,9.80359 -2.83107,18.38924 -1.51523,6.23622 -2.93314,12.10394 -3.15089,13.03937 -0.37222,1.59896 -0.77974,1.70079 -6.80672,1.70079 -4.08368,0 -6.4108,-0.29613 -6.4108,-0.81579 0,-0.44869 1.36063,-6.71465 3.02363,-13.92437 3.36563,-14.5913 3.54683,-16.37668 1.83577,-18.08774 -1.6143,-1.6143 -3.51283,-1.49209 -5.89185,0.37925 -3.57614,2.81299 -5.66915,7.65067 -8.66291,20.02301 l -2.91521,12.04769 -6.56697,0.21872 -6.56698,0.21873 0.4819,-2.10849 c 0.26504,-1.15967 1.2718,-5.33999 2.23723,-9.28959 3.84328,-15.7229 4.3001,-18.89998 3.00231,-20.88065 -1.58045,-2.41207 -3.58306,-2.26206 -6.73391,0.50442 -3.71856,3.26494 -5.30892,7.07468 -8.42705,20.18725 l -2.74122,11.52756 h -6.36021 c -3.49811,0 -6.3602,-0.31381 -6.3602,-0.69735 z"
     id="path1197" />
</svg>
