<?xml version="1.0" encoding="UTF-8"?>
<svg xmlns="http://www.w3.org/2000/svg" xmlns:xlink="http://www.w3.org/1999/xlink" width="128pt" height="62pt" viewBox="0 0 128 62" version="1.1">
<defs>
<linearGradient id="linear0" gradientUnits="userSpaceOnUse" x1="-7658.376" y1="-1137.2941" x2="-7610.187" y2="-1080.9456" gradientTransform="matrix(0.0576068,-0.12242,0.123542,0.0570832,605.605364,-860.797829)">
<stop offset="0" style="stop-color:rgb(96.470588%,60%,13.72549%);stop-opacity:1;"/>
<stop offset="0.3123" style="stop-color:rgb(96.862745%,60.392157%,13.72549%);stop-opacity:1;"/>
<stop offset="0.8383" style="stop-color:rgb(91.372549%,47.058824%,14.901961%);stop-opacity:1;"/>
</linearGradient>
<filter id="alpha" filterUnits="objectBoundingBox" x="0%" y="0%" width="100%" height="100%">
  <feColorMatrix type="matrix" in="SourceGraphic" values="0 0 0 0 1 0 0 0 0 1 0 0 0 0 1 0 0 0 1 0"/>
</filter>
<mask id="mask0">
  <g filter="url(#alpha)">
<rect x="0" y="0" width="128" height="62" style="fill:rgb(0%,0%,0%);fill-opacity:0.34902;stroke:none;"/>
  </g>
</mask>
<clipPath id="clip1">
  <rect x="0" y="0" width="128" height="63"/>
</clipPath>
<g id="surface5" clip-path="url(#clip1)">
<path style=" stroke:none;fill-rule:nonzero;fill:rgb(74.509804%,12.54902%,18.039216%);fill-opacity:1;" d="M 21.703125 29.015625 C 21.539062 29.042969 21.359375 29.070312 21.183594 29.109375 C 21.277344 29.09375 21.359375 29.082031 21.457031 29.070312 C 21.539062 29.042969 21.621094 29.027344 21.703125 29.015625 Z M 21.703125 29.015625 "/>
</g>
<mask id="mask1">
  <g filter="url(#alpha)">
<rect x="0" y="0" width="128" height="62" style="fill:rgb(0%,0%,0%);fill-opacity:0.34902;stroke:none;"/>
  </g>
</mask>
<clipPath id="clip2">
  <rect x="0" y="0" width="128" height="63"/>
</clipPath>
<g id="surface8" clip-path="url(#clip2)">
<path style=" stroke:none;fill-rule:nonzero;fill:rgb(74.509804%,12.54902%,18.039216%);fill-opacity:1;" d="M 22.152344 26.839844 C 22.179688 26.839844 22.207031 26.839844 22.234375 26.824219 C 22.34375 26.8125 22.449219 26.785156 22.558594 26.773438 C 22.425781 26.785156 22.289062 26.8125 22.152344 26.839844 Z M 22.152344 26.839844 "/>
</g>
<linearGradient id="linear1" gradientUnits="userSpaceOnUse" x1="-8015.0215" y1="-1143.5137" x2="-7671.2197" y2="-1143.5137" gradientTransform="matrix(0.0576068,-0.12242,0.123542,0.0570832,605.605364,-860.797829)">
<stop offset="0.3233" style="stop-color:rgb(61.960784%,12.54902%,39.215686%);stop-opacity:1;"/>
<stop offset="0.6302" style="stop-color:rgb(78.823529%,12.54902%,21.568627%);stop-opacity:1;"/>
<stop offset="0.7514" style="stop-color:rgb(80.392157%,13.72549%,20.784314%);stop-opacity:1;"/>
<stop offset="1" style="stop-color:rgb(91.372549%,47.058824%,14.901961%);stop-opacity:1;"/>
</linearGradient>
<linearGradient id="linear2" gradientUnits="userSpaceOnUse" x1="-7973.52" y1="-1109.0308" x2="-7768.6475" y2="-1109.0308" gradientTransform="matrix(0.0576068,-0.12242,0.123542,0.0570832,605.605364,-860.797829)">
<stop offset="0" style="stop-color:rgb(15.686275%,14.901961%,38.431373%);stop-opacity:1;"/>
<stop offset="0.0954839" style="stop-color:rgb(40%,18.039216%,55.294118%);stop-opacity:1;"/>
<stop offset="0.7882" style="stop-color:rgb(62.352941%,12.54902%,39.215686%);stop-opacity:1;"/>
<stop offset="0.9487" style="stop-color:rgb(80.392157%,12.54902%,19.607843%);stop-opacity:1;"/>
</linearGradient>
<linearGradient id="linear3" gradientUnits="userSpaceOnUse" x1="-7995.7114" y1="-1146.7173" x2="-7651.9102" y2="-1146.7173" gradientTransform="matrix(0.0576068,-0.12242,0.123542,0.0570832,605.605364,-860.797829)">
<stop offset="0.3233" style="stop-color:rgb(61.960784%,12.54902%,39.215686%);stop-opacity:1;"/>
<stop offset="0.6302" style="stop-color:rgb(78.823529%,12.54902%,21.568627%);stop-opacity:1;"/>
<stop offset="0.7514" style="stop-color:rgb(80.392157%,13.72549%,20.784314%);stop-opacity:1;"/>
<stop offset="1" style="stop-color:rgb(91.372549%,47.058824%,14.901961%);stop-opacity:1;"/>
</linearGradient>
<linearGradient id="linear4" gradientUnits="userSpaceOnUse" x1="-7970.6377" y1="-1142.0658" x2="-7789.96" y2="-1142.0658" gradientTransform="matrix(0.0576068,-0.12242,0.123542,0.0570832,605.605364,-860.797829)">
<stop offset="0" style="stop-color:rgb(15.686275%,14.901961%,38.431373%);stop-opacity:1;"/>
<stop offset="0.0954839" style="stop-color:rgb(40%,18.039216%,55.294118%);stop-opacity:1;"/>
<stop offset="0.7882" style="stop-color:rgb(62.352941%,12.54902%,39.215686%);stop-opacity:1;"/>
<stop offset="0.9487" style="stop-color:rgb(80.392157%,12.54902%,19.607843%);stop-opacity:1;"/>
</linearGradient>
<linearGradient id="linear5" gradientUnits="userSpaceOnUse" x1="-7995.7114" y1="-1111.135" x2="-7651.9102" y2="-1111.135" gradientTransform="matrix(0.0576068,-0.12242,0.123542,0.0570832,605.605364,-860.797829)">
<stop offset="0.3233" style="stop-color:rgb(61.960784%,12.54902%,39.215686%);stop-opacity:1;"/>
<stop offset="0.6302" style="stop-color:rgb(78.823529%,12.54902%,21.568627%);stop-opacity:1;"/>
<stop offset="0.7514" style="stop-color:rgb(80.392157%,13.72549%,20.784314%);stop-opacity:1;"/>
<stop offset="1" style="stop-color:rgb(91.372549%,47.058824%,14.901961%);stop-opacity:1;"/>
</linearGradient>
<linearGradient id="linear6" gradientUnits="userSpaceOnUse" x1="-8017.0386" y1="-1112.902" x2="-7673.2373" y2="-1112.902" gradientTransform="matrix(0.0576068,-0.12242,0.123542,0.0570832,605.605364,-860.797829)">
<stop offset="0.3233" style="stop-color:rgb(61.960784%,12.54902%,39.215686%);stop-opacity:1;"/>
<stop offset="0.6302" style="stop-color:rgb(78.823529%,12.54902%,21.568627%);stop-opacity:1;"/>
<stop offset="0.7514" style="stop-color:rgb(80.392157%,13.72549%,20.784314%);stop-opacity:1;"/>
<stop offset="1" style="stop-color:rgb(91.372549%,47.058824%,14.901961%);stop-opacity:1;"/>
</linearGradient>
<mask id="mask2">
  <g filter="url(#alpha)">
<rect x="0" y="0" width="128" height="62" style="fill:rgb(0%,0%,0%);fill-opacity:0.34902;stroke:none;"/>
  </g>
</mask>
<clipPath id="clip3">
  <rect x="0" y="0" width="128" height="63"/>
</clipPath>
<g id="surface11" clip-path="url(#clip3)">
<path style=" stroke:none;fill-rule:nonzero;fill:rgb(74.509804%,12.54902%,18.039216%);fill-opacity:1;" d="M 21.441406 29.054688 C 21.359375 29.070312 21.265625 29.082031 21.167969 29.09375 C 21.265625 29.09375 21.359375 29.082031 21.441406 29.054688 Z M 21.441406 29.054688 "/>
</g>
<linearGradient id="linear7" gradientUnits="userSpaceOnUse" x1="-7995.7114" y1="-1100.5521" x2="-7651.9102" y2="-1100.5521" gradientTransform="matrix(0.0576068,-0.12242,0.123542,0.0570832,605.605364,-860.797829)">
<stop offset="0.3233" style="stop-color:rgb(61.960784%,12.54902%,39.215686%);stop-opacity:1;"/>
<stop offset="0.6302" style="stop-color:rgb(78.823529%,12.54902%,21.568627%);stop-opacity:1;"/>
<stop offset="0.7514" style="stop-color:rgb(80.392157%,13.72549%,20.784314%);stop-opacity:1;"/>
<stop offset="1" style="stop-color:rgb(91.372549%,47.058824%,14.901961%);stop-opacity:1;"/>
</linearGradient>
<mask id="mask3">
  <g filter="url(#alpha)">
<rect x="0" y="0" width="128" height="62" style="fill:rgb(0%,0%,0%);fill-opacity:0.34902;stroke:none;"/>
  </g>
</mask>
<clipPath id="clip4">
  <rect x="0" y="0" width="128" height="63"/>
</clipPath>
<g id="surface14" clip-path="url(#clip4)">
<path style=" stroke:none;fill-rule:nonzero;fill:rgb(74.509804%,12.54902%,18.039216%);fill-opacity:1;" d="M 22.152344 26.839844 C 22.179688 26.839844 22.207031 26.824219 22.234375 26.824219 C 22.207031 26.824219 22.179688 26.839844 22.152344 26.839844 Z M 22.152344 26.839844 "/>
</g>
<linearGradient id="linear8" gradientUnits="userSpaceOnUse" x1="-7995.7114" y1="-1101.7631" x2="-7651.9102" y2="-1101.7631" gradientTransform="matrix(0.0576068,-0.12242,0.123542,0.0570832,605.605364,-860.797829)">
<stop offset="0.3233" style="stop-color:rgb(61.960784%,12.54902%,39.215686%);stop-opacity:1;"/>
<stop offset="0.6302" style="stop-color:rgb(78.823529%,12.54902%,21.568627%);stop-opacity:1;"/>
<stop offset="0.7514" style="stop-color:rgb(80.392157%,13.72549%,20.784314%);stop-opacity:1;"/>
<stop offset="1" style="stop-color:rgb(91.372549%,47.058824%,14.901961%);stop-opacity:1;"/>
</linearGradient>
<linearGradient id="linear9" gradientUnits="userSpaceOnUse" x1="-7658.376" y1="-1137.2941" x2="-7610.187" y2="-1080.9456" gradientTransform="matrix(0.0576068,-0.12242,0.123542,0.0570832,605.605364,-860.797829)">
<stop offset="0" style="stop-color:rgb(96.470588%,60%,13.72549%);stop-opacity:1;"/>
<stop offset="0.3123" style="stop-color:rgb(96.862745%,60.392157%,13.72549%);stop-opacity:1;"/>
<stop offset="0.8383" style="stop-color:rgb(91.372549%,47.058824%,14.901961%);stop-opacity:1;"/>
</linearGradient>
<mask id="mask4">
  <g filter="url(#alpha)">
<rect x="0" y="0" width="128" height="62" style="fill:rgb(0%,0%,0%);fill-opacity:0.34902;stroke:none;"/>
  </g>
</mask>
<clipPath id="clip5">
  <rect x="0" y="0" width="128" height="63"/>
</clipPath>
<g id="surface18" clip-path="url(#clip5)">
<path style=" stroke:none;fill-rule:nonzero;fill:rgb(74.509804%,12.54902%,18.039216%);fill-opacity:1;" d="M 21.703125 29.015625 C 21.539062 29.042969 21.359375 29.070312 21.183594 29.109375 C 21.277344 29.09375 21.359375 29.082031 21.457031 29.070312 C 21.539062 29.042969 21.621094 29.027344 21.703125 29.015625 Z M 21.703125 29.015625 "/>
</g>
<mask id="mask5">
  <g filter="url(#alpha)">
<rect x="0" y="0" width="128" height="62" style="fill:rgb(0%,0%,0%);fill-opacity:0.34902;stroke:none;"/>
  </g>
</mask>
<clipPath id="clip6">
  <rect x="0" y="0" width="128" height="63"/>
</clipPath>
<g id="surface21" clip-path="url(#clip6)">
<path style=" stroke:none;fill-rule:nonzero;fill:rgb(74.509804%,12.54902%,18.039216%);fill-opacity:1;" d="M 22.152344 26.839844 C 22.179688 26.839844 22.207031 26.839844 22.234375 26.824219 C 22.34375 26.8125 22.449219 26.785156 22.558594 26.773438 C 22.425781 26.785156 22.289062 26.8125 22.152344 26.839844 Z M 22.152344 26.839844 "/>
</g>
<linearGradient id="linear10" gradientUnits="userSpaceOnUse" x1="-8015.0215" y1="-1143.5137" x2="-7671.2197" y2="-1143.5137" gradientTransform="matrix(0.0576068,-0.12242,0.123542,0.0570832,605.605364,-860.797829)">
<stop offset="0.3233" style="stop-color:rgb(61.960784%,12.54902%,39.215686%);stop-opacity:1;"/>
<stop offset="0.6302" style="stop-color:rgb(78.823529%,12.54902%,21.568627%);stop-opacity:1;"/>
<stop offset="0.7514" style="stop-color:rgb(80.392157%,13.72549%,20.784314%);stop-opacity:1;"/>
<stop offset="1" style="stop-color:rgb(91.372549%,47.058824%,14.901961%);stop-opacity:1;"/>
</linearGradient>
<linearGradient id="linear11" gradientUnits="userSpaceOnUse" x1="-7973.52" y1="-1109.0308" x2="-7768.6475" y2="-1109.0308" gradientTransform="matrix(0.0576068,-0.12242,0.123542,0.0570832,605.605364,-860.797829)">
<stop offset="0" style="stop-color:rgb(15.686275%,14.901961%,38.431373%);stop-opacity:1;"/>
<stop offset="0.0954839" style="stop-color:rgb(40%,18.039216%,55.294118%);stop-opacity:1;"/>
<stop offset="0.7882" style="stop-color:rgb(62.352941%,12.54902%,39.215686%);stop-opacity:1;"/>
<stop offset="0.9487" style="stop-color:rgb(80.392157%,12.54902%,19.607843%);stop-opacity:1;"/>
</linearGradient>
<linearGradient id="linear12" gradientUnits="userSpaceOnUse" x1="-7995.7114" y1="-1146.7173" x2="-7651.9102" y2="-1146.7173" gradientTransform="matrix(0.0576068,-0.12242,0.123542,0.0570832,605.605364,-860.797829)">
<stop offset="0.3233" style="stop-color:rgb(61.960784%,12.54902%,39.215686%);stop-opacity:1;"/>
<stop offset="0.6302" style="stop-color:rgb(78.823529%,12.54902%,21.568627%);stop-opacity:1;"/>
<stop offset="0.7514" style="stop-color:rgb(80.392157%,13.72549%,20.784314%);stop-opacity:1;"/>
<stop offset="1" style="stop-color:rgb(91.372549%,47.058824%,14.901961%);stop-opacity:1;"/>
</linearGradient>
<linearGradient id="linear13" gradientUnits="userSpaceOnUse" x1="-7970.6377" y1="-1142.0658" x2="-7789.96" y2="-1142.0658" gradientTransform="matrix(0.0576068,-0.12242,0.123542,0.0570832,605.605364,-860.797829)">
<stop offset="0" style="stop-color:rgb(15.686275%,14.901961%,38.431373%);stop-opacity:1;"/>
<stop offset="0.0954839" style="stop-color:rgb(40%,18.039216%,55.294118%);stop-opacity:1;"/>
<stop offset="0.7882" style="stop-color:rgb(62.352941%,12.54902%,39.215686%);stop-opacity:1;"/>
<stop offset="0.9487" style="stop-color:rgb(80.392157%,12.54902%,19.607843%);stop-opacity:1;"/>
</linearGradient>
<linearGradient id="linear14" gradientUnits="userSpaceOnUse" x1="-7995.7114" y1="-1111.135" x2="-7651.9102" y2="-1111.135" gradientTransform="matrix(0.0576068,-0.12242,0.123542,0.0570832,605.605364,-860.797829)">
<stop offset="0.3233" style="stop-color:rgb(61.960784%,12.54902%,39.215686%);stop-opacity:1;"/>
<stop offset="0.6302" style="stop-color:rgb(78.823529%,12.54902%,21.568627%);stop-opacity:1;"/>
<stop offset="0.7514" style="stop-color:rgb(80.392157%,13.72549%,20.784314%);stop-opacity:1;"/>
<stop offset="1" style="stop-color:rgb(91.372549%,47.058824%,14.901961%);stop-opacity:1;"/>
</linearGradient>
<linearGradient id="linear15" gradientUnits="userSpaceOnUse" x1="-8017.0386" y1="-1112.902" x2="-7673.2373" y2="-1112.902" gradientTransform="matrix(0.0576068,-0.12242,0.123542,0.0570832,605.605364,-860.797829)">
<stop offset="0.3233" style="stop-color:rgb(61.960784%,12.54902%,39.215686%);stop-opacity:1;"/>
<stop offset="0.6302" style="stop-color:rgb(78.823529%,12.54902%,21.568627%);stop-opacity:1;"/>
<stop offset="0.7514" style="stop-color:rgb(80.392157%,13.72549%,20.784314%);stop-opacity:1;"/>
<stop offset="1" style="stop-color:rgb(91.372549%,47.058824%,14.901961%);stop-opacity:1;"/>
</linearGradient>
<mask id="mask6">
  <g filter="url(#alpha)">
<rect x="0" y="0" width="128" height="62" style="fill:rgb(0%,0%,0%);fill-opacity:0.34902;stroke:none;"/>
  </g>
</mask>
<clipPath id="clip7">
  <rect x="0" y="0" width="128" height="63"/>
</clipPath>
<g id="surface24" clip-path="url(#clip7)">
<path style=" stroke:none;fill-rule:nonzero;fill:rgb(74.509804%,12.54902%,18.039216%);fill-opacity:1;" d="M 21.441406 29.054688 C 21.359375 29.070312 21.265625 29.082031 21.167969 29.09375 C 21.265625 29.09375 21.359375 29.082031 21.441406 29.054688 Z M 21.441406 29.054688 "/>
</g>
<linearGradient id="linear16" gradientUnits="userSpaceOnUse" x1="-7995.7114" y1="-1100.5521" x2="-7651.9102" y2="-1100.5521" gradientTransform="matrix(0.0576068,-0.12242,0.123542,0.0570832,605.605364,-860.797829)">
<stop offset="0.3233" style="stop-color:rgb(61.960784%,12.54902%,39.215686%);stop-opacity:1;"/>
<stop offset="0.6302" style="stop-color:rgb(78.823529%,12.54902%,21.568627%);stop-opacity:1;"/>
<stop offset="0.7514" style="stop-color:rgb(80.392157%,13.72549%,20.784314%);stop-opacity:1;"/>
<stop offset="1" style="stop-color:rgb(91.372549%,47.058824%,14.901961%);stop-opacity:1;"/>
</linearGradient>
<mask id="mask7">
  <g filter="url(#alpha)">
<rect x="0" y="0" width="128" height="62" style="fill:rgb(0%,0%,0%);fill-opacity:0.34902;stroke:none;"/>
  </g>
</mask>
<clipPath id="clip8">
  <rect x="0" y="0" width="128" height="63"/>
</clipPath>
<g id="surface27" clip-path="url(#clip8)">
<path style=" stroke:none;fill-rule:nonzero;fill:rgb(74.509804%,12.54902%,18.039216%);fill-opacity:1;" d="M 22.152344 26.839844 C 22.179688 26.839844 22.207031 26.824219 22.234375 26.824219 C 22.207031 26.824219 22.179688 26.839844 22.152344 26.839844 Z M 22.152344 26.839844 "/>
</g>
<linearGradient id="linear17" gradientUnits="userSpaceOnUse" x1="-7995.7114" y1="-1101.7631" x2="-7651.9102" y2="-1101.7631" gradientTransform="matrix(0.0576068,-0.12242,0.123542,0.0570832,605.605364,-860.797829)">
<stop offset="0.3233" style="stop-color:rgb(61.960784%,12.54902%,39.215686%);stop-opacity:1;"/>
<stop offset="0.6302" style="stop-color:rgb(78.823529%,12.54902%,21.568627%);stop-opacity:1;"/>
<stop offset="0.7514" style="stop-color:rgb(80.392157%,13.72549%,20.784314%);stop-opacity:1;"/>
<stop offset="1" style="stop-color:rgb(91.372549%,47.058824%,14.901961%);stop-opacity:1;"/>
</linearGradient>
</defs>
<g id="surface1">
<path style=" stroke:none;fill-rule:nonzero;fill:rgb(42.745098%,43.137255%,44.313725%);fill-opacity:1;" d="M 35.402344 15.886719 L 35.402344 18.355469 L 35.074219 18.355469 L 35.074219 15.886719 L 34.160156 15.886719 L 34.160156 15.574219 L 36.3125 15.574219 L 36.3125 15.886719 Z M 35.402344 15.886719 "/>
<path style=" stroke:none;fill-rule:nonzero;fill:rgb(42.745098%,43.137255%,44.313725%);fill-opacity:1;" d="M 39.886719 18.355469 L 39.886719 17.128906 L 38.195312 17.128906 L 38.195312 18.355469 L 37.867188 18.355469 L 37.867188 15.574219 L 38.195312 15.574219 L 38.195312 16.832031 L 39.886719 16.832031 L 39.886719 15.574219 L 40.214844 15.574219 L 40.214844 18.355469 Z M 39.886719 18.355469 "/>
<path style=" stroke:none;fill-rule:nonzero;fill:rgb(42.745098%,43.137255%,44.313725%);fill-opacity:1;" d="M 42.449219 15.886719 L 42.449219 16.804688 L 43.867188 16.804688 L 43.867188 17.113281 L 42.449219 17.113281 L 42.449219 18.074219 L 44.085938 18.074219 L 44.085938 18.371094 L 42.121094 18.371094 L 42.121094 15.585938 L 44.03125 15.585938 L 44.03125 15.898438 L 42.449219 15.898438 Z M 42.449219 15.886719 "/>
<path style=" stroke:none;fill-rule:nonzero;fill:rgb(82.352941%,12.941176%,15.686275%);fill-opacity:1;" d="M 31.707031 37.457031 L 38.425781 21.542969 L 39.722656 21.542969 L 46.441406 37.457031 L 44.753906 37.457031 L 42.667969 32.484375 L 35.441406 32.484375 L 33.382812 37.457031 Z M 39.082031 23.382812 L 35.78125 31.242188 L 42.296875 31.242188 Z M 39.082031 23.382812 "/>
<path style=" stroke:none;fill-rule:nonzero;fill:rgb(82.352941%,12.941176%,15.686275%);fill-opacity:1;" d="M 48.160156 37.457031 L 48.160156 21.542969 L 54.8125 21.542969 C 57.566406 21.542969 59.554688 24.070312 59.554688 26.542969 C 59.554688 29.136719 57.703125 31.582031 54.949219 31.582031 L 49.726562 31.582031 L 49.726562 37.457031 Z M 49.726562 30.191406 L 54.867188 30.191406 C 56.761719 30.191406 57.988281 28.460938 57.988281 26.542969 C 57.988281 24.542969 56.503906 22.9375 54.730469 22.9375 L 49.726562 22.9375 Z M 49.726562 30.191406 "/>
<path style=" stroke:none;fill-rule:nonzero;fill:rgb(82.352941%,12.941176%,15.686275%);fill-opacity:1;" d="M 58.683594 37.457031 L 65.402344 21.542969 L 66.699219 21.542969 L 73.417969 37.457031 L 71.703125 37.457031 L 69.617188 32.484375 L 62.40625 32.484375 L 60.347656 37.457031 Z M 66.058594 23.382812 L 62.757812 31.242188 L 69.277344 31.242188 Z M 66.058594 23.382812 "/>
<path style=" stroke:none;fill-rule:nonzero;fill:rgb(82.352941%,12.941176%,15.686275%);fill-opacity:1;" d="M 81 21.449219 C 83.847656 21.449219 85.933594 22.882812 86.929688 24.921875 L 85.660156 25.679688 C 84.636719 23.570312 82.648438 22.855469 80.917969 22.855469 C 77.074219 22.855469 74.972656 26.257812 74.972656 29.460938 C 74.972656 32.972656 77.578125 36.160156 80.984375 36.160156 C 82.796875 36.160156 84.925781 35.269531 85.933594 33.203125 L 87.242188 33.878906 C 86.207031 36.253906 83.355469 37.578125 80.890625 37.578125 C 76.488281 37.578125 73.378906 33.40625 73.378906 29.378906 C 73.378906 25.554688 76.160156 21.449219 81 21.449219 Z M 81 21.449219 "/>
<path style=" stroke:none;fill-rule:nonzero;fill:rgb(82.352941%,12.941176%,15.686275%);fill-opacity:1;" d="M 102.113281 21.542969 L 102.113281 37.457031 L 100.53125 37.457031 L 100.53125 30.015625 L 91.019531 30.015625 L 91.019531 37.457031 L 89.464844 37.457031 L 89.464844 21.542969 L 91.019531 21.542969 L 91.019531 28.621094 L 100.53125 28.621094 L 100.53125 21.542969 Z M 102.113281 21.542969 "/>
<path style=" stroke:none;fill-rule:nonzero;fill:rgb(82.352941%,12.941176%,15.686275%);fill-opacity:1;" d="M 116.523438 36.066406 L 116.523438 37.457031 L 105.738281 37.457031 L 105.738281 21.542969 L 116.316406 21.542969 L 116.316406 22.9375 L 107.292969 22.9375 L 107.292969 28.675781 L 115.160156 28.675781 L 115.160156 30 L 107.292969 30 L 107.292969 36.066406 Z M 116.523438 36.066406 "/>
<path style=" stroke:none;fill-rule:nonzero;fill:rgb(42.745098%,43.137255%,44.313725%);fill-opacity:1;" d="M 33.207031 40.820312 C 33.398438 40.875 33.5625 40.957031 33.710938 41.050781 L 33.546875 41.414062 C 33.398438 41.320312 33.246094 41.253906 33.082031 41.199219 C 32.921875 41.15625 32.757812 41.128906 32.621094 41.128906 C 32.402344 41.128906 32.226562 41.171875 32.101562 41.253906 C 31.964844 41.332031 31.910156 41.441406 31.910156 41.578125 C 31.910156 41.699219 31.953125 41.792969 32.019531 41.875 C 32.089844 41.953125 32.183594 42.007812 32.292969 42.0625 C 32.402344 42.101562 32.550781 42.15625 32.742188 42.210938 C 32.976562 42.277344 33.164062 42.359375 33.300781 42.414062 C 33.4375 42.480469 33.5625 42.574219 33.667969 42.699219 C 33.765625 42.820312 33.820312 42.980469 33.820312 43.199219 C 33.820312 43.386719 33.765625 43.546875 33.667969 43.683594 C 33.574219 43.820312 33.425781 43.925781 33.234375 44.007812 C 33.042969 44.089844 32.839844 44.128906 32.59375 44.128906 C 32.347656 44.128906 32.117188 44.089844 31.882812 43.996094 C 31.652344 43.898438 31.460938 43.777344 31.296875 43.617188 L 31.476562 43.277344 C 31.625 43.425781 31.800781 43.546875 32.007812 43.628906 C 32.210938 43.710938 32.402344 43.75 32.59375 43.75 C 32.839844 43.75 33.027344 43.710938 33.179688 43.617188 C 33.316406 43.523438 33.398438 43.398438 33.398438 43.238281 C 33.398438 43.117188 33.355469 43.007812 33.289062 42.925781 C 33.21875 42.847656 33.125 42.777344 33.015625 42.738281 C 32.90625 42.699219 32.757812 42.644531 32.566406 42.589844 C 32.332031 42.523438 32.15625 42.453125 32.007812 42.402344 C 31.871094 42.332031 31.746094 42.25 31.640625 42.117188 C 31.542969 41.996094 31.488281 41.832031 31.488281 41.628906 C 31.488281 41.453125 31.542969 41.304688 31.640625 41.171875 C 31.734375 41.035156 31.871094 40.941406 32.046875 40.859375 C 32.226562 40.792969 32.429688 40.753906 32.660156 40.753906 C 32.824219 40.738281 33.015625 40.765625 33.207031 40.820312 Z M 33.207031 40.820312 "/>
<path style=" stroke:none;fill-rule:nonzero;fill:rgb(42.745098%,43.137255%,44.313725%);fill-opacity:1;" d="M 38.238281 40.96875 C 38.507812 41.117188 38.726562 41.320312 38.878906 41.578125 C 39.039062 41.832031 39.109375 42.117188 39.109375 42.425781 C 39.109375 42.738281 39.027344 43.023438 38.878906 43.277344 C 38.714844 43.535156 38.507812 43.738281 38.238281 43.898438 C 37.964844 44.046875 37.664062 44.128906 37.351562 44.128906 C 37.023438 44.128906 36.722656 44.046875 36.449219 43.898438 C 36.179688 43.75 35.960938 43.546875 35.808594 43.277344 C 35.644531 43.023438 35.578125 42.738281 35.578125 42.425781 C 35.578125 42.117188 35.660156 41.832031 35.808594 41.578125 C 35.972656 41.320312 36.179688 41.117188 36.449219 40.96875 C 36.722656 40.820312 37.023438 40.738281 37.351562 40.738281 C 37.664062 40.738281 37.964844 40.820312 38.238281 40.96875 Z M 36.65625 41.28125 C 36.449219 41.402344 36.273438 41.5625 36.152344 41.765625 C 36.027344 41.96875 35.960938 42.183594 35.960938 42.425781 C 35.960938 42.671875 36.027344 42.898438 36.152344 43.101562 C 36.273438 43.304688 36.449219 43.46875 36.65625 43.589844 C 36.859375 43.710938 37.089844 43.765625 37.351562 43.765625 C 37.597656 43.765625 37.828125 43.710938 38.03125 43.589844 C 38.238281 43.46875 38.414062 43.304688 38.535156 43.101562 C 38.660156 42.898438 38.726562 42.671875 38.726562 42.425781 C 38.726562 42.183594 38.660156 41.96875 38.535156 41.765625 C 38.414062 41.5625 38.25 41.402344 38.03125 41.292969 C 37.828125 41.171875 37.597656 41.117188 37.351562 41.117188 C 37.105469 41.105469 36.875 41.15625 36.65625 41.28125 Z M 36.65625 41.28125 "/>
<path style=" stroke:none;fill-rule:nonzero;fill:rgb(42.745098%,43.137255%,44.313725%);fill-opacity:1;" d="M 41.5625 41.117188 L 41.5625 42.292969 L 43.144531 42.292969 L 43.144531 42.65625 L 41.5625 42.65625 L 41.5625 44.089844 L 41.167969 44.089844 L 41.167969 40.726562 L 43.320312 40.726562 L 43.320312 41.089844 L 41.5625 41.089844 Z M 41.5625 41.117188 "/>
<path style=" stroke:none;fill-rule:nonzero;fill:rgb(42.745098%,43.137255%,44.313725%);fill-opacity:1;" d="M 46.46875 41.117188 L 46.46875 44.101562 L 46.089844 44.101562 L 46.089844 41.117188 L 44.984375 41.117188 L 44.984375 40.753906 L 47.574219 40.753906 L 47.574219 41.117188 Z M 46.46875 41.117188 "/>
<path style=" stroke:none;fill-rule:nonzero;fill:rgb(42.745098%,43.137255%,44.313725%);fill-opacity:1;" d="M 52.589844 44.101562 L 51.675781 41.28125 L 50.75 44.101562 L 50.355469 44.101562 L 49.222656 40.738281 L 49.644531 40.738281 L 50.574219 43.65625 L 51.484375 40.753906 L 51.867188 40.753906 L 52.792969 43.671875 L 53.707031 40.753906 L 54.101562 40.753906 L 52.972656 44.117188 L 52.589844 44.117188 Z M 52.589844 44.101562 "/>
<path style=" stroke:none;fill-rule:nonzero;fill:rgb(42.745098%,43.137255%,44.313725%);fill-opacity:1;" d="M 56.054688 43.265625 L 55.671875 44.117188 L 55.261719 44.117188 L 56.773438 40.753906 L 57.171875 40.753906 L 58.683594 44.117188 L 58.261719 44.117188 L 57.878906 43.265625 Z M 56.980469 41.183594 L 56.230469 42.886719 L 57.742188 42.886719 Z M 56.980469 41.183594 "/>
<path style=" stroke:none;fill-rule:nonzero;fill:rgb(42.745098%,43.137255%,44.313725%);fill-opacity:1;" d="M 62.0625 43.035156 C 61.96875 43.035156 61.886719 43.046875 61.832031 43.046875 L 60.933594 43.046875 L 60.933594 44.117188 L 60.550781 44.117188 L 60.550781 40.753906 L 61.832031 40.753906 C 62.253906 40.753906 62.582031 40.847656 62.8125 41.050781 C 63.046875 41.253906 63.167969 41.523438 63.167969 41.886719 C 63.167969 42.15625 63.101562 42.386719 62.976562 42.574219 C 62.839844 42.765625 62.664062 42.898438 62.417969 42.980469 L 63.210938 44.117188 L 62.773438 44.117188 Z M 62.554688 42.480469 C 62.71875 42.347656 62.800781 42.144531 62.800781 41.886719 C 62.800781 41.628906 62.71875 41.441406 62.554688 41.320312 C 62.390625 41.183594 62.144531 41.128906 61.847656 41.128906 L 60.945312 41.128906 L 60.945312 42.683594 L 61.847656 42.683594 C 62.144531 42.683594 62.390625 42.617188 62.554688 42.480469 Z M 62.554688 42.480469 "/>
<path style=" stroke:none;fill-rule:nonzero;fill:rgb(42.745098%,43.137255%,44.313725%);fill-opacity:1;" d="M 65.730469 41.117188 L 65.730469 42.226562 L 67.433594 42.226562 L 67.433594 42.589844 L 65.730469 42.589844 L 65.730469 43.738281 L 67.707031 43.738281 L 67.707031 44.101562 L 65.347656 44.101562 L 65.347656 40.738281 L 67.652344 40.738281 L 67.652344 41.105469 L 65.730469 41.105469 Z M 65.730469 41.117188 "/>
<path style=" stroke:none;fill-rule:nonzero;fill:rgb(42.745098%,43.137255%,44.313725%);fill-opacity:1;" d="M 73.105469 41.117188 L 73.105469 42.292969 L 74.6875 42.292969 L 74.6875 42.65625 L 73.105469 42.65625 L 73.105469 44.089844 L 72.722656 44.089844 L 72.722656 40.726562 L 74.878906 40.726562 L 74.878906 41.089844 L 73.105469 41.089844 Z M 73.105469 41.117188 "/>
<path style=" stroke:none;fill-rule:nonzero;fill:rgb(42.745098%,43.137255%,44.313725%);fill-opacity:1;" d="M 79.160156 40.96875 C 79.429688 41.117188 79.648438 41.320312 79.800781 41.578125 C 79.960938 41.832031 80.03125 42.117188 80.03125 42.425781 C 80.03125 42.738281 79.949219 43.023438 79.800781 43.277344 C 79.636719 43.535156 79.429688 43.738281 79.160156 43.898438 C 78.886719 44.046875 78.585938 44.128906 78.273438 44.128906 C 77.945312 44.128906 77.644531 44.046875 77.371094 43.898438 C 77.101562 43.75 76.882812 43.546875 76.730469 43.277344 C 76.566406 43.023438 76.5 42.738281 76.5 42.425781 C 76.5 42.117188 76.582031 41.832031 76.730469 41.578125 C 76.894531 41.320312 77.101562 41.117188 77.371094 40.96875 C 77.644531 40.820312 77.945312 40.738281 78.273438 40.738281 C 78.597656 40.738281 78.898438 40.820312 79.160156 40.96875 Z M 77.589844 41.28125 C 77.386719 41.402344 77.207031 41.5625 77.085938 41.765625 C 76.964844 41.96875 76.894531 42.183594 76.894531 42.425781 C 76.894531 42.671875 76.964844 42.898438 77.085938 43.101562 C 77.207031 43.304688 77.386719 43.46875 77.589844 43.589844 C 77.796875 43.710938 78.027344 43.765625 78.285156 43.765625 C 78.53125 43.765625 78.761719 43.710938 78.96875 43.589844 C 79.171875 43.46875 79.347656 43.304688 79.472656 43.101562 C 79.59375 42.898438 79.664062 42.671875 79.664062 42.425781 C 79.664062 42.183594 79.59375 41.96875 79.472656 41.765625 C 79.347656 41.5625 79.183594 41.402344 78.96875 41.292969 C 78.761719 41.171875 78.53125 41.117188 78.285156 41.117188 C 78.027344 41.105469 77.796875 41.15625 77.589844 41.28125 Z M 77.589844 41.28125 "/>
<path style=" stroke:none;fill-rule:nonzero;fill:rgb(42.745098%,43.137255%,44.313725%);fill-opacity:1;" d="M 84.5 43.75 C 84.257812 43.996094 83.902344 44.117188 83.464844 44.117188 C 83.015625 44.117188 82.675781 43.996094 82.417969 43.75 C 82.15625 43.507812 82.035156 43.15625 82.035156 42.726562 L 82.035156 40.753906 L 82.417969 40.753906 L 82.417969 42.726562 C 82.417969 43.046875 82.511719 43.304688 82.6875 43.480469 C 82.878906 43.65625 83.125 43.75 83.453125 43.75 C 83.78125 43.75 84.023438 43.65625 84.214844 43.480469 C 84.394531 43.304688 84.488281 43.046875 84.488281 42.726562 L 84.488281 40.753906 L 84.871094 40.753906 L 84.871094 42.726562 C 84.871094 43.171875 84.746094 43.507812 84.5 43.75 Z M 84.5 43.75 "/>
<path style=" stroke:none;fill-rule:nonzero;fill:rgb(42.745098%,43.137255%,44.313725%);fill-opacity:1;" d="M 89.558594 44.101562 L 87.527344 41.402344 L 87.527344 44.101562 L 87.144531 44.101562 L 87.144531 40.738281 L 87.542969 40.738281 L 89.574219 43.441406 L 89.574219 40.738281 L 89.953125 40.738281 L 89.953125 44.101562 Z M 89.558594 44.101562 "/>
<path style=" stroke:none;fill-rule:nonzero;fill:rgb(42.745098%,43.137255%,44.313725%);fill-opacity:1;" d="M 94.535156 40.96875 C 94.792969 41.117188 95.011719 41.320312 95.160156 41.578125 C 95.3125 41.832031 95.394531 42.117188 95.394531 42.425781 C 95.394531 42.738281 95.3125 43.023438 95.160156 43.277344 C 95.011719 43.535156 94.792969 43.738281 94.535156 43.886719 C 94.261719 44.035156 93.960938 44.101562 93.636719 44.101562 L 92.273438 44.101562 L 92.273438 40.738281 L 93.648438 40.738281 C 93.976562 40.753906 94.277344 40.820312 94.535156 40.96875 Z M 92.667969 43.738281 L 93.648438 43.738281 C 93.894531 43.738281 94.125 43.683594 94.332031 43.5625 C 94.535156 43.453125 94.699219 43.292969 94.820312 43.089844 C 94.945312 42.886719 95 42.671875 95 42.414062 C 95 42.171875 94.945312 41.941406 94.820312 41.753906 C 94.699219 41.550781 94.535156 41.402344 94.332031 41.28125 C 94.125 41.15625 93.894531 41.105469 93.648438 41.105469 L 92.679688 41.105469 L 92.679688 43.738281 Z M 92.667969 43.738281 "/>
<path style=" stroke:none;fill-rule:nonzero;fill:rgb(42.745098%,43.137255%,44.313725%);fill-opacity:1;" d="M 97.589844 43.265625 L 97.207031 44.117188 L 96.796875 44.117188 L 98.308594 40.753906 L 98.707031 40.753906 L 100.21875 44.117188 L 99.796875 44.117188 L 99.414062 43.265625 Z M 98.515625 41.183594 L 97.765625 42.886719 L 99.277344 42.886719 Z M 98.515625 41.183594 "/>
<path style=" stroke:none;fill-rule:nonzero;fill:rgb(42.745098%,43.137255%,44.313725%);fill-opacity:1;" d="M 102.78125 41.117188 L 102.78125 44.101562 L 102.398438 44.101562 L 102.398438 41.117188 L 101.296875 41.117188 L 101.296875 40.753906 L 103.898438 40.753906 L 103.898438 41.117188 Z M 102.78125 41.117188 "/>
<path style=" stroke:none;fill-rule:nonzero;fill:rgb(42.745098%,43.137255%,44.313725%);fill-opacity:1;" d="M 105.753906 44.101562 L 105.753906 40.738281 L 106.136719 40.738281 L 106.136719 44.101562 Z M 105.753906 44.101562 "/>
<path style=" stroke:none;fill-rule:nonzero;fill:rgb(42.745098%,43.137255%,44.313725%);fill-opacity:1;" d="M 110.878906 40.96875 C 111.152344 41.117188 111.371094 41.320312 111.519531 41.578125 C 111.683594 41.832031 111.75 42.117188 111.75 42.425781 C 111.75 42.738281 111.667969 43.023438 111.519531 43.277344 C 111.355469 43.535156 111.152344 43.738281 110.878906 43.898438 C 110.605469 44.046875 110.304688 44.128906 109.992188 44.128906 C 109.664062 44.128906 109.367188 44.046875 109.09375 43.898438 C 108.820312 43.75 108.601562 43.546875 108.453125 43.277344 C 108.289062 43.023438 108.21875 42.738281 108.21875 42.425781 C 108.21875 42.117188 108.300781 41.832031 108.453125 41.578125 C 108.617188 41.320312 108.820312 41.117188 109.09375 40.96875 C 109.367188 40.820312 109.664062 40.738281 109.992188 40.738281 C 110.304688 40.738281 110.605469 40.820312 110.878906 40.96875 Z M 109.296875 41.28125 C 109.09375 41.402344 108.914062 41.5625 108.792969 41.765625 C 108.671875 41.96875 108.601562 42.183594 108.601562 42.425781 C 108.601562 42.671875 108.671875 42.898438 108.792969 43.101562 C 108.914062 43.304688 109.09375 43.46875 109.296875 43.589844 C 109.503906 43.710938 109.734375 43.765625 109.992188 43.765625 C 110.238281 43.765625 110.46875 43.710938 110.675781 43.589844 C 110.878906 43.46875 111.054688 43.304688 111.179688 43.101562 C 111.300781 42.898438 111.371094 42.671875 111.371094 42.425781 C 111.371094 42.183594 111.300781 41.96875 111.179688 41.765625 C 111.054688 41.5625 110.890625 41.402344 110.675781 41.292969 C 110.46875 41.171875 110.238281 41.117188 109.992188 41.117188 C 109.734375 41.105469 109.503906 41.15625 109.296875 41.28125 Z M 109.296875 41.28125 "/>
<path style=" stroke:none;fill-rule:nonzero;fill:rgb(42.745098%,43.137255%,44.313725%);fill-opacity:1;" d="M 116.222656 44.101562 L 114.191406 41.402344 L 114.191406 44.101562 L 113.808594 44.101562 L 113.808594 40.738281 L 114.203125 40.738281 L 116.234375 43.441406 L 116.234375 40.738281 L 116.617188 40.738281 L 116.617188 44.101562 Z M 116.222656 44.101562 "/>
<path style=" stroke:none;fill-rule:nonzero;fill:url(#linear0);" d="M 26.171875 8.132812 C 25.4375 8.5625 24.238281 9.765625 22.777344 11.523438 L 24.113281 14.007812 C 25.042969 12.683594 25.996094 11.496094 26.949219 10.480469 C 27.019531 10.402344 27.058594 10.359375 27.058594 10.359375 C 27.019531 10.402344 26.992188 10.441406 26.949219 10.480469 C 26.636719 10.820312 25.695312 11.898438 24.292969 14.0625 C 25.65625 13.992188 27.753906 13.722656 29.457031 13.425781 C 29.960938 10.601562 28.953125 9.308594 28.953125 9.308594 C 28.953125 9.308594 27.671875 7.253906 26.171875 8.132812 Z M 26.171875 8.132812 "/>
<path style=" stroke:none;fill-rule:nonzero;fill:rgb(74.509804%,12.54902%,18.039216%);fill-opacity:1;" d="M 21.703125 29.015625 C 21.539062 29.042969 21.359375 29.070312 21.183594 29.109375 C 21.277344 29.09375 21.359375 29.082031 21.457031 29.070312 C 21.539062 29.042969 21.621094 29.027344 21.703125 29.015625 Z M 21.703125 29.015625 "/>
<use xlink:href="#surface5" mask="url(#mask0)"/>
<path style=" stroke:none;fill-rule:nonzero;fill:rgb(74.509804%,12.54902%,18.039216%);fill-opacity:1;" d="M 22.152344 26.839844 C 22.179688 26.839844 22.207031 26.839844 22.234375 26.824219 C 22.34375 26.8125 22.449219 26.785156 22.558594 26.773438 C 22.425781 26.785156 22.289062 26.8125 22.152344 26.839844 Z M 22.152344 26.839844 "/>
<use xlink:href="#surface8" mask="url(#mask1)"/>
<path style=" stroke:none;fill-rule:nonzero;fill:url(#linear1);" d="M 20.1875 20.421875 C 20.597656 19.679688 21.007812 18.9375 21.414062 18.234375 C 21.851562 17.492188 22.273438 16.777344 22.722656 16.085938 C 22.75 16.046875 22.777344 16.007812 22.804688 15.964844 C 23.242188 15.289062 23.679688 14.628906 24.113281 14.007812 L 22.777344 11.523438 C 22.683594 11.644531 22.574219 11.765625 22.476562 11.886719 C 22.097656 12.359375 21.703125 12.871094 21.292969 13.414062 C 20.828125 14.019531 20.367188 14.667969 19.875 15.359375 C 19.425781 15.992188 18.976562 16.640625 18.523438 17.332031 C 18.144531 17.910156 17.761719 18.503906 17.378906 19.125 C 17.367188 19.152344 17.351562 19.167969 17.339844 19.195312 L 19.070312 22.585938 C 19.4375 21.84375 19.804688 21.125 20.1875 20.421875 Z M 20.1875 20.421875 "/>
<path style=" stroke:none;fill-rule:nonzero;fill:url(#linear2);" d="M 12.308594 39.496094 C 12.078125 40.117188 11.847656 40.753906 11.613281 41.402344 C 11.613281 41.414062 11.613281 41.414062 11.601562 41.429688 C 11.574219 41.523438 11.53125 41.617188 11.503906 41.699219 C 11.355469 42.128906 11.21875 42.523438 10.90625 43.425781 C 11.410156 43.65625 11.820312 44.265625 12.214844 44.953125 C 12.171875 44.238281 11.875 43.574219 11.3125 43.046875 C 13.824219 43.15625 15.988281 42.535156 17.109375 40.710938 C 17.203125 40.550781 17.296875 40.375 17.378906 40.199219 C 16.875 40.832031 16.234375 41.105469 15.050781 41.050781 C 15.050781 41.050781 15.050781 41.050781 15.035156 41.050781 C 15.035156 41.050781 15.035156 41.050781 15.050781 41.050781 C 16.792969 40.28125 17.667969 39.535156 18.445312 38.292969 C 18.621094 37.996094 18.8125 37.6875 18.988281 37.335938 C 17.460938 38.886719 15.691406 39.335938 13.824219 38.996094 L 12.417969 39.144531 C 12.40625 39.265625 12.351562 39.386719 12.308594 39.496094 Z M 12.308594 39.496094 "/>
<path style=" stroke:none;fill-rule:nonzero;fill:url(#linear3);" d="M 12.964844 36.402344 C 13.261719 35.632812 13.578125 34.851562 13.890625 34.050781 C 14.191406 33.296875 14.503906 32.539062 14.832031 31.769531 C 15.160156 31 15.484375 30.242188 15.8125 29.472656 C 16.152344 28.691406 16.507812 27.90625 16.863281 27.136719 C 17.214844 26.367188 17.570312 25.609375 17.9375 24.855469 C 18.074219 24.582031 18.199219 24.3125 18.335938 24.042969 C 18.566406 23.570312 18.796875 23.113281 19.03125 22.652344 C 19.042969 22.625 19.058594 22.597656 19.070312 22.585938 L 17.339844 19.179688 C 17.3125 19.222656 17.285156 19.273438 17.257812 19.316406 C 16.847656 19.964844 16.453125 20.640625 16.058594 21.316406 C 15.664062 22.003906 15.265625 22.707031 14.886719 23.410156 C 14.558594 24.003906 14.246094 24.609375 13.945312 25.21875 C 13.875 25.339844 13.824219 25.460938 13.769531 25.582031 C 13.386719 26.351562 13.046875 27.097656 12.746094 27.8125 C 12.390625 28.621094 12.089844 29.394531 11.820312 30.121094 C 11.640625 30.609375 11.476562 31.066406 11.328125 31.511719 C 11.207031 31.890625 11.097656 32.285156 10.988281 32.660156 C 10.726562 33.554688 10.511719 34.457031 10.320312 35.347656 L 12.050781 38.765625 C 12.28125 38.160156 12.515625 37.539062 12.757812 36.917969 C 12.828125 36.753906 12.894531 36.578125 12.964844 36.402344 Z M 12.964844 36.402344 "/>
<path style=" stroke:none;fill-rule:nonzero;fill:url(#linear4);" d="M 10.292969 35.484375 C 10.074219 36.578125 9.921875 37.660156 9.84375 38.738281 C 9.84375 38.78125 9.84375 38.820312 9.828125 38.847656 C 9.28125 37.984375 7.839844 37.144531 7.839844 37.160156 C 8.875 38.660156 9.664062 40.132812 9.789062 41.589844 C 9.230469 41.699219 8.464844 41.535156 7.59375 41.226562 C 8.507812 42.0625 9.203125 42.292969 9.472656 42.359375 C 8.628906 42.414062 7.757812 42.980469 6.871094 43.644531 C 8.164062 43.117188 9.214844 42.914062 9.964844 43.074219 C 8.777344 46.414062 7.578125 50.085938 6.394531 54.003906 C 6.761719 53.894531 6.980469 53.652344 7.101562 53.328125 C 7.320312 52.625 8.722656 47.980469 10.933594 41.875 C 11 41.699219 11.054688 41.523438 11.125 41.347656 C 11.136719 41.292969 11.164062 41.253906 11.179688 41.199219 C 11.410156 40.5625 11.65625 39.902344 11.898438 39.238281 C 11.953125 39.089844 12.007812 38.941406 12.078125 38.78125 C 12.078125 38.78125 12.078125 38.78125 12.078125 38.765625 L 10.347656 35.363281 C 10.304688 35.417969 10.304688 35.457031 10.292969 35.484375 Z M 10.292969 35.484375 "/>
<path style=" stroke:none;fill-rule:nonzero;fill:url(#linear5);" d="M 19.34375 22.855469 C 19.289062 22.949219 19.246094 23.058594 19.191406 23.164062 C 19.042969 23.476562 18.894531 23.785156 18.742188 24.097656 C 18.578125 24.449219 18.417969 24.800781 18.238281 25.164062 C 18.15625 25.339844 18.0625 25.53125 17.980469 25.71875 C 17.722656 26.273438 17.460938 26.851562 17.1875 27.449219 C 16.863281 28.175781 16.535156 28.933594 16.195312 29.730469 C 15.867188 30.488281 15.539062 31.257812 15.210938 32.066406 C 14.898438 32.835938 14.585938 33.621094 14.257812 34.429688 C 13.972656 35.160156 13.6875 35.902344 13.386719 36.660156 C 13.371094 36.699219 13.359375 36.726562 13.34375 36.769531 C 13.058594 37.523438 12.757812 38.308594 12.472656 39.105469 C 12.472656 39.117188 12.460938 39.144531 12.460938 39.160156 L 13.863281 39.011719 C 13.835938 39.011719 13.808594 38.996094 13.78125 38.996094 C 15.457031 38.792969 17.679688 37.550781 19.113281 36.023438 C 19.78125 35.324219 20.378906 34.484375 20.925781 33.511719 C 21.332031 32.78125 21.730469 31.984375 22.097656 31.09375 C 22.425781 30.3125 22.722656 29.472656 23.023438 28.570312 C 22.640625 28.769531 22.207031 28.917969 21.714844 29.015625 C 21.632812 29.027344 21.539062 29.054688 21.457031 29.070312 C 21.375 29.082031 21.277344 29.09375 21.183594 29.109375 C 22.738281 28.515625 23.734375 27.367188 24.441406 25.960938 C 24.03125 26.246094 23.363281 26.597656 22.558594 26.773438 C 22.449219 26.800781 22.34375 26.8125 22.234375 26.824219 C 22.207031 26.824219 22.179688 26.839844 22.152344 26.839844 C 22.695312 26.609375 23.144531 26.367188 23.542969 26.070312 C 23.625 26.003906 23.707031 25.933594 23.785156 25.867188 C 23.910156 25.757812 24.019531 25.652344 24.128906 25.542969 C 24.195312 25.476562 24.265625 25.394531 24.332031 25.3125 C 24.480469 25.125 24.632812 24.933594 24.769531 24.71875 C 24.808594 24.652344 24.851562 24.582031 24.890625 24.515625 C 24.945312 24.421875 24.988281 24.3125 25.042969 24.21875 C 25.257812 23.785156 25.4375 23.394531 25.574219 23.058594 C 25.640625 22.882812 25.710938 22.734375 25.75 22.585938 C 25.777344 22.53125 25.789062 22.476562 25.804688 22.410156 C 25.859375 22.246094 25.898438 22.097656 25.941406 21.976562 C 25.996094 21.789062 26.023438 21.640625 26.050781 21.53125 C 25.996094 21.570312 25.941406 21.613281 25.871094 21.652344 C 25.394531 21.9375 24.589844 22.179688 23.9375 22.300781 L 25.21875 22.164062 L 23.9375 22.300781 C 23.921875 22.300781 23.921875 22.300781 23.910156 22.300781 C 23.839844 22.316406 23.773438 22.328125 23.71875 22.328125 C 23.734375 22.328125 23.746094 22.316406 23.746094 22.316406 L 19.355469 22.789062 C 19.355469 22.828125 19.34375 22.839844 19.34375 22.855469 Z M 19.34375 22.855469 "/>
<path style=" stroke:none;fill-rule:nonzero;fill:url(#linear6);" d="M 24.277344 14.046875 C 23.882812 14.640625 23.460938 15.316406 22.996094 16.085938 C 22.96875 16.128906 22.941406 16.167969 22.929688 16.210938 C 22.53125 16.871094 22.109375 17.601562 21.675781 18.398438 C 21.292969 19.085938 20.898438 19.816406 20.472656 20.613281 C 20.121094 21.300781 19.738281 22.03125 19.355469 22.8125 L 23.746094 22.339844 C 25.027344 21.761719 25.601562 21.234375 26.160156 20.464844 C 26.308594 20.246094 26.457031 20.03125 26.609375 19.800781 C 27.058594 19.101562 27.507812 18.328125 27.902344 17.574219 C 28.285156 16.832031 28.625 16.101562 28.886719 15.4375 C 29.046875 15.019531 29.183594 14.628906 29.265625 14.292969 C 29.347656 13.992188 29.402344 13.695312 29.457031 13.425781 C 27.738281 13.710938 25.640625 13.980469 24.277344 14.046875 Z M 24.277344 14.046875 "/>
<path style=" stroke:none;fill-rule:nonzero;fill:rgb(74.509804%,12.54902%,18.039216%);fill-opacity:1;" d="M 21.441406 29.054688 C 21.359375 29.070312 21.265625 29.082031 21.167969 29.09375 C 21.265625 29.09375 21.359375 29.082031 21.441406 29.054688 Z M 21.441406 29.054688 "/>
<use xlink:href="#surface11" mask="url(#mask2)"/>
<path style=" stroke:none;fill-rule:nonzero;fill:url(#linear7);" d="M 21.441406 29.054688 C 21.359375 29.070312 21.265625 29.082031 21.167969 29.09375 C 21.265625 29.09375 21.359375 29.082031 21.441406 29.054688 Z M 21.441406 29.054688 "/>
<path style=" stroke:none;fill-rule:nonzero;fill:rgb(74.509804%,12.54902%,18.039216%);fill-opacity:1;" d="M 22.152344 26.839844 C 22.179688 26.839844 22.207031 26.824219 22.234375 26.824219 C 22.207031 26.824219 22.179688 26.839844 22.152344 26.839844 Z M 22.152344 26.839844 "/>
<use xlink:href="#surface14" mask="url(#mask3)"/>
<path style=" stroke:none;fill-rule:nonzero;fill:url(#linear8);" d="M 22.152344 26.839844 C 22.179688 26.839844 22.207031 26.824219 22.234375 26.824219 C 22.207031 26.824219 22.179688 26.839844 22.152344 26.839844 Z M 22.152344 26.839844 "/>
<path style=" stroke:none;fill-rule:nonzero;fill:rgb(69.019608%,68.627451%,69.019608%);fill-opacity:1;" d="M 118.609375 21.800781 L 118.609375 22.921875 L 118.292969 22.921875 L 118.292969 21.800781 L 117.898438 21.800781 L 117.898438 21.53125 L 119.015625 21.53125 L 119.015625 21.800781 Z M 118.609375 21.800781 "/>
<path style=" stroke:none;fill-rule:nonzero;fill:rgb(69.019608%,68.627451%,69.019608%);fill-opacity:1;" d="M 120.503906 22.042969 L 120.121094 22.800781 L 119.929688 22.800781 L 119.546875 22.042969 L 119.546875 22.921875 L 119.234375 22.921875 L 119.234375 21.53125 L 119.65625 21.53125 L 120.027344 22.300781 L 120.394531 21.53125 L 120.816406 21.53125 L 120.816406 22.921875 L 120.503906 22.921875 Z M 120.503906 22.042969 "/>
<path style=" stroke:none;fill-rule:nonzero;fill:rgb(42.745098%,43.137255%,44.313725%);fill-opacity:1;" d="M 35.402344 15.886719 L 35.402344 18.355469 L 35.074219 18.355469 L 35.074219 15.886719 L 34.160156 15.886719 L 34.160156 15.574219 L 36.3125 15.574219 L 36.3125 15.886719 Z M 35.402344 15.886719 "/>
<path style=" stroke:none;fill-rule:nonzero;fill:rgb(42.745098%,43.137255%,44.313725%);fill-opacity:1;" d="M 39.886719 18.355469 L 39.886719 17.128906 L 38.195312 17.128906 L 38.195312 18.355469 L 37.867188 18.355469 L 37.867188 15.574219 L 38.195312 15.574219 L 38.195312 16.832031 L 39.886719 16.832031 L 39.886719 15.574219 L 40.214844 15.574219 L 40.214844 18.355469 Z M 39.886719 18.355469 "/>
<path style=" stroke:none;fill-rule:nonzero;fill:rgb(42.745098%,43.137255%,44.313725%);fill-opacity:1;" d="M 42.449219 15.886719 L 42.449219 16.804688 L 43.867188 16.804688 L 43.867188 17.113281 L 42.449219 17.113281 L 42.449219 18.074219 L 44.085938 18.074219 L 44.085938 18.371094 L 42.121094 18.371094 L 42.121094 15.585938 L 44.03125 15.585938 L 44.03125 15.898438 L 42.449219 15.898438 Z M 42.449219 15.886719 "/>
<path style=" stroke:none;fill-rule:nonzero;fill:rgb(82.352941%,12.941176%,15.686275%);fill-opacity:1;" d="M 31.707031 37.457031 L 38.425781 21.542969 L 39.722656 21.542969 L 46.441406 37.457031 L 44.753906 37.457031 L 42.667969 32.484375 L 35.441406 32.484375 L 33.382812 37.457031 Z M 39.082031 23.382812 L 35.78125 31.242188 L 42.296875 31.242188 Z M 39.082031 23.382812 "/>
<path style=" stroke:none;fill-rule:nonzero;fill:rgb(82.352941%,12.941176%,15.686275%);fill-opacity:1;" d="M 48.160156 37.457031 L 48.160156 21.542969 L 54.8125 21.542969 C 57.566406 21.542969 59.554688 24.070312 59.554688 26.542969 C 59.554688 29.136719 57.703125 31.582031 54.949219 31.582031 L 49.726562 31.582031 L 49.726562 37.457031 Z M 49.726562 30.191406 L 54.867188 30.191406 C 56.761719 30.191406 57.988281 28.460938 57.988281 26.542969 C 57.988281 24.542969 56.503906 22.9375 54.730469 22.9375 L 49.726562 22.9375 Z M 49.726562 30.191406 "/>
<path style=" stroke:none;fill-rule:nonzero;fill:rgb(82.352941%,12.941176%,15.686275%);fill-opacity:1;" d="M 58.683594 37.457031 L 65.402344 21.542969 L 66.699219 21.542969 L 73.417969 37.457031 L 71.703125 37.457031 L 69.617188 32.484375 L 62.40625 32.484375 L 60.347656 37.457031 Z M 66.058594 23.382812 L 62.757812 31.242188 L 69.277344 31.242188 Z M 66.058594 23.382812 "/>
<path style=" stroke:none;fill-rule:nonzero;fill:rgb(82.352941%,12.941176%,15.686275%);fill-opacity:1;" d="M 81 21.449219 C 83.847656 21.449219 85.933594 22.882812 86.929688 24.921875 L 85.660156 25.679688 C 84.636719 23.570312 82.648438 22.855469 80.917969 22.855469 C 77.074219 22.855469 74.972656 26.257812 74.972656 29.460938 C 74.972656 32.972656 77.578125 36.160156 80.984375 36.160156 C 82.796875 36.160156 84.925781 35.269531 85.933594 33.203125 L 87.242188 33.878906 C 86.207031 36.253906 83.355469 37.578125 80.890625 37.578125 C 76.488281 37.578125 73.378906 33.40625 73.378906 29.378906 C 73.378906 25.554688 76.160156 21.449219 81 21.449219 Z M 81 21.449219 "/>
<path style=" stroke:none;fill-rule:nonzero;fill:rgb(82.352941%,12.941176%,15.686275%);fill-opacity:1;" d="M 102.113281 21.542969 L 102.113281 37.457031 L 100.53125 37.457031 L 100.53125 30.015625 L 91.019531 30.015625 L 91.019531 37.457031 L 89.464844 37.457031 L 89.464844 21.542969 L 91.019531 21.542969 L 91.019531 28.621094 L 100.53125 28.621094 L 100.53125 21.542969 Z M 102.113281 21.542969 "/>
<path style=" stroke:none;fill-rule:nonzero;fill:rgb(82.352941%,12.941176%,15.686275%);fill-opacity:1;" d="M 116.523438 36.066406 L 116.523438 37.457031 L 105.738281 37.457031 L 105.738281 21.542969 L 116.316406 21.542969 L 116.316406 22.9375 L 107.292969 22.9375 L 107.292969 28.675781 L 115.160156 28.675781 L 115.160156 30 L 107.292969 30 L 107.292969 36.066406 Z M 116.523438 36.066406 "/>
<path style=" stroke:none;fill-rule:nonzero;fill:rgb(42.745098%,43.137255%,44.313725%);fill-opacity:1;" d="M 33.207031 40.820312 C 33.398438 40.875 33.5625 40.957031 33.710938 41.050781 L 33.546875 41.414062 C 33.398438 41.320312 33.246094 41.253906 33.082031 41.199219 C 32.921875 41.15625 32.757812 41.128906 32.621094 41.128906 C 32.402344 41.128906 32.226562 41.171875 32.101562 41.253906 C 31.964844 41.332031 31.910156 41.441406 31.910156 41.578125 C 31.910156 41.699219 31.953125 41.792969 32.019531 41.875 C 32.089844 41.953125 32.183594 42.007812 32.292969 42.0625 C 32.402344 42.101562 32.550781 42.15625 32.742188 42.210938 C 32.976562 42.277344 33.164062 42.359375 33.300781 42.414062 C 33.4375 42.480469 33.5625 42.574219 33.667969 42.699219 C 33.765625 42.820312 33.820312 42.980469 33.820312 43.199219 C 33.820312 43.386719 33.765625 43.546875 33.667969 43.683594 C 33.574219 43.820312 33.425781 43.925781 33.234375 44.007812 C 33.042969 44.089844 32.839844 44.128906 32.59375 44.128906 C 32.347656 44.128906 32.117188 44.089844 31.882812 43.996094 C 31.652344 43.898438 31.460938 43.777344 31.296875 43.617188 L 31.476562 43.277344 C 31.625 43.425781 31.800781 43.546875 32.007812 43.628906 C 32.210938 43.710938 32.402344 43.75 32.59375 43.75 C 32.839844 43.75 33.027344 43.710938 33.179688 43.617188 C 33.316406 43.523438 33.398438 43.398438 33.398438 43.238281 C 33.398438 43.117188 33.355469 43.007812 33.289062 42.925781 C 33.21875 42.847656 33.125 42.777344 33.015625 42.738281 C 32.90625 42.699219 32.757812 42.644531 32.566406 42.589844 C 32.332031 42.523438 32.15625 42.453125 32.007812 42.402344 C 31.871094 42.332031 31.746094 42.25 31.640625 42.117188 C 31.542969 41.996094 31.488281 41.832031 31.488281 41.628906 C 31.488281 41.453125 31.542969 41.304688 31.640625 41.171875 C 31.734375 41.035156 31.871094 40.941406 32.046875 40.859375 C 32.226562 40.792969 32.429688 40.753906 32.660156 40.753906 C 32.824219 40.738281 33.015625 40.765625 33.207031 40.820312 Z M 33.207031 40.820312 "/>
<path style=" stroke:none;fill-rule:nonzero;fill:rgb(42.745098%,43.137255%,44.313725%);fill-opacity:1;" d="M 38.238281 40.96875 C 38.507812 41.117188 38.726562 41.320312 38.878906 41.578125 C 39.039062 41.832031 39.109375 42.117188 39.109375 42.425781 C 39.109375 42.738281 39.027344 43.023438 38.878906 43.277344 C 38.714844 43.535156 38.507812 43.738281 38.238281 43.898438 C 37.964844 44.046875 37.664062 44.128906 37.351562 44.128906 C 37.023438 44.128906 36.722656 44.046875 36.449219 43.898438 C 36.179688 43.75 35.960938 43.546875 35.808594 43.277344 C 35.644531 43.023438 35.578125 42.738281 35.578125 42.425781 C 35.578125 42.117188 35.660156 41.832031 35.808594 41.578125 C 35.972656 41.320312 36.179688 41.117188 36.449219 40.96875 C 36.722656 40.820312 37.023438 40.738281 37.351562 40.738281 C 37.664062 40.738281 37.964844 40.820312 38.238281 40.96875 Z M 36.65625 41.28125 C 36.449219 41.402344 36.273438 41.5625 36.152344 41.765625 C 36.027344 41.96875 35.960938 42.183594 35.960938 42.425781 C 35.960938 42.671875 36.027344 42.898438 36.152344 43.101562 C 36.273438 43.304688 36.449219 43.46875 36.65625 43.589844 C 36.859375 43.710938 37.089844 43.765625 37.351562 43.765625 C 37.597656 43.765625 37.828125 43.710938 38.03125 43.589844 C 38.238281 43.46875 38.414062 43.304688 38.535156 43.101562 C 38.660156 42.898438 38.726562 42.671875 38.726562 42.425781 C 38.726562 42.183594 38.660156 41.96875 38.535156 41.765625 C 38.414062 41.5625 38.25 41.402344 38.03125 41.292969 C 37.828125 41.171875 37.597656 41.117188 37.351562 41.117188 C 37.105469 41.105469 36.875 41.15625 36.65625 41.28125 Z M 36.65625 41.28125 "/>
<path style=" stroke:none;fill-rule:nonzero;fill:rgb(42.745098%,43.137255%,44.313725%);fill-opacity:1;" d="M 41.5625 41.117188 L 41.5625 42.292969 L 43.144531 42.292969 L 43.144531 42.65625 L 41.5625 42.65625 L 41.5625 44.089844 L 41.167969 44.089844 L 41.167969 40.726562 L 43.320312 40.726562 L 43.320312 41.089844 L 41.5625 41.089844 Z M 41.5625 41.117188 "/>
<path style=" stroke:none;fill-rule:nonzero;fill:rgb(42.745098%,43.137255%,44.313725%);fill-opacity:1;" d="M 46.46875 41.117188 L 46.46875 44.101562 L 46.089844 44.101562 L 46.089844 41.117188 L 44.984375 41.117188 L 44.984375 40.753906 L 47.574219 40.753906 L 47.574219 41.117188 Z M 46.46875 41.117188 "/>
<path style=" stroke:none;fill-rule:nonzero;fill:rgb(42.745098%,43.137255%,44.313725%);fill-opacity:1;" d="M 52.589844 44.101562 L 51.675781 41.28125 L 50.75 44.101562 L 50.355469 44.101562 L 49.222656 40.738281 L 49.644531 40.738281 L 50.574219 43.65625 L 51.484375 40.753906 L 51.867188 40.753906 L 52.792969 43.671875 L 53.707031 40.753906 L 54.101562 40.753906 L 52.972656 44.117188 L 52.589844 44.117188 Z M 52.589844 44.101562 "/>
<path style=" stroke:none;fill-rule:nonzero;fill:rgb(42.745098%,43.137255%,44.313725%);fill-opacity:1;" d="M 56.054688 43.265625 L 55.671875 44.117188 L 55.261719 44.117188 L 56.773438 40.753906 L 57.171875 40.753906 L 58.683594 44.117188 L 58.261719 44.117188 L 57.878906 43.265625 Z M 56.980469 41.183594 L 56.230469 42.886719 L 57.742188 42.886719 Z M 56.980469 41.183594 "/>
<path style=" stroke:none;fill-rule:nonzero;fill:rgb(42.745098%,43.137255%,44.313725%);fill-opacity:1;" d="M 62.0625 43.035156 C 61.96875 43.035156 61.886719 43.046875 61.832031 43.046875 L 60.933594 43.046875 L 60.933594 44.117188 L 60.550781 44.117188 L 60.550781 40.753906 L 61.832031 40.753906 C 62.253906 40.753906 62.582031 40.847656 62.8125 41.050781 C 63.046875 41.253906 63.167969 41.523438 63.167969 41.886719 C 63.167969 42.15625 63.101562 42.386719 62.976562 42.574219 C 62.839844 42.765625 62.664062 42.898438 62.417969 42.980469 L 63.210938 44.117188 L 62.773438 44.117188 Z M 62.554688 42.480469 C 62.71875 42.347656 62.800781 42.144531 62.800781 41.886719 C 62.800781 41.628906 62.71875 41.441406 62.554688 41.320312 C 62.390625 41.183594 62.144531 41.128906 61.847656 41.128906 L 60.945312 41.128906 L 60.945312 42.683594 L 61.847656 42.683594 C 62.144531 42.683594 62.390625 42.617188 62.554688 42.480469 Z M 62.554688 42.480469 "/>
<path style=" stroke:none;fill-rule:nonzero;fill:rgb(42.745098%,43.137255%,44.313725%);fill-opacity:1;" d="M 65.730469 41.117188 L 65.730469 42.226562 L 67.433594 42.226562 L 67.433594 42.589844 L 65.730469 42.589844 L 65.730469 43.738281 L 67.707031 43.738281 L 67.707031 44.101562 L 65.347656 44.101562 L 65.347656 40.738281 L 67.652344 40.738281 L 67.652344 41.105469 L 65.730469 41.105469 Z M 65.730469 41.117188 "/>
<path style=" stroke:none;fill-rule:nonzero;fill:rgb(42.745098%,43.137255%,44.313725%);fill-opacity:1;" d="M 73.105469 41.117188 L 73.105469 42.292969 L 74.6875 42.292969 L 74.6875 42.65625 L 73.105469 42.65625 L 73.105469 44.089844 L 72.722656 44.089844 L 72.722656 40.726562 L 74.878906 40.726562 L 74.878906 41.089844 L 73.105469 41.089844 Z M 73.105469 41.117188 "/>
<path style=" stroke:none;fill-rule:nonzero;fill:rgb(42.745098%,43.137255%,44.313725%);fill-opacity:1;" d="M 79.160156 40.96875 C 79.429688 41.117188 79.648438 41.320312 79.800781 41.578125 C 79.960938 41.832031 80.03125 42.117188 80.03125 42.425781 C 80.03125 42.738281 79.949219 43.023438 79.800781 43.277344 C 79.636719 43.535156 79.429688 43.738281 79.160156 43.898438 C 78.886719 44.046875 78.585938 44.128906 78.273438 44.128906 C 77.945312 44.128906 77.644531 44.046875 77.371094 43.898438 C 77.101562 43.75 76.882812 43.546875 76.730469 43.277344 C 76.566406 43.023438 76.5 42.738281 76.5 42.425781 C 76.5 42.117188 76.582031 41.832031 76.730469 41.578125 C 76.894531 41.320312 77.101562 41.117188 77.371094 40.96875 C 77.644531 40.820312 77.945312 40.738281 78.273438 40.738281 C 78.597656 40.738281 78.898438 40.820312 79.160156 40.96875 Z M 77.589844 41.28125 C 77.386719 41.402344 77.207031 41.5625 77.085938 41.765625 C 76.964844 41.96875 76.894531 42.183594 76.894531 42.425781 C 76.894531 42.671875 76.964844 42.898438 77.085938 43.101562 C 77.207031 43.304688 77.386719 43.46875 77.589844 43.589844 C 77.796875 43.710938 78.027344 43.765625 78.285156 43.765625 C 78.53125 43.765625 78.761719 43.710938 78.96875 43.589844 C 79.171875 43.46875 79.347656 43.304688 79.472656 43.101562 C 79.59375 42.898438 79.664062 42.671875 79.664062 42.425781 C 79.664062 42.183594 79.59375 41.96875 79.472656 41.765625 C 79.347656 41.5625 79.183594 41.402344 78.96875 41.292969 C 78.761719 41.171875 78.53125 41.117188 78.285156 41.117188 C 78.027344 41.105469 77.796875 41.15625 77.589844 41.28125 Z M 77.589844 41.28125 "/>
<path style=" stroke:none;fill-rule:nonzero;fill:rgb(42.745098%,43.137255%,44.313725%);fill-opacity:1;" d="M 84.5 43.75 C 84.257812 43.996094 83.902344 44.117188 83.464844 44.117188 C 83.015625 44.117188 82.675781 43.996094 82.417969 43.75 C 82.15625 43.507812 82.035156 43.15625 82.035156 42.726562 L 82.035156 40.753906 L 82.417969 40.753906 L 82.417969 42.726562 C 82.417969 43.046875 82.511719 43.304688 82.6875 43.480469 C 82.878906 43.65625 83.125 43.75 83.453125 43.75 C 83.78125 43.75 84.023438 43.65625 84.214844 43.480469 C 84.394531 43.304688 84.488281 43.046875 84.488281 42.726562 L 84.488281 40.753906 L 84.871094 40.753906 L 84.871094 42.726562 C 84.871094 43.171875 84.746094 43.507812 84.5 43.75 Z M 84.5 43.75 "/>
<path style=" stroke:none;fill-rule:nonzero;fill:rgb(42.745098%,43.137255%,44.313725%);fill-opacity:1;" d="M 89.558594 44.101562 L 87.527344 41.402344 L 87.527344 44.101562 L 87.144531 44.101562 L 87.144531 40.738281 L 87.542969 40.738281 L 89.574219 43.441406 L 89.574219 40.738281 L 89.953125 40.738281 L 89.953125 44.101562 Z M 89.558594 44.101562 "/>
<path style=" stroke:none;fill-rule:nonzero;fill:rgb(42.745098%,43.137255%,44.313725%);fill-opacity:1;" d="M 94.535156 40.96875 C 94.792969 41.117188 95.011719 41.320312 95.160156 41.578125 C 95.3125 41.832031 95.394531 42.117188 95.394531 42.425781 C 95.394531 42.738281 95.3125 43.023438 95.160156 43.277344 C 95.011719 43.535156 94.792969 43.738281 94.535156 43.886719 C 94.261719 44.035156 93.960938 44.101562 93.636719 44.101562 L 92.273438 44.101562 L 92.273438 40.738281 L 93.648438 40.738281 C 93.976562 40.753906 94.277344 40.820312 94.535156 40.96875 Z M 92.667969 43.738281 L 93.648438 43.738281 C 93.894531 43.738281 94.125 43.683594 94.332031 43.5625 C 94.535156 43.453125 94.699219 43.292969 94.820312 43.089844 C 94.945312 42.886719 95 42.671875 95 42.414062 C 95 42.171875 94.945312 41.941406 94.820312 41.753906 C 94.699219 41.550781 94.535156 41.402344 94.332031 41.28125 C 94.125 41.15625 93.894531 41.105469 93.648438 41.105469 L 92.679688 41.105469 L 92.679688 43.738281 Z M 92.667969 43.738281 "/>
<path style=" stroke:none;fill-rule:nonzero;fill:rgb(42.745098%,43.137255%,44.313725%);fill-opacity:1;" d="M 97.589844 43.265625 L 97.207031 44.117188 L 96.796875 44.117188 L 98.308594 40.753906 L 98.707031 40.753906 L 100.21875 44.117188 L 99.796875 44.117188 L 99.414062 43.265625 Z M 98.515625 41.183594 L 97.765625 42.886719 L 99.277344 42.886719 Z M 98.515625 41.183594 "/>
<path style=" stroke:none;fill-rule:nonzero;fill:rgb(42.745098%,43.137255%,44.313725%);fill-opacity:1;" d="M 102.78125 41.117188 L 102.78125 44.101562 L 102.398438 44.101562 L 102.398438 41.117188 L 101.296875 41.117188 L 101.296875 40.753906 L 103.898438 40.753906 L 103.898438 41.117188 Z M 102.78125 41.117188 "/>
<path style=" stroke:none;fill-rule:nonzero;fill:rgb(42.745098%,43.137255%,44.313725%);fill-opacity:1;" d="M 105.753906 44.101562 L 105.753906 40.738281 L 106.136719 40.738281 L 106.136719 44.101562 Z M 105.753906 44.101562 "/>
<path style=" stroke:none;fill-rule:nonzero;fill:rgb(42.745098%,43.137255%,44.313725%);fill-opacity:1;" d="M 110.878906 40.96875 C 111.152344 41.117188 111.371094 41.320312 111.519531 41.578125 C 111.683594 41.832031 111.75 42.117188 111.75 42.425781 C 111.75 42.738281 111.667969 43.023438 111.519531 43.277344 C 111.355469 43.535156 111.152344 43.738281 110.878906 43.898438 C 110.605469 44.046875 110.304688 44.128906 109.992188 44.128906 C 109.664062 44.128906 109.367188 44.046875 109.09375 43.898438 C 108.820312 43.75 108.601562 43.546875 108.453125 43.277344 C 108.289062 43.023438 108.21875 42.738281 108.21875 42.425781 C 108.21875 42.117188 108.300781 41.832031 108.453125 41.578125 C 108.617188 41.320312 108.820312 41.117188 109.09375 40.96875 C 109.367188 40.820312 109.664062 40.738281 109.992188 40.738281 C 110.304688 40.738281 110.605469 40.820312 110.878906 40.96875 Z M 109.296875 41.28125 C 109.09375 41.402344 108.914062 41.5625 108.792969 41.765625 C 108.671875 41.96875 108.601562 42.183594 108.601562 42.425781 C 108.601562 42.671875 108.671875 42.898438 108.792969 43.101562 C 108.914062 43.304688 109.09375 43.46875 109.296875 43.589844 C 109.503906 43.710938 109.734375 43.765625 109.992188 43.765625 C 110.238281 43.765625 110.46875 43.710938 110.675781 43.589844 C 110.878906 43.46875 111.054688 43.304688 111.179688 43.101562 C 111.300781 42.898438 111.371094 42.671875 111.371094 42.425781 C 111.371094 42.183594 111.300781 41.96875 111.179688 41.765625 C 111.054688 41.5625 110.890625 41.402344 110.675781 41.292969 C 110.46875 41.171875 110.238281 41.117188 109.992188 41.117188 C 109.734375 41.105469 109.503906 41.15625 109.296875 41.28125 Z M 109.296875 41.28125 "/>
<path style=" stroke:none;fill-rule:nonzero;fill:rgb(42.745098%,43.137255%,44.313725%);fill-opacity:1;" d="M 116.222656 44.101562 L 114.191406 41.402344 L 114.191406 44.101562 L 113.808594 44.101562 L 113.808594 40.738281 L 114.203125 40.738281 L 116.234375 43.441406 L 116.234375 40.738281 L 116.617188 40.738281 L 116.617188 44.101562 Z M 116.222656 44.101562 "/>
<path style=" stroke:none;fill-rule:nonzero;fill:url(#linear9);" d="M 26.171875 8.132812 C 25.4375 8.5625 24.238281 9.765625 22.777344 11.523438 L 24.113281 14.007812 C 25.042969 12.683594 25.996094 11.496094 26.949219 10.480469 C 27.019531 10.402344 27.058594 10.359375 27.058594 10.359375 C 27.019531 10.402344 26.992188 10.441406 26.949219 10.480469 C 26.636719 10.820312 25.695312 11.898438 24.292969 14.0625 C 25.65625 13.992188 27.753906 13.722656 29.457031 13.425781 C 29.960938 10.601562 28.953125 9.308594 28.953125 9.308594 C 28.953125 9.308594 27.671875 7.253906 26.171875 8.132812 Z M 26.171875 8.132812 "/>
<path style=" stroke:none;fill-rule:nonzero;fill:rgb(74.509804%,12.54902%,18.039216%);fill-opacity:1;" d="M 21.703125 29.015625 C 21.539062 29.042969 21.359375 29.070312 21.183594 29.109375 C 21.277344 29.09375 21.359375 29.082031 21.457031 29.070312 C 21.539062 29.042969 21.621094 29.027344 21.703125 29.015625 Z M 21.703125 29.015625 "/>
<use xlink:href="#surface18" mask="url(#mask4)"/>
<path style=" stroke:none;fill-rule:nonzero;fill:rgb(74.509804%,12.54902%,18.039216%);fill-opacity:1;" d="M 22.152344 26.839844 C 22.179688 26.839844 22.207031 26.839844 22.234375 26.824219 C 22.34375 26.8125 22.449219 26.785156 22.558594 26.773438 C 22.425781 26.785156 22.289062 26.8125 22.152344 26.839844 Z M 22.152344 26.839844 "/>
<use xlink:href="#surface21" mask="url(#mask5)"/>
<path style=" stroke:none;fill-rule:nonzero;fill:url(#linear10);" d="M 20.1875 20.421875 C 20.597656 19.679688 21.007812 18.9375 21.414062 18.234375 C 21.851562 17.492188 22.273438 16.777344 22.722656 16.085938 C 22.75 16.046875 22.777344 16.007812 22.804688 15.964844 C 23.242188 15.289062 23.679688 14.628906 24.113281 14.007812 L 22.777344 11.523438 C 22.683594 11.644531 22.574219 11.765625 22.476562 11.886719 C 22.097656 12.359375 21.703125 12.871094 21.292969 13.414062 C 20.828125 14.019531 20.367188 14.667969 19.875 15.359375 C 19.425781 15.992188 18.976562 16.640625 18.523438 17.332031 C 18.144531 17.910156 17.761719 18.503906 17.378906 19.125 C 17.367188 19.152344 17.351562 19.167969 17.339844 19.195312 L 19.070312 22.585938 C 19.4375 21.84375 19.804688 21.125 20.1875 20.421875 Z M 20.1875 20.421875 "/>
<path style=" stroke:none;fill-rule:nonzero;fill:url(#linear11);" d="M 12.308594 39.496094 C 12.078125 40.117188 11.847656 40.753906 11.613281 41.402344 C 11.613281 41.414062 11.613281 41.414062 11.601562 41.429688 C 11.574219 41.523438 11.53125 41.617188 11.503906 41.699219 C 11.355469 42.128906 11.21875 42.523438 10.90625 43.425781 C 11.410156 43.65625 11.820312 44.265625 12.214844 44.953125 C 12.171875 44.238281 11.875 43.574219 11.3125 43.046875 C 13.824219 43.15625 15.988281 42.535156 17.109375 40.710938 C 17.203125 40.550781 17.296875 40.375 17.378906 40.199219 C 16.875 40.832031 16.234375 41.105469 15.050781 41.050781 C 15.050781 41.050781 15.050781 41.050781 15.035156 41.050781 C 15.035156 41.050781 15.035156 41.050781 15.050781 41.050781 C 16.792969 40.28125 17.667969 39.535156 18.445312 38.292969 C 18.621094 37.996094 18.8125 37.6875 18.988281 37.335938 C 17.460938 38.886719 15.691406 39.335938 13.824219 38.996094 L 12.417969 39.144531 C 12.40625 39.265625 12.351562 39.386719 12.308594 39.496094 Z M 12.308594 39.496094 "/>
<path style=" stroke:none;fill-rule:nonzero;fill:url(#linear12);" d="M 12.964844 36.402344 C 13.261719 35.632812 13.578125 34.851562 13.890625 34.050781 C 14.191406 33.296875 14.503906 32.539062 14.832031 31.769531 C 15.160156 31 15.484375 30.242188 15.8125 29.472656 C 16.152344 28.691406 16.507812 27.90625 16.863281 27.136719 C 17.214844 26.367188 17.570312 25.609375 17.9375 24.855469 C 18.074219 24.582031 18.199219 24.3125 18.335938 24.042969 C 18.566406 23.570312 18.796875 23.113281 19.03125 22.652344 C 19.042969 22.625 19.058594 22.597656 19.070312 22.585938 L 17.339844 19.179688 C 17.3125 19.222656 17.285156 19.273438 17.257812 19.316406 C 16.847656 19.964844 16.453125 20.640625 16.058594 21.316406 C 15.664062 22.003906 15.265625 22.707031 14.886719 23.410156 C 14.558594 24.003906 14.246094 24.609375 13.945312 25.21875 C 13.875 25.339844 13.824219 25.460938 13.769531 25.582031 C 13.386719 26.351562 13.046875 27.097656 12.746094 27.8125 C 12.390625 28.621094 12.089844 29.394531 11.820312 30.121094 C 11.640625 30.609375 11.476562 31.066406 11.328125 31.511719 C 11.207031 31.890625 11.097656 32.285156 10.988281 32.660156 C 10.726562 33.554688 10.511719 34.457031 10.320312 35.347656 L 12.050781 38.765625 C 12.28125 38.160156 12.515625 37.539062 12.757812 36.917969 C 12.828125 36.753906 12.894531 36.578125 12.964844 36.402344 Z M 12.964844 36.402344 "/>
<path style=" stroke:none;fill-rule:nonzero;fill:url(#linear13);" d="M 10.292969 35.484375 C 10.074219 36.578125 9.921875 37.660156 9.84375 38.738281 C 9.84375 38.78125 9.84375 38.820312 9.828125 38.847656 C 9.28125 37.984375 7.839844 37.144531 7.839844 37.160156 C 8.875 38.660156 9.664062 40.132812 9.789062 41.589844 C 9.230469 41.699219 8.464844 41.535156 7.59375 41.226562 C 8.507812 42.0625 9.203125 42.292969 9.472656 42.359375 C 8.628906 42.414062 7.757812 42.980469 6.871094 43.644531 C 8.164062 43.117188 9.214844 42.914062 9.964844 43.074219 C 8.777344 46.414062 7.578125 50.085938 6.394531 54.003906 C 6.761719 53.894531 6.980469 53.652344 7.101562 53.328125 C 7.320312 52.625 8.722656 47.980469 10.933594 41.875 C 11 41.699219 11.054688 41.523438 11.125 41.347656 C 11.136719 41.292969 11.164062 41.253906 11.179688 41.199219 C 11.410156 40.5625 11.65625 39.902344 11.898438 39.238281 C 11.953125 39.089844 12.007812 38.941406 12.078125 38.78125 C 12.078125 38.78125 12.078125 38.78125 12.078125 38.765625 L 10.347656 35.363281 C 10.304688 35.417969 10.304688 35.457031 10.292969 35.484375 Z M 10.292969 35.484375 "/>
<path style=" stroke:none;fill-rule:nonzero;fill:url(#linear14);" d="M 19.34375 22.855469 C 19.289062 22.949219 19.246094 23.058594 19.191406 23.164062 C 19.042969 23.476562 18.894531 23.785156 18.742188 24.097656 C 18.578125 24.449219 18.417969 24.800781 18.238281 25.164062 C 18.15625 25.339844 18.0625 25.53125 17.980469 25.71875 C 17.722656 26.273438 17.460938 26.851562 17.1875 27.449219 C 16.863281 28.175781 16.535156 28.933594 16.195312 29.730469 C 15.867188 30.488281 15.539062 31.257812 15.210938 32.066406 C 14.898438 32.835938 14.585938 33.621094 14.257812 34.429688 C 13.972656 35.160156 13.6875 35.902344 13.386719 36.660156 C 13.371094 36.699219 13.359375 36.726562 13.34375 36.769531 C 13.058594 37.523438 12.757812 38.308594 12.472656 39.105469 C 12.472656 39.117188 12.460938 39.144531 12.460938 39.160156 L 13.863281 39.011719 C 13.835938 39.011719 13.808594 38.996094 13.78125 38.996094 C 15.457031 38.792969 17.679688 37.550781 19.113281 36.023438 C 19.78125 35.324219 20.378906 34.484375 20.925781 33.511719 C 21.332031 32.78125 21.730469 31.984375 22.097656 31.09375 C 22.425781 30.3125 22.722656 29.472656 23.023438 28.570312 C 22.640625 28.769531 22.207031 28.917969 21.714844 29.015625 C 21.632812 29.027344 21.539062 29.054688 21.457031 29.070312 C 21.375 29.082031 21.277344 29.09375 21.183594 29.109375 C 22.738281 28.515625 23.734375 27.367188 24.441406 25.960938 C 24.03125 26.246094 23.363281 26.597656 22.558594 26.773438 C 22.449219 26.800781 22.34375 26.8125 22.234375 26.824219 C 22.207031 26.824219 22.179688 26.839844 22.152344 26.839844 C 22.695312 26.609375 23.144531 26.367188 23.542969 26.070312 C 23.625 26.003906 23.707031 25.933594 23.785156 25.867188 C 23.910156 25.757812 24.019531 25.652344 24.128906 25.542969 C 24.195312 25.476562 24.265625 25.394531 24.332031 25.3125 C 24.480469 25.125 24.632812 24.933594 24.769531 24.71875 C 24.808594 24.652344 24.851562 24.582031 24.890625 24.515625 C 24.945312 24.421875 24.988281 24.3125 25.042969 24.21875 C 25.257812 23.785156 25.4375 23.394531 25.574219 23.058594 C 25.640625 22.882812 25.710938 22.734375 25.75 22.585938 C 25.777344 22.53125 25.789062 22.476562 25.804688 22.410156 C 25.859375 22.246094 25.898438 22.097656 25.941406 21.976562 C 25.996094 21.789062 26.023438 21.640625 26.050781 21.53125 C 25.996094 21.570312 25.941406 21.613281 25.871094 21.652344 C 25.394531 21.9375 24.589844 22.179688 23.9375 22.300781 L 25.21875 22.164062 L 23.9375 22.300781 C 23.921875 22.300781 23.921875 22.300781 23.910156 22.300781 C 23.839844 22.316406 23.773438 22.328125 23.71875 22.328125 C 23.734375 22.328125 23.746094 22.316406 23.746094 22.316406 L 19.355469 22.789062 C 19.355469 22.828125 19.34375 22.839844 19.34375 22.855469 Z M 19.34375 22.855469 "/>
<path style=" stroke:none;fill-rule:nonzero;fill:url(#linear15);" d="M 24.277344 14.046875 C 23.882812 14.640625 23.460938 15.316406 22.996094 16.085938 C 22.96875 16.128906 22.941406 16.167969 22.929688 16.210938 C 22.53125 16.871094 22.109375 17.601562 21.675781 18.398438 C 21.292969 19.085938 20.898438 19.816406 20.472656 20.613281 C 20.121094 21.300781 19.738281 22.03125 19.355469 22.8125 L 23.746094 22.339844 C 25.027344 21.761719 25.601562 21.234375 26.160156 20.464844 C 26.308594 20.246094 26.457031 20.03125 26.609375 19.800781 C 27.058594 19.101562 27.507812 18.328125 27.902344 17.574219 C 28.285156 16.832031 28.625 16.101562 28.886719 15.4375 C 29.046875 15.019531 29.183594 14.628906 29.265625 14.292969 C 29.347656 13.992188 29.402344 13.695312 29.457031 13.425781 C 27.738281 13.710938 25.640625 13.980469 24.277344 14.046875 Z M 24.277344 14.046875 "/>
<path style=" stroke:none;fill-rule:nonzero;fill:rgb(74.509804%,12.54902%,18.039216%);fill-opacity:1;" d="M 21.441406 29.054688 C 21.359375 29.070312 21.265625 29.082031 21.167969 29.09375 C 21.265625 29.09375 21.359375 29.082031 21.441406 29.054688 Z M 21.441406 29.054688 "/>
<use xlink:href="#surface24" mask="url(#mask6)"/>
<path style=" stroke:none;fill-rule:nonzero;fill:url(#linear16);" d="M 21.441406 29.054688 C 21.359375 29.070312 21.265625 29.082031 21.167969 29.09375 C 21.265625 29.09375 21.359375 29.082031 21.441406 29.054688 Z M 21.441406 29.054688 "/>
<path style=" stroke:none;fill-rule:nonzero;fill:rgb(74.509804%,12.54902%,18.039216%);fill-opacity:1;" d="M 22.152344 26.839844 C 22.179688 26.839844 22.207031 26.824219 22.234375 26.824219 C 22.207031 26.824219 22.179688 26.839844 22.152344 26.839844 Z M 22.152344 26.839844 "/>
<use xlink:href="#surface27" mask="url(#mask7)"/>
<path style=" stroke:none;fill-rule:nonzero;fill:url(#linear17);" d="M 22.152344 26.839844 C 22.179688 26.839844 22.207031 26.824219 22.234375 26.824219 C 22.207031 26.824219 22.179688 26.839844 22.152344 26.839844 Z M 22.152344 26.839844 "/>
<path style=" stroke:none;fill-rule:nonzero;fill:rgb(69.019608%,68.627451%,69.019608%);fill-opacity:1;" d="M 118.609375 21.800781 L 118.609375 22.921875 L 118.292969 22.921875 L 118.292969 21.800781 L 117.898438 21.800781 L 117.898438 21.53125 L 119.015625 21.53125 L 119.015625 21.800781 Z M 118.609375 21.800781 "/>
<path style=" stroke:none;fill-rule:nonzero;fill:rgb(69.019608%,68.627451%,69.019608%);fill-opacity:1;" d="M 120.503906 22.042969 L 120.121094 22.800781 L 119.929688 22.800781 L 119.546875 22.042969 L 119.546875 22.921875 L 119.234375 22.921875 L 119.234375 21.53125 L 119.65625 21.53125 L 120.027344 22.300781 L 120.394531 21.53125 L 120.816406 21.53125 L 120.816406 22.921875 L 120.503906 22.921875 Z M 120.503906 22.042969 "/>
</g>
</svg>
