<?xml version="1.0" encoding="UTF-8" standalone="no"?>
<svg
   style="overflow:visible"
   version="1.1"
   id="Layer_1"
   width="192"
   height="192"
   viewBox="0 0 192 192"
   overflow="visible"
   enable-background="new 0 0 517 500"
   xml:space="preserve"
   inkscape:version="1.1 (c4e8f9e, 2021-05-24)"
   sodipodi:docname="boost-grey.svg"
   xmlns:inkscape="http://www.inkscape.org/namespaces/inkscape"
   xmlns:sodipodi="http://sodipodi.sourceforge.net/DTD/sodipodi-0.dtd"
   xmlns:xlink="http://www.w3.org/1999/xlink"
   xmlns="http://www.w3.org/2000/svg"
   xmlns:svg="http://www.w3.org/2000/svg"
   xmlns:rdf="http://www.w3.org/1999/02/22-rdf-syntax-ns#"
   xmlns:cc="http://creativecommons.org/ns#"
   xmlns:dc="http://purl.org/dc/elements/1.1/"><metadata
     id="metadata3335"><rdf:RDF><cc:Work
         rdf:about=""><dc:format>image/svg+xml</dc:format><dc:type
           rdf:resource="http://purl.org/dc/dcmitype/StillImage" /></cc:Work></rdf:RDF></metadata><defs
     id="defs3333"><radialGradient
       inkscape:collect="always"
       xlink:href="#XMLID_5_"
       id="radialGradient5450"
       gradientUnits="userSpaceOnUse"
       cx="63.75"
       cy="246.375"
       r="58.375" /><linearGradient
       inkscape:collect="always"
       xlink:href="#XMLID_6_"
       id="linearGradient5452"
       gradientUnits="userSpaceOnUse"
       x1="28.6553"
       y1="262.375"
       x2="72.826698"
       y2="262.375" /><linearGradient
       inkscape:collect="always"
       xlink:href="#XMLID_7_"
       id="linearGradient5454"
       gradientUnits="userSpaceOnUse"
       x1="66.6689"
       y1="242.22659"
       x2="110.314"
       y2="242.22659" /></defs><sodipodi:namedview
     pagecolor="#ffffff"
     bordercolor="#666666"
     borderopacity="1"
     objecttolerance="10"
     gridtolerance="10"
     guidetolerance="10"
     inkscape:pageopacity="0"
     inkscape:pageshadow="2"
     inkscape:window-width="1296"
     inkscape:window-height="997"
     id="namedview3331"
     showgrid="false"
     inkscape:zoom="5.5059933"
     inkscape:cx="85.452338"
     inkscape:cy="89.629604"
     inkscape:window-x="191"
     inkscape:window-y="48"
     inkscape:window-maximized="0"
     inkscape:current-layer="Layer_1"
     inkscape:pagecheckerboard="0" /><g
     id="shadow"
     transform="matrix(1.5826403,0,0,1.5826403,-8.3642503,-297.53638)"><radialGradient
       id="XMLID_5_"
       cx="63.75"
       cy="246.375"
       r="58.375"
       gradientUnits="userSpaceOnUse"><stop
         offset="0"
         style="stop-color:#000000"
         id="stop3283" /><stop
         offset="0.0641"
         style="stop-color:#191919"
         id="stop3285" /><stop
         offset="0.2539"
         style="stop-color:#5E5E5E"
         id="stop3287" /><stop
         offset="0.4336"
         style="stop-color:#979797"
         id="stop3289" /><stop
         offset="0.5979"
         style="stop-color:#C4C4C4"
         id="stop3291" /><stop
         offset="0.7439"
         style="stop-color:#E4E4E4"
         id="stop3293" /><stop
         offset="0.866"
         style="stop-color:#F8F8F8"
         id="stop3295" /><stop
         offset="0.9494"
         style="stop-color:#FFFFFF"
         id="stop3297" /></radialGradient><circle
       cx="63.75"
       cy="246.375"
       r="58.375"
       id="circle3299"
       sodipodi:cx="63.75"
       sodipodi:cy="246.375"
       sodipodi:rx="58.375"
       sodipodi:ry="58.375"
       style="opacity:0.3;fill:url(#radialGradient5450)"
       d="m 122.125,246.375 c 0,32.23962 -26.135378,58.375 -58.375,58.375 C 31.510378,304.75 5.375,278.61462 5.375,246.375 5.375,214.13538 31.510378,188 63.75,188 c 32.239622,0 58.375,26.13538 58.375,58.375 z" /></g><g
     id="left-down"
     transform="matrix(1.5826403,0,0,1.5826403,-8.3642503,-297.53638)"><linearGradient
       id="XMLID_6_"
       gradientUnits="userSpaceOnUse"
       x1="28.6553"
       y1="262.375"
       x2="72.826698"
       y2="262.375"><stop
         offset="0"
         style="stop-color:#8AACD6"
         id="stop3303" /><stop
         offset="1"
         style="stop-color:#A7C7E6"
         id="stop3305" /></linearGradient><polygon
       points="72.827,262.465 61.668,243.375 39.724,243.375 28.655,262.286 39.721,281.375 61.665,281.375 "
       id="polygon3307"
       style="fill:url(#linearGradient5452)" /><path
       d="M 62.242,242.375 H 61.094 40.297 39.15 l -0.579,0.99 -10.485,17.914 -0.589,1.005 0.585,1.008 10.485,18.086 0.578,0.997 h 1.152 20.797 1.142 l 0.58,-0.983 10.572,-17.913 0.597,-1.012 -0.592,-1.014 -10.572,-18.087 -0.579,-0.991 0,0 z m -32.43,19.914 10.485,-17.914 h 20.797 l 10.572,18.087 0,0 0,0 -10.572,17.913 H 40.297 l -10.485,-18.086 0,0 0,0 z"
       id="path3309"
       inkscape:connector-curvature="0"
       style="fill:#ffffff" /></g><g
     id="right-center"
     transform="matrix(1.5826403,0,0,1.5826403,-8.3642503,-297.53638)"><linearGradient
       id="XMLID_7_"
       gradientUnits="userSpaceOnUse"
       x1="66.6689"
       y1="242.22659"
       x2="110.314"
       y2="242.22659"><stop
         offset="0.0056"
         style="stop-color:#B1D2EC"
         id="stop3313" /><stop
         offset="1"
         style="stop-color:#C8E6F6"
         id="stop3315" /></linearGradient><polygon
       points="110.314,242.047 99.106,223.15 77.164,223.15 66.669,241.262 78.307,261.304 99.112,261.21 "
       id="polygon3317"
       style="fill:url(#linearGradient5454)" /><path
       d="M 99.675,222.15 H 98.536 77.739 76.586 l -0.578,0.997 -9.914,17.112 -0.581,1.004 0.582,1.003 11.056,19.039 0.582,1.001 1.157,-0.005 19.655,-0.088 1.142,-0.005 0.576,-0.986 10.617,-18.162 0.594,-1.016 -0.601,-1.013 -10.617,-17.901 -0.581,-0.98 0,0 z m -31.85,19.112 9.914,-17.112 h 20.797 l 10.617,17.901 0,0 0,0 -10.617,18.162 -19.655,0.088 -11.056,-19.039 0,0 0,0 z"
       id="path3319"
       inkscape:connector-curvature="0"
       style="fill:#ffffff" /></g><g
     id="left-up"
     transform="matrix(1.5826403,0,0,1.5826403,-8.3642503,-297.53638)"><linearGradient
       id="XMLID_8_"
       gradientUnits="userSpaceOnUse"
       x1="39.3022"
       y1="222.79201"
       x2="78.625504"
       y2="222.79201"><stop
         offset="0.0056"
         style="stop-color:#B1D2EC"
         id="stop3323" /><stop
         offset="1"
         style="stop-color:#C8E6F6"
         id="stop3325" /></linearGradient><path
       d="m 50.211,207.025 -10.909,19.045 6.912,12.442 16.451,0.047 c 0,0 11.104,-18.828 11.656,-19.763 0.766,0 4.304,0 4.304,0 l -6.704,-11.771 h -21.71 z"
       id="path3327"
       inkscape:connector-curvature="0"
       style="fill:url(#XMLID_8_)" /><path
       d="M 72.503,206.025 H 71.34 50.79 49.631 l -0.576,1.006 -10.34,18.053 -0.561,0.979 0.548,0.986 6.353,11.436 0.569,1.026 1.173,0.003 15.292,0.044 1.146,0.003 0.583,-0.987 11.075,-18.778 h 2.012 3.441 l -1.703,-2.99 -5.565,-9.771 -0.575,-1.01 0,0 z M 40.45,226.078 50.79,208.025 h 20.55 l 5.565,9.771 0,0 0,0 H 73.75 l -11.655,19.762 -15.292,-0.044 -6.353,-11.436 0,0 0,0 z"
       id="path3329"
       inkscape:connector-curvature="0"
       style="fill:#ffffff" /></g><path
     style="fill:#cccccc;stroke-width:0.11706"
     d="m 55.263857,145.88675 c -0.09356,-0.14508 -3.829278,-6.57483 -8.301604,-14.28833 l -8.1315,-14.02455 2.445001,-4.17832 c 1.344751,-2.29808 5.067179,-8.65588 8.272063,-14.128449 l 5.82706,-9.950122 h 16.487108 16.487107 l 8.297716,14.206461 c 4.563742,7.81355 8.295992,14.2665 8.293892,14.33988 -0.002,0.0734 -3.73507,6.45468 -8.295483,14.18065 l -8.291669,14.04723 -16.459793,0.0297 -16.459794,0.0297 z"
     id="path877" /><path
     style="fill:#cccccc;stroke-width:0.11706"
     d="m 65.645375,78.225519 c -0.06194,-0.08048 -2.335972,-4.154841 -5.053393,-9.054137 l -4.940765,-8.907811 7.286875,-12.719072 7.286876,-12.719072 h 18.039676 18.039676 l 3.44648,6.048402 c 1.89556,3.326621 3.46368,6.09111 3.48471,6.14331 0.021,0.0522 -1.07607,0.109136 -2.438,0.126527 l -2.47624,0.03162 -9.193569,15.59828 -9.193575,15.598279 H 77.846065 c -9.532341,0 -12.111874,-0.03094 -12.20069,-0.146326 z"
     id="path916" /><path
     style="fill:#cccccc;stroke-width:0.11706"
     d="m 107.76372,99.426578 c -4.79117,-8.251825 -8.71123,-15.061433 -8.71123,-15.132463 0,-0.07103 3.51804,-6.200059 7.81786,-13.620066 l 7.81787,-13.49092 16.44583,0.02967 16.44583,0.02967 8.36255,14.105762 c 4.59941,7.758168 8.34092,14.184777 8.31448,14.281351 -0.053,0.193385 -16.5527,28.459778 -16.68114,28.577138 -0.0439,0.0401 -7.05956,0.10676 -15.59033,0.14807 l -15.51048,0.0751 z"
     id="path955" /><path
     style="fill:#cccccc;stroke-width:0.0494061"
     d="m 88.276271,34.868257 c -9.925059,-0.0068 -18.045562,-0.02425 -18.045562,-0.03871 0,-0.01446 0.402369,-0.725878 0.894153,-1.580927 l 0.894153,-1.554634 16.2621,0.0012 16.262095,0.0012 0.90199,1.587721 c 0.49609,0.873246 0.89628,1.589718 0.88931,1.59216 -0.007,0.0024 -8.13318,-0.0011 -18.058239,-0.008 z"
     id="path994" /></svg>
