<?xml version="1.0" encoding="UTF-8"?>
<svg xmlns="http://www.w3.org/2000/svg" xmlns:xlink="http://www.w3.org/1999/xlink" width="128pt" height="59pt" viewBox="0 0 128 59" version="1.1">
<g id="surface1">
<path style=" stroke:none;fill-rule:nonzero;fill:rgb(60%,0%,0%);fill-opacity:1;" d="M 65.425781 58.671875 C 73.273438 57.78125 80.570312 50.300781 79.300781 42.320312 C 78.761719 38.945312 76.523438 35.464844 72.816406 33.042969 C 69.917969 31.148438 55.765625 24.542969 53.285156 22.84375 C 51.761719 21.691406 48.773438 18.535156 48.554688 16.5 C 47.957031 11.019531 50.984375 8.675781 54.054688 7.273438 C 55.320312 6.683594 56.957031 6.46875 57.628906 6.390625 C 63.355469 5.730469 65.214844 6.757812 70.453125 9.214844 C 70.992188 9.464844 71.527344 9.476562 72.109375 9.386719 C 73.871094 9.113281 75.089844 8.351562 74.8125 6.613281 C 74.605469 5.320312 73.878906 4.730469 72.511719 4.0625 C 68.859375 2.277344 62.011719 0.136719 56.242188 1.035156 C 56.144531 1.046875 56.050781 1.070312 55.957031 1.085938 L 55.941406 1.003906 C 47.9375 2.320312 41.59375 9.46875 42.855469 17.402344 C 43.539062 21.667969 46.859375 25.238281 50.253906 27.421875 C 52.527344 29.304688 60.746094 32.566406 68.875 37.019531 C 71.761719 38.601562 72.925781 40.160156 73.347656 43.695312 C 73.785156 47.359375 69.488281 51.527344 66.125 52.785156 C 60.898438 54.300781 54.757812 52.152344 50.664062 50.015625 C 49.445312 49.230469 48.882812 48.8125 47.757812 48.988281 C 46 49.261719 44.796875 50.894531 45.070312 52.632812 C 45.257812 53.789062 45.929688 54.601562 47.078125 55.101562 C 54.355469 58.265625 59.265625 59.371094 65.425781 58.671875 Z M 65.425781 58.671875 "/>
<path style=" stroke:none;fill-rule:nonzero;fill:rgb(60%,0%,0%);fill-opacity:1;" d="M 14.847656 0 C 14.707031 0 14.566406 0.0507812 14.4375 0.101562 C 6.472656 0.984375 0.238281 7.53125 0 15.574219 L 0.101562 15.574219 C 0.0976562 15.652344 0.0664062 15.726562 0.0664062 15.808594 L 0.0664062 55.765625 C 0.0664062 57.238281 1.054688 58.421875 2.316406 58.65625 C 2.339844 58.660156 2.359375 58.6875 2.382812 58.691406 C 2.726562 58.808594 3.117188 58.859375 3.507812 58.859375 L 26.457031 58.859375 L 26.457031 59.027344 C 35.839844 59.003906 43.449219 51.484375 43.449219 42.210938 C 43.449219 34.710938 38.460938 28.371094 31.601562 26.199219 C 34.515625 23.429688 36.332031 19.546875 36.332031 15.238281 C 36.332031 7.089844 29.863281 0.449219 21.726562 0.0351562 C 21.667969 0.0273438 21.613281 0 21.554688 0 Z M 15.085938 5.28125 L 21.246094 5.28125 C 26.453125 5.808594 30.511719 10.058594 30.511719 15.234375 C 30.511719 20.242188 26.714844 24.375 21.757812 25.125 L 8.171875 25.125 C 7.242188 24.804688 6.453125 24.148438 5.992188 23.308594 C 5.6875 22.757812 5.515625 22.128906 5.515625 21.457031 L 5.515625 20.683594 L 5.414062 20.683594 L 5.414062 15.808594 C 5.414062 15.660156 5.398438 15.511719 5.378906 15.371094 C 5.714844 10.125 9.839844 5.90625 15.085938 5.347656 Z M 26.457031 30.4375 L 26.457031 30.539062 C 32.820312 30.636719 37.933594 35.769531 37.933594 42.074219 C 37.933594 48.378906 32.820312 53.480469 26.457031 53.578125 L 26.457031 53.613281 L 5.414062 53.613281 L 5.414062 34.441406 L 5.519531 34.441406 L 5.519531 33.667969 C 5.519531 33 5.691406 32.367188 5.996094 31.816406 C 6.289062 31.28125 6.714844 30.816406 7.21875 30.472656 L 26.085938 30.472656 C 26.210938 30.472656 26.335938 30.457031 26.457031 30.4375 Z M 26.457031 30.4375 "/>
<path style=" stroke:none;fill-rule:nonzero;fill:rgb(60%,0%,0%);fill-opacity:1;" d="M 93.953125 1.175781 L 93.953125 1.210938 L 93.816406 1.210938 C 88.988281 1.210938 85.023438 4.867188 84.585938 9.519531 L 84.585938 55.226562 C 84.585938 56.683594 85.554688 57.902344 86.800781 58.152344 C 86.867188 58.164062 86.9375 58.179688 87.003906 58.1875 C 87.074219 58.195312 87.136719 58.21875 87.210938 58.21875 C 87.230469 58.21875 87.253906 58.21875 87.277344 58.21875 L 99.296875 58.21875 C 99.320312 58.21875 99.375 58.222656 99.398438 58.21875 C 115.257812 57.863281 128.003906 45.257812 128.003906 29.730469 C 128.003906 14.371094 115.535156 1.851562 99.910156 1.246094 C 99.652344 1.214844 99.4375 1.175781 99.296875 1.175781 Z M 93 6.054688 L 101.851562 6.054688 C 113.910156 7.550781 123.238281 17.585938 123.238281 29.730469 C 123.238281 41.796875 114.027344 51.742188 102.089844 53.34375 L 93.167969 53.34375 C 91.992188 53.09375 90.972656 52.371094 90.414062 51.359375 C 90.113281 50.808594 89.972656 50.175781 89.972656 49.507812 L 89.972656 48.734375 L 89.9375 48.734375 L 89.9375 9.753906 C 89.945312 9.09375 90.117188 8.441406 90.414062 7.902344 C 90.949219 6.929688 91.875 6.230469 93.003906 5.984375 Z M 93 6.054688 "/>
</g>
</svg>
