<?xml version="1.0" encoding="UTF-8"?>
<svg xmlns="http://www.w3.org/2000/svg" xmlns:xlink="http://www.w3.org/1999/xlink" width="128pt" height="128pt" viewBox="0 0 128 128" version="1.1">
<g id="surface1">
<path style=" stroke:none;fill-rule:nonzero;fill:rgb(0%,0%,0%);fill-opacity:1;" d="M 64 27.160156 C 42.871094 27.160156 37.558594 47.101562 37.558594 64 C 37.554688 80.902344 42.878906 100.839844 64 100.839844 C 85.128906 100.839844 90.441406 80.898438 90.441406 64 C 90.441406 47.101562 85.128906 27.160156 64 27.160156 Z M 64 41.058594 C 64.859375 41.058594 65.640625 41.179688 66.378906 41.359375 C 67.898438 42.679688 68.640625 44.488281 67.179688 47.019531 L 53.113281 72.871094 C 52.679688 69.601562 52.621094 66.390625 52.621094 64 C 52.621094 56.554688 53.132812 41.050781 64 41.050781 Z M 74.535156 52.972656 C 75.398438 56.941406 75.398438 61.085938 75.398438 64 C 75.398438 71.441406 74.878906 86.949219 64 86.949219 C 63.148438 86.949219 62.359375 86.859375 61.628906 86.679688 C 61.480469 86.636719 61.359375 86.601562 61.21875 86.539062 C 61 86.480469 60.761719 86.398438 60.554688 86.320312 C 58.132812 85.292969 56.609375 83.433594 58.800781 80.140625 L 74.535156 52.980469 Z M 74.535156 52.972656 "/>
<path style=" stroke:none;fill-rule:nonzero;fill:rgb(0%,0%,0%);fill-opacity:1;" d="M 63.867188 0 C 46.121094 0 31.148438 6.179688 18.960938 18.601562 C 12.78125 24.78125 8.070312 31.800781 4.800781 39.660156 C 1.601562 47.441406 0 55.539062 0 64 C 0 72.539062 1.601562 80.640625 4.800781 88.339844 C 8 96.039062 12.640625 102.960938 18.738281 109.140625 C 24.898438 115.21875 31.828125 119.921875 39.519531 123.199219 C 47.300781 126.398438 55.398438 128 63.859375 128 C 72.320312 128 80.539062 126.339844 88.480469 123.078125 C 96.398438 119.800781 103.460938 115.078125 109.71875 108.898438 C 115.738281 103.039062 120.300781 96.3125 123.339844 88.699219 C 126.460938 81 128 72.761719 128 64 C 128 55.320312 126.460938 47.101562 123.339844 39.398438 C 120.214844 31.625 115.640625 24.753906 109.621094 18.734375 C 97.050781 6.238281 81.78125 0 63.859375 0 Z M 64.132812 11.519531 C 78.609375 11.519531 90.960938 16.660156 101.238281 26.941406 C 106.199219 31.898438 110 37.554688 112.582031 43.878906 C 115.179688 50.199219 116.480469 56.960938 116.480469 64 C 116.480469 78.699219 111.449219 90.898438 101.460938 100.660156 C 96.28125 105.699219 90.460938 109.554688 84 112.21875 C 77.578125 114.898438 71 116.210938 64.132812 116.210938 C 58 116.210938 50.558594 114.90625 44.234375 112.320312 C 37.921875 109.648438 32.234375 105.839844 27.199219 100.878906 C 22.175781 95.859375 18.300781 90.179688 15.550781 83.859375 C 12.878906 77.460938 11.519531 70.859375 11.519531 64 C 11.519531 57.058594 12.878906 50.421875 15.558594 44.101562 C 18.300781 37.699219 22.179688 31.949219 27.199219 26.839844 C 37.179688 16.78125 49.5 11.519531 64.132812 11.519531 Z M 64.132812 11.519531 "/>
</g>
</svg>
