<?xml version="1.0" encoding="UTF-8" standalone="no"?>
<svg
   width="128pt"
   height="41pt"
   viewBox="0 0 128 41"
   version="1.1"
   id="svg833"
   sodipodi:docname="eclipse-foundation-grey.svg"
   inkscape:version="1.1 (c4e8f9e, 2021-05-24)"
   xmlns:inkscape="http://www.inkscape.org/namespaces/inkscape"
   xmlns:sodipodi="http://sodipodi.sourceforge.net/DTD/sodipodi-0.dtd"
   xmlns="http://www.w3.org/2000/svg"
   xmlns:svg="http://www.w3.org/2000/svg">
  <defs
     id="defs837" />
  <sodipodi:namedview
     id="namedview835"
     pagecolor="#505050"
     bordercolor="#ffffff"
     borderopacity="1"
     inkscape:pageshadow="0"
     inkscape:pageopacity="0"
     inkscape:pagecheckerboard="1"
     inkscape:document-units="pt"
     showgrid="false"
     inkscape:zoom="6.6972656"
     inkscape:cx="79.062117"
     inkscape:cy="29.788276"
     inkscape:window-width="1312"
     inkscape:window-height="997"
     inkscape:window-x="49"
     inkscape:window-y="25"
     inkscape:window-maximized="0"
     inkscape:current-layer="svg833" />
  <g
     id="surface1"
     style="fill:#cccccc;fill-opacity:1">
    <path
       style="stroke:none;fill-rule:evenodd;fill:#cccccc;fill-opacity:1"
       d="M 120.5625 37.570312 L 116.644531 32.667969 L 115.417969 32.667969 L 115.417969 40.554688 L 116.929688 40.554688 L 116.929688 35.207031 L 121.136719 40.554688 L 122.074219 40.554688 L 122.074219 32.671875 L 120.5625 32.671875 Z M 105.90625 33.871094 C 107.792969 33.871094 108.546875 35.359375 108.523438 36.691406 C 108.5 38.023438 107.792969 39.363281 105.90625 39.363281 C 104.019531 39.363281 103.308594 37.976562 103.277344 36.691406 C 103.246094 35.402344 104.027344 33.871094 105.90625 33.871094 Z M 105.90625 32.53125 C 103.136719 32.53125 101.789062 34.617188 101.789062 36.691406 C 101.789062 38.761719 103.09375 40.757812 105.90625 40.757812 C 108.71875 40.757812 109.976562 38.71875 110.011719 36.675781 C 110.046875 34.636719 108.664062 32.53125 105.90625 32.53125 Z M 96.304688 40.554688 L 96.304688 32.671875 L 94.800781 32.671875 L 94.800781 40.554688 Z M 85.648438 40.554688 L 87.15625 40.554688 L 87.15625 34.019531 L 89.695312 34.019531 L 89.695312 32.683594 L 83.105469 32.683594 L 83.105469 34.019531 L 85.648438 34.019531 Z M 77.09375 37.683594 L 74.117188 37.683594 L 75.605469 34.316406 Z M 78.375 40.554688 L 80.019531 40.554688 L 76.4375 32.671875 L 74.792969 32.671875 L 71.191406 40.554688 L 72.820312 40.554688 L 73.503906 39.070312 L 77.691406 39.070312 Z M 61.1875 34.066406 L 62.832031 34.066406 C 64.574219 34.066406 65.300781 35.296875 65.339844 36.527344 C 65.375 37.753906 64.652344 39.125 62.832031 39.125 L 61.1875 39.125 Z M 62.832031 32.65625 L 59.703125 32.65625 L 59.703125 40.554688 L 62.847656 40.554688 C 65.652344 40.554688 66.886719 38.539062 66.847656 36.542969 C 66.8125 34.546875 65.582031 32.671875 62.832031 32.671875 Z M 52.714844 37.558594 L 48.792969 32.65625 L 47.566406 32.65625 L 47.566406 40.554688 L 49.078125 40.554688 L 49.078125 35.207031 L 53.285156 40.554688 L 54.226562 40.554688 L 54.226562 32.671875 L 52.714844 32.671875 Z M 40.296875 32.683594 L 40.296875 37.210938 C 40.296875 38.550781 39.589844 39.386719 38.339844 39.386719 C 37.09375 39.386719 36.269531 38.632812 36.269531 37.210938 L 36.269531 32.691406 L 34.773438 32.691406 L 34.773438 37.210938 C 34.773438 39.585938 36.410156 40.738281 38.328125 40.738281 C 40.339844 40.738281 41.796875 39.542969 41.796875 37.210938 L 41.796875 32.691406 Z M 25.371094 33.863281 C 27.253906 33.863281 28.011719 35.355469 27.988281 36.6875 C 27.964844 38.019531 27.253906 39.359375 25.371094 39.359375 C 23.484375 39.359375 22.773438 37.972656 22.738281 36.6875 C 22.699219 35.398438 23.488281 33.871094 25.375 33.871094 Z M 25.371094 32.527344 C 22.601562 32.527344 21.253906 34.613281 21.253906 36.6875 C 21.253906 38.757812 22.554688 40.753906 25.371094 40.753906 C 28.183594 40.753906 29.441406 38.714844 29.476562 36.671875 C 29.511719 34.632812 28.128906 32.53125 25.375 32.53125 Z M 11.90625 40.554688 L 11.90625 37.640625 L 15.917969 37.640625 L 15.917969 36.277344 L 11.90625 36.277344 L 11.90625 34.125 L 16.148438 34.125 L 16.148438 32.691406 L 10.402344 32.691406 L 10.402344 40.554688 Z M 11.90625 40.554688 "
       id="path824" />
    <path
       style="stroke:none;fill-rule:evenodd;fill:#cccccc;fill-opacity:1"
       d="M 122.222656 24.398438 L 112.195312 24.398438 L 112.195312 20.429688 L 121.867188 20.429688 L 121.867188 17.335938 L 112.195312 17.335938 L 112.195312 13.261719 L 122.222656 13.261719 L 122.222656 10.046875 L 108.855469 10.046875 L 108.855469 27.667969 L 122.222656 27.667969 Z M 104.132812 12.964844 C 102.777344 10.246094 99.898438 9.46875 97.117188 9.46875 C 93.824219 9.46875 90.203125 10.976562 90.203125 14.59375 C 90.203125 18.542969 93.570312 19.496094 97.214844 19.941406 C 99.589844 20.191406 101.351562 20.875 101.351562 22.53125 C 101.351562 24.445312 99.359375 25.171875 97.242188 25.171875 C 95.128906 25.171875 93.011719 24.316406 92.21875 22.378906 L 89.410156 23.816406 C 90.738281 27.035156 93.542969 28.136719 97.195312 28.136719 C 101.175781 28.136719 104.691406 26.453125 104.691406 22.53125 C 104.691406 18.335938 101.222656 17.378906 97.496094 16.925781 C 95.359375 16.675781 93.519531 16.25 93.519531 14.699219 C 93.519531 13.390625 94.71875 12.359375 97.214844 12.359375 C 99.15625 12.359375 100.835938 13.316406 101.453125 14.320312 Z M 80.007812 10.046875 C 77.199219 10.023438 74.394531 10.046875 71.585938 10.046875 L 71.585938 27.667969 L 74.953125 27.667969 L 74.953125 22.488281 L 80.007812 22.488281 C 88.761719 22.488281 88.742188 10.046875 80.015625 10.046875 Z M 74.953125 13.214844 L 80.007812 13.214844 C 84.289062 13.214844 84.316406 19.453125 80.007812 19.453125 L 74.964844 19.453125 Z M 66.8125 27.667969 L 66.8125 10.046875 L 63.472656 10.046875 L 63.472656 27.667969 Z M 46.914062 10.046875 L 46.914062 27.667969 L 59.464844 27.667969 L 59.464844 24.601562 L 50.304688 24.601562 L 50.304688 10.046875 Z M 41.40625 23.175781 C 40.195312 24.308594 38.59375 24.945312 36.921875 24.957031 C 32.507812 24.957031 30.796875 21.917969 30.769531 19 C 30.742188 16.078125 32.605469 12.894531 36.921875 12.894531 C 38.523438 12.871094 40.070312 13.464844 41.230469 14.550781 L 43.492188 12.414062 C 41.757812 10.699219 39.398438 9.734375 36.9375 9.742188 C 30.484375 9.742188 27.441406 14.417969 27.472656 19.015625 C 27.503906 23.613281 30.304688 28.074219 36.921875 28.074219 C 39.445312 28.136719 41.890625 27.191406 43.707031 25.460938 Z M 23.769531 24.402344 L 13.734375 24.402344 L 13.734375 20.429688 L 23.40625 20.429688 L 23.40625 17.335938 L 13.734375 17.335938 L 13.734375 13.261719 L 23.765625 13.261719 L 23.765625 10.046875 L 10.402344 10.046875 L 10.402344 27.667969 L 23.773438 27.667969 Z M 23.769531 24.402344 "
       id="path826" />
    <path
       style="stroke:none;fill-rule:evenodd;fill:#cccccc;fill-opacity:1"
       d="M 4.820312 8.253906 C 8.890625 1.96875 17.101562 -0.214844 23.929688 2.792969 L 23.480469 2.488281 C 16.503906 -1.917969 7.226562 0.078125 2.757812 6.949219 C -1.714844 13.820312 0.3125 22.960938 7.285156 27.367188 L 7.761719 27.648438 C 2.121094 22.789062 0.726562 14.542969 4.820312 8.253906 Z M 4.820312 8.253906 "
       id="path828" />
    <path
       style="stroke:none;fill-rule:evenodd;fill:#cccccc;fill-opacity:1"
       d="M 123.476562 11.769531 C 123.476562 10.640625 124.40625 9.730469 125.546875 9.730469 C 126.691406 9.730469 127.621094 10.640625 127.621094 11.769531 C 127.621094 12.898438 126.691406 13.8125 125.546875 13.8125 C 124.40625 13.8125 123.476562 12.898438 123.476562 11.769531 Z M 127.378906 11.769531 C 127.378906 10.773438 126.558594 9.964844 125.546875 9.964844 C 124.535156 9.964844 123.714844 10.773438 123.714844 11.769531 C 123.707031 12.253906 123.894531 12.71875 124.242188 13.0625 C 124.585938 13.402344 125.058594 13.59375 125.546875 13.589844 C 126.042969 13.589844 126.515625 13.398438 126.863281 13.054688 C 127.210938 12.710938 127.402344 12.242188 127.398438 11.757812 Z M 124.695312 10.667969 L 125.738281 10.667969 C 126.242188 10.667969 126.605469 10.890625 126.605469 11.371094 C 126.621094 11.679688 126.414062 11.953125 126.113281 12.03125 L 126.644531 12.777344 L 126.015625 12.777344 L 125.5625 12.109375 L 125.226562 12.109375 L 125.226562 12.777344 L 124.707031 12.777344 Z M 125.667969 11.699219 C 125.90625 11.699219 126.035156 11.582031 126.035156 11.410156 C 126.035156 11.234375 125.890625 11.113281 125.667969 11.113281 L 125.214844 11.113281 L 125.214844 11.699219 Z M 125.667969 11.699219 "
       id="path830" />
  </g>
</svg>
