<?xml version="1.0" ?><!DOCTYPE svg  PUBLIC '-//W3C//DTD SVG 1.1//EN'  'http://www.w3.org/Graphics/SVG/1.1/DTD/svg11.dtd'><svg height="100%" style="fill-rule:evenodd;clip-rule:evenodd;stroke-linejoin:round;stroke-miterlimit:2;" version="1.1" viewBox="0 0 64 64" width="100%" xml:space="preserve" xmlns="http://www.w3.org/2000/svg" xmlns:serif="http://www.serif.com/" xmlns:xlink="http://www.w3.org/1999/xlink"><g transform="matrix(1,0,0,1,-400,-320)"><g id="github-apps-platform" transform="matrix(1,0,0,1,400,320)"><rect height="64" style="fill:none;" width="64" x="0" y="0"/><g transform="matrix(1,0,0,1,-400,-320)"><path d="M426.968,362.73C426.356,363.671 426,364.794 426,366C424,367 421,367 420,366C418.731,364.731 419,364 416,362C415.331,361.554 414.754,361.429 414.279,361.367C413.994,361.408 413.759,361.613 413.678,361.89C413.598,362.166 413.687,362.465 413.905,362.653C414.686,363.259 415.729,364.187 416,365C417,368 419,370 422,370C423.81,370 425.096,369.738 426,369.403L426,373.87C426,375.231 425.308,376.5 424.163,377.236C423.017,377.972 421.576,378.075 420.337,377.509C410.708,373.044 404,363.299 404,352C404,336.546 416.546,324 432,324C447.454,324 460,336.546 460,352C460,363.299 453.292,373.044 443.644,377.468C442.419,378.027 440.994,377.925 439.862,377.198C438.729,376.47 438.044,375.216 438.044,373.87C438,370.185 438,366 438,366C438,364.831 437.659,363.696 437.031,362.73C444.536,361.812 448,358.408 448,350.5C448,347.777 447.076,345.515 445.589,343.698C446.361,341.615 446.555,339.13 446.215,337.006C446.163,336.737 446.004,336.501 445.773,336.353C445.543,336.206 445.262,336.16 444.996,336.225C442.388,336.87 440.338,337.863 438.822,339.19C436.576,338.392 434.19,338 432,338C429.81,338 427.424,338.392 425.178,339.19C423.662,337.863 421.612,336.87 419.004,336.225C418.738,336.16 418.457,336.206 418.227,336.353C417.996,336.501 417.837,336.737 417.785,337.006C417.445,339.13 417.639,341.615 418.411,343.698C416.924,345.515 416,347.777 416,350.5C416,358.407 419.464,361.811 426.968,362.73Z" style="fill:rgb(115,139,149);"/></g><g transform="matrix(1,0,0,1,-400,-320)"><path d="M422.935,377.76C422.077,377.966 421.162,377.886 420.337,377.509C410.708,373.044 404,363.299 404,352C404,336.546 416.546,324 432,324C432.314,324 432.626,324.005 432.935,324.015C417.913,324.511 405.871,336.86 405.871,352C405.871,363.299 412.578,373.044 422.208,377.509C422.444,377.617 422.688,377.7 422.935,377.76ZM445.931,336.479C446.235,336.389 446.547,336.305 446.867,336.225C447.132,336.16 447.414,336.206 447.644,336.353C447.875,336.501 448.034,336.737 448.085,337.006C448.425,339.13 448.232,341.615 447.46,343.698C448.947,345.515 449.871,347.777 449.871,350.5C449.871,358.408 446.406,361.812 438.902,362.73C439.529,363.696 439.871,364.831 439.871,366C439.871,366 439.871,370.185 439.915,373.87C439.915,375.216 440.6,376.47 441.732,377.198C442.107,377.438 442.514,377.611 442.936,377.713C441.894,377.967 440.782,377.789 439.862,377.198C438.729,376.47 438.044,375.216 438.044,373.87C438,370.185 438,366 438,366C438,364.831 437.659,363.696 437.031,362.73C444.536,361.812 448,358.408 448,350.5C448,347.777 447.076,345.515 445.589,343.698C446.361,341.615 446.555,339.13 446.215,337.006C446.176,336.804 446.076,336.62 445.931,336.479ZM426,369.859C425.387,369.947 424.681,370 423.871,370C423.628,370 423.391,369.987 423.162,369.961C424.378,369.876 425.303,369.661 426,369.403L426,369.859ZM415.599,361.763C415.706,361.552 415.91,361.402 416.15,361.367C416.625,361.429 417.201,361.554 417.871,362C420.871,364 420.601,364.731 421.871,366C422.231,366.36 422.851,366.591 423.59,366.691C422.098,366.87 420.64,366.64 420,366C418.731,364.731 419,364 416,362C415.862,361.908 415.729,361.83 415.599,361.763ZM432.935,338.024C433.25,338.008 433.563,338 433.871,338C435.627,338 437.509,338.252 439.343,338.764C439.163,338.902 438.989,339.044 438.822,339.19C436.892,338.504 434.859,338.118 432.935,338.024ZM419.939,336.479C419.987,336.432 420.04,336.39 420.097,336.353C420.328,336.206 420.609,336.16 420.875,336.225C423.195,336.799 425.074,337.649 426.527,338.764C426.074,338.89 425.623,339.032 425.178,339.19C423.848,338.026 422.107,337.119 419.939,336.479Z" style="fill:rgb(97,120,129);"/></g></g></g></svg>