<?xml version="1.0" encoding="UTF-8" standalone="no"?>
<svg
   width="720"
   height="358"
   version="1.1"
   id="svg27"
   sodipodi:docname="gpl3-grey.svg"
   inkscape:version="1.1 (c4e8f9e, 2021-05-24)"
   xmlns:inkscape="http://www.inkscape.org/namespaces/inkscape"
   xmlns:sodipodi="http://sodipodi.sourceforge.net/DTD/sodipodi-0.dtd"
   xmlns="http://www.w3.org/2000/svg"
   xmlns:svg="http://www.w3.org/2000/svg">
  <sodipodi:namedview
     id="namedview13"
     pagecolor="#505050"
     bordercolor="#ffffff"
     borderopacity="1"
     inkscape:pageshadow="0"
     inkscape:pageopacity="0"
     inkscape:pagecheckerboard="1"
     showgrid="false"
     inkscape:zoom="1.3075639"
     inkscape:cx="365.94769"
     inkscape:cy="199.22544"
     inkscape:window-width="1312"
     inkscape:window-height="997"
     inkscape:window-x="49"
     inkscape:window-y="25"
     inkscape:window-maximized="0"
     inkscape:current-layer="svg27" />
  <defs
     id="defs31" />
  <path
     id="path1"
     style="fill:#bd0000"
     d="m 673.17578,0.34960938 -0.15234,0.0117187 C 660.58468,1.2583707 644.01653,4.9766923 628.3125,11.283203 H 539.91602 114.62305 80.892578 c 2e-5,0 -59.310547,258.767577 -59.310547,258.767577 h 0.05469 274.380859 111.35351 c 8.18871,4.77878 18.13817,7.56878 29.25,8.53711 l 0.18555,0.0156 h 19.41602 l 0.16601,-0.0137 c 6.2076,-0.48413 12.68443,-1.38394 19.37891,-2.69336 11.54209,-2.25681 23.71841,-5.71068 36.33398,-10.31054 9.54953,-3.48202 19.35432,-7.59813 29.29883,-12.37891 l 0.004,-0.002 c 21.6417,-10.37462 43.95204,-23.73256 65.83398,-39.8418 7.21048,-5.30371 14.12756,-10.74325 20.76563,-16.27344 l 0.002,-0.002 c 6.08772,-5.06541 11.93093,-10.21081 17.51367,-15.41601 l 0.0254,-0.0234 0.0254,-0.0254 c 15.68304,-15.1138 27.59687,-30.48012 34.50391,-44.36524 3.59772,-7.23101 5.85407,-14.07198 6.41797,-20.42187 0.56381,-6.34892 -0.65812,-12.35856 -4.22461,-17.072268 l -0.002,-0.002 c -2.61575,-3.460717 -6.28889,-5.750857 -10.5039,-7.259766 13.72831,-11.273226 24.90342,-23.311808 32.23242,-35.091797 8.55925,-13.757381 12.37711,-27.391992 8.19922,-38.86914 v -0.002 C 709.52062,11.166563 703.46964,5.6256188 695.51367,2.7558594 h -0.002 l -0.002,-0.00195 c -3.53373,-1.271171 -7.39945,-2.03996693 -11.52529,-2.38867502 l -0.17774,-0.015625 z m 10.20313,8.52734372 c 3.48278,0.044736 6.58007,0.9413833 9.24609,1.9003909 6.05839,2.18638 9.78367,5.787073 11.55273,10.667968 l 0.002,0.0039 v 0.0039 c 2.81302,7.722212 0.38015,18.909702 -7.42383,31.453125 -7.80398,12.543423 -20.705,26.141255 -37.08984,38.435547 l -9.04493,6.787109 11.27539,0.873047 c 6.66947,0.516719 11.06122,2.58176 13.57032,5.90235 l 0.002,0.002 c 2.05657,2.71732 2.96244,6.32027 2.53125,11.17578 -0.43119,4.85551 -2.29375,10.81107 -5.56055,17.37695 -6.26998,12.60447 -17.62286,27.40542 -32.75781,41.9961 -5.45672,5.08693 -11.17106,10.12117 -17.13086,15.08008 l -0.002,0.002 c -6.5136,5.42656 -13.29542,10.76161 -20.36133,15.95898 h -0.002 c -21.46702,15.8039 -43.34029,28.89228 -64.47071,39.02149 l -0.004,0.002 h -0.002 c -9.69602,4.66148 -19.24385,8.66967 -28.52734,12.05469 -12.24684,4.46542 -24.00901,7.79609 -35.05078,9.95508 -6.36192,1.24437 -12.47953,2.09069 -18.29688,2.54882 h -18.57031 c -0.0873,-0.008 -0.1707,-0.0194 -0.25781,-0.0273 h 1.7168 c -17.00107,-1.48353 -30.42439,-7.45273 -38.42188,-18.33203 -1.48353,-2.01219 -2.70891,-4.17932 -3.7832,-6.44727 -0.68207,-1.6711 -1.32272,-3.35728 -1.9707,-5.0625 -1.70525,-5.42261 -2.38506,-11.43993 -2.07813,-17.85156 0.85262,-17.87074 9.23714,-39.12871 23.76563,-61.38867 15.43225,-23.65656 37.79939,-48.45043 65.49218,-71.458987 6.20699,-5.15319 12.62517,-10.24235 19.34375,-15.1875 8.30441,-6.10979 16.67228,-11.735727 25.04492,-16.998047 30.84745,-19.42077 61.61827,-33.00941 88.88477,-39.91211 -26.05577,8.50051 -55.32749,22.930312 -84.24805,42.576172 -1.04016,0.70255 -2.06865,1.42149 -3.09179,2.13086 -16.04613,11.11805 -30.5827,22.926962 -43.26954,34.851562 -40.82303,38.38457 -62.40072,78.15909 -52.5957,101.46094 0.69916,1.6029 1.53192,3.13259 2.50391,4.58203 10.53825,15.50047 36.65555,18.18086 69.7539,9.85938 2.25089,-0.56275 4.50317,-1.2002 6.82227,-1.86524 10.57238,-3.05237 21.79602,-7.17431 33.35742,-12.25586 2.77949,-1.22777 5.58926,-2.49076 8.41992,-3.83789 0.28988,-0.13641 0.56364,-0.27231 0.85352,-0.42578 36.49173,-18.13162 64.53488,-38.99421 70.60547,-51.5293 1.33008,-2.72662 1.64986,-5.05213 0.74609,-6.875 -4.33124,-8.78188 -34.63814,-2.84795 -71.35156,13.05664 -2.95003,1.2789 -5.93489,2.59441 -8.95313,3.9961 2.45552,-2.27986 5.01213,-4.56966 7.6211,-6.82227 4.16075,-3.58438 8.46765,-7.08919 13.05469,-10.55078 7.179,-5.43627 14.43715,-10.3502 21.58203,-14.70703 33.45643,-25.240672 50.36964,-49.116255 46.83984,-57.976565 -0.66505,-1.66943 -2.08098,-2.818438 -4.26367,-3.517578 -6.97438,-2.21847 -19.70356,0.429268 -35.16992,6.767578 -12.75504,5.23164 -27.40534,12.989804 -42.25782,22.646484 l -2.02343,1.332032 c 2e-5,0 -0.37305,0.214844 -0.37305,0.214844 2e-5,2e-5 -7.14062,4.742187 -7.14062,4.742187 -2e-5,-10e-6 4.10156,-7.513672 4.10156,-7.513672 6.08765,-11.14364 16.00381,-22.771395 28.34961,-33.572265 9.05473,-7.89689 19.40005,-15.337117 30.53515,-21.847657 4.21191,-2.46573 8.41702,-4.755292 12.62891,-6.820312 4.31422,-2.10769 8.62989,-3.980738 12.8418,-5.648438 C 651.40342,12.78462 663.35928,8.6198018 683.37891,8.8769531 Z M 386.87305,11.65625 c -1.67109,25.50496 3.27378,62.861801 14.49414,104.33789 1.99509,7.38021 4.16736,14.89151 6.55469,22.48828 1.48356,4.69104 3.01324,9.30936 4.58203,13.85547 -0.9208,1.35396 -1.84714,2.6983 -2.7168,4.04883 -13.99985,21.45508 -22.18278,41.73129 -24.24609,59.36328 -5.91714,-19.81468 -10.37276,-41.51757 -12.89649,-64.53125 -0.71619,-6.5941 -1.27719,-13.11431 -1.65234,-19.55664 -2.76247,-46.796391 3.34747,-89.21812 15.88086,-120.00586 z M 107.48242,44.855469 c 0.31934,-0.0075 0.63395,0 0.95899,0 0,-2e-5 63.04101,0 63.04101,0 5.38851,-2e-5 9.55441,1.009599 12.52149,3.037109 2.95002,2.03946 4.05658,4.677499 3.35742,7.886719 2e-5,2e-5 -7.51367,33.943359 -7.51367,33.943359 0,3e-5 -22.22071,0 -22.22071,0 2e-5,3e-5 7.30078,-33.037109 7.30078,-33.037109 h -55.63281 c -2e-5,0 -20.089842,90.802733 -20.089842,90.802733 2e-5,0 -7.246094,32.87891 -7.246094,32.87891 0,3e-5 55.578126,0 55.578126,0 0,3e-5 0.0547,-0.21289 0.0547,-0.21289 0,2e-5 11.13672,-50.30469 11.13672,-50.30469 0,-2e-5 -26.11133,0 -26.11133,0 0,-2e-5 2.5039,-11.35156 2.5039,-11.35156 -1e-5,-2e-5 48.33203,0 48.33203,0 0,-2e-5 -13.85351,62.77539 -13.85351,62.77539 -0.18757,0.89352 -0.51561,1.70245 -0.95899,2.5039 -1.14249,2.08037 -3.1365,3.86164 -5.91601,5.32813 -3.85378,2.02923 -8.46697,3.03711 -13.85547,3.03711 0,2e-5 -62.986327,0 -62.986328,0 -5.388524,2e-5 -9.554404,-1.0079 -12.521484,-3.03711 -2.95001,-2.0292 -4.073622,-4.6194 -3.357422,-7.83203 1e-5,-2e-5 27.761719,-125.494143 27.761719,-125.494143 0.71618,-3.20921 2.951426,-5.847279 6.822266,-7.886719 0.13642,-0.07331 0.289371,-0.09025 0.425781,-0.160156 3.53302,-1.7697 7.678678,-2.763823 12.468748,-2.876953 z m 98.79688,0 c -2e-5,-2e-5 79.3457,0 79.3457,0 5.32031,-2e-5 9.50362,1.009599 12.4707,3.037109 2.98417,2.03946 4.12637,4.677499 3.41016,7.886719 2e-5,2e-5 -14.81445,66.929683 -14.81445,66.929683 -0.69912,3.18874 -2.9871,5.79113 -6.875,7.83399 -3.8879,2.04966 -8.46344,3.08984 -13.80079,3.08984 h -57.6582 l -11.13672,50.25 c 0,2e-5 -1.8125,8.25977 -1.8125,8.25977 1e-5,2e-5 -21.74218,0 -21.74218,0 0,2e-5 1.65234,-7.45899 1.65234,-7.45899 0,2e-5 30.96094,-139.828121 30.96094,-139.828121 z m 109.61328,0 c -1e-5,-2e-5 21.74219,0 21.74219,0 2e-5,-2e-5 -24.61915,111.210941 -24.61915,111.210941 3e-5,2e-5 -5.38281,24.30078 -5.38281,24.30078 0,3e-5 52.00977,0 52.00977,0 0.54568,3.98854 1.18314,7.90453 1.86523,11.77539 -2e-5,2e-5 -78.22656,0 -78.22656,0 2e-5,2e-5 6.18164,-27.92188 6.18164,-27.92188 2e-5,0 26.42969,-119.365231 26.42969,-119.365231 z m -90.48242,11.830078 c 2e-5,0 -14.44141,65.117183 -14.44141,65.117183 0,-2e-5 54.19336,0 54.19336,0 -10e-6,-2e-5 14.38867,-65.117183 14.38867,-65.117183 z M 179.84766,202.375 c 0.21267,-0.007 0.42639,0 0.64062,0 2.52373,2e-5 4.72657,0.44375 6.5,1.2793 1.8928,0.88671 3.24775,2.20403 3.99805,3.94336 0.73325,1.68819 0.92346,3.60374 0.53125,5.70117 0,1e-5 -0.1582,0.79883 -0.1582,0.79883 1e-5,-3e-5 -6.23633,0 -6.23633,0 -2e-5,-3e-5 0.0547,-0.7461 0.0547,-0.7461 0.16118,-1.46543 -0.0203,-2.61751 -0.58593,-3.41015 -0.0737,-0.0994 -0.18167,-0.23122 -0.26758,-0.32032 -0.14068,-0.14363 -0.35231,-0.30727 -0.5332,-0.42578 -0.87238,-0.5495 -2.23651,-0.85156 -3.9961,-0.85156 -2.33615,2e-5 -4.08174,0.40609 -5.27539,1.22461 -1.15956,0.80146 -1.89213,1.6972 -2.13086,2.77148 -0.23875,1.09134 0.15293,1.66377 0.42578,1.97071 0.008,0.008 0.0423,0.0452 0.0527,0.0547 0.34552,0.29445 1.54522,0.98492 5.27539,1.86524 3.37632,0.81851 5.61314,1.55266 6.875,2.18359 1.90987,0.97196 3.24421,2.23145 3.94336,3.78321 0.69911,1.53472 0.85208,3.33143 0.42578,5.27539 -0.4263,1.89279 -1.39183,3.63837 -2.82422,5.27539 -1.41532,1.637 -3.21717,2.93413 -5.38281,3.83789 -2.1486,0.88672 -4.50436,1.38476 -6.92578,1.38476 -3.0694,-1e-5 -5.53403,-0.46394 -7.46094,-1.38476 -2.01217,-0.95491 -3.46381,-2.46282 -4.31641,-4.42383 -0.81851,-1.90986 -0.99361,-4.07703 -0.5332,-6.44727 0,-3e-5 0.16016,-0.74609 0.16016,-0.74609 h 6.1289 l -0.0547,0.74609 c -0.15348,1.41532 -0.002,2.55755 0.37305,3.41016 0.35809,0.81853 1.04148,1.49676 2.13281,2.02539 1.15954,0.5627 2.60765,0.85156 4.26172,0.85156 1.48355,-1e-5 2.84008,-0.24806 4.05078,-0.6914 1.19365,-0.4263 2.14213,-0.98889 2.82422,-1.70508 0.66502,-0.71622 1.05409,-1.47445 1.22461,-2.29297 0.17052,-0.73324 0.13169,-1.3517 -0.1582,-1.86328 -0.32399,-0.54564 -0.96659,-1.0302 -1.97266,-1.43945 0,-1e-5 -5.22265,-1.54493 -5.22265,-1.54493 -2.91592,-0.73323 -4.87899,-1.43367 -6.02149,-2.13281 -1.55177,-0.92081 -2.67022,-2.10029 -3.25,-3.51562 -0.57977,-1.39831 -0.64077,-2.94855 -0.26562,-4.63672 0.3922,-1.80753 1.26225,-3.5278 2.60937,-5.0625 1.3642,-1.55177 3.12523,-2.76886 5.22266,-3.57031 1.85443,-0.69541 3.8056,-1.10275 5.86133,-1.17188 z m 55.95312,0.10547 c 0.33725,-0.0263 0.65361,0 1.01172,0 1e-5,0 3.83789,0.42773 3.83789,0.42773 l 1.2793,0.10547 c 2e-5,1e-5 -1.86524,4.74219 -1.86524,4.74219 l -0.37304,0.74609 c 0,-2e-5 -2.93164,-0.26562 -2.93164,-0.26562 -0.86541,0 -1.50072,0.133 -1.91797,0.42578 -0.0277,0.0209 -0.0818,0.085 -0.10742,0.10742 -0.0559,0.049 -0.14966,0.13431 -0.2129,0.21289 -0.25659,0.33651 -0.56862,0.9383 -0.79882,2.02539 -2e-5,0 -0.11058,0.45935 -0.21289,0.85157 1.34713,1e-5 4.58203,0 4.58203,0 0,1e-5 -1.17188,5.27539 -1.17188,5.27539 0,-1e-5 -3.35112,0 -4.47656,0 -0.34106,1.53469 -4.5293,20.30273 -4.5293,20.30273 -2e-5,-2e-5 -6.18164,0 -6.18164,0 -2e-5,-2e-5 4.01773,-18.03478 4.5293,-20.30273 -1.04021,-1e-5 -3.57031,0 -3.57031,0 0,-1e-5 1.17382,-5.2754 1.17382,-5.27539 1e-5,1e-5 2.54366,0 3.51563,0 0.17052,-0.73324 0.42773,-1.65235 0.42773,-1.65235 0.37516,-1.70522 0.76579,-2.93059 1.27735,-3.7832 0.69917,-1.17659 1.68683,-2.16077 2.93164,-2.87695 1.02527,-0.59576 2.32172,-0.95259 3.7832,-1.06641 z m 14.76172,0.26758 c -2e-5,-1e-5 -1.61614,7.26969 -2.02539,9.11133 1.19364,1e-5 3.99609,0 3.99609,0 0,1e-5 -1.17187,5.27539 -1.17187,5.27539 -2e-5,-1e-5 -2.93887,0 -3.9961,0 -0.32401,1.46647 -2.8789,12.84375 -2.8789,12.84375 2e-5,-2e-5 -0.21289,1.36561 -0.21289,1.75781 2.8e-4,0.0131 -0.001,0.0431 0,0.0527 8.4e-4,0.004 -0.001,0.0514 0,0.0547 0.002,0.003 0.0506,-0.002 0.0527,0 0,-2e-5 0.64063,0.0527 0.64063,0.0527 l 2.92968,-0.21289 -0.31836,4.74219 c 3e-5,0 0.0527,0.85352 0.0527,0.85352 -2e-5,-2e-5 -4.20899,0.47851 -4.20898,0.47851 -1.6711,-2e-5 -2.8965,-0.27179 -3.78321,-0.85156 -0.93785,-0.61392 -1.48535,-1.42805 -1.70703,-2.45117 -0.0341,-0.18759 -0.10547,-0.46133 -0.10547,-0.85352 0,-0.76736 0.14416,-2.06551 0.63867,-4.3164 2e-5,2e-5 2.24128,-10.03591 2.71875,-12.15039 -0.80143,-10e-6 -2.93164,0 -2.93164,0 2e-5,-10e-6 1.17188,-5.27539 1.17188,-5.27539 -2e-5,1e-5 2.07902,0 2.93164,0 0.27281,-1.22775 1.22656,-5.43555 1.22656,-5.43555 0,2e-5 4.95508,-2.61133 4.95508,-2.61133 -1e-5,2e-5 2.02539,-1.06445 2.02539,-1.06445 z m -196.367188,0.21289 h 23.978516 l -1.332031,5.96875 c 0,2e-5 -15.99655,0 -17.53125,0 -0.27282,1.21073 -1.365613,6.11329 -1.757813,7.88672 H 72.738281 L 71.40625,222.7832 H 56.220703 c -0.32399,1.48355 -3.251953,14.6543 -3.251953,14.6543 2e-5,-2e-5 -6.447266,0 -6.447266,0 10e-6,-2e-5 7.673828,-34.47656 7.673828,-34.47656 z m 32.132813,8.41992 c 0.24067,-0.0296 0.503634,0 0.746094,0 1.5347,0 2.952226,0.46553 4.316406,1.4375 0,2e-5 0.851563,0.58594 0.851563,0.58594 l -3.302735,5.43554 c 0,-2e-5 -0.90625,-0.63867 -0.90625,-0.63867 -0.66504,-0.42629 -1.382512,-0.63867 -2.132812,-0.63867 -0.64799,2e-5 -1.249402,0.22941 -1.863282,0.63867 -0.64797,0.4263 -1.190369,0.99045 -1.599609,1.75781 -0.7162,1.31304 -1.239566,2.78524 -1.597656,4.3711 0,1e-5 -2.878907,13.10742 -2.878906,13.10742 0,-2e-5 -6.181641,0 -6.181641,0 0,-2e-5 5.703125,-25.57812 5.703125,-25.57812 2e-5,1e-5 5.753906,0 5.753906,0 0,1e-5 -0.197415,0.77652 -0.265625,1.0664 0.27284,-0.20461 0.560088,-0.4852 0.798828,-0.63867 0.82597,-0.4929 1.699144,-0.80071 2.558594,-0.90625 z m 18.330075,0 c 0.37219,-0.0282 0.73867,0 1.11914,0 3.47866,0 6.11172,1.21868 7.83399,3.62305 1.07428,1.55174 1.65234,3.47086 1.65234,5.75586 0,1.26185 -0.15649,2.61802 -0.48047,4.10156 l -0.47851,1.86523 c 0,-2e-5 -15.633719,0 -17.373049,0 -0.0341,0.35808 -0.05273,0.74242 -0.05273,1.06641 0,1.33009 0.271783,2.37717 0.851563,3.14453 0.2755,0.37513 0.596647,0.71279 0.960937,0.95898 0.68678,0.44789 1.571589,0.69336 2.609369,0.69336 1.26188,-2e-5 2.37192,-0.34864 3.41211,-1.01367 0.98905,-0.63093 1.93398,-1.63883 2.76953,-3.03711 0,-3e-5 6.60742,0 6.60742,0 0,-3e-5 -0.58593,1.2793 -0.58593,1.2793 -1.26187,2.55785 -3.02097,4.55341 -5.22071,5.96875 -2.19973,1.41533 -4.82963,2.18359 -7.72851,2.18359 -3.768538,-1e-5 -6.573167,-1.21868 -8.312497,-3.62304 -1.722261,-2.35323 -2.092695,-5.60669 -1.171876,-9.69922 0.92083,-4.16073 2.758357,-7.48558 5.435547,-9.80469 2.39958,-2.08062 5.121696,-3.23385 8.152336,-3.46289 z m 27.76368,0 c 0.37217,-0.0282 0.73867,0 1.11914,0 3.47867,0 6.11171,1.21868 7.83398,3.62305 1.07429,1.55174 1.65039,3.47086 1.65039,5.75586 0,1.2448 -0.15451,2.58233 -0.47851,4.04882 0,2e-5 -0.48047,1.91797 -0.48047,1.91797 0,-2e-5 -15.63178,0 -17.3711,0 -0.0171,0.2387 -0.0356,0.45463 -0.0527,0.69336 -0.0128,0.0895 0.006,0.226 0,0.32031 -5e-4,0.0154 0,0.0378 0,0.0527 0,0.2558 0.0356,0.50735 0.0527,0.74609 0.0852,0.97196 0.33843,1.78456 0.79883,2.39844 0.0877,0.11936 0.17122,0.26673 0.26758,0.37305 0.78101,0.83554 1.88526,1.27929 3.30273,1.27929 1.26188,-2e-5 2.38702,-0.34864 3.41016,-1.01367 0.98904,-0.63093 1.93592,-1.63883 2.77148,-3.03711 0,-3e-5 6.66016,0 6.66016,0 -1e-5,-3e-5 -0.63867,1.2793 -0.63867,1.2793 -1.26186,2.55785 -3.02292,4.55341 -5.22266,5.96875 -2.19974,1.41533 -4.82769,2.18359 -7.72656,2.18359 -3.76853,-1e-5 -6.57317,-1.21868 -8.3125,-3.62304 -1.12545,-1.53472 -1.65234,-3.4895 -1.65234,-5.8086 0,-0.35812 0.0186,-0.744 0.0527,-1.11914 0.0682,-0.88671 0.20605,-1.78244 0.42773,-2.77148 0.92084,-4.14368 2.70367,-7.48558 5.38086,-9.80469 2.39957,-2.08062 5.17639,-3.23385 8.20704,-3.46289 z m 75.61523,0 c 0.38084,-0.0293 0.73121,0 1.11914,0 3.54687,0 6.27346,1.20005 8.04687,3.57031 1.75641,2.37023 2.18308,5.56748 1.2793,9.5918 -0.69913,3.13763 -1.70861,5.67202 -3.08984,7.51367 -1.38126,1.84165 -3.14228,3.34601 -5.22266,4.36914 -2.06328,1.02314 -4.24949,1.54492 -6.44922,1.54492 -3.61507,-1e-5 -6.30559,-1.23574 -8.04492,-3.62304 -1.12546,-1.51764 -1.70508,-3.47245 -1.70508,-5.8086 2e-5,-1.26187 0.13748,-2.60292 0.47852,-4.10351 1.02315,-4.57001 3.11223,-8.05132 6.18164,-10.28516 2.25301,-1.62634 4.74034,-2.56461 7.40625,-2.76953 z m 93.62891,0 c 0.4496,-0.0277 0.86576,0 1.33203,0 2.14859,0 3.83631,0.21747 5.11523,0.74609 1.36418,0.54569 2.33128,1.31746 2.87695,2.23828 0.52864,0.86963 0.79883,1.93699 0.79883,3.25 10e-6,2e-5 -0.63867,3.89063 -0.63867,3.89063 3e-5,0 -1.17187,5.27539 -1.17187,5.27539 -1.00611,4.50176 -1.22813,6.18937 -1.2793,6.82031 -0.0512,0.85262 0.0269,1.68382 0.26562,2.45117 2e-5,-2e-5 0.42774,1.38477 0.42774,1.38477 2e-5,-2e-5 -6.28906,0 -6.28906,0 -2e-5,-2e-5 -0.26563,-0.79883 -0.26563,-0.79883 -0.10231,-0.37512 -0.0734,-0.85298 -0.10742,-1.27929 -1.19365,0.73324 -2.3886,1.38461 -3.46289,1.75976 -1.58584,0.54569 -3.23123,0.85156 -4.90235,0.85156 -2.89886,-1e-5 -5.04581,-0.75472 -6.34179,-2.23828 -0.98902,-1.09133 -1.43946,-2.42571 -1.43946,-3.94336 -2e-5,-0.57977 0.0765,-1.17962 0.2129,-1.81054 0.28987,-1.29597 0.81678,-2.49603 1.65234,-3.57032 0.81851,-1.05726 1.78757,-1.92766 2.8789,-2.55859 1.05726,-0.63092 2.23514,-1.07782 3.4629,-1.38477 -2e-5,0 3.7832,-0.64062 3.7832,-0.64062 2.91594,-0.34106 5.0933,-0.7642 6.66211,-1.22461 0.0341,-0.17052 0.10547,-0.37305 0.10547,-0.37305 0.24726,-1.09718 0.21688,-1.9229 -0.0527,-2.3457 -0.0198,-0.0273 -0.0851,-0.082 -0.10742,-0.10547 -0.0576,-0.0614 -0.14576,-0.15753 -0.21289,-0.21289 -0.64135,-0.50753 -1.73505,-0.74609 -3.19727,-0.74609 -1.65407,0 -2.87784,0.27022 -3.73046,0.79882 -0.83555,0.52863 -1.60894,1.49574 -2.29102,2.87696 -1e-5,-1e-5 -6.44727,0 -6.44727,0 2e-5,-1e-5 0.58594,-1.2793 0.58594,-1.2793 0.76733,-1.77345 1.68172,-3.24369 2.82422,-4.36914 1.1425,-1.12547 2.68608,-1.99746 4.47656,-2.61133 1.37216,-0.45297 2.87086,-0.75249 4.47657,-0.85156 z m 27.01562,0 c 0.24046,-0.0296 0.50362,0 0.74609,0 1.55173,0 3.00692,0.46553 4.3711,1.4375 2e-5,2e-5 0.79883,0.58594 0.79883,0.58594 10e-6,0 -3.30469,5.43554 -3.30469,5.43554 10e-6,-2e-5 -0.90625,-0.63867 -0.90625,-0.63867 -0.66503,-0.42629 -1.3449,-0.63867 -2.07813,-0.63867 -0.64801,2e-5 -1.28701,0.22941 -1.91797,0.63867 -0.64796,0.4263 -1.11862,0.99045 -1.54492,1.75781 -0.69916,1.31304 -1.24152,2.78524 -1.59961,4.3711 -2e-5,1e-5 -2.92968,13.10742 -2.92968,13.10742 2e-5,-2e-5 -6.18164,0 -6.18164,0 0,-2e-5 5.70117,-25.57812 5.70117,-25.57812 -10e-6,1e-5 5.75586,0 5.75586,0 0,1e-5 -0.14469,0.77652 -0.21289,1.0664 0.27282,-0.20461 0.54303,-0.4852 0.79882,-0.63867 0.81263,-0.4929 1.64507,-0.80071 2.50391,-0.90625 z m 18.2793,0 c 0.37185,-0.0282 0.73867,0 1.11914,0 3.47866,0 6.12679,1.21868 7.83203,3.62305 1.09135,1.55174 1.65234,3.47086 1.65234,5.75586 -2e-5,1.26185 -0.20921,2.61802 -0.5332,4.10156 l -0.42578,1.86523 c -1e-5,-2e-5 -15.65079,0 -17.37305,0 -0.0341,0.35808 -0.10547,0.74242 -0.10547,1.06641 0,1.33009 0.28884,2.37717 0.85157,3.14453 0.0877,0.11936 0.22359,0.26673 0.32031,0.37305 0.056,0.0597 0.15385,0.15748 0.21289,0.21289 0.76235,0.69302 1.80091,1.0664 3.0918,1.0664 1.26189,-2e-5 2.36997,-0.34864 3.41015,-1.01367 0.98905,-0.63093 1.91889,-1.63883 2.77149,-3.03711 -2e-5,-3e-5 6.66015,0 6.66015,0 0,-3e-5 -0.63867,1.2793 -0.63867,1.2793 -1.26187,2.55785 -3.03997,4.55341 -5.22266,5.96875 -2.21677,1.41533 -4.81062,2.18359 -7.72656,2.18359 -3.76851,-1e-5 -6.52044,-1.21868 -8.25976,-3.62304 -1.7223,-2.35323 -2.13034,-5.60669 -1.22657,-9.69922 0.92081,-4.16073 2.70562,-7.48558 5.38282,-9.80469 2.41475,-2.08062 5.17918,-3.23385 8.20703,-3.46289 z m -93.3086,0.47852 c 2e-5,1e-5 6.3418,0 6.3418,0 2e-5,1e-5 0.78178,15.17873 0.79883,15.40039 0.25578,-0.54356 0.4551,-0.99958 0.48047,-1.06446 1e-5,1e-5 6.98047,-14.33593 6.98047,-14.33593 2e-5,1e-5 5.80859,0 5.80859,0 -10e-6,1e-5 0.5332,14.99677 0.5332,15.08203 0.17055,-0.30691 7.93946,-15.08204 7.93946,-15.08203 -2e-5,1e-5 6.28711,-10e-6 6.28711,0 -10e-6,1e-5 -13.85352,25.57812 -13.85352,25.57812 2e-5,-2e-5 -5.70313,0 -5.70313,0 0,-2e-5 -0.55182,-13.86988 -0.58593,-14.6543 -2.35323,4.8258 -7.14063,14.6543 -7.14063,14.6543 0,-2e-5 -5.86133,0 -5.86133,0 0,-2e-5 -2.02539,-25.57812 -2.02539,-25.57812 z m -148.88672,4.8496 c -1.46893,0.062 -2.80384,0.59246 -4.05078,1.59961 -0.989017,0.78441 -1.65497,1.86052 -2.18359,3.03711 0,2e-5 10.49805,0 10.49805,0 0.0171,-0.18756 0.0527,-0.4154 0.0527,-0.58593 -2e-5,-0.97195 -0.17354,-1.72672 -0.48047,-2.23829 -0.75028,-1.22777 -1.86155,-1.8125 -3.51562,-1.8125 -0.0991,0 -0.22239,-0.004 -0.32032,0 z m 27.76368,0 c -1.46892,0.062 -2.80383,0.59246 -4.05078,1.59961 -0.98904,0.78441 -1.63988,1.86052 -2.18555,3.03711 0,2e-5 10.49805,0 10.49805,0 0.017,-0.18756 0.0547,-0.4154 0.0547,-0.58593 -1e-5,-0.97195 -0.15647,-1.72672 -0.48047,-2.23829 -0.14894,-0.24939 -0.35075,-0.49801 -0.5332,-0.69336 -0.71199,-0.73571 -1.69214,-1.11914 -2.98437,-1.11914 -0.0991,0 -0.22042,-0.004 -0.31836,0 z m 214.75,0 c -1.51056,0.0465 -2.92047,0.55891 -4.20899,1.59961 -0.97198,0.78441 -1.63987,1.86052 -2.18554,3.03711 2e-5,2e-5 10.44531,0 10.44531,0 0.017,-0.18756 0.0527,-0.4154 0.0527,-0.58593 -1e-5,-0.97195 -0.15451,-1.72672 -0.47851,-2.23829 -0.73324,-1.21072 -1.86352,-1.79544 -3.51758,-1.8125 -0.049,5.3e-4 -0.0587,-0.001 -0.10742,0 z m -139.61524,0.10743 c -1.40963,0.16739 -2.72039,0.8101 -3.94336,1.91797 -1.46648,1.33009 -2.5287,3.41918 -3.14258,6.18164 -0.25578,1.15955 -0.37304,2.1504 -0.37304,3.0371 2e-5,1.21071 0.23098,2.16077 0.6914,2.87696 0.12257,0.18384 0.28659,0.37842 0.42774,0.5332 0.75804,0.80488 1.81517,1.22656 3.14258,1.22656 1.72226,-2e-5 3.24002,-0.64257 4.68945,-1.97265 1.46652,-1.34714 2.5136,-3.45645 3.14453,-6.28711 0.5798,-2.59195 0.49819,-4.5281 -0.32031,-5.75586 -0.7844,-1.19366 -1.92978,-1.75781 -3.51563,-1.75781 -0.26911,0 -0.53975,-0.031 -0.80078,0 z m 96.29297,9.32421 c -1.44941,0.39218 -3.07409,0.72378 -5.22265,1.01368 -1.6029,0.23874 -2.74512,0.4903 -3.41016,0.74609 -0.57976,0.23872 -1.04725,0.56835 -1.43945,1.01172 -0.37516,0.42627 -0.62674,0.87319 -0.7461,1.38477 -0.0341,0.20464 -0.0527,0.4154 -0.0527,0.58593 0,0.0138 -3.1e-4,0.041 0,0.0547 0.002,0.0406 -0.004,0.12101 0,0.16016 0.0107,0.0774 0.0316,0.19357 0.0527,0.26562 0.008,0.0237 0.0439,0.0842 0.0527,0.10742 0.0187,0.0458 0.0315,0.11445 0.0547,0.15821 0.0243,0.0433 0.0768,0.11878 0.10547,0.16015 0.0446,0.0614 0.10579,0.15534 0.16016,0.21289 0.42631,0.47746 1.2781,0.69336 2.50586,0.69336 1.34715,1e-5 2.64229,-0.25473 3.83594,-0.85156 1.17662,-0.57977 2.12507,-1.44509 2.82421,-2.45117 0.51159,-0.7162 0.92121,-1.81959 1.2793,-3.25196 z" />
  <path
     id="path15"
     style="fill:#bd0000;fill-opacity:1;stroke-width:1.70522"
     d="m 661.85381,357.64893 c 0,0 4.6041,-19.47363 4.6041,-19.47363 1.9269,-8.67958 6.73562,-14.63081 11.04984,-14.63081 3.1035,0 3.95611,2.26795 3.80264,5.23503 -0.0853,1.5347 -0.4263,3.25698 -0.7844,4.9622 0,0 -5.69544,23.90721 -5.69544,23.90721 0,0 12.2776,0 12.2776,0 0,0 4.6041,-19.55889 4.6041,-19.55889 2.11447,-8.95242 6.65036,-14.54555 10.87931,-14.54555 2.91593,0 4.12664,2.08037 3.99022,5.04746 -0.0853,1.72227 -0.44336,3.61507 -0.88671,5.33734 0,0 -5.52492,23.71964 -5.52492,23.71964 0,0 12.36286,0 12.36286,0 0,0 5.95122,-25.25434 5.95122,-25.25434 0.46041,-2.26794 0.98903,-5.79775 1.07429,-7.60529 0.37515,-7.50297 -3.29108,-11.47614 -9.90734,-11.47614 -5.66134,0 -11.1692,2.55783 -15.347,7.94633 -0.15347,-3.8879 -2.93298,-7.94633 -9.82208,-7.94633 -5.57607,0 -10.89636,2.52373 -15.15942,8.23622 0,0 -0.17052,0 -0.17052,0 0,0 1.1425,-6.531 1.1425,-6.531 0,0 -10.94753,0 -10.94753,0 -0.71619,3.64918 -1.58585,8.0657 -2.91593,13.21547 0,0 -6.85499,29.41508 -6.85499,29.41508 0,0 12.2776,0 12.2776,0 z m -42.88633,0 c 14.83543,0 26.27747,-11.23741 27.07892,-26.53325 0.49452,-10.12902 -5.81481,-17.80252 -17.46147,-17.80252 -15.3811,0 -26.41389,12.44812 -27.18124,27.48818 -0.52862,10.94752 6.531,16.84759 17.56379,16.84759 z m 1.99511,-10.23133 c -4.33127,0 -6.71858,-2.76246 -6.4628,-6.8891 0.34105,-6.87204 4.58705,-16.98401 11.90245,-16.98401 5.04746,0 6.59921,3.87086 6.39459,7.6735 -0.37515,7.50298 -4.94515,16.19961 -11.83424,16.19961 z m -31.00094,-52.86188 c 0,0 -4.79167,19.37132 -4.79167,19.37132 -1.73933,-0.71619 -4.00727,-0.61388 -5.7807,-0.61388 -16.33603,0 -27.89743,13.98282 -28.66478,29.12519 -0.51157,10.67469 5.18387,15.21058 12.51633,15.21058 5.13271,0 10.53827,-2.26794 14.6308,-8.1339 0,0 0.17052,0 0.17052,0 0,0 -0.97197,8.1339 -0.97197,8.1339 0,0 11.5614,0 11.5614,0 0.52862,-5.11566 1.63701,-11.2033 2.88183,-16.76233 0,0 11.06689,-46.33088 11.06689,-46.33088 0,0 -12.61865,0 -12.61865,0 z m -9.95849,41.64152 c -1.99511,8.40675 -6.70152,11.22036 -10.41891,11.22036 -3.70033,0 -5.76365,-2.57488 -5.50787,-7.16193 0.42631,-8.49201 6.25817,-16.71118 13.84641,-16.71118 2.13152,0 3.95611,0.324 4.96219,0.80146 0,0 -2.88182,11.85129 -2.88182,11.85129 z m -40.58429,9.94144 c -3.52981,1.72228 -7.55413,1.27892 -12.22644,1.27892 -3.71738,0 -6.56511,-0.64798 -8.13391,-1.90985 -0.81851,-1.38123 -1.1766,-3.52981 -1.10839,-4.91104 17.29095,0.46041 28.17026,-3.52981 28.73299,-14.44323 0.40925,-8.23622 -5.61018,-12.84032 -14.35797,-12.84032 -15.63689,0 -25.86822,13.77819 -26.53326,27.04482 -0.56272,11.57846 5.43966,17.29095 17.80252,17.29095 4.77462,0 11.08394,-0.54567 16.25077,-2.09742 0,0 -0.42631,-9.41283 -0.42631,-9.41283 z m -4.65525,-19.9852 c -0.20463,4.05843 -5.21798,4.29716 -15.10827,4.2119 1.09134,-3.56391 4.68936,-6.82089 10.60648,-6.82089 2.91593,0 4.6041,1.1084 4.50179,2.60899 z m -40.55019,19.9852 c -3.52981,1.72228 -7.55413,1.27892 -12.24349,1.27892 -3.70033,0 -6.56511,-0.64798 -8.13391,-1.90985 -0.81851,-1.38123 -1.15955,-3.52981 -1.09134,-4.91104 17.2739,0.46041 28.17027,-3.52981 28.71594,-14.44323 0.40925,-8.23622 -5.61018,-12.84032 -14.35797,-12.84032 -15.61984,0 -25.85117,13.77819 -26.5162,27.04482 -0.57978,11.57846 5.43965,17.29095 17.80251,17.29095 4.75757,0 11.08395,-0.54567 16.23372,-2.09742 0,0 -0.40926,-9.41283 -0.40926,-9.41283 z m -4.6723,-19.9852 c -0.20463,4.05843 -5.21798,4.29716 -15.09122,4.2119 1.07429,-3.56391 4.68936,-6.82089 10.60648,-6.82089 2.91593,0 4.58705,1.1084 4.48474,2.60899 z m -51.90696,31.49545 c 0,0 3.81969,-16.02908 3.81969,-16.02908 2.01217,-8.67958 6.25817,-16.37014 14.28976,-16.37014 0.7162,0 1.41534,0.3581 1.94396,0.44336 0,0 3.1035,-12.29465 3.1035,-12.29465 -0.71619,0 -1.50059,-0.0853 -2.38731,-0.0853 -5.91712,0 -10.87932,4.16074 -14.18745,10.12902 0,0 -0.34104,0 -0.34104,0 0.49451,-2.91593 0.92082,-5.67839 1.24481,-8.4238 0,0 -10.96458,0 -10.96458,0 -0.61388,3.54686 -1.6029,10.48712 -3.08645,16.74528 0,0 -6.24111,25.88527 -6.24111,25.88527 0,0 12.80622,0 12.80622,0 z m -57.05673,0 c 0,0 12.72096,0 12.72096,0 0,0 5.72954,-23.87311 5.72954,-23.87311 0,0 20.65024,0 20.65024,0 0,0 2.66015,-10.23133 2.66015,-10.23133 0,0 -20.75255,0 -20.75255,0 0,0 3.44454,-15.347 3.44454,-15.347 0,0 22.08263,0 22.08263,0 0,0 2.66014,-11.93655 2.66014,-11.93655 0,0 -34.87179,0 -34.87179,0 0,0 -14.32386,61.38799 -14.32386,61.38799 z m -54.73762,10e-6 c 0,0 4.50178,-19.2008 4.50178,-19.2008 2.33616,-9.77092 7.36656,-13.19842 11.51025,-13.19842 3.27403,0 4.22895,1.39828 4.07548,3.4275 -0.0853,1.63701 -0.34104,3.35928 -0.68209,4.89398 0,0 -5.72954,24.07774 -5.72954,24.07774 0,0 12.72095,0 12.72095,0 0,0 6.03649,-25.25434 6.03649,-25.25434 0.46041,-2.18268 0.97198,-5.43966 1.07429,-7.41771 0.37515,-7.69056 -3.4616,-10.48712 -10.52122,-10.48712 -5.66134,0 -11.16921,2.62604 -15.51752,8.32148 0,0 -0.17052,0 -0.17052,0 0,0 1.15955,-7.79286 1.15955,-7.79286 0,0 -11.22036,0 -11.22036,0 -0.73325,3.64917 -1.67112,8.0657 -3.00119,13.21547 0,0 -6.95731,29.41508 -6.95731,29.41508 0,0 12.72096,0 12.72096,0 z m -24.38468,-10e-6 c 0,0 10.3166,-42.63055 10.3166,-42.63055 0,0 -12.6357,0 -12.6357,0 0,0 -10.3848,42.63055 -10.3848,42.63055 0,0 12.7039,0 12.7039,0 z m 5.91712,-47.74621 c 4.33127,0 8.18507,-3.58097 8.4238,-9.71977 0.20463,-4.16074 -2.48962,-5.62723 -6.46279,-5.62723 -4.14369,0 -7.92928,2.69425 -8.15096,6.71857 -0.20463,4.05843 2.48962,8.62843 6.18995,8.62843 z m -73.95548,45.73405 c 2.45552,1.90985 7.60529,1.9269 12.97674,2.01216 11.47614,0.0853 20.13867,-4.92809 20.65024,-14.13629 0.28989,-6.1388 -4.46768,-9.77092 -9.12294,-12.20939 -3.35929,-1.61996 -5.04746,-3.17171 -4.9622,-4.97925 0.11937,-2.43846 2.40437,-2.77951 5.76365,-2.77951 3.7856,0 6.82089,0.46041 8.56022,0.80146 0,0 3.44455,-9.24231 3.44455,-9.24231 -1.96101,-1.1766 -5.88302,-1.79048 -10.91342,-1.79048 -11.1351,0 -19.28606,5.88302 -19.74647,14.81838 -0.27284,5.52492 3.70033,9.2423 8.50905,11.76603 3.88791,1.99511 5.21798,3.52981 5.11567,5.69544 -0.11937,2.18269 -2.06332,1.82459 -5.59313,1.82459 -4.14369,0 -8.73074,-0.54567 -11.15215,-0.92082 0,0 -3.52981,9.13999 -3.52981,9.13999 z m -8.33853,2.01216 c 0.10231,-5.40555 1.39828,-13.89756 2.74541,-19.47363 0,0 5.47376,-23.15692 5.47376,-23.15692 -3.47865,-1.1766 -8.90126,-1.70522 -14.11924,-1.70522 -21.17886,0 -31.68302,15.68804 -32.41627,30.38706 -0.46041,9.22525 4.53589,13.94871 12.3117,13.94871 5.03041,0 10.7088,-2.43847 15.12532,-9.77092 0,0 0.18758,0 0.18758,0 -0.34105,3.52981 -0.7503,6.95731 -0.97198,9.77092 0,0 11.66372,0 11.66372,0 z m -8.74779,-24.35057 c -2.48962,10.84521 -7.57119,14.11924 -11.35678,14.11924 -3.52981,0 -5.06451,-2.50668 -4.85988,-6.15585 0.40925,-8.23622 6.9232,-17.71726 15.14237,-17.71726 1.33007,0 2.37026,-0.23873 3.34223,-0.47746 0,0 -2.26794,10.23133 -2.26794,10.23133 z m -57.07378,12.84032 c -3.52981,1.72228 -7.55413,1.27892 -12.22644,1.27892 -3.71738,0 -6.56511,-0.64798 -8.13391,-1.90985 -0.81851,-1.38123 -1.1766,-3.52981 -1.10839,-4.91104 17.29095,0.46041 28.17026,-3.52981 28.73299,-14.44323 0.40925,-8.23622 -5.61018,-12.84032 -14.35797,-12.84032 -15.63689,0 -25.86822,13.77819 -26.53326,27.04482 -0.56272,11.57846 5.43966,17.29095 17.80252,17.29095 4.77462,0 11.08394,-0.54567 16.25077,-2.09742 0,0 -0.42631,-9.41283 -0.42631,-9.41283 z m -4.65525,-19.9852 c -0.20463,4.05843 -5.21798,4.29716 -15.10827,4.2119 1.09134,-3.56391 4.68936,-6.82089 10.60648,-6.82089 2.91593,0 4.6041,1.1084 4.50179,2.60899 z m -40.55019,19.9852 c -3.52981,1.72228 -7.55413,1.27892 -12.24349,1.27892 -3.700332,0 -6.565105,-0.64798 -8.13391,-1.90985 -0.818506,-1.38123 -1.159551,-3.52981 -1.091342,-4.91104 17.273902,0.46041 28.170272,-3.52981 28.715942,-14.44323 0.40925,-8.23622 -5.61018,-12.84032 -14.35797,-12.84032 -15.619836,0 -25.851168,13.77819 -26.516205,27.04482 -0.579775,11.57846 5.422606,17.29095 17.802518,17.29095 4.757567,0 11.066887,-0.54567 16.233717,-2.09742 0,0 -0.40926,-9.41283 -0.40926,-9.41283 z m -4.6723,-19.9852 c -0.20463,4.05843 -5.21798,4.29716 -15.09122,4.2119 1.07429,-3.56391 4.689361,-6.82089 10.60648,-6.82089 2.91593,0 4.58705,1.1084 4.48474,2.60899 z m -51.906963,31.49545 c 0,0 3.819697,-16.02908 3.819697,-16.02908 2.012162,-8.67958 6.258165,-16.37014 14.289761,-16.37014 0.716193,0 1.415334,0.3581 1.943953,0.44336 0,0 3.103504,-12.29465 3.103504,-12.29465 -0.716193,0 -1.500595,-0.0853 -2.387311,-0.0853 -5.91712,0 -10.879316,4.16074 -14.187447,10.12902 0,0 -0.341044,0 -0.341044,0 0.494514,-2.91593 0.92082,-5.67839 1.244812,-8.4238 0,0 -10.964578,0 -10.964578,0 -0.630932,3.54686 -1.602908,10.48712 -3.086451,16.74528 0,0 -6.241113,25.88527 -6.241113,25.88527 0,0 12.806217,0 12.806217,0 z m -57.05672812,0 c 0,0 12.72095612,0 12.72095612,0 0,0 5.712494,-23.87311 5.712494,-23.87311 0,0 20.66729,0 20.66729,0 0,0 2.660147,-10.23133 2.660147,-10.23133 0,0 -20.752552,0 -20.752552,0 0,0 3.444548,-15.347 3.444548,-15.347 0,0 22.082625,0 22.082625,0 0,0 2.660147,-11.93655 2.660147,-11.93655 0,0 -34.87179,0 -34.87179,0 0,0 -14.32386512,61.38799 -14.32386512,61.38799 z" />
  <path
     style="fill:#cccccc;stroke-width:0.847689"
     d="m 429.01595,278.00769 c -3.91616,-0.68921 -10.44827,-2.58461 -14.51583,-4.21201 l -7.39554,-2.9589 h -192.4823 c -105.86527,0 -192.671176,-0.30561 -192.902026,-0.67914 -0.31789,-0.51435 35.097725,-156.50063 56.766468,-250.025016 l 2.209521,-9.536506 h 273.978107 273.9781 l 8.85538,-2.9939365 c 21.62015,-7.30961395 44.07827,-9.5843518 56.32598,-5.7051461 8.37545,2.6527487 13.71234,6.9700073 17.29286,13.9889966 2.60163,5.10004 2.88,6.33451 2.86002,12.683435 -0.0537,17.10162 -12.87161,38.522376 -34.6409,57.890821 -6.16449,5.484627 -6.76617,6.26874 -5.12613,6.680369 3.39461,0.851988 8.71408,6.241614 10.68712,10.828053 2.80074,6.51052 2.1873,17.16329 -1.53417,26.64132 -7.73597,19.70241 -26.58141,42.83463 -52.78327,64.7899 -51.73953,43.35401 -109.02934,72.69422 -159.69785,81.78712 -10.92709,1.96096 -32.94436,2.39243 -41.87554,0.82064 z m 34.79295,-9.25297 c 50.29269,-6.69525 114.29481,-39.68134 167.33011,-86.24034 28.09755,-24.66648 46.16486,-51.45316 46.16486,-68.44424 0,-10.47244 -4.39999,-13.74492 -20.32723,-15.118334 l -7.18804,-0.619831 9.30726,-7.140444 c 43.28475,-33.207667 58.76233,-70.101799 33.51005,-79.878392 -3.92065,-1.5179095 -6.30771,-1.8010242 -14.30498,-1.696627 -12.10505,0.1580212 -22.38943,2.22621 -38.76672,7.795983 -30.81316,10.479284 -61.91582,31.108667 -80.50578,53.396865 -5.26117,6.30781 -14.81181,20.601596 -14.81181,22.167821 0,0.409289 2.76559,-1.120663 6.14575,-3.399896 34.38154,-23.183371 73.07312,-36.634989 82.03827,-28.52164 3.82186,3.458739 0.94531,13.030991 -7.25343,24.137144 -8.40734,11.388716 -30.07476,31.146921 -43.20841,39.401131 -6.06132,3.80941 -25.5556,18.47884 -30.94066,23.28283 l -3.8146,3.40299 11.14209,-4.57188 c 29.53366,-12.11839 54.36899,-17.47145 63.45164,-13.67648 3.19347,1.33432 4.38394,4.04142 3.43678,7.8152 -2.4245,9.65999 -23.703,27.31966 -53.1637,44.12219 -52.52008,29.95415 -105.47365,40.71662 -129.41268,26.30228 -10.42137,-6.27498 -15.16563,-17.77493 -13.0218,-31.56451 7.27336,-46.7841 76.79025,-114.629332 153.75746,-150.060082 4.98505,-2.294797 8.93181,-4.304278 8.77057,-4.465512 -0.64482,-0.644828 -22.87423,9.021684 -35.63578,15.496309 -37.54571,19.048965 -69.88043,42.671151 -100.90776,73.718325 -16.84021,16.85098 -26.58346,28.49668 -37.26908,44.54619 -17.20981,25.84865 -25.13816,46.52878 -25.18654,65.69593 -0.0281,11.10353 1.74106,17.66977 6.91906,25.68114 6.75393,10.44964 18.00395,16.34374 36.49626,19.12108 5.10982,0.76744 18.95166,0.41938 27.24884,-0.6852 z M 105.5652,236.54834 c 2.89087,-1.20788 7.1775,-5.10448 7.1775,-6.52444 0,-1.42744 -5.1154,-0.69464 -6.78152,0.97147 -2.00116,2.00117 -6.939319,2.27652 -8.438171,0.4705 -0.559106,-0.67367 -0.891909,-2.10415 -0.739562,-3.17883 0.266009,-1.87646 0.621592,-1.96354 8.965813,-2.19553 l 8.68881,-0.24159 v -4.44402 c 0,-5.44977 -1.53275,-7.84125 -5.85579,-9.13647 -8.4464,-2.5306 -17.184919,5.46682 -17.335223,15.86505 -0.07032,4.86531 1.038456,6.75615 4.965367,8.46759 3.342565,1.45675 5.771076,1.44281 9.352776,-0.0538 z m 26.62498,0.39502 c 2.75612,-0.79045 8.52627,-5.50195 8.52627,-6.96197 0,-1.45324 -5.69826,-0.65135 -7.20536,1.01398 -1.71806,1.89844 -6.27154,2.29013 -7.88351,0.67815 -0.55948,-0.55947 -1.01723,-2.07197 -1.01723,-3.3611 v -2.34387 l 8.68882,-0.24158 8.68881,-0.24158 0.25834,-3.55502 c 0.54421,-7.48915 -4.74096,-11.68687 -12.18924,-9.68126 -8.5264,2.29592 -14.37977,15.55243 -9.5681,21.66949 2.90374,3.6915 6.30802,4.5715 11.7012,3.02476 z m 50.35391,-1.5132 c 3.52,-2.0558 6.49066,-6.57837 6.49066,-9.88151 0,-4.46546 -1.96956,-6.1915 -9.78529,-8.57544 -6.37548,-1.94464 -7.1685,-2.40998 -7.1685,-4.20639 0,-2.74234 3.01695,-4.65906 7.33343,-4.65906 3.89779,0 6.2296,1.62927 6.2296,4.35271 0,1.39437 0.47994,1.64226 2.75499,1.4229 2.56404,-0.24722 2.74482,-0.47049 2.60817,-3.22134 -0.10665,-2.147 -0.89144,-3.62102 -2.86826,-5.38732 -2.52976,-2.26034 -3.12308,-2.40891 -8.42362,-2.1094 -6.79595,0.384 -11.12981,3.08968 -12.73382,7.94986 -1.97207,5.97545 0.67995,8.74834 11.24526,11.7577 4.4687,1.27284 4.87421,1.58931 4.87421,3.80394 0,1.32858 -0.53522,2.85979 -1.18938,3.40269 -2.23182,1.85225 -6.62925,2.6256 -9.9086,1.74256 -3.16103,-0.85118 -4.16043,-2.09746 -4.16043,-5.18818 0,-1.38447 -0.4843,-1.63305 -2.75499,-1.41412 -2.59838,0.25053 -2.7493,0.4485 -2.65491,3.48271 0.11713,3.76517 2.74004,7.0132 6.63473,8.21598 3.60062,1.11196 10.28925,0.37331 13.47675,-1.48829 z m 25.22525,1.38536 c 4.54918,-1.51778 8.289,-5.63058 9.77827,-10.75349 1.63086,-5.60996 0.97515,-9.67769 -1.92816,-11.96144 -6.91768,-5.44144 -17.49426,-0.68412 -20.35472,9.15551 -1.74858,6.0149 -0.59033,10.45857 3.3527,12.86278 3.11156,1.89724 5.09978,2.04858 9.15191,0.69664 z m 91.5593,-0.34342 c 2.39632,-0.84548 3.80154,-0.99468 3.99182,-0.42384 0.1615,0.48452 1.40624,0.88094 2.76607,0.88094 2.28653,0 2.4747,-0.23901 2.50262,-3.17884 0.0166,-1.74836 0.58284,-5.46759 1.2583,-8.26497 2.58353,-10.69968 1.0691,-13.58535 -7.1015,-13.53151 -5.49959,0.0363 -9.30998,1.88991 -11.49765,5.59336 l -1.43436,2.42817 h 2.82644 c 1.80295,0 3.36674,-0.631 4.31847,-1.74255 2.16698,-2.53085 8.51363,-2.06521 8.90015,0.65297 0.28716,2.01947 0.56711,1.90053 -8.69006,3.69221 -6.24974,1.2096 -9.80875,4.32319 -9.78924,8.56405 0.0148,3.22111 0.56425,4.26675 2.95393,5.62185 2.32461,1.31821 4.64501,1.24293 8.99501,-0.29184 z m 47.32697,0.47126 c 2.75612,-0.79045 8.52627,-5.50195 8.52627,-6.96197 0,-1.45324 -5.69826,-0.65135 -7.20536,1.01398 -1.71806,1.89844 -6.27154,2.29013 -7.88352,0.67815 -0.55947,-0.55947 -1.01722,-2.08531 -1.01722,-3.39075 v -2.37353 h 8.90074 8.90074 v -4.29418 c 0,-2.3618 -0.41217,-5.06431 -0.91592,-6.00559 -1.38462,-2.58717 -6.31125,-4.3279 -10.32814,-3.64925 -9.54376,1.61241 -16.10714,17.22756 -9.69229,23.05925 3.13325,2.84842 5.81321,3.32962 10.7147,1.92389 z m -293.295747,-3.193 c 0.485543,-1.74836 0.887061,-3.56029 0.892261,-4.02652 0.0052,-0.46623 0.406718,-2.27817 0.892262,-4.02653 l 0.882807,-3.17883 h 7.58936 c 4.174148,0 7.594569,-0.2861 7.600935,-0.63577 0.0064,-0.34967 0.241587,-1.49405 0.522712,-2.54307 0.501119,-1.86991 0.367985,-1.9073 -6.793091,-1.9073 -8.037196,0 -7.954195,0.071 -6.779953,-5.8002 l 0.524274,-2.62137 8.97905,-0.23958 8.979051,-0.23959 0.561886,-2.75499 0.561886,-2.75499 H 66.154155 54.535006 l -3.535155,15.89418 c -1.944336,8.7418 -3.533826,16.371 -3.532199,16.95379 0.0017,0.6078 1.070305,1.05961 2.50618,1.05961 2.170545,0 2.620549,-0.42247 3.386031,-3.17884 z m 26.172807,-5.1851 c 2.074815,-9.20015 3.707329,-11.62284 7.361303,-10.92434 1.760386,0.33652 2.429669,-0.0566 3.447721,-2.02534 1.219741,-2.35872 1.18544,-2.47251 -0.995163,-3.30158 -1.242146,-0.47226 -3.066349,-0.59712 -4.053784,-0.27747 -0.987435,0.31965 -3.098442,0.61546 -4.691128,0.65736 l -2.89579,0.0762 -2.69189,12.07958 -2.691889,12.07957 h 2.662194 2.662195 l 1.886231,-8.36394 z m 149.679,1.3705 c 2.68521,-12.75789 2.91255,-13.35111 5.11645,-13.35111 1.80672,0 3.02492,-1.39345 3.02492,-3.46009 0,-0.42809 -0.99445,-0.77835 -2.20991,-0.77835 -1.66689,0 -2.08349,-0.32948 -1.69538,-1.34087 0.283,-0.73747 0.51454,-1.69112 0.51454,-2.11922 0,-0.4281 1.29779,-0.77836 2.88398,-0.77836 2.4423,0 3.01977,-0.38947 3.77051,-2.54307 l 0.88652,-2.54307 h -4.23288 c -4.89194,0 -8.06944,2.40236 -8.94094,6.75984 -0.3892,1.94603 -0.97478,2.56475 -2.42738,2.56475 -1.36892,0 -2.02989,0.60387 -2.31956,2.11922 -0.3223,1.68601 -0.0604,2.11922 1.28105,2.11922 1.91971,0 1.85643,0.85192 -0.9917,13.35111 l -1.59356,6.99344 h 2.7307 2.73071 z m 18.31365,4.45037 c 0,-1.97794 -0.37675,-2.54307 -1.69538,-2.54307 -2.05313,0 -2.06517,-0.35965 -0.28878,-8.62618 1.28543,-5.98182 1.59577,-6.56767 3.60268,-6.80087 2.84629,-0.33076 3.74987,-4.0698 0.9835,-4.0698 -1.93949,0 -2.05737,-0.6401 -0.97569,-5.29806 0.85044,-3.66217 0.62544,-3.77017 -3.10979,-1.49275 -1.94397,1.18526 -2.75499,2.31345 -2.75499,3.83241 0,1.5162 -0.62659,2.39089 -2.11922,2.9584 -2.40141,0.91301 -2.98893,4.23844 -0.74883,4.23844 1.0062,0 1.23571,0.5069 0.86359,1.9073 -0.27876,1.04902 -1.15812,5.02392 -1.95416,8.83312 -1.75248,8.38595 -1.18345,9.60413 4.48626,9.60413 3.55799,0 3.71081,-0.10472 3.71081,-2.54307 z m 17.32824,-4.77927 c 3.79692,-8.30292 4.55216,-8.03438 4.6521,1.65415 l 0.0596,5.77561 2.75499,-0.26563 c 2.47504,-0.23864 3.10109,-0.91167 6.16098,-6.62331 1.8733,-3.49672 4.8224,-8.93252 6.55356,-12.07957 l 3.14756,-5.7219 -2.73895,0.0105 c -2.57052,0.01 -2.97235,0.45293 -6.53459,7.20536 -2.08761,3.95716 -4.09027,7.19485 -4.45037,7.19485 -0.36011,0 -0.65474,-3.24242 -0.65474,-7.20536 v -7.20536 l -2.75499,0.0168 c -2.63128,0.016 -2.92512,0.36813 -6.54371,7.84113 l -3.78872,7.82434 -0.23373,-4.23845 c -0.12856,-2.33114 -0.44967,-5.85965 -0.71359,-7.84112 -0.4467,-3.35371 -0.66007,-3.60268 -3.08756,-3.60268 h -2.60771 l 0.56219,7.41728 c 1.31732,17.38006 1.2647,17.16666 4.23083,17.1579 2.49716,-0.008 2.83284,-0.41748 5.98686,-7.31453 z m 57.11829,-1.0416 c 2.07482,-9.20015 3.70733,-11.62284 7.36131,-10.92434 1.76038,0.33652 2.42966,-0.0566 3.44772,-2.02534 1.21974,-2.35872 1.18543,-2.47251 -0.99516,-3.30158 -1.24216,-0.47226 -3.06636,-0.58032 -4.05379,-0.24012 -0.98744,0.34019 -3.11804,0.636 -4.73468,0.65735 -3.29113,0.0435 -2.49478,-1.98202 -6.76418,17.20453 l -1.55619,6.99344 h 2.70437 2.70437 z m 70.92282,-41.22589 c 3.56151,-8.81689 9.04311,-19.24842 15.01382,-28.57142 l 4.18295,-6.53149 -3.50683,-10.77914 c -7.29622,-22.42676 -13.63636,-47.777752 -17.35749,-69.403717 -3.20298,-18.614675 -4.00474,-26.015064 -4.5919,-42.384472 l -0.54732,-15.25841 -3.12334,9.555959 c -15.79077,48.312239 -16.1927,116.37428 -1.04375,176.74542 1.61161,6.42255 2.95634,11.95373 2.98829,12.2915 0.032,0.33778 1.14838,-3.58192 2.48096,-8.71044 1.33257,-5.12853 3.80965,-12.75773 5.50461,-16.95379 z m -241.81629,1.96438 c 3.03929,-1.42447 5.44472,-3.24876 6.43858,-4.88304 0.91562,-1.5056 4.35092,-15.24234 8.12296,-32.4812 3.59499,-16.42973 6.73133,-30.53979 6.96966,-31.35569 0.40539,-1.38783 -1.09816,-1.48345 -23.32644,-1.48345 h -23.75975 l -0.79091,3.17883 c -0.43499,1.74836 -0.98617,4.03712 -1.22484,5.08614 l -0.43395,1.9073 h 13.15869 c 12.58193,0 13.13994,0.0717 12.73089,1.63592 -0.23528,0.89976 -2.83599,12.53429 -5.77933,25.85453 l -5.35153,24.21861 H 109.5146 c -22.288378,0 -28.238249,-0.22562 -27.944178,-1.05962 0.205492,-0.58278 6.445033,-28.61953 13.865646,-62.30387 l 13.492022,-61.244276 28.18568,-0.0013 c 15.50212,-7.11e-4 28.18567,0.135123 28.18567,0.301854 0,0.166731 -1.52584,7.087329 -3.39076,15.379108 -1.86491,8.291778 -3.39075,15.593844 -3.39075,16.226797 0,0.907409 2.22187,1.15084 10.50414,1.15084 h 10.50414 l 1.27684,-5.721904 c 7.1845,-32.195876 6.90087,-30.46994 5.38686,-32.780625 -0.77526,-1.183208 -2.64573,-2.82678 -4.15659,-3.652384 -2.51703,-1.375453 -6.04687,-1.501119 -42.16456,-1.501119 H 100.4512 l -4.888233,2.400351 c -2.948803,1.448001 -5.356364,3.305617 -6.068134,4.682026 -1.835054,3.548603 -29.514542,129.732342 -28.9507,131.978872 0.622335,2.47958 4.426424,5.22378 8.666285,6.25172 1.820949,0.44148 19.588722,0.72514 40.141522,0.64084 l 36.87449,-0.15123 z m 44.63606,-0.48093 c 0.44616,-1.74836 3.37952,-14.90873 6.51858,-29.24528 l 5.70739,-26.06645 h 29.38519 c 17.31496,0 31.45128,-0.37506 34.4151,-0.91309 6.43948,-1.16897 11.96716,-4.36632 13.54797,-7.83647 1.53222,-3.36355 15.64108,-66.960206 15.64108,-70.503301 0,-3.760396 -1.98969,-6.043721 -6.60123,-7.575428 -3.52744,-1.171627 -9.52851,-1.318872 -45.95573,-1.127586 l -41.89849,0.220015 -16.19446,73.11321 -16.19447,73.11322 h 10.40893 10.40892 z m 165.07376,0.84769 c -0.25422,-1.28213 -0.70843,-3.76162 -1.00938,-5.50998 l -0.54717,-3.17883 h -25.76019 -25.76019 l 0.0511,-1.90731 c 0.0281,-1.04901 6.62771,-31.47047 14.66579,-67.60323 l 14.61466,-65.69593 -10.11775,-0.238931 c -5.56477,-0.131411 -10.29796,-0.05873 -10.51821,0.161516 -0.3766,0.376603 -32.41469,144.303205 -32.42574,145.668075 -0.003,0.34967 17.3816,0.63577 38.63208,0.63577 h 38.63722 l -0.46221,-2.33115 z"
     id="path1183" />
  <path
     style="fill:#cccccc;stroke-width:0.847689"
     d="m 211.03242,121.43151 c -0.0232,-0.58278 3.12382,-15.45876 6.99344,-33.057731 l 7.03569,-31.998121 27.33798,-0.0022 c 15.03589,-0.0012 27.33799,0.262308 27.33799,0.58554 0,0.756221 -13.47526,62.081352 -14.0737,64.048632 -0.4175,1.37242 -2.47731,1.48345 -27.52021,1.48345 -21.06749,0 -27.07831,-0.23492 -27.11119,-1.05961 z"
     id="path1222" />
  <path
     style="fill:#cccccc;stroke-width:0.847689"
     d="m 201.07194,231.67352 c -2.44205,-2.44204 -0.33322,-11.14753 3.32029,-13.70655 2.32159,-1.6261 5.92104,-1.80464 7.36059,-0.36509 1.28336,1.28336 1.32182,6.97973 0.0636,9.4227 -1.89288,3.67527 -4.37973,5.66617 -7.07766,5.66617 -1.45728,0 -3.10736,-0.45775 -3.66683,-1.01723 z"
     id="path1261" />
  <path
     style="fill:#cccccc;stroke-width:0.847689"
     d="m 126.30573,220.8231 c 0,-0.46623 0.76292,-1.61061 1.69538,-2.54307 2.26708,-2.26709 7.246,-2.29993 8.44707,-0.0557 1.61551,3.01862 1.04041,3.44649 -4.63247,3.44649 -3.1082,0 -5.50998,-0.36951 -5.50998,-0.84769 z"
     id="path1300" />
  <path
     style="fill:#cccccc;stroke-width:0.847689"
     d="m 98.331975,220.97086 c 0,-1.60742 4.089225,-4.38621 6.454695,-4.38621 2.8709,0 4.56527,1.32138 4.56527,3.5603 0,1.31283 -0.7692,1.52584 -5.50998,1.52584 -3.03049,0 -5.509985,-0.31497 -5.509985,-0.69993 z"
     id="path1339" />
  <path
     style="fill:#cccccc;stroke-width:0.847689"
     d="m 340.77116,220.97086 c 0,-1.60742 4.08922,-4.38621 6.45469,-4.38621 2.8709,0 4.56527,1.32138 4.56527,3.5603 0,1.31283 -0.7692,1.52584 -5.50998,1.52584 -3.03049,0 -5.50998,-0.31497 -5.50998,-0.69993 z"
     id="path1456" />
  <path
     style="fill:#cccccc;stroke-width:0.234508"
     d="m 294.14567,232.52667 c -1.35729,-0.58361 -1.52644,-2.17647 -0.37626,-3.54338 0.90098,-1.07075 1.63122,-1.34374 5.27698,-1.97273 1.84362,-0.31807 3.71149,-0.65083 4.15082,-0.73946 0.79103,-0.15959 0.79739,-0.15413 0.65422,0.56175 -0.43063,2.15315 -2.22125,4.32809 -4.34317,5.27536 -1.21668,0.54315 -4.48031,0.79782 -5.36259,0.41846 z"
     id="path1495" />
  <path
     style="fill:#cccccc;stroke-width:0.764781"
     d="m 0.25801446,356.61022 c 0.24169289,-0.96352 3.39802164,-14.48545 7.01406364,-30.04875 3.6160429,-15.56329 6.7517449,-28.89916 6.9682289,-29.63526 0.360055,-1.22428 1.888567,-1.33837 17.932031,-1.33837 14.385648,0 17.538425,0.18936 17.538425,1.05336 0,0.57935 -0.553568,3.50464 -1.230152,6.50064 l -1.230152,5.44728 H 36.295653 c -9.771575,0 -10.997824,0.14456 -11.353074,1.33837 -0.664598,2.23337 -2.763931,11.70882 -2.763931,12.47514 0,0.4098 4.262409,0.71733 9.942153,0.71733 11.244769,0 10.707204,-0.39166 8.922451,6.50064 l -0.990196,3.8239 -10.395236,0.21231 -10.395237,0.21231 -2.942845,12.02419 -2.942846,12.02418 -6.7791595,0.2223 c -6.72963687,0.22067 -6.77594941,0.20949 -6.33971804,-1.52957 z"
     id="path1534" />
  <path
     style="fill:#cccccc;stroke-width:0.764781"
     d="m 44.357296,357.90933 c 0,-0.24756 1.689504,-7.57417 3.754453,-16.28137 2.064949,-8.7072 4.160952,-18.32637 4.657784,-21.37593 l 0.903333,-5.54466 h 5.76622 5.76622 l -0.39578,3.51134 -0.395779,3.51135 2.282244,-2.76876 c 2.909526,-3.52976 7.32571,-5.78349 11.332737,-5.78349 2.634328,0 3.076485,0.21593 2.740473,1.33836 -0.220361,0.7361 -0.954047,3.58318 -1.630415,6.32683 l -1.22976,4.98846 h -2.977007 c -1.814002,0 -3.81144,0.6189 -5.112954,1.58425 -4.329057,3.21089 -6.236994,7.12404 -9.278505,19.03007 l -2.930561,11.47171 -6.626351,0.22097 c -3.644494,0.12154 -6.626352,0.0184 -6.626352,-0.22913 z"
     id="path1573" />
  <path
     style="fill:#cccccc;stroke-width:0.764781"
     d="m 92.788122,357.53022 c -6.565864,-1.35804 -11.219734,-5.33859 -12.171188,-10.41027 -2.282516,-12.16686 4.621864,-26.38781 15.363077,-31.64332 3.19465,-1.5631 4.978379,-1.87472 10.839499,-1.89371 7.82176,-0.0253 9.71371,0.80818 13.12759,5.78345 1.49064,2.17241 1.73735,3.33672 1.48161,6.99217 -0.61422,8.77951 -7.55649,13.45583 -21.05121,14.18011 -6.799448,0.36494 -7.074222,0.44922 -7.074222,2.1698 0,3.42168 2.817782,4.31674 12.611002,4.00586 l 8.80287,-0.27944 v 4.73111 4.73112 l -4.0151,0.77696 c -6.17699,1.19531 -14.378972,1.5873 -17.913928,0.85616 z m 15.188368,-29.80748 c 1.43241,-1.76895 1.43989,-1.90803 0.15321,-2.84887 -3.0199,-2.20821 -10.006118,-0.24128 -12.430428,3.49973 l -1.174323,1.81212 5.972801,-0.30162 c 5.20821,-0.263 6.16558,-0.53968 7.47874,-2.16136 z"
     id="path1612" />
  <path
     style="fill:#cccccc;stroke-width:0.764781"
     d="m 138.35114,357.54505 c -9.52173,-1.66417 -13.45192,-7.20241 -12.76019,-17.98104 0.64945,-10.11975 6.57927,-19.35309 15.29367,-23.81383 5.9085,-3.02444 14.91056,-3.43569 19.63882,-0.89717 4.61798,2.4793 6.3748,5.85195 6.00473,11.52755 -0.31895,4.89175 -1.83355,7.53546 -5.90452,10.30627 -3.58131,2.43752 -7.05176,3.30972 -15.12407,3.80098 -6.78497,0.41292 -7.07422,0.50372 -7.07422,2.22064 0,3.42168 2.81778,4.31674 12.61099,4.00586 l 8.80287,-0.27944 v 4.73111 4.73112 l -4.0151,0.77052 c -6.17204,1.18446 -13.58608,1.55677 -17.47298,0.87743 z m 12.90005,-28.36028 c 4.56229,-1.59043 3.67444,-5.30003 -1.2685,-5.30003 -3.25615,0 -7.54616,2.09976 -9.11382,4.46078 -1.08755,1.63794 -1.04669,1.65747 3.46733,1.65747 2.51231,0 5.62406,-0.3682 6.91499,-0.81822 z"
     id="path1651" />
  <path
     style="fill:#cccccc;stroke-width:0.764781"
     d="m 195.40154,357.60476 c -8.0363,-2.0016 -10.92121,-10.69178 -7.35414,-22.15279 2.95589,-9.49729 7.96163,-15.31698 16.68658,-19.39987 3.92957,-1.83887 6.30008,-2.38617 11.65857,-2.69169 7.06797,-0.403 14.21943,0.18417 16.05421,1.31813 0.91337,0.56449 0.55731,2.95397 -2.22535,14.93409 -1.82198,7.84414 -3.70233,17.4217 -4.17854,21.28347 l -0.86584,7.02139 -5.99594,0.22507 -5.99594,0.22506 0.32368,-4.47482 0.32368,-4.47481 -2.26005,2.57405 c -3.95965,4.50979 -10.91149,6.92269 -16.17092,5.61272 z m 14.15594,-12.31149 c 2.7383,-1.94984 4.88845,-6.39608 6.84102,-14.14633 0.84733,-3.36327 1.54588,-6.37314 1.55233,-6.68861 0.0194,-0.9453 -4.44679,-0.6485 -7.13346,0.47407 -5.00492,2.09118 -10.44476,10.88957 -10.44476,16.89333 0,4.60845 4.95534,6.47923 9.18487,3.46754 z"
     id="path1690" />
  <path
     style="fill:#cccccc;stroke-width:0.764781"
     d="m 238.72381,357.5562 c -5.68193,-0.88552 -5.95957,-1.36361 -3.89058,-6.6994 l 1.7505,-4.51441 8.27939,0.34113 c 8.05431,0.33185 8.27938,0.29667 8.27938,-1.29416 0,-1.79727 -0.8408,-2.62429 -6.47095,-6.3649 -4.65024,-3.08956 -6.78666,-6.56071 -6.72077,-10.91956 0.0812,-5.37054 3.43346,-10.04089 9.36782,-13.05115 4.74936,-2.40916 20.18985,-2.43299 21.11098,-0.0326 0.20504,0.53433 -0.33545,2.86449 -1.2011,5.17813 l -1.57389,4.20661 -6.5856,-0.0694 c -5.58683,-0.0589 -6.71628,0.14151 -7.44724,1.32124 -0.97005,1.56559 -0.06,2.48667 6.78617,6.86873 4.82319,3.08718 7.62864,8.1463 6.84216,12.33859 -1.01816,5.42729 -5.84305,10.30873 -11.73755,11.87513 -4.25903,1.1318 -12.26542,1.52093 -16.78872,0.81598 z"
     id="path1729" />
  <path
     style="fill:#cccccc;stroke-width:0.764781"
     d="m 288.35929,357.7263 c 0.0203,-0.31547 2.36947,-10.03775 5.22043,-21.60506 l 5.18357,-21.03148 6.63367,-0.22097 c 3.64852,-0.12154 6.63367,-0.0422 6.63367,0.17627 0,0.81413 -10.11507,42.13025 -10.44928,42.68124 -0.19136,0.31547 -3.25289,0.57358 -6.80342,0.57358 -3.55053,0 -6.43892,-0.25811 -6.41864,-0.57358 z"
     id="path1768" />
  <path
     style="fill:#cccccc;stroke-width:0.764781"
     d="m 304.19974,309.06001 c -3.42454,-2.60019 -4.218,-9.01505 -1.50164,-12.1404 2.64654,-3.04503 9.30658,-3.54281 11.95579,-0.8936 2.59208,2.59208 0.92614,10.29685 -2.78906,12.89908 -2.06532,1.44661 -5.8498,1.51322 -7.66509,0.13492 z"
     id="path1807" />
  <path
     style="fill:#cccccc;stroke-width:0.764781"
     d="m 312.79542,357.92425 c 0,-0.23935 2.23698,-9.89167 4.97107,-21.44959 2.73409,-11.55793 4.97108,-21.18381 4.97108,-21.39085 0,-0.20704 2.61579,-0.37644 5.81286,-0.37644 h 5.81287 l -0.2682,3.35793 -0.26821,3.35794 2.83631,-2.5626 c 5.96308,-5.38763 16.20858,-6.25752 20.7079,-1.7582 2.2201,2.2201 2.2567,2.3859 1.88446,8.53828 -0.21234,3.50966 -1.79842,12.08711 -3.59963,19.46669 l -3.22004,13.19247 h -6.43657 c -5.26131,0 -6.43657,-0.21317 -6.43657,-1.16748 0,-0.64211 1.39633,-7.04107 3.10295,-14.2199 1.70663,-7.17883 2.99719,-13.78768 2.86793,-14.68633 -0.36264,-2.52112 -3.58958,-3.28781 -7.00887,-1.66525 -4.28151,2.03171 -6.50695,6.5943 -9.67278,19.8311 l -2.75653,11.52547 -6.65002,0.22097 c -3.65751,0.12154 -6.65001,0.0251 -6.65001,-0.21421 z"
     id="path1846" />
  <path
     style="fill:#cccccc;stroke-width:0.764781"
     d="m 380.47019,356.60922 c 1.62165,-6.78767 14.15679,-60.6226 14.15679,-60.79948 0,-0.12204 7.91548,-0.2219 17.58996,-0.2219 15.3905,0 17.58996,0.14848 17.58996,1.1874 0,0.65307 -0.54381,3.57835 -1.20847,6.50064 l -1.20847,5.31324 h -10.97649 c -9.79222,0 -11.01945,0.1444 -11.37475,1.33837 -0.6646,2.23337 -2.76393,11.70882 -2.76393,12.47514 0,0.41087 4.37492,0.71733 10.24025,0.71733 h 10.24024 l -1.3018,5.16227 -1.30179,5.16227 -10.39739,0.21232 -10.39738,0.21232 -2.93855,12.02417 -2.93856,12.02418 -6.71396,0.2213 c -6.65513,0.21935 -6.71029,0.20595 -6.29566,-1.52957 z"
     id="path1885" />
  <path
     style="fill:#cccccc;stroke-width:0.764781"
     d="m 424.45344,358.07773 c 0,-0.15494 1.68991,-7.3594 3.75537,-16.00991 2.06545,-8.65052 4.17758,-18.34547 4.69361,-21.54433 l 0.93824,-5.81612 h 5.73039 5.7304 l -0.40301,3.57545 -0.403,3.57545 2.40669,-2.76385 c 3.39678,-3.90088 7.15565,-5.91037 11.06201,-5.91375 2.78807,-0.002 3.23951,0.20539 2.9012,1.3355 -0.22036,0.7361 -0.976,3.67057 -1.6792,6.52104 -1.10297,4.47099 -1.47676,5.11976 -2.72201,4.72453 -2.13382,-0.67724 -6.2492,0.92731 -8.47142,3.30295 -3.19607,3.41672 -4.61792,6.87635 -7.45764,18.14587 l -2.69797,10.70693 -6.69183,0.22097 c -3.68051,0.12154 -6.69183,0.0942 -6.69183,-0.0607 z"
     id="path1924" />
  <path
     style="fill:#cccccc;stroke-width:0.764781"
     d="m 472.88426,357.53022 c -9.25775,-1.91481 -12.99918,-7.37126 -12.31924,-17.96621 0.65483,-10.20359 6.43809,-19.22606 15.29382,-23.85987 3.54954,-1.85732 4.89477,-2.11638 11.05681,-2.12927 7.82055,-0.0164 9.71629,0.81999 13.12759,5.7915 1.49297,2.17581 1.73749,3.33463 1.48002,7.01419 -0.34204,4.88824 -1.87014,7.54605 -5.92555,10.30627 -3.5813,2.43752 -7.05176,3.30972 -15.12407,3.80098 -6.78497,0.41292 -7.07422,0.50372 -7.07422,2.22064 0,3.42168 2.81778,4.31674 12.611,4.00586 l 8.80287,-0.27944 v 4.73111 4.73112 l -4.0151,0.77696 c -6.17698,1.19531 -14.37897,1.5873 -17.91393,0.85616 z m 13.341,-28.34545 c 2.89523,-1.00929 3.80442,-2.99191 1.98284,-4.32388 -2.96705,-2.16956 -9.99317,-0.22342 -12.35202,3.42134 -1.11105,1.71673 -1.10296,1.72076 3.45418,1.72076 2.51232,0 5.62406,-0.3682 6.915,-0.81822 z"
     id="path1963" />
  <path
     style="fill:#cccccc;stroke-width:0.764781"
     d="m 518.44728,357.54505 c -9.63248,-1.68353 -13.52434,-7.26824 -12.69616,-18.21864 0.7586,-10.03037 6.70431,-19.21134 15.28713,-23.60535 5.84918,-2.99453 14.87527,-3.39465 19.58134,-0.86805 4.61797,2.4793 6.37479,5.85195 6.00472,11.52755 -0.31895,4.89175 -1.83355,7.53546 -5.90452,10.30627 -3.58524,2.4402 -7.05283,3.30983 -15.16461,3.8031 -7.10876,0.43228 -7.11457,0.43431 -6.88303,2.41175 0.38046,3.24923 2.9669,4.01764 12.65943,3.761 l 8.60378,-0.22781 v 4.73111 4.73112 l -4.0151,0.77052 c -6.17204,1.18446 -13.58608,1.55677 -17.47298,0.87743 z m 12.90005,-28.36028 c 4.56229,-1.59043 3.67444,-5.30003 -1.2685,-5.30003 -3.25615,0 -7.54616,2.09976 -9.11382,4.46078 -1.08755,1.63794 -1.04669,1.65747 3.46733,1.65747 2.51231,0 5.62406,-0.3682 6.91499,-0.81822 z"
     id="path2002" />
  <path
     style="fill:#cccccc;stroke-width:0.764781"
     d="m 559.91359,357.53351 c -6.24008,-1.47327 -9.26829,-6.03996 -9.2701,-13.97979 -0.003,-11.85682 6.50851,-22.61344 16.82399,-27.79339 3.36435,-1.68942 5.54487,-2.17796 10.89378,-2.4407 l 6.68749,-0.3285 0.74141,-2.77459 c 0.40777,-1.52603 1.28615,-5.18365 1.95195,-8.12806 0.66581,-2.9444 1.38978,-5.95573 1.60882,-6.69183 0.33845,-1.13734 1.36694,-1.33837 6.84737,-1.33837 4.33086,0 6.4491,0.28738 6.4491,0.87494 0,0.48122 -2.57906,11.66433 -5.73124,24.85137 -4.88854,20.45101 -8.03481,35.2726 -8.03481,37.85069 0,0.36553 -2.7743,0.6646 -6.16511,0.6646 h -6.16511 l 0.52646,-3.51066 0.52645,-3.51066 -3.50472,2.67522 c -2.07112,1.58092 -5.0982,3.01695 -7.40027,3.51066 -2.14255,0.45949 -3.96464,0.80022 -4.0491,0.75716 -0.0844,-0.0431 -1.31582,-0.3527 -2.73636,-0.68809 z m 15.41091,-13.25988 c 2.73145,-2.73145 5.74251,-11.09279 6.10304,-16.94738 0.18614,-3.02261 0.15411,-3.06196 -2.68399,-3.29675 -7.17285,-0.59339 -14.31405,7.91961 -14.33093,17.08384 -0.0112,6.09869 6.18029,7.89187 10.91188,3.16029 z"
     id="path2041" />
  <path
     style="fill:#cccccc;stroke-width:0.764781"
     d="m 614.36874,357.50116 c -9.44937,-1.86842 -13.9846,-8.17569 -13.04928,-18.14803 0.69801,-7.44217 3.28743,-12.97304 8.52644,-18.21205 5.74523,-5.74524 10.96645,-7.96327 18.74541,-7.96327 7.57055,0 12.57233,2.70713 15.59187,8.43885 1.9883,3.77421 2.17118,4.73837 1.88369,9.93103 -0.73976,13.36162 -9.52838,23.54546 -22.36801,25.91899 -4.9901,0.92247 -4.84196,0.92193 -9.33012,0.0345 z m 12.76148,-13.56199 c 5.07409,-5.07409 6.91521,-14.72848 3.46645,-18.17724 -5.48954,-5.48954 -14.3266,2.24456 -15.44841,13.52028 -0.52804,5.30748 1.24402,7.54596 5.97365,7.54596 2.58887,0 3.61058,-0.49128 6.00831,-2.889 z"
     id="path2080" />
  <path
     style="fill:#cccccc;stroke-width:0.764781"
     d="m 649.29904,357.82699 c 0,-0.51958 9.1338,-40.62318 9.60298,-42.16365 0.19951,-0.65504 2.11521,-0.95597 6.08568,-0.95597 h 5.79452 l -0.51178,2.72801 -0.51178,2.72801 2.19788,-2.06688 c 3.23446,-3.04167 7.80862,-4.88438 12.14004,-4.89063 4.65663,-0.007 7.08198,1.13466 9.25133,4.35376 l 1.64943,2.44759 1.43265,-1.61115 c 2.31418,-2.60254 8.67647,-5.20251 12.75114,-5.2108 4.50788,-0.009 7.78563,1.59359 9.31764,4.55618 2.31081,4.4686 1.63008,9.4157 -5.34416,38.83767 -0.38333,1.61716 -0.79837,1.72075 -6.89396,1.72075 -3.56733,0 -6.48606,-0.12061 -6.48606,-0.26802 0,-0.14741 1.3766,-6.17915 3.05912,-13.40388 3.19013,-13.69838 3.68518,-18.28171 2.14139,-19.8255 -2.43527,-2.43527 -6.95499,0.16571 -9.93587,5.71781 -1.65077,3.07469 -4.8292,14.3915 -7.10405,25.29406 l -0.51862,2.48553 h -6.43987 c -3.54193,0 -6.43988,-0.22288 -6.43988,-0.4953 0,-0.27241 1.39339,-6.35653 3.09643,-13.52025 4.2078,-17.69991 3.67946,-22.12469 -2.34386,-19.62975 -4.7576,1.97066 -6.99445,6.93313 -11.11518,24.65913 l -2.08899,8.98617 h -6.39309 c -3.51619,0 -6.39308,-0.2128 -6.39308,-0.47289 z"
     id="path2119" />
</svg>
