<?xml version="1.0" encoding="UTF-8" standalone="no"?>
<svg
   width="720"
   height="358"
   version="1.1"
   id="svg27"
   sodipodi:docname="gpl3-gray.svg"
   inkscape:version="1.1 (c4e8f9e, 2021-05-24)"
   xmlns:inkscape="http://www.inkscape.org/namespaces/inkscape"
   xmlns:sodipodi="http://sodipodi.sourceforge.net/DTD/sodipodi-0.dtd"
   xmlns="http://www.w3.org/2000/svg"
   xmlns:svg="http://www.w3.org/2000/svg">
  <sodipodi:namedview
     id="namedview828"
     pagecolor="#505050"
     bordercolor="#ffffff"
     borderopacity="1"
     inkscape:pageshadow="0"
     inkscape:pageopacity="0"
     inkscape:pagecheckerboard="1"
     showgrid="false"
     inkscape:zoom="1.5875"
     inkscape:cx="639.68504"
     inkscape:cy="258.58268"
     inkscape:window-width="1312"
     inkscape:window-height="997"
     inkscape:window-x="50"
     inkscape:window-y="25"
     inkscape:window-maximized="0"
     inkscape:current-layer="svg27" />
  <defs
     id="defs31" />
  <path
     id="path1"
     style="fill:#cccccc;stroke:#000000;stroke-opacity:1"
     d="m 673.17578,0.34960938 -0.15234,0.0117187 C 660.58468,1.2583707 644.01653,4.9766923 628.3125,11.283203 H 539.91602 114.62305 80.892578 c 2e-5,0 -59.310547,258.767577 -59.310547,258.767577 h 0.05469 274.380859 111.35351 c 8.18871,4.77878 18.13817,7.56878 29.25,8.53711 l 0.18555,0.0156 h 19.41602 l 0.16601,-0.0137 c 6.2076,-0.48413 12.68443,-1.38394 19.37891,-2.69336 11.54209,-2.25681 23.71841,-5.71068 36.33398,-10.31054 9.54953,-3.48202 19.35432,-7.59813 29.29883,-12.37891 l 0.004,-0.002 c 21.6417,-10.37462 43.95204,-23.73256 65.83398,-39.8418 7.21048,-5.30371 14.12756,-10.74325 20.76563,-16.27344 l 0.002,-0.002 c 6.08772,-5.06541 11.93093,-10.21081 17.51367,-15.41601 l 0.0254,-0.0234 0.0254,-0.0254 c 15.68304,-15.1138 27.59687,-30.48012 34.50391,-44.36524 3.59772,-7.23101 5.85407,-14.07198 6.41797,-20.42187 0.56381,-6.34892 -0.65812,-12.35856 -4.22461,-17.072268 l -0.002,-0.002 c -2.61575,-3.460717 -6.28889,-5.750857 -10.5039,-7.259766 13.72831,-11.273226 24.90342,-23.311808 32.23242,-35.091797 8.55925,-13.757381 12.37711,-27.391992 8.19922,-38.86914 v -0.002 C 709.52062,11.166563 703.46964,5.6256188 695.51367,2.7558594 h -0.002 l -0.002,-0.00195 c -3.53373,-1.271171 -7.39945,-2.03996693 -11.52529,-2.38867502 l -0.17774,-0.015625 z m 10.20313,8.52734372 c 3.48278,0.044736 6.58007,0.9413833 9.24609,1.9003909 6.05839,2.18638 9.78367,5.787073 11.55273,10.667968 l 0.002,0.0039 v 0.0039 c 2.81302,7.722212 0.38015,18.909702 -7.42383,31.453125 -7.80398,12.543423 -20.705,26.141255 -37.08984,38.435547 l -9.04493,6.787109 11.27539,0.873047 c 6.66947,0.516719 11.06122,2.58176 13.57032,5.90235 l 0.002,0.002 c 2.05657,2.71732 2.96244,6.32027 2.53125,11.17578 -0.43119,4.85551 -2.29375,10.81107 -5.56055,17.37695 -6.26998,12.60447 -17.62286,27.40542 -32.75781,41.9961 -5.45672,5.08693 -11.17106,10.12117 -17.13086,15.08008 l -0.002,0.002 c -6.5136,5.42656 -13.29542,10.76161 -20.36133,15.95898 h -0.002 c -21.46702,15.8039 -43.34029,28.89228 -64.47071,39.02149 l -0.004,0.002 h -0.002 c -9.69602,4.66148 -19.24385,8.66967 -28.52734,12.05469 -12.24684,4.46542 -24.00901,7.79609 -35.05078,9.95508 -6.36192,1.24437 -12.47953,2.09069 -18.29688,2.54882 h -18.57031 c -0.0873,-0.008 -0.1707,-0.0194 -0.25781,-0.0273 h 1.7168 c -17.00107,-1.48353 -30.42439,-7.45273 -38.42188,-18.33203 -1.48353,-2.01219 -2.70891,-4.17932 -3.7832,-6.44727 -0.68207,-1.6711 -1.32272,-3.35728 -1.9707,-5.0625 -1.70525,-5.42261 -2.38506,-11.43993 -2.07813,-17.85156 0.85262,-17.87074 9.23714,-39.12871 23.76563,-61.38867 15.43225,-23.65656 37.79939,-48.45043 65.49218,-71.458987 6.20699,-5.15319 12.62517,-10.24235 19.34375,-15.1875 8.30441,-6.10979 16.67228,-11.735727 25.04492,-16.998047 30.84745,-19.42077 61.61827,-33.00941 88.88477,-39.91211 -26.05577,8.50051 -55.32749,22.930312 -84.24805,42.576172 -1.04016,0.70255 -2.06865,1.42149 -3.09179,2.13086 -16.04613,11.11805 -30.5827,22.926962 -43.26954,34.851562 -40.82303,38.38457 -62.40072,78.15909 -52.5957,101.46094 0.69916,1.6029 1.53192,3.13259 2.50391,4.58203 10.53825,15.50047 36.65555,18.18086 69.7539,9.85938 2.25089,-0.56275 4.50317,-1.2002 6.82227,-1.86524 10.57238,-3.05237 21.79602,-7.17431 33.35742,-12.25586 2.77949,-1.22777 5.58926,-2.49076 8.41992,-3.83789 0.28988,-0.13641 0.56364,-0.27231 0.85352,-0.42578 36.49173,-18.13162 64.53488,-38.99421 70.60547,-51.5293 1.33008,-2.72662 1.64986,-5.05213 0.74609,-6.875 -4.33124,-8.78188 -34.63814,-2.84795 -71.35156,13.05664 -2.95003,1.2789 -5.93489,2.59441 -8.95313,3.9961 2.45552,-2.27986 5.01213,-4.56966 7.6211,-6.82227 4.16075,-3.58438 8.46765,-7.08919 13.05469,-10.55078 7.179,-5.43627 14.43715,-10.3502 21.58203,-14.70703 33.45643,-25.240672 50.36964,-49.116255 46.83984,-57.976565 -0.66505,-1.66943 -2.08098,-2.818438 -4.26367,-3.517578 -6.97438,-2.21847 -19.70356,0.429268 -35.16992,6.767578 -12.75504,5.23164 -27.40534,12.989804 -42.25782,22.646484 l -2.02343,1.332032 c 2e-5,0 -0.37305,0.214844 -0.37305,0.214844 2e-5,2e-5 -7.14062,4.742187 -7.14062,4.742187 -2e-5,-10e-6 4.10156,-7.513672 4.10156,-7.513672 6.08765,-11.14364 16.00381,-22.771395 28.34961,-33.572265 9.05473,-7.89689 19.40005,-15.337117 30.53515,-21.847657 4.21191,-2.46573 8.41702,-4.755292 12.62891,-6.820312 4.31422,-2.10769 8.62989,-3.980738 12.8418,-5.648438 C 651.40342,12.78462 663.35928,8.6198018 683.37891,8.8769531 Z M 386.87305,11.65625 c -1.67109,25.50496 3.27378,62.861801 14.49414,104.33789 1.99509,7.38021 4.16736,14.89151 6.55469,22.48828 1.48356,4.69104 3.01324,9.30936 4.58203,13.85547 -0.9208,1.35396 -1.84714,2.6983 -2.7168,4.04883 -13.99985,21.45508 -22.18278,41.73129 -24.24609,59.36328 -5.91714,-19.81468 -10.37276,-41.51757 -12.89649,-64.53125 -0.71619,-6.5941 -1.27719,-13.11431 -1.65234,-19.55664 -2.76247,-46.796391 3.34747,-89.21812 15.88086,-120.00586 z M 107.48242,44.855469 c 0.31934,-0.0075 0.63395,0 0.95899,0 0,-2e-5 63.04101,0 63.04101,0 5.38851,-2e-5 9.55441,1.009599 12.52149,3.037109 2.95002,2.03946 4.05658,4.677499 3.35742,7.886719 2e-5,2e-5 -7.51367,33.943359 -7.51367,33.943359 0,3e-5 -22.22071,0 -22.22071,0 2e-5,3e-5 7.30078,-33.037109 7.30078,-33.037109 h -55.63281 c -2e-5,0 -20.089842,90.802733 -20.089842,90.802733 2e-5,0 -7.246094,32.87891 -7.246094,32.87891 0,3e-5 55.578126,0 55.578126,0 0,3e-5 0.0547,-0.21289 0.0547,-0.21289 0,2e-5 11.13672,-50.30469 11.13672,-50.30469 0,-2e-5 -26.11133,0 -26.11133,0 0,-2e-5 2.5039,-11.35156 2.5039,-11.35156 -1e-5,-2e-5 48.33203,0 48.33203,0 0,-2e-5 -13.85351,62.77539 -13.85351,62.77539 -0.18757,0.89352 -0.51561,1.70245 -0.95899,2.5039 -1.14249,2.08037 -3.1365,3.86164 -5.91601,5.32813 -3.85378,2.02923 -8.46697,3.03711 -13.85547,3.03711 0,2e-5 -62.986327,0 -62.986328,0 -5.388524,2e-5 -9.554404,-1.0079 -12.521484,-3.03711 -2.95001,-2.0292 -4.073622,-4.6194 -3.357422,-7.83203 1e-5,-2e-5 27.761719,-125.494143 27.761719,-125.494143 0.71618,-3.20921 2.951426,-5.847279 6.822266,-7.886719 0.13642,-0.07331 0.289371,-0.09025 0.425781,-0.160156 3.53302,-1.7697 7.678678,-2.763823 12.468748,-2.876953 z m 98.79688,0 c -2e-5,-2e-5 79.3457,0 79.3457,0 5.32031,-2e-5 9.50362,1.009599 12.4707,3.037109 2.98417,2.03946 4.12637,4.677499 3.41016,7.886719 2e-5,2e-5 -14.81445,66.929683 -14.81445,66.929683 -0.69912,3.18874 -2.9871,5.79113 -6.875,7.83399 -3.8879,2.04966 -8.46344,3.08984 -13.80079,3.08984 h -57.6582 l -11.13672,50.25 c 0,2e-5 -1.8125,8.25977 -1.8125,8.25977 1e-5,2e-5 -21.74218,0 -21.74218,0 0,2e-5 1.65234,-7.45899 1.65234,-7.45899 0,2e-5 30.96094,-139.828121 30.96094,-139.828121 z m 109.61328,0 c -1e-5,-2e-5 21.74219,0 21.74219,0 2e-5,-2e-5 -24.61915,111.210941 -24.61915,111.210941 3e-5,2e-5 -5.38281,24.30078 -5.38281,24.30078 0,3e-5 52.00977,0 52.00977,0 0.54568,3.98854 1.18314,7.90453 1.86523,11.77539 -2e-5,2e-5 -78.22656,0 -78.22656,0 2e-5,2e-5 6.18164,-27.92188 6.18164,-27.92188 2e-5,0 26.42969,-119.365231 26.42969,-119.365231 z m -90.48242,11.830078 c 2e-5,0 -14.44141,65.117183 -14.44141,65.117183 0,-2e-5 54.19336,0 54.19336,0 -10e-6,-2e-5 14.38867,-65.117183 14.38867,-65.117183 z M 179.84766,202.375 c 0.21267,-0.007 0.42639,0 0.64062,0 2.52373,2e-5 4.72657,0.44375 6.5,1.2793 1.8928,0.88671 3.24775,2.20403 3.99805,3.94336 0.73325,1.68819 0.92346,3.60374 0.53125,5.70117 0,1e-5 -0.1582,0.79883 -0.1582,0.79883 1e-5,-3e-5 -6.23633,0 -6.23633,0 -2e-5,-3e-5 0.0547,-0.7461 0.0547,-0.7461 0.16118,-1.46543 -0.0203,-2.61751 -0.58593,-3.41015 -0.0737,-0.0994 -0.18167,-0.23122 -0.26758,-0.32032 -0.14068,-0.14363 -0.35231,-0.30727 -0.5332,-0.42578 -0.87238,-0.5495 -2.23651,-0.85156 -3.9961,-0.85156 -2.33615,2e-5 -4.08174,0.40609 -5.27539,1.22461 -1.15956,0.80146 -1.89213,1.6972 -2.13086,2.77148 -0.23875,1.09134 0.15293,1.66377 0.42578,1.97071 0.008,0.008 0.0423,0.0452 0.0527,0.0547 0.34552,0.29445 1.54522,0.98492 5.27539,1.86524 3.37632,0.81851 5.61314,1.55266 6.875,2.18359 1.90987,0.97196 3.24421,2.23145 3.94336,3.78321 0.69911,1.53472 0.85208,3.33143 0.42578,5.27539 -0.4263,1.89279 -1.39183,3.63837 -2.82422,5.27539 -1.41532,1.637 -3.21717,2.93413 -5.38281,3.83789 -2.1486,0.88672 -4.50436,1.38476 -6.92578,1.38476 -3.0694,-1e-5 -5.53403,-0.46394 -7.46094,-1.38476 -2.01217,-0.95491 -3.46381,-2.46282 -4.31641,-4.42383 -0.81851,-1.90986 -0.99361,-4.07703 -0.5332,-6.44727 0,-3e-5 0.16016,-0.74609 0.16016,-0.74609 h 6.1289 l -0.0547,0.74609 c -0.15348,1.41532 -0.002,2.55755 0.37305,3.41016 0.35809,0.81853 1.04148,1.49676 2.13281,2.02539 1.15954,0.5627 2.60765,0.85156 4.26172,0.85156 1.48355,-1e-5 2.84008,-0.24806 4.05078,-0.6914 1.19365,-0.4263 2.14213,-0.98889 2.82422,-1.70508 0.66502,-0.71622 1.05409,-1.47445 1.22461,-2.29297 0.17052,-0.73324 0.13169,-1.3517 -0.1582,-1.86328 -0.32399,-0.54564 -0.96659,-1.0302 -1.97266,-1.43945 0,-1e-5 -5.22265,-1.54493 -5.22265,-1.54493 -2.91592,-0.73323 -4.87899,-1.43367 -6.02149,-2.13281 -1.55177,-0.92081 -2.67022,-2.10029 -3.25,-3.51562 -0.57977,-1.39831 -0.64077,-2.94855 -0.26562,-4.63672 0.3922,-1.80753 1.26225,-3.5278 2.60937,-5.0625 1.3642,-1.55177 3.12523,-2.76886 5.22266,-3.57031 1.85443,-0.69541 3.8056,-1.10275 5.86133,-1.17188 z m 55.95312,0.10547 c 0.33725,-0.0263 0.65361,0 1.01172,0 1e-5,0 3.83789,0.42773 3.83789,0.42773 l 1.2793,0.10547 c 2e-5,1e-5 -1.86524,4.74219 -1.86524,4.74219 l -0.37304,0.74609 c 0,-2e-5 -2.93164,-0.26562 -2.93164,-0.26562 -0.86541,0 -1.50072,0.133 -1.91797,0.42578 -0.0277,0.0209 -0.0818,0.085 -0.10742,0.10742 -0.0559,0.049 -0.14966,0.13431 -0.2129,0.21289 -0.25659,0.33651 -0.56862,0.9383 -0.79882,2.02539 -2e-5,0 -0.11058,0.45935 -0.21289,0.85157 1.34713,1e-5 4.58203,0 4.58203,0 0,1e-5 -1.17188,5.27539 -1.17188,5.27539 0,-1e-5 -3.35112,0 -4.47656,0 -0.34106,1.53469 -4.5293,20.30273 -4.5293,20.30273 -2e-5,-2e-5 -6.18164,0 -6.18164,0 -2e-5,-2e-5 4.01773,-18.03478 4.5293,-20.30273 -1.04021,-1e-5 -3.57031,0 -3.57031,0 0,-1e-5 1.17382,-5.2754 1.17382,-5.27539 1e-5,1e-5 2.54366,0 3.51563,0 0.17052,-0.73324 0.42773,-1.65235 0.42773,-1.65235 0.37516,-1.70522 0.76579,-2.93059 1.27735,-3.7832 0.69917,-1.17659 1.68683,-2.16077 2.93164,-2.87695 1.02527,-0.59576 2.32172,-0.95259 3.7832,-1.06641 z m 14.76172,0.26758 c -2e-5,-1e-5 -1.61614,7.26969 -2.02539,9.11133 1.19364,1e-5 3.99609,0 3.99609,0 0,1e-5 -1.17187,5.27539 -1.17187,5.27539 -2e-5,-1e-5 -2.93887,0 -3.9961,0 -0.32401,1.46647 -2.8789,12.84375 -2.8789,12.84375 2e-5,-2e-5 -0.21289,1.36561 -0.21289,1.75781 2.8e-4,0.0131 -0.001,0.0431 0,0.0527 8.4e-4,0.004 -0.001,0.0514 0,0.0547 0.002,0.003 0.0506,-0.002 0.0527,0 0,-2e-5 0.64063,0.0527 0.64063,0.0527 l 2.92968,-0.21289 -0.31836,4.74219 c 3e-5,0 0.0527,0.85352 0.0527,0.85352 -2e-5,-2e-5 -4.20899,0.47851 -4.20898,0.47851 -1.6711,-2e-5 -2.8965,-0.27179 -3.78321,-0.85156 -0.93785,-0.61392 -1.48535,-1.42805 -1.70703,-2.45117 -0.0341,-0.18759 -0.10547,-0.46133 -0.10547,-0.85352 0,-0.76736 0.14416,-2.06551 0.63867,-4.3164 2e-5,2e-5 2.24128,-10.03591 2.71875,-12.15039 -0.80143,-10e-6 -2.93164,0 -2.93164,0 2e-5,-10e-6 1.17188,-5.27539 1.17188,-5.27539 -2e-5,1e-5 2.07902,0 2.93164,0 0.27281,-1.22775 1.22656,-5.43555 1.22656,-5.43555 0,2e-5 4.95508,-2.61133 4.95508,-2.61133 -1e-5,2e-5 2.02539,-1.06445 2.02539,-1.06445 z m -196.367188,0.21289 h 23.978516 l -1.332031,5.96875 c 0,2e-5 -15.99655,0 -17.53125,0 -0.27282,1.21073 -1.365613,6.11329 -1.757813,7.88672 H 72.738281 L 71.40625,222.7832 H 56.220703 c -0.32399,1.48355 -3.251953,14.6543 -3.251953,14.6543 2e-5,-2e-5 -6.447266,0 -6.447266,0 10e-6,-2e-5 7.673828,-34.47656 7.673828,-34.47656 z m 32.132813,8.41992 c 0.24067,-0.0296 0.503634,0 0.746094,0 1.5347,0 2.952226,0.46553 4.316406,1.4375 0,2e-5 0.851563,0.58594 0.851563,0.58594 l -3.302735,5.43554 c 0,-2e-5 -0.90625,-0.63867 -0.90625,-0.63867 -0.66504,-0.42629 -1.382512,-0.63867 -2.132812,-0.63867 -0.64799,2e-5 -1.249402,0.22941 -1.863282,0.63867 -0.64797,0.4263 -1.190369,0.99045 -1.599609,1.75781 -0.7162,1.31304 -1.239566,2.78524 -1.597656,4.3711 0,1e-5 -2.878907,13.10742 -2.878906,13.10742 0,-2e-5 -6.181641,0 -6.181641,0 0,-2e-5 5.703125,-25.57812 5.703125,-25.57812 2e-5,1e-5 5.753906,0 5.753906,0 0,1e-5 -0.197415,0.77652 -0.265625,1.0664 0.27284,-0.20461 0.560088,-0.4852 0.798828,-0.63867 0.82597,-0.4929 1.699144,-0.80071 2.558594,-0.90625 z m 18.330075,0 c 0.37219,-0.0282 0.73867,0 1.11914,0 3.47866,0 6.11172,1.21868 7.83399,3.62305 1.07428,1.55174 1.65234,3.47086 1.65234,5.75586 0,1.26185 -0.15649,2.61802 -0.48047,4.10156 l -0.47851,1.86523 c 0,-2e-5 -15.633719,0 -17.373049,0 -0.0341,0.35808 -0.05273,0.74242 -0.05273,1.06641 0,1.33009 0.271783,2.37717 0.851563,3.14453 0.2755,0.37513 0.596647,0.71279 0.960937,0.95898 0.68678,0.44789 1.571589,0.69336 2.609369,0.69336 1.26188,-2e-5 2.37192,-0.34864 3.41211,-1.01367 0.98905,-0.63093 1.93398,-1.63883 2.76953,-3.03711 0,-3e-5 6.60742,0 6.60742,0 0,-3e-5 -0.58593,1.2793 -0.58593,1.2793 -1.26187,2.55785 -3.02097,4.55341 -5.22071,5.96875 -2.19973,1.41533 -4.82963,2.18359 -7.72851,2.18359 -3.768538,-1e-5 -6.573167,-1.21868 -8.312497,-3.62304 -1.722261,-2.35323 -2.092695,-5.60669 -1.171876,-9.69922 0.92083,-4.16073 2.758357,-7.48558 5.435547,-9.80469 2.39958,-2.08062 5.121696,-3.23385 8.152336,-3.46289 z m 27.76368,0 c 0.37217,-0.0282 0.73867,0 1.11914,0 3.47867,0 6.11171,1.21868 7.83398,3.62305 1.07429,1.55174 1.65039,3.47086 1.65039,5.75586 0,1.2448 -0.15451,2.58233 -0.47851,4.04882 0,2e-5 -0.48047,1.91797 -0.48047,1.91797 0,-2e-5 -15.63178,0 -17.3711,0 -0.0171,0.2387 -0.0356,0.45463 -0.0527,0.69336 -0.0128,0.0895 0.006,0.226 0,0.32031 -5e-4,0.0154 0,0.0378 0,0.0527 0,0.2558 0.0356,0.50735 0.0527,0.74609 0.0852,0.97196 0.33843,1.78456 0.79883,2.39844 0.0877,0.11936 0.17122,0.26673 0.26758,0.37305 0.78101,0.83554 1.88526,1.27929 3.30273,1.27929 1.26188,-2e-5 2.38702,-0.34864 3.41016,-1.01367 0.98904,-0.63093 1.93592,-1.63883 2.77148,-3.03711 0,-3e-5 6.66016,0 6.66016,0 -1e-5,-3e-5 -0.63867,1.2793 -0.63867,1.2793 -1.26186,2.55785 -3.02292,4.55341 -5.22266,5.96875 -2.19974,1.41533 -4.82769,2.18359 -7.72656,2.18359 -3.76853,-1e-5 -6.57317,-1.21868 -8.3125,-3.62304 -1.12545,-1.53472 -1.65234,-3.4895 -1.65234,-5.8086 0,-0.35812 0.0186,-0.744 0.0527,-1.11914 0.0682,-0.88671 0.20605,-1.78244 0.42773,-2.77148 0.92084,-4.14368 2.70367,-7.48558 5.38086,-9.80469 2.39957,-2.08062 5.17639,-3.23385 8.20704,-3.46289 z m 75.61523,0 c 0.38084,-0.0293 0.73121,0 1.11914,0 3.54687,0 6.27346,1.20005 8.04687,3.57031 1.75641,2.37023 2.18308,5.56748 1.2793,9.5918 -0.69913,3.13763 -1.70861,5.67202 -3.08984,7.51367 -1.38126,1.84165 -3.14228,3.34601 -5.22266,4.36914 -2.06328,1.02314 -4.24949,1.54492 -6.44922,1.54492 -3.61507,-1e-5 -6.30559,-1.23574 -8.04492,-3.62304 -1.12546,-1.51764 -1.70508,-3.47245 -1.70508,-5.8086 2e-5,-1.26187 0.13748,-2.60292 0.47852,-4.10351 1.02315,-4.57001 3.11223,-8.05132 6.18164,-10.28516 2.25301,-1.62634 4.74034,-2.56461 7.40625,-2.76953 z m 93.62891,0 c 0.4496,-0.0277 0.86576,0 1.33203,0 2.14859,0 3.83631,0.21747 5.11523,0.74609 1.36418,0.54569 2.33128,1.31746 2.87695,2.23828 0.52864,0.86963 0.79883,1.93699 0.79883,3.25 10e-6,2e-5 -0.63867,3.89063 -0.63867,3.89063 3e-5,0 -1.17187,5.27539 -1.17187,5.27539 -1.00611,4.50176 -1.22813,6.18937 -1.2793,6.82031 -0.0512,0.85262 0.0269,1.68382 0.26562,2.45117 2e-5,-2e-5 0.42774,1.38477 0.42774,1.38477 2e-5,-2e-5 -6.28906,0 -6.28906,0 -2e-5,-2e-5 -0.26563,-0.79883 -0.26563,-0.79883 -0.10231,-0.37512 -0.0734,-0.85298 -0.10742,-1.27929 -1.19365,0.73324 -2.3886,1.38461 -3.46289,1.75976 -1.58584,0.54569 -3.23123,0.85156 -4.90235,0.85156 -2.89886,-1e-5 -5.04581,-0.75472 -6.34179,-2.23828 -0.98902,-1.09133 -1.43946,-2.42571 -1.43946,-3.94336 -2e-5,-0.57977 0.0765,-1.17962 0.2129,-1.81054 0.28987,-1.29597 0.81678,-2.49603 1.65234,-3.57032 0.81851,-1.05726 1.78757,-1.92766 2.8789,-2.55859 1.05726,-0.63092 2.23514,-1.07782 3.4629,-1.38477 -2e-5,0 3.7832,-0.64062 3.7832,-0.64062 2.91594,-0.34106 5.0933,-0.7642 6.66211,-1.22461 0.0341,-0.17052 0.10547,-0.37305 0.10547,-0.37305 0.24726,-1.09718 0.21688,-1.9229 -0.0527,-2.3457 -0.0198,-0.0273 -0.0851,-0.082 -0.10742,-0.10547 -0.0576,-0.0614 -0.14576,-0.15753 -0.21289,-0.21289 -0.64135,-0.50753 -1.73505,-0.74609 -3.19727,-0.74609 -1.65407,0 -2.87784,0.27022 -3.73046,0.79882 -0.83555,0.52863 -1.60894,1.49574 -2.29102,2.87696 -1e-5,-1e-5 -6.44727,0 -6.44727,0 2e-5,-1e-5 0.58594,-1.2793 0.58594,-1.2793 0.76733,-1.77345 1.68172,-3.24369 2.82422,-4.36914 1.1425,-1.12547 2.68608,-1.99746 4.47656,-2.61133 1.37216,-0.45297 2.87086,-0.75249 4.47657,-0.85156 z m 27.01562,0 c 0.24046,-0.0296 0.50362,0 0.74609,0 1.55173,0 3.00692,0.46553 4.3711,1.4375 2e-5,2e-5 0.79883,0.58594 0.79883,0.58594 10e-6,0 -3.30469,5.43554 -3.30469,5.43554 10e-6,-2e-5 -0.90625,-0.63867 -0.90625,-0.63867 -0.66503,-0.42629 -1.3449,-0.63867 -2.07813,-0.63867 -0.64801,2e-5 -1.28701,0.22941 -1.91797,0.63867 -0.64796,0.4263 -1.11862,0.99045 -1.54492,1.75781 -0.69916,1.31304 -1.24152,2.78524 -1.59961,4.3711 -2e-5,1e-5 -2.92968,13.10742 -2.92968,13.10742 2e-5,-2e-5 -6.18164,0 -6.18164,0 0,-2e-5 5.70117,-25.57812 5.70117,-25.57812 -10e-6,1e-5 5.75586,0 5.75586,0 0,1e-5 -0.14469,0.77652 -0.21289,1.0664 0.27282,-0.20461 0.54303,-0.4852 0.79882,-0.63867 0.81263,-0.4929 1.64507,-0.80071 2.50391,-0.90625 z m 18.2793,0 c 0.37185,-0.0282 0.73867,0 1.11914,0 3.47866,0 6.12679,1.21868 7.83203,3.62305 1.09135,1.55174 1.65234,3.47086 1.65234,5.75586 -2e-5,1.26185 -0.20921,2.61802 -0.5332,4.10156 l -0.42578,1.86523 c -1e-5,-2e-5 -15.65079,0 -17.37305,0 -0.0341,0.35808 -0.10547,0.74242 -0.10547,1.06641 0,1.33009 0.28884,2.37717 0.85157,3.14453 0.0877,0.11936 0.22359,0.26673 0.32031,0.37305 0.056,0.0597 0.15385,0.15748 0.21289,0.21289 0.76235,0.69302 1.80091,1.0664 3.0918,1.0664 1.26189,-2e-5 2.36997,-0.34864 3.41015,-1.01367 0.98905,-0.63093 1.91889,-1.63883 2.77149,-3.03711 -2e-5,-3e-5 6.66015,0 6.66015,0 0,-3e-5 -0.63867,1.2793 -0.63867,1.2793 -1.26187,2.55785 -3.03997,4.55341 -5.22266,5.96875 -2.21677,1.41533 -4.81062,2.18359 -7.72656,2.18359 -3.76851,-1e-5 -6.52044,-1.21868 -8.25976,-3.62304 -1.7223,-2.35323 -2.13034,-5.60669 -1.22657,-9.69922 0.92081,-4.16073 2.70562,-7.48558 5.38282,-9.80469 2.41475,-2.08062 5.17918,-3.23385 8.20703,-3.46289 z m -93.3086,0.47852 c 2e-5,1e-5 6.3418,0 6.3418,0 2e-5,1e-5 0.78178,15.17873 0.79883,15.40039 0.25578,-0.54356 0.4551,-0.99958 0.48047,-1.06446 1e-5,1e-5 6.98047,-14.33593 6.98047,-14.33593 2e-5,1e-5 5.80859,0 5.80859,0 -10e-6,1e-5 0.5332,14.99677 0.5332,15.08203 0.17055,-0.30691 7.93946,-15.08204 7.93946,-15.08203 -2e-5,1e-5 6.28711,-10e-6 6.28711,0 -10e-6,1e-5 -13.85352,25.57812 -13.85352,25.57812 2e-5,-2e-5 -5.70313,0 -5.70313,0 0,-2e-5 -0.55182,-13.86988 -0.58593,-14.6543 -2.35323,4.8258 -7.14063,14.6543 -7.14063,14.6543 0,-2e-5 -5.86133,0 -5.86133,0 0,-2e-5 -2.02539,-25.57812 -2.02539,-25.57812 z m -148.88672,4.8496 c -1.46893,0.062 -2.80384,0.59246 -4.05078,1.59961 -0.989017,0.78441 -1.65497,1.86052 -2.18359,3.03711 0,2e-5 10.49805,0 10.49805,0 0.0171,-0.18756 0.0527,-0.4154 0.0527,-0.58593 -2e-5,-0.97195 -0.17354,-1.72672 -0.48047,-2.23829 -0.75028,-1.22777 -1.86155,-1.8125 -3.51562,-1.8125 -0.0991,0 -0.22239,-0.004 -0.32032,0 z m 27.76368,0 c -1.46892,0.062 -2.80383,0.59246 -4.05078,1.59961 -0.98904,0.78441 -1.63988,1.86052 -2.18555,3.03711 0,2e-5 10.49805,0 10.49805,0 0.017,-0.18756 0.0547,-0.4154 0.0547,-0.58593 -1e-5,-0.97195 -0.15647,-1.72672 -0.48047,-2.23829 -0.14894,-0.24939 -0.35075,-0.49801 -0.5332,-0.69336 -0.71199,-0.73571 -1.69214,-1.11914 -2.98437,-1.11914 -0.0991,0 -0.22042,-0.004 -0.31836,0 z m 214.75,0 c -1.51056,0.0465 -2.92047,0.55891 -4.20899,1.59961 -0.97198,0.78441 -1.63987,1.86052 -2.18554,3.03711 2e-5,2e-5 10.44531,0 10.44531,0 0.017,-0.18756 0.0527,-0.4154 0.0527,-0.58593 -1e-5,-0.97195 -0.15451,-1.72672 -0.47851,-2.23829 -0.73324,-1.21072 -1.86352,-1.79544 -3.51758,-1.8125 -0.049,5.3e-4 -0.0587,-0.001 -0.10742,0 z m -139.61524,0.10743 c -1.40963,0.16739 -2.72039,0.8101 -3.94336,1.91797 -1.46648,1.33009 -2.5287,3.41918 -3.14258,6.18164 -0.25578,1.15955 -0.37304,2.1504 -0.37304,3.0371 2e-5,1.21071 0.23098,2.16077 0.6914,2.87696 0.12257,0.18384 0.28659,0.37842 0.42774,0.5332 0.75804,0.80488 1.81517,1.22656 3.14258,1.22656 1.72226,-2e-5 3.24002,-0.64257 4.68945,-1.97265 1.46652,-1.34714 2.5136,-3.45645 3.14453,-6.28711 0.5798,-2.59195 0.49819,-4.5281 -0.32031,-5.75586 -0.7844,-1.19366 -1.92978,-1.75781 -3.51563,-1.75781 -0.26911,0 -0.53975,-0.031 -0.80078,0 z m 96.29297,9.32421 c -1.44941,0.39218 -3.07409,0.72378 -5.22265,1.01368 -1.6029,0.23874 -2.74512,0.4903 -3.41016,0.74609 -0.57976,0.23872 -1.04725,0.56835 -1.43945,1.01172 -0.37516,0.42627 -0.62674,0.87319 -0.7461,1.38477 -0.0341,0.20464 -0.0527,0.4154 -0.0527,0.58593 0,0.0138 -3.1e-4,0.041 0,0.0547 0.002,0.0406 -0.004,0.12101 0,0.16016 0.0107,0.0774 0.0316,0.19357 0.0527,0.26562 0.008,0.0237 0.0439,0.0842 0.0527,0.10742 0.0187,0.0458 0.0315,0.11445 0.0547,0.15821 0.0243,0.0433 0.0768,0.11878 0.10547,0.16015 0.0446,0.0614 0.10579,0.15534 0.16016,0.21289 0.42631,0.47746 1.2781,0.69336 2.50586,0.69336 1.34715,1e-5 2.64229,-0.25473 3.83594,-0.85156 1.17662,-0.57977 2.12507,-1.44509 2.82421,-2.45117 0.51159,-0.7162 0.92121,-1.81959 1.2793,-3.25196 z" />
  <path
     id="path15"
     style="fill:#bd0000;fill-opacity:1;stroke-width:1.70522"
     d="m 661.85381,357.64893 c 0,0 4.6041,-19.47363 4.6041,-19.47363 1.9269,-8.67958 6.73562,-14.63081 11.04984,-14.63081 3.1035,0 3.95611,2.26795 3.80264,5.23503 -0.0853,1.5347 -0.4263,3.25698 -0.7844,4.9622 0,0 -5.69544,23.90721 -5.69544,23.90721 0,0 12.2776,0 12.2776,0 0,0 4.6041,-19.55889 4.6041,-19.55889 2.11447,-8.95242 6.65036,-14.54555 10.87931,-14.54555 2.91593,0 4.12664,2.08037 3.99022,5.04746 -0.0853,1.72227 -0.44336,3.61507 -0.88671,5.33734 0,0 -5.52492,23.71964 -5.52492,23.71964 0,0 12.36286,0 12.36286,0 0,0 5.95122,-25.25434 5.95122,-25.25434 0.46041,-2.26794 0.98903,-5.79775 1.07429,-7.60529 0.37515,-7.50297 -3.29108,-11.47614 -9.90734,-11.47614 -5.66134,0 -11.1692,2.55783 -15.347,7.94633 -0.15347,-3.8879 -2.93298,-7.94633 -9.82208,-7.94633 -5.57607,0 -10.89636,2.52373 -15.15942,8.23622 0,0 -0.17052,0 -0.17052,0 0,0 1.1425,-6.531 1.1425,-6.531 0,0 -10.94753,0 -10.94753,0 -0.71619,3.64918 -1.58585,8.0657 -2.91593,13.21547 0,0 -6.85499,29.41508 -6.85499,29.41508 0,0 12.2776,0 12.2776,0 z m -42.88633,0 c 14.83543,0 26.27747,-11.23741 27.07892,-26.53325 0.49452,-10.12902 -5.81481,-17.80252 -17.46147,-17.80252 -15.3811,0 -26.41389,12.44812 -27.18124,27.48818 -0.52862,10.94752 6.531,16.84759 17.56379,16.84759 z m 1.99511,-10.23133 c -4.33127,0 -6.71858,-2.76246 -6.4628,-6.8891 0.34105,-6.87204 4.58705,-16.98401 11.90245,-16.98401 5.04746,0 6.59921,3.87086 6.39459,7.6735 -0.37515,7.50298 -4.94515,16.19961 -11.83424,16.19961 z m -31.00094,-52.86188 c 0,0 -4.79167,19.37132 -4.79167,19.37132 -1.73933,-0.71619 -4.00727,-0.61388 -5.7807,-0.61388 -16.33603,0 -27.89743,13.98282 -28.66478,29.12519 -0.51157,10.67469 5.18387,15.21058 12.51633,15.21058 5.13271,0 10.53827,-2.26794 14.6308,-8.1339 0,0 0.17052,0 0.17052,0 0,0 -0.97197,8.1339 -0.97197,8.1339 0,0 11.5614,0 11.5614,0 0.52862,-5.11566 1.63701,-11.2033 2.88183,-16.76233 0,0 11.06689,-46.33088 11.06689,-46.33088 0,0 -12.61865,0 -12.61865,0 z m -9.95849,41.64152 c -1.99511,8.40675 -6.70152,11.22036 -10.41891,11.22036 -3.70033,0 -5.76365,-2.57488 -5.50787,-7.16193 0.42631,-8.49201 6.25817,-16.71118 13.84641,-16.71118 2.13152,0 3.95611,0.324 4.96219,0.80146 0,0 -2.88182,11.85129 -2.88182,11.85129 z m -40.58429,9.94144 c -3.52981,1.72228 -7.55413,1.27892 -12.22644,1.27892 -3.71738,0 -6.56511,-0.64798 -8.13391,-1.90985 -0.81851,-1.38123 -1.1766,-3.52981 -1.10839,-4.91104 17.29095,0.46041 28.17026,-3.52981 28.73299,-14.44323 0.40925,-8.23622 -5.61018,-12.84032 -14.35797,-12.84032 -15.63689,0 -25.86822,13.77819 -26.53326,27.04482 -0.56272,11.57846 5.43966,17.29095 17.80252,17.29095 4.77462,0 11.08394,-0.54567 16.25077,-2.09742 0,0 -0.42631,-9.41283 -0.42631,-9.41283 z m -4.65525,-19.9852 c -0.20463,4.05843 -5.21798,4.29716 -15.10827,4.2119 1.09134,-3.56391 4.68936,-6.82089 10.60648,-6.82089 2.91593,0 4.6041,1.1084 4.50179,2.60899 z m -40.55019,19.9852 c -3.52981,1.72228 -7.55413,1.27892 -12.24349,1.27892 -3.70033,0 -6.56511,-0.64798 -8.13391,-1.90985 -0.81851,-1.38123 -1.15955,-3.52981 -1.09134,-4.91104 17.2739,0.46041 28.17027,-3.52981 28.71594,-14.44323 0.40925,-8.23622 -5.61018,-12.84032 -14.35797,-12.84032 -15.61984,0 -25.85117,13.77819 -26.5162,27.04482 -0.57978,11.57846 5.43965,17.29095 17.80251,17.29095 4.75757,0 11.08395,-0.54567 16.23372,-2.09742 0,0 -0.40926,-9.41283 -0.40926,-9.41283 z m -4.6723,-19.9852 c -0.20463,4.05843 -5.21798,4.29716 -15.09122,4.2119 1.07429,-3.56391 4.68936,-6.82089 10.60648,-6.82089 2.91593,0 4.58705,1.1084 4.48474,2.60899 z m -51.90696,31.49545 c 0,0 3.81969,-16.02908 3.81969,-16.02908 2.01217,-8.67958 6.25817,-16.37014 14.28976,-16.37014 0.7162,0 1.41534,0.3581 1.94396,0.44336 0,0 3.1035,-12.29465 3.1035,-12.29465 -0.71619,0 -1.50059,-0.0853 -2.38731,-0.0853 -5.91712,0 -10.87932,4.16074 -14.18745,10.12902 0,0 -0.34104,0 -0.34104,0 0.49451,-2.91593 0.92082,-5.67839 1.24481,-8.4238 0,0 -10.96458,0 -10.96458,0 -0.61388,3.54686 -1.6029,10.48712 -3.08645,16.74528 0,0 -6.24111,25.88527 -6.24111,25.88527 0,0 12.80622,0 12.80622,0 z m -57.05673,0 c 0,0 12.72096,0 12.72096,0 0,0 5.72954,-23.87311 5.72954,-23.87311 0,0 20.65024,0 20.65024,0 0,0 2.66015,-10.23133 2.66015,-10.23133 0,0 -20.75255,0 -20.75255,0 0,0 3.44454,-15.347 3.44454,-15.347 0,0 22.08263,0 22.08263,0 0,0 2.66014,-11.93655 2.66014,-11.93655 0,0 -34.87179,0 -34.87179,0 0,0 -14.32386,61.38799 -14.32386,61.38799 z m -54.73762,10e-6 c 0,0 4.50178,-19.2008 4.50178,-19.2008 2.33616,-9.77092 7.36656,-13.19842 11.51025,-13.19842 3.27403,0 4.22895,1.39828 4.07548,3.4275 -0.0853,1.63701 -0.34104,3.35928 -0.68209,4.89398 0,0 -5.72954,24.07774 -5.72954,24.07774 0,0 12.72095,0 12.72095,0 0,0 6.03649,-25.25434 6.03649,-25.25434 0.46041,-2.18268 0.97198,-5.43966 1.07429,-7.41771 0.37515,-7.69056 -3.4616,-10.48712 -10.52122,-10.48712 -5.66134,0 -11.16921,2.62604 -15.51752,8.32148 0,0 -0.17052,0 -0.17052,0 0,0 1.15955,-7.79286 1.15955,-7.79286 0,0 -11.22036,0 -11.22036,0 -0.73325,3.64917 -1.67112,8.0657 -3.00119,13.21547 0,0 -6.95731,29.41508 -6.95731,29.41508 0,0 12.72096,0 12.72096,0 z m -24.38468,-10e-6 c 0,0 10.3166,-42.63055 10.3166,-42.63055 0,0 -12.6357,0 -12.6357,0 0,0 -10.3848,42.63055 -10.3848,42.63055 0,0 12.7039,0 12.7039,0 z m 5.91712,-47.74621 c 4.33127,0 8.18507,-3.58097 8.4238,-9.71977 0.20463,-4.16074 -2.48962,-5.62723 -6.46279,-5.62723 -4.14369,0 -7.92928,2.69425 -8.15096,6.71857 -0.20463,4.05843 2.48962,8.62843 6.18995,8.62843 z m -73.95548,45.73405 c 2.45552,1.90985 7.60529,1.9269 12.97674,2.01216 11.47614,0.0853 20.13867,-4.92809 20.65024,-14.13629 0.28989,-6.1388 -4.46768,-9.77092 -9.12294,-12.20939 -3.35929,-1.61996 -5.04746,-3.17171 -4.9622,-4.97925 0.11937,-2.43846 2.40437,-2.77951 5.76365,-2.77951 3.7856,0 6.82089,0.46041 8.56022,0.80146 0,0 3.44455,-9.24231 3.44455,-9.24231 -1.96101,-1.1766 -5.88302,-1.79048 -10.91342,-1.79048 -11.1351,0 -19.28606,5.88302 -19.74647,14.81838 -0.27284,5.52492 3.70033,9.2423 8.50905,11.76603 3.88791,1.99511 5.21798,3.52981 5.11567,5.69544 -0.11937,2.18269 -2.06332,1.82459 -5.59313,1.82459 -4.14369,0 -8.73074,-0.54567 -11.15215,-0.92082 0,0 -3.52981,9.13999 -3.52981,9.13999 z m -8.33853,2.01216 c 0.10231,-5.40555 1.39828,-13.89756 2.74541,-19.47363 0,0 5.47376,-23.15692 5.47376,-23.15692 -3.47865,-1.1766 -8.90126,-1.70522 -14.11924,-1.70522 -21.17886,0 -31.68302,15.68804 -32.41627,30.38706 -0.46041,9.22525 4.53589,13.94871 12.3117,13.94871 5.03041,0 10.7088,-2.43847 15.12532,-9.77092 0,0 0.18758,0 0.18758,0 -0.34105,3.52981 -0.7503,6.95731 -0.97198,9.77092 0,0 11.66372,0 11.66372,0 z m -8.74779,-24.35057 c -2.48962,10.84521 -7.57119,14.11924 -11.35678,14.11924 -3.52981,0 -5.06451,-2.50668 -4.85988,-6.15585 0.40925,-8.23622 6.9232,-17.71726 15.14237,-17.71726 1.33007,0 2.37026,-0.23873 3.34223,-0.47746 0,0 -2.26794,10.23133 -2.26794,10.23133 z m -57.07378,12.84032 c -3.52981,1.72228 -7.55413,1.27892 -12.22644,1.27892 -3.71738,0 -6.56511,-0.64798 -8.13391,-1.90985 -0.81851,-1.38123 -1.1766,-3.52981 -1.10839,-4.91104 17.29095,0.46041 28.17026,-3.52981 28.73299,-14.44323 0.40925,-8.23622 -5.61018,-12.84032 -14.35797,-12.84032 -15.63689,0 -25.86822,13.77819 -26.53326,27.04482 -0.56272,11.57846 5.43966,17.29095 17.80252,17.29095 4.77462,0 11.08394,-0.54567 16.25077,-2.09742 0,0 -0.42631,-9.41283 -0.42631,-9.41283 z m -4.65525,-19.9852 c -0.20463,4.05843 -5.21798,4.29716 -15.10827,4.2119 1.09134,-3.56391 4.68936,-6.82089 10.60648,-6.82089 2.91593,0 4.6041,1.1084 4.50179,2.60899 z m -40.55019,19.9852 c -3.52981,1.72228 -7.55413,1.27892 -12.24349,1.27892 -3.700332,0 -6.565105,-0.64798 -8.13391,-1.90985 -0.818506,-1.38123 -1.159551,-3.52981 -1.091342,-4.91104 17.273902,0.46041 28.170272,-3.52981 28.715942,-14.44323 0.40925,-8.23622 -5.61018,-12.84032 -14.35797,-12.84032 -15.619836,0 -25.851168,13.77819 -26.516205,27.04482 -0.579775,11.57846 5.422606,17.29095 17.802518,17.29095 4.757567,0 11.066887,-0.54567 16.233717,-2.09742 0,0 -0.40926,-9.41283 -0.40926,-9.41283 z m -4.6723,-19.9852 c -0.20463,4.05843 -5.21798,4.29716 -15.09122,4.2119 1.07429,-3.56391 4.689361,-6.82089 10.60648,-6.82089 2.91593,0 4.58705,1.1084 4.48474,2.60899 z m -51.906963,31.49545 c 0,0 3.819697,-16.02908 3.819697,-16.02908 2.012162,-8.67958 6.258165,-16.37014 14.289761,-16.37014 0.716193,0 1.415334,0.3581 1.943953,0.44336 0,0 3.103504,-12.29465 3.103504,-12.29465 -0.716193,0 -1.500595,-0.0853 -2.387311,-0.0853 -5.91712,0 -10.879316,4.16074 -14.187447,10.12902 0,0 -0.341044,0 -0.341044,0 0.494514,-2.91593 0.92082,-5.67839 1.244812,-8.4238 0,0 -10.964578,0 -10.964578,0 -0.630932,3.54686 -1.602908,10.48712 -3.086451,16.74528 0,0 -6.241113,25.88527 -6.241113,25.88527 0,0 12.806217,0 12.806217,0 z m -57.05672812,0 c 0,0 12.72095612,0 12.72095612,0 0,0 5.712494,-23.87311 5.712494,-23.87311 0,0 20.66729,0 20.66729,0 0,0 2.660147,-10.23133 2.660147,-10.23133 0,0 -20.752552,0 -20.752552,0 0,0 3.444548,-15.347 3.444548,-15.347 0,0 22.082625,0 22.082625,0 0,0 2.660147,-11.93655 2.660147,-11.93655 0,0 -34.87179,0 -34.87179,0 0,0 -14.32386512,61.38799 -14.32386512,61.38799 z" />
  <path
     style="fill:#cccccc;stroke:#000000;stroke-width:0.840424;stroke-opacity:1"
     d="m 0.53067143,357.80101 c -0.35037978,-0.35038 13.52400057,-60.212 14.21456357,-61.32935 0.557986,-0.90284 35.018545,-1.04187 35.018545,-0.14129 0,0.32029 -0.590841,3.1485 -1.312979,6.2849 l -1.312979,5.70255 -11.07937,0.1718 -11.079371,0.1718 -1.435611,6.29921 c -2.154044,9.45158 -3.110439,8.50394 8.582514,8.50394 5.543307,0 10.077159,0.2126 10.075227,0.47244 -0.002,0.25984 -0.26725,1.46456 -0.589596,2.67716 -0.322346,1.2126 -0.89862,3.40945 -1.280609,4.88189 l -0.694526,2.67717 H 29.319727 19.002974 l -2.291249,9.6063 c -1.260186,5.28346 -2.570403,10.66929 -2.911593,11.9685 l -0.620345,2.36221 H 7.0098413 c -3.3934706,0 -6.30909692,-0.13915 -6.47916987,-0.30923 z"
     id="path3796" />
  <path
     style="fill:#cccccc;stroke:#000000;stroke-width:0.840424;stroke-opacity:1"
     d="m 44.724409,357.2665 c 0,-0.48829 1.302727,-6.23836 2.894948,-12.77794 1.592222,-6.53957 3.662075,-15.85864 4.599674,-20.70903 l 1.704725,-8.8189 5.571508,-0.18335 5.571507,-0.18336 -0.406705,3.89114 -0.406705,3.89115 1.847106,-2.32428 c 3.517919,-4.42673 7.436102,-6.6661 11.663527,-6.6661 1.57626,0 2.858936,0.2126 2.850391,0.47244 -0.0085,0.25984 -0.652868,2.97843 -1.431829,6.04132 l -1.416293,5.56888 -2.943222,0.18525 c -3.669046,0.23095 -6.751787,2.09125 -8.936735,5.39293 -2.372388,3.58491 -2.757141,4.68935 -5.697614,16.35492 l -2.619877,10.39371 -6.422203,0.17951 c -5.190089,0.14508 -6.422203,0.009 -6.422203,-0.70829 z"
     id="path3835" />
  <path
     style="fill:#cccccc;stroke:#000000;stroke-width:0.840424;stroke-opacity:1"
     d="m 93.167218,357.48961 c -10.219867,-1.79006 -14.768071,-9.65241 -12.309189,-21.27854 1.900645,-8.98666 7.763254,-16.90904 15.22728,-20.57724 3.027951,-1.48809 4.812541,-1.89971 9.194391,-2.12073 6.47333,-0.3265 9.21535,0.43068 12.58543,3.47534 5.24086,4.7348 4.83852,13.2209 -0.86422,18.22798 -3.38575,2.97272 -8.49896,4.60229 -16.8006,5.3543 -4.007806,0.36306 -7.348417,0.71631 -7.423575,0.78501 -0.07516,0.0687 0.0849,0.96107 0.355676,1.98302 0.299778,1.1314 1.195313,2.19935 2.289784,2.73063 2.348475,1.14 11.835105,1.62961 15.428435,0.79627 3.55117,-0.82357 3.85503,-0.41103 3.64252,4.94537 l -0.16244,4.09449 -3.54471,0.7001 c -5.13266,1.01374 -14.262752,1.47182 -17.618782,0.884 z m 13.919392,-28.56532 c 1.15862,-0.55347 1.57481,-1.24784 1.57481,-2.62738 0,-1.58625 -0.2911,-1.92863 -1.88977,-2.22265 -2.51092,-0.4618 -6.836683,0.35416 -8.841474,1.66775 -0.889139,0.58259 -2.055964,1.90885 -2.592945,2.94726 l -0.976328,1.88801 5.575454,-0.45035 c 3.066503,-0.24769 6.284113,-0.78888 7.150253,-1.20264 z"
     id="path3874" />
  <path
     style="fill:#cccccc;stroke:#000000;stroke-width:0.840424;stroke-opacity:1"
     d="m 138.58268,357.49812 c -6.58,-1.15761 -10.73162,-4.43749 -12.29942,-9.71686 -3.42979,-11.54935 3.71297,-26.74097 15.13406,-32.18795 4.90695,-2.34024 13.28608,-2.95802 17.62829,-1.29971 5.24237,2.00208 8.45949,7.62706 7.53746,13.17892 -1.32776,7.99491 -7.56243,11.87837 -21.02842,13.0982 -4.00782,0.36306 -7.3716,0.73948 -7.47507,0.8365 -0.59472,0.55762 0.87966,3.69236 2.11839,4.50401 1.875,1.22855 12.18973,1.84542 16.00542,0.9572 1.54966,-0.36073 2.89102,-0.58242 2.9808,-0.49264 0.0898,0.0898 0.23919,2.26906 0.33204,4.84285 l 0.16881,4.67962 -3.54471,0.70373 c -5.0891,1.01033 -14.25063,1.47793 -17.55765,0.89613 z m 13.85826,-28.56999 c 2.18738,-1.0396 2.50918,-3.9215 0.50907,-4.55898 -1.94881,-0.62114 -5.28792,-0.45834 -7.834,0.38194 -2.04188,0.67388 -5.27349,3.82838 -5.27349,5.14765 0,0.87139 10.41025,0.0694 12.59842,-0.97061 z"
     id="path3913" />
  <path
     style="fill:#cccccc;stroke:#000000;stroke-width:0.840424;stroke-opacity:1"
     d="m 194.5534,357.14559 c -5.03897,-1.59284 -8.08462,-6.34781 -8.09319,-12.63538 -0.005,-3.93449 2.26671,-11.95234 4.48644,-15.83202 4.01649,-7.02009 10.88307,-12.24356 18.89992,-14.37732 3.93851,-1.04827 15.21988,-1.20582 20.09815,-0.28067 1.83976,0.3489 3.41012,0.70323 3.48968,0.7874 0.0796,0.0842 -1.23021,5.90863 -2.91061,12.94325 -2.78219,11.64706 -4.71548,22.08253 -5.15762,27.8397 l -0.16932,2.20473 -5.91957,0.18234 -5.91958,0.18235 0.3527,-4.66342 0.35269,-4.66341 -2.93706,3.15848 c -4.71604,5.0716 -10.82401,6.97113 -16.57263,5.15397 z m 12.49221,-10.41401 c 4.45541,-1.68337 7.13568,-5.97132 9.38789,-15.01894 2.13383,-8.57207 2.14968,-8.48566 -1.45809,-7.94464 -5.84205,0.87607 -9.36047,3.66712 -12.54506,9.9516 -1.8719,3.69403 -2.60846,9.06396 -1.52175,11.09449 0.64593,1.20694 2.51241,2.41615 3.93228,2.54756 0.23729,0.022 1.22942,-0.26157 2.20473,-0.63007 z"
     id="path3952" />
  <path
     style="fill:#cccccc;stroke:#000000;stroke-width:0.840424;stroke-opacity:1"
     d="m 239.17839,357.47978 c -6.16414,-0.76496 -6.32918,-1.01766 -4.23151,-6.47906 1.00197,-2.60868 2.11437,-4.54021 2.61182,-4.53506 0.47657,0.005 3.61154,0.24257 6.96659,0.5281 7.19364,0.61221 8.70306,0.29213 8.70306,-1.84552 0,-1.75885 -0.64421,-2.3821 -6.29279,-6.08812 -6.94549,-4.55691 -8.66429,-9.98932 -5.29796,-16.74466 1.83315,-3.67866 5.08017,-6.27696 9.88048,-7.90646 5.42781,-1.84251 19.9403,-1.03469 19.18062,1.06767 -0.14783,0.40909 -0.94679,2.65487 -1.77547,4.99061 -1.16497,3.28362 -1.73889,4.17311 -2.53049,3.92187 -2.19189,-0.69568 -11.27383,-0.44959 -12.21434,0.33097 -2.28137,1.89337 -0.74272,3.78296 6.67161,8.19327 7.55877,4.49622 8.32688,14.0896 1.60094,19.99506 -4.50443,3.95494 -13.69403,5.76002 -23.27256,4.57133 z"
     id="path3991" />
  <path
     style="fill:#cccccc;stroke:#000000;stroke-width:0.840424;stroke-opacity:1"
     d="m 288.53289,357.6378 c 0.0159,-0.25985 2.36436,-9.96851 5.21876,-21.57481 l 5.18982,-21.10236 6.43478,-0.17952 c 3.74349,-0.10443 6.43477,0.0693 6.43477,0.41531 0,0.32715 -2.26771,9.96552 -5.03937,21.41859 -2.77165,11.45308 -5.03937,20.97485 -5.03937,21.1595 0,0.18465 -2.97637,0.33573 -6.61417,0.33573 -3.6378,0 -6.60115,-0.2126 -6.58522,-0.47244 z"
     id="path4030" />
  <path
     style="fill:#cccccc;stroke:#000000;stroke-width:0.840424;stroke-opacity:1"
     d="m 304.80723,309.28939 c -3.26588,-1.77481 -4.65552,-7.35611 -2.74932,-11.04229 1.72348,-3.33285 7.30967,-4.84521 11.2557,-3.04728 4.46627,2.03497 3.05944,10.52188 -2.28423,13.77996 -2.40501,1.46635 -3.95196,1.54333 -6.22215,0.30961 z"
     id="path4069" />
  <path
     style="fill:#cccccc;stroke:#000000;stroke-width:0.840424;stroke-opacity:1"
     d="m 313.07087,357.52557 c 0,-0.32157 1.95336,-8.89638 4.3408,-19.05512 2.38745,-10.15875 4.59428,-19.60431 4.90407,-20.99014 l 0.56325,-2.51968 5.8046,-0.18112 c 4.42239,-0.13799 5.79566,0.012 5.76705,0.62992 -0.0207,0.44607 -0.26184,2.17502 -0.53597,3.84211 l -0.49841,3.03108 2.58321,-2.5285 c 3.63615,-3.55913 7.88663,-5.29372 12.97183,-5.29372 4.68047,0 7.58392,1.18635 9.29048,3.7961 1.98451,3.03477 1.30908,10.00363 -2.48898,25.68051 l -3.35745,13.85827 -6.4439,0.17951 c -4.67174,0.13015 -6.44389,-0.0272 -6.44389,-0.57208 0,-0.41337 1.25112,-6.02171 2.78027,-12.46298 3.66604,-15.44248 3.91278,-17.21181 2.58539,-18.53919 -1.83179,-1.8318 -6.13539,-1.03627 -9.05006,1.67292 -2.66315,2.4754 -4.54956,7.31485 -7.12893,18.28883 -1.39657,5.94169 -2.66973,11.01566 -2.82925,11.27551 -0.42274,0.68858 -12.81411,0.58006 -12.81411,-0.11223 z"
     id="path4108" />
  <path
     style="fill:#cccccc;stroke:#000000;stroke-width:0.840424;stroke-opacity:1"
     d="m 380.50373,357.34487 c 0.0172,-0.44519 3.22303,-14.41574 7.12406,-31.04566 l 7.09278,-30.23622 17.44287,-0.16744 17.44286,-0.16745 -0.0258,1.42729 c -0.0142,0.78501 -0.52044,3.55327 -1.12497,6.1517 l -1.09914,4.72441 -11.1585,0.17201 c -6.13718,0.0946 -11.1585,0.32408 -11.1585,0.50995 0,0.18586 -0.70866,3.47725 -1.5748,7.31421 -0.86614,3.83696 -1.57481,7.07992 -1.57481,7.20659 0,0.12667 4.65242,0.23031 10.3387,0.23031 h 10.3387 l -1.36232,5.19685 -1.36232,5.19685 -10.36951,0.31496 -10.36951,0.31496 -2.85883,11.65354 -2.85884,11.65355 -6.4567,0.17951 c -4.94458,0.13748 -6.44936,-0.01 -6.4254,-0.62992 z"
     id="path4147" />
  <path
     style="fill:#cccccc;stroke:#000000;stroke-width:0.840424;stroke-opacity:1"
     d="m 424.56693,357.87754 c 0,-0.12799 1.54491,-6.58837 3.43314,-14.3564 2.65891,-10.93856 6.01568,-26.93689 6.01568,-28.67068 0,-0.11263 2.56855,-0.20479 5.70789,-0.20479 h 5.70789 l -0.40651,2.99213 c -0.22358,1.64566 -0.56423,3.55905 -0.75699,4.25196 -0.19276,0.69292 0.61952,-0.009 1.80507,-1.55878 3.38134,-4.42151 6.79395,-6.50089 11.19107,-6.81894 l 3.72738,-0.26962 -1.59573,6.36376 c -1.53664,6.12808 -1.65224,6.34957 -3.12152,5.98081 -3.8396,-0.96368 -9.79737,3.35811 -12.22656,8.8692 -0.91381,2.07314 -3.79158,12.8024 -5.8798,21.92176 l -0.39667,1.73229 h -6.60217 c -3.63119,0 -6.60217,-0.10472 -6.60217,-0.2327 z"
     id="path4186" />
  <path
     style="fill:#cccccc;stroke:#000000;stroke-width:0.840424;stroke-opacity:1"
     d="m 473.07087,357.41305 c -8.12866,-1.38068 -12.59843,-6.83179 -12.59843,-15.36443 0,-11.26046 6.63133,-22.15662 16.21881,-26.64964 3.22566,-1.51165 4.3617,-1.69819 10.34207,-1.69819 6.45262,0 6.82379,0.0747 9.38365,1.88976 3.57127,2.53213 5.00035,5.37197 5.00035,9.93653 0,4.62022 -1.66062,8.01594 -5.15956,10.55056 -3.46457,2.50973 -7.58768,3.67081 -15.9428,4.48958 -3.81102,0.37346 -7.02697,0.76811 -7.14656,0.877 -0.11958,0.10889 -0.0323,1.04107 0.19408,2.07152 0.59696,2.71797 3.16031,3.57087 10.73201,3.57087 3.46457,0 7.19653,-0.22986 8.29326,-0.5108 l 1.99405,-0.51081 0.21067,4.60529 c 0.11588,2.53292 -0.0533,4.79549 -0.37584,5.02794 -1.9839,1.42958 -16.09016,2.57354 -21.14576,1.71482 z m 14.2128,-28.41184 c 1.94104,-0.8844 2.58494,-2.86713 1.33653,-4.11554 -1.23351,-1.23352 -6.71731,-1.15607 -9.20428,0.13 -1.88713,0.97587 -4.45529,3.81172 -4.45529,4.91969 0,0.80446 10.20506,0.0309 12.32304,-0.93415 z"
     id="path4225" />
  <path
     style="fill:#cccccc;stroke:#000000;stroke-width:0.840424;stroke-opacity:1"
     d="m 518.47963,357.40689 c -4.58605,-0.77435 -8.11286,-2.83627 -10.38376,-6.07078 -1.66735,-2.37484 -1.91163,-3.31331 -2.1477,-8.25088 -0.44286,-9.26277 2.41624,-16.47613 8.99761,-22.70052 4.82991,-4.56792 9.4278,-6.58735 15.70108,-6.89604 11.01432,-0.54198 16.57558,3.9415 16.00495,12.90315 -0.57934,9.09825 -7.00954,13.12481 -23.02976,14.42115 -4.60014,0.37223 -5.19685,0.5624 -5.19685,1.65621 0,2.51349 1.18701,3.5681 4.87993,4.33558 3.52988,0.7336 12.08938,0.50958 15.14802,-0.39646 1.43121,-0.42396 1.44347,-0.37985 1.25984,4.53454 l -0.18543,4.96267 -3.49544,0.6905 c -5.37487,1.06178 -13.76973,1.4496 -17.55249,0.81088 z m 10.02431,-27.62842 c 4.68139,-0.67446 6.78215,-2.34473 5.63798,-4.48263 -0.51352,-0.95954 -1.34418,-1.20135 -4.12675,-1.20135 -3.81217,0 -5.34448,0.5826 -7.96793,3.02946 -3.45666,3.22401 -1.90991,3.85991 6.4567,2.65452 z"
     id="path4264" />
  <path
     style="fill:#cccccc;stroke:#000000;stroke-width:0.840424;stroke-opacity:1"
     d="m 559.48135,357.37344 c -5.38637,-1.21727 -8.93017,-6.62851 -8.93017,-13.63599 0,-11.60423 6.73742,-22.65809 16.85938,-27.66064 4.38042,-2.16491 5.27082,-2.37059 11.21551,-2.59064 l 6.45734,-0.23903 2.33543,-9.37948 2.33543,-9.37947 h 6.58264 c 5.97653,0 6.55186,0.1015 6.24845,1.10236 -1.34438,4.43468 -11.91716,50.31405 -12.81071,55.59055 l -1.12006,6.61418 -5.90752,0.18223 -5.90753,0.18223 0.44418,-3.92604 0.44418,-3.92603 -2.83718,2.61522 c -4.51273,4.15969 -9.86108,5.7044 -15.40937,4.45055 z m 13.55702,-11.29221 c 3.70239,-1.7923 5.52681,-5.12683 7.77177,-14.20468 1.00642,-4.06961 1.73348,-7.49566 1.61568,-7.61346 -0.11779,-0.11779 -1.7651,-0.23269 -3.66068,-0.25534 -6.37601,-0.0762 -11.33199,3.99175 -13.41702,11.01282 -1.692,5.69758 -0.97732,10.29444 1.81036,11.64426 1.98707,0.96215 2.86725,0.87479 5.87989,-0.5836 z"
     id="path4303" />
  <path
     style="fill:#cccccc;stroke:#000000;stroke-width:0.840424;stroke-opacity:1"
     d="m 615.43307,357.67438 c -5.92039,-0.99356 -9.92844,-3.51447 -12.11809,-7.6218 -2.05728,-3.85904 -2.5412,-7.36431 -1.73764,-12.58679 1.41233,-9.17913 7.52695,-17.71636 15.50041,-21.64168 3.50006,-1.72307 5.06351,-2.09973 9.61401,-2.31614 6.5121,-0.30971 9.83575,0.48568 13.40484,3.2079 11.36132,8.66558 5.93481,31.28042 -9.19156,38.30556 -2.10013,0.97537 -5.66095,2.06722 -7.91291,2.42634 -4.18641,0.66761 -4.8184,0.68655 -7.55906,0.22661 z m 8.37653,-11.12386 c 4.93327,-2.06125 8.94877,-9.82669 8.48454,-16.40799 -0.20583,-2.91806 -0.57126,-3.96608 -1.70224,-4.88189 -2.05143,-1.66115 -6.23896,-1.53257 -8.92394,0.27401 -2.98237,2.00667 -6.23266,8.55627 -6.67679,13.4543 -0.40743,4.4932 0.34151,6.26456 3.16866,7.49435 2.53417,1.10235 3.1547,1.10973 5.64977,0.0672 z"
     id="path4342" />
  <path
     style="fill:#cccccc;stroke:#000000;stroke-width:0.840424;stroke-opacity:1"
     d="m 649.48554,357.32283 c 0.0202,-0.43307 2.2362,-10.14173 4.92446,-21.5748 l 4.88773,-20.7874 5.55841,-0.18331 5.5584,-0.1833 -0.40183,2.9317 -0.40184,2.93171 2.59778,-2.34694 c 4.09191,-3.69679 7.43506,-4.89626 12.88043,-4.62128 4.09209,0.20664 4.83427,0.44371 6.55743,2.0946 1.0687,1.02388 2.10384,2.5021 2.30032,3.28494 0.35246,1.4043 0.39266,1.39431 3.00518,-0.74644 4.0858,-3.34801 7.63864,-4.70711 12.33933,-4.72029 4.79982,-0.0135 7.51604,1.31489 9.24839,4.52288 1.90001,3.51847 1.36974,9.27445 -2.3093,25.06723 -1.81597,7.79527 -3.42823,14.38582 -3.5828,14.64567 -0.36693,0.61682 -12.0232,0.61682 -12.35487,0 -0.13971,-0.25985 1.10796,-6.28347 2.7726,-13.38583 3.08379,-13.15727 3.6693,-18.05274 2.32047,-19.40158 -0.41575,-0.41574 -1.79697,-0.7559 -3.06938,-0.7559 -1.91517,0 -2.73783,0.46093 -4.7782,2.67716 -3.1969,3.47245 -4.72836,7.43958 -7.47756,19.37008 -1.23745,5.37008 -2.39652,10.25984 -2.5757,10.86614 -0.28195,0.95402 -1.16779,1.10237 -6.58256,1.10237 -3.44122,0 -6.25676,-0.12182 -6.25676,-0.27072 0,-0.14889 1.43085,-6.29237 3.17967,-13.65218 3.57045,-15.02603 3.80426,-18.62191 1.29189,-19.8685 -2.92559,-1.45164 -7.15368,1.48892 -9.91065,6.89267 -0.84815,1.66239 -2.83418,8.39468 -4.4134,14.96063 l -2.87132,11.9381 h -6.23652 c -4.58885,0 -6.22682,-0.20803 -6.1998,-0.78741 z"
     id="path4381" />
</svg>
