<?xml version="1.0" encoding="UTF-8" standalone="no"?>
<!-- Created with Inkscape (http://www.inkscape.org/) -->

<svg
   width="823"
   height="358"
   version="1.1"
   id="svg29"
   sodipodi:docname="lgpl3-grey.svg"
   inkscape:version="1.1 (c4e8f9e, 2021-05-24)"
   xmlns:inkscape="http://www.inkscape.org/namespaces/inkscape"
   xmlns:sodipodi="http://sodipodi.sourceforge.net/DTD/sodipodi-0.dtd"
   xmlns="http://www.w3.org/2000/svg"
   xmlns:svg="http://www.w3.org/2000/svg">
  <defs
     id="defs33" />
  <sodipodi:namedview
     id="namedview31"
     pagecolor="#505050"
     bordercolor="#ffffff"
     borderopacity="1"
     inkscape:pageshadow="0"
     inkscape:pageopacity="0"
     inkscape:pagecheckerboard="1"
     showgrid="false"
     inkscape:zoom="1.3888214"
     inkscape:cx="411.5"
     inkscape:cy="178.9287"
     inkscape:window-width="1312"
     inkscape:window-height="997"
     inkscape:window-x="49"
     inkscape:window-y="25"
     inkscape:window-maximized="0"
     inkscape:current-layer="svg29" />
  <g
     id="g1"
     transform="translate(-1206.1954,-1303.1401)">
    <g
       id="g2"
       transform="scale(2.5964,2.5964)">
      <path
         id="path1"
         style="fill:#008033"
         d="m 494.3961,506.25189 c 0,0 -22.07313,99.66531 -22.07313,99.66531 0.007,0 42.56794,0 42.58107,0 26.42493,0 105.67893,0 105.67893,0 0,0 54.9637,0 54.9637,0 -6.54807,-0.57144 -11.71765,-2.87011 -14.79791,-7.06027 -0.57144,-0.77509 -1.04346,-1.60999 -1.45726,-2.48348 -0.26266,-0.64358 -0.5098,-1.29299 -0.75933,-1.94982 -0.65683,-2.08851 -0.91869,-4.40613 -0.80043,-6.87557 0.3283,-6.88299 3.55798,-15.07028 9.1538,-23.64385 5.94376,-9.11134 14.55808,-18.66103 25.22417,-27.52284 2.39056,-1.98475 4.86251,-3.94473 7.45021,-5.84946 3.19852,-2.35312 6.42159,-4.5204 9.64637,-6.54716 11.881,-7.48 23.73244,-12.71396 34.23426,-15.37255 -10.0354,3.27398 -21.3098,8.83213 -32.4487,16.39877 -0.40056,0.27054 -0.79632,0.5477 -1.19037,0.82098 -6.18028,4.28217 -11.77918,8.82996 -16.66566,13.42273 -15.72311,14.78399 -24.03368,30.10323 -20.25732,39.07805 0.26928,0.61733 0.59027,1.20681 0.96469,1.76512 4.05877,5.97001 14.11814,7.00194 26.86612,3.79691 0.86698,-0.21678 1.73385,-0.4622 2.62708,-0.71836 4.07202,-1.17564 8.39516,-2.76338 12.84809,-4.7205 1.07052,-0.47293 2.15256,-0.95888 3.24282,-1.47781 0.11164,-0.0525 0.21677,-0.10502 0.32841,-0.16415 14.0549,-6.98344 24.85637,-15.01891 27.19454,-19.84683 0.5122,-1.05019 0.63537,-1.9456 0.28732,-2.64763 -1.66821,-3.38242 -13.34157,-1.09734 -27.48186,5.02837 -1.13626,0.49257 -2.28554,0.99951 -3.44806,1.53933 0.94575,-0.87805 1.93008,-1.75953 2.93495,-2.62708 1.60246,-1.38055 3.26165,-2.7305 5.02838,-4.06379 2.76509,-2.09377 5.56043,-3.98663 8.31228,-5.66465 12.88587,-9.7216 19.40027,-18.91776 18.04072,-22.33031 -0.25604,-0.64302 -0.80122,-1.08524 -1.64195,-1.35453 -2.6861,-0.85453 -7.5889,0.1653 -13.5459,2.60654 -4.91262,2.015 -10.55513,5.00349 -16.2756,8.72277 0,0 -0.77989,0.51311 -0.77989,0.51311 0,0 -0.14371,0.0821 -0.14371,0.0821 0,0 -2.75025,1.82665 -2.75025,1.82665 0,0 1.58031,-2.89397 1.58031,-2.89397 2.34479,-4.29198 6.16384,-8.77014 10.91893,-12.93017 3.48744,-3.04156 7.47156,-5.90734 11.76034,-8.4149 1.62221,-0.94974 3.24202,-1.83179 4.86423,-2.62708 1.66158,-0.81185 3.32409,-1.53329 4.94629,-2.17562 4.71309,-1.86386 9.89054,-4.21766 13.81393,-4.52565 -0.35729,0 -11.69996,1.22131 -11.69996,1.22131 0,0 -37.14865,0 -37.14865,0 0,0 -163.80338,0 -163.80338,0 0,0 -56.32262,0 -56.32262,0 z m 161.18057,0.14372 c -0.64358,9.8233 1.26103,24.21153 5.58258,40.18623 0.76835,2.84248 1.60497,5.73531 2.52446,8.66124 0.57144,1.80679 1.16081,3.58527 1.76512,5.33624 -0.35466,0.52144 -0.71184,1.03969 -1.04677,1.55988 -5.39217,8.26354 -8.54378,16.07287 -9.3385,22.86385 -2.27903,-7.63171 -3.99484,-15.99091 -4.96684,-24.85477 -0.27591,-2.53975 -0.49177,-5.05097 -0.63628,-7.53228 -1.06401,-18.02384 1.28899,-34.36245 6.11623,-46.22039 z m -107.6082,12.78645 c 0.12306,-0.003 0.24429,0 0.3694,0 0,0 24.28013,0 24.28013,0 2.07539,0 3.68036,0.38903 4.82324,1.16994 1.13615,0.78547 1.56228,1.80153 1.293,3.03757 0,0 -2.89397,13.07388 -2.89397,13.07388 0,0 -8.55851,0 -8.55851,0 0,0 2.81178,-12.72504 2.81178,-12.72504 0,0 -21.42726,0 -21.42726,0 0,0 -7.73753,34.97328 -7.73753,34.97328 0,0 -2.79134,12.66339 -2.79134,12.66339 0,0 21.40671,0 21.40671,0 0,0 0.0205,-0.0822 0.0205,-0.0822 0,1.1e-4 4.28947,-19.3747 4.28947,-19.3747 0,-1.2e-4 -10.05674,0 -10.05674,0 0,-1.2e-4 0.96458,-4.37166 0.96458,-4.37166 0,0 18.61548,0 18.61548,0 0,0 -5.33635,24.1774 -5.33635,24.1774 -0.0723,0.34416 -0.19863,0.65603 -0.3694,0.96469 -0.44005,0.80123 -1.20772,1.48751 -2.27823,2.05233 -1.48431,0.7816 -3.26085,1.16994 -5.33624,1.16994 0,0 -24.25959,0 -24.25959,0 -2.07539,0 -3.68036,-0.38834 -4.82313,-1.16994 -1.13626,-0.78148 -1.56889,-1.77962 -1.29299,-3.01702 0,0 10.69303,-48.33436 10.69303,-48.33436 0.27579,-1.23604 1.13626,-2.2521 2.62708,-3.03757 0.0525,-0.0282 0.11164,-0.0347 0.16415,-0.0615 1.3608,-0.68171 2.95778,-1.06481 4.80269,-1.10841 z m 38.05183,0 c 0,0 30.5604,0 30.5604,0 2.04913,0 3.65993,0.38903 4.8027,1.16994 1.14939,0.78547 1.58944,1.80153 1.31354,3.03757 0,0 -5.70575,25.77837 -5.70575,25.77837 -0.26917,1.22815 -1.15019,2.23017 -2.64763,3.01702 -1.49744,0.78947 -3.26005,1.19037 -5.31569,1.19037 0,0 -22.20714,0 -22.20714,0 0,0 -4.28959,19.35427 -4.28959,19.35427 0,0 -0.69781,3.18129 -0.69781,3.18129 0,0 -8.37381,0 -8.37381,0 0,0 0.63617,-2.87342 0.63617,-2.87342 0,0 11.92461,-53.85541 11.92461,-53.85541 z m 42.21812,0 c 0,0 8.37392,0 8.37392,0 0,0 -9.4821,42.83397 -9.4821,42.83397 0,0 -2.07299,9.35905 -2.07299,9.35905 0,0 20.03153,0 20.03153,0 0.21026,1.53614 0.45569,3.04488 0.71835,4.53581 0,0 -30.12948,0 -30.12948,0 1.1e-4,0 2.38086,-10.75467 2.38086,-10.75467 0,0 10.17991,-45.97416 10.17991,-45.97416 z m -34.84999,4.55635 c 0,0 -5.56203,25.08057 -5.56203,25.08057 0,0 20.87306,0 20.87306,0 0,0 5.54159,-25.08057 5.54159,-25.08057 0,0 -20.85262,0 -20.85262,0 z m -44.50891,59.19439 c 0.082,-0.003 0.1638,0 0.24633,0 0.972,0 1.82083,0.17066 2.50392,0.49257 0.72897,0.34142 1.2503,0.84883 1.53933,1.51878 0.28241,0.65021 0.35627,1.3882 0.20524,2.19605 0,0 -0.0616,0.30786 -0.0616,0.30786 0,0 -2.40129,0 -2.40129,0 0,0 0.0205,-0.28732 0.0205,-0.28732 0.0621,-0.56447 -0.008,-1.0083 -0.22579,-1.31354 -0.0284,-0.0384 -0.0695,-0.0888 -0.10262,-0.12317 -0.0542,-0.0554 -0.13562,-0.11848 -0.20525,-0.16415 -0.33595,-0.21163 -0.86161,-0.32841 -1.53933,-0.32841 -0.89974,0 -1.5721,0.15684 -2.0319,0.47202 -0.44656,0.30866 -0.72897,0.65351 -0.82098,1.06731 -0.0919,0.42031 0.0591,0.64119 0.16427,0.75934 0.003,0.003 0.0166,0.0169 0.0204,0.0206 0.1331,0.11346 0.5953,0.37932 2.03201,0.71835 1.3003,0.31529 2.16157,0.5985 2.64752,0.84153 0.73559,0.3743 1.2495,0.85956 1.51878,1.45714 0.26929,0.59108 0.32842,1.28318 0.16427,2.0319 -0.16427,0.72908 -0.53617,1.40143 -1.08787,2.03189 -0.54507,0.63058 -1.23877,1.12965 -2.07287,1.47781 -0.8276,0.34142 -1.73556,0.53354 -2.66818,0.53354 -1.18215,0 -2.13121,-0.17899 -2.87331,-0.53354 -0.77509,-0.3678 -1.33408,-0.94826 -1.6625,-1.7036 -0.31529,-0.73559 -0.38252,-1.5705 -0.20524,-2.48336 0,0 0.0615,-0.28732 0.0615,-0.28732 0,0 2.36031,0 2.36031,0 0,0 -0.0205,0.28732 -0.0205,0.28732 -0.0591,0.54507 -8e-4,0.98512 0.14371,1.31354 0.1379,0.31528 0.40068,0.57635 0.82098,0.77988 0.44656,0.21677 1.00488,0.32841 1.64196,0.32841 0.57132,0 1.09345,-0.096 1.55976,-0.26677 0.4598,-0.16426 0.82509,-0.38092 1.08787,-0.65683 0.25604,-0.27579 0.40637,-0.56722 0.47201,-0.8825 0.0656,-0.28241 0.05,-0.52133 -0.0616,-0.71836 -0.12477,-0.21015 -0.37191,-0.39656 -0.75934,-0.5542 0,0 -2.01134,-0.59519 -2.01134,-0.59519 -1.12314,-0.28241 -1.87917,-0.55169 -2.31922,-0.82098 -0.5977,-0.35466 -1.02873,-0.80944 -1.25201,-1.35452 -0.22328,-0.53856 -0.24714,-1.13546 -0.10263,-1.78567 0.15103,-0.69609 0.48686,-1.35863 1.00568,-1.94971 0.52544,-0.59769 1.2035,-1.06651 2.01135,-1.37518 0.71424,-0.2678 1.46593,-0.42487 2.25769,-0.45147 z m 21.55031,0.041 c 0.1299,-0.01 0.25205,0 0.39006,0 0,0 1.47769,0.16427 1.47769,0.16427 0,0 0.49256,0.041 0.49256,0.041 0,0 -0.71835,1.82665 -0.71835,1.82665 0,0 -0.14361,0.28732 -0.14361,0.28732 0,0 -1.12884,-0.10262 -1.12884,-0.10262 -0.33332,0 -0.57818,0.0515 -0.7389,0.16426 -0.0106,0.008 -0.0312,0.0324 -0.0411,0.041 -0.0215,0.019 -0.0576,0.0518 -0.0821,0.0821 -0.0987,0.12967 -0.21917,0.36128 -0.30776,0.77999 -1.1e-4,0 -0.0428,0.17728 -0.0822,0.32842 0.51881,0 1.76512,0 1.76512,0 0,0 -0.45158,2.03178 -0.45158,2.03178 0,0 -1.29049,0 -1.72403,0 -0.13128,0.59119 -1.74458,7.81972 -1.74458,7.81972 0,0 -2.38074,0 -2.38074,0 0,0 1.54743,-6.94612 1.74457,-7.81972 -0.40067,0 -1.37518,0 -1.37518,0 0,0 0.45158,-2.03178 0.45158,-2.03178 0,0 0.98022,0 1.35464,0 0.0656,-0.28241 0.16415,-0.63628 0.16415,-0.63628 0.14452,-0.65683 0.29554,-1.12885 0.49256,-1.45726 0.26929,-0.45318 0.64941,-0.83239 1.12885,-1.1083 0.39485,-0.22944 0.89426,-0.36665 1.45714,-0.41049 z m 5.6852,0.10262 c 0,0 -0.62224,2.80037 -0.77988,3.50971 0.45969,0 1.53933,0 1.53933,0 0,0 -0.45158,2.03178 -0.45158,2.03178 0,0 -1.13204,0 -1.53934,0 -0.12476,0.56482 -1.10818,4.94641 -1.10818,4.94641 0,0 -0.0822,0.52624 -0.0822,0.67726 1.2e-4,0.005 -3.4e-4,0.0168 0,0.0205 3.5e-4,10e-4 -4.5e-4,0.0192 0,0.0205 6.9e-4,10e-4 0.0198,-9.2e-4 0.0206,0 0,0 0.24634,0.0204 0.24634,0.0204 0,0 1.12873,-0.0821 1.12873,-0.0821 0,0 -0.12306,1.82666 -0.12306,1.82666 0,0 0.0206,0.32841 0.0206,0.32841 0,0 -1.62141,0.1847 -1.62141,0.1847 -0.6437,0 -1.11571,-0.10502 -1.45725,-0.32842 -0.36118,-0.23641 -0.57145,-0.54998 -0.65683,-0.94403 -0.0131,-0.0723 -0.041,-0.17739 -0.041,-0.32841 0,-0.29554 0.0558,-0.79553 0.24622,-1.66251 0,0 0.86287,-3.86505 1.04677,-4.67952 -0.30866,0 -1.12884,0 -1.12884,0 0,0 0.45158,-2.03178 0.45158,-2.03178 0,0 0.80043,0 1.12873,0 0.10513,-0.47293 0.47213,-2.09354 0.47213,-2.09354 0,0 1.90873,-1.00568 1.90873,-1.00568 0,0 0.77988,-0.41049 0.77988,-0.41049 z m -75.63152,0.0821 c 0,0 9.23589,0 9.23589,0 0,0 -0.51312,2.29878 -0.51312,2.29878 0,0 -6.16132,0 -6.7524,0 -0.10513,0.46631 -0.52624,2.35449 -0.67726,3.03757 0.85374,0 5.84935,0 5.84935,0 0,0 -0.51311,2.29867 -0.51311,2.29867 0,0 -5.25827,0 -5.84946,0 -0.12466,0.57144 -1.2519,5.64411 -1.2519,5.64411 0,0 -2.48348,0 -2.48348,0 0,0 2.95549,-13.27913 2.95549,-13.27913 z m 12.37608,3.24282 c 0.0927,-0.0113 0.19394,0 0.28732,0 0.59119,0 1.13706,0.17978 1.6625,0.5542 0,0 0.32841,0.22579 0.32841,0.22579 0,0 -1.27256,2.09343 -1.27256,2.09343 0,0 -0.34884,-0.24634 -0.34884,-0.24634 -0.25616,-0.16415 -0.53195,-0.24623 -0.82098,-0.24623 -0.24954,0 -0.48195,0.0887 -0.71836,0.24623 -0.24953,0.16426 -0.45809,0.38183 -0.61573,0.67737 -0.2759,0.50569 -0.47784,1.07211 -0.61573,1.68294 0,0 -1.1083,5.04892 -1.1083,5.04892 0,0 -2.38074,0 -2.38074,0 0,0 2.19604,-9.8515 2.19604,-9.8515 0,0 2.2166,0 2.2166,0 0,0 -0.0764,0.29873 -0.10263,0.41037 0.10502,-0.0788 0.21587,-0.18709 0.30787,-0.24622 0.31814,-0.18984 0.65409,-0.30833 0.98513,-0.34896 z m 7.06038,0 c 0.14326,-0.0109 0.28447,0 0.43092,0 1.33991,0 2.35369,0.46961 3.01714,1.39573 0.41369,0.59758 0.63617,1.33648 0.63617,2.21659 0,0.48594 -0.0599,1.00898 -0.1847,1.58031 0,0 -0.1847,0.71836 -0.1847,0.71836 0,0 -6.02103,0 -6.69087,0 -0.0131,0.13789 -0.0206,0.28572 -0.0206,0.41049 0,0.51231 0.10513,0.91538 0.32841,1.21091 0.10605,0.14452 0.22911,0.27465 0.3694,0.3694 0.2646,0.1726 0.60603,0.26688 1.00567,0.26688 0.48606,0 0.91299,-0.1339 1.31354,-0.38994 0.38093,-0.24303 0.74553,-0.63137 1.06732,-1.16994 0,0 2.54501,0 2.54501,0 0,0 -0.22579,0.49257 -0.22579,0.49257 -0.48595,0.98524 -1.16412,1.75359 -2.01135,2.29878 -0.84723,0.54507 -1.85953,0.84141 -2.97605,0.84141 -1.45143,0 -2.53188,-0.4695 -3.20172,-1.39561 -0.66333,-0.90637 -0.80625,-2.15918 -0.45158,-3.73538 0.35467,-1.60258 1.06241,-2.88324 2.09354,-3.77648 0.92417,-0.80134 1.97288,-1.24585 3.14019,-1.33408 z m 10.69303,0 c 0.14337,-0.0109 0.28446,0 0.43103,0 1.3398,0 2.35369,0.46961 3.01703,1.39573 0.4138,0.59758 0.63628,1.33648 0.63628,2.21659 0,0.47943 -0.0599,0.99494 -0.1847,1.55976 0,0 -0.1847,0.73891 -0.1847,0.73891 0,0 -6.02103,0 -6.69099,0 -0.006,0.0919 -0.0139,0.17488 -0.0204,0.26677 -0.005,0.0345 0.002,0.0869 0,0.12317 -2.3e-4,0.006 0,0.0148 0,0.0205 0,0.0985 0.0139,0.19542 0.0204,0.28731 0.0329,0.37442 0.13059,0.6872 0.30798,0.9236 0.0337,0.046 0.0654,0.10274 0.10251,0.14372 0.30091,0.32179 0.72658,0.49256 1.27256,0.49256 0.48606,0 0.91949,-0.1339 1.31354,-0.38994 0.38093,-0.24303 0.74541,-0.63137 1.06721,-1.16994 0,0 2.56555,0 2.56555,0 0,0 -0.24622,0.49257 -0.24622,0.49257 -0.48606,0.98524 -1.16412,1.75359 -2.01147,2.29878 -0.84723,0.54507 -1.85941,0.84141 -2.97593,0.84141 -1.45155,0 -2.53188,-0.4695 -3.20183,-1.39561 -0.43343,-0.59108 -0.63628,-1.34391 -0.63628,-2.23715 0,-0.13789 0.007,-0.28652 0.0205,-0.43103 0.0264,-0.34143 0.0789,-0.68628 0.16426,-1.0672 0.35467,-1.59596 1.04175,-2.88324 2.07288,-3.77648 0.92428,-0.80134 1.99354,-1.24585 3.16074,-1.33408 z m 29.12381,0 c 0.14668,-0.0112 0.28161,0 0.43103,0 1.36605,0 2.41602,0.46219 3.0991,1.37518 0.67646,0.91287 0.84073,2.14433 0.49256,3.69428 -0.26928,1.20852 -0.65831,2.18463 -1.19037,2.89397 -0.53194,0.70934 -1.21012,1.28888 -2.01135,1.68294 -0.79472,0.39405 -1.63624,0.59518 -2.48348,0.59518 -1.3923,0 -2.42925,-0.47612 -3.0991,-1.39561 -0.43354,-0.58446 -0.65682,-1.33729 -0.65682,-2.23715 0,-0.48594 0.0534,-1.00236 0.18481,-1.58031 0.39405,-1.76021 1.19859,-3.10081 2.38074,-3.96117 0.86778,-0.62646 1.82608,-0.98832 2.85288,-1.06731 z m 36.0609,0 c 0.17317,-0.0106 0.33355,0 0.51311,0 0.8276,0 1.47781,0.0838 1.97037,0.28731 0.52544,0.21027 0.89815,0.50741 1.1083,0.86208 0.20353,0.33492 0.30787,0.7462 0.30787,1.25201 0,0 -0.24634,1.49824 -0.24634,1.49824 0,0 -0.45147,2.03189 -0.45147,2.03189 -0.38755,1.73385 -0.47293,2.38406 -0.49268,2.62709 -0.0196,0.32841 0.0107,0.6486 0.10274,0.94414 0,0 0.16415,0.53355 0.16415,0.53355 0,0 -2.42184,0 -2.42184,0 0,0 -0.10262,-0.30787 -0.10262,-0.30787 -0.0394,-0.1444 -0.028,-0.3283 -0.0411,-0.49256 -0.45969,0.28241 -0.92029,0.53286 -1.33409,0.67737 -0.61071,0.21015 -1.24459,0.3283 -1.88818,0.3283 -1.11651,0 -1.9432,-0.29063 -2.44238,-0.86196 -0.38092,-0.4203 -0.55421,-0.93433 -0.55421,-1.51878 0,-0.22328 0.0297,-0.4549 0.0822,-0.69781 0.11164,-0.49918 0.31438,-0.96138 0.63617,-1.37518 0.31529,-0.40718 0.68799,-0.7421 1.10841,-0.98513 0.40718,-0.24303 0.86116,-0.4154 1.33397,-0.53366 0,0 1.45726,-0.24622 1.45726,-0.24622 1.12314,-0.13139 1.96135,-0.29474 2.56556,-0.47213 0.0131,-0.0656 0.041,-0.14361 0.041,-0.14361 0.0952,-0.42258 0.0833,-0.74027 -0.0204,-0.90305 -0.008,-0.0105 -0.0325,-0.0321 -0.0411,-0.0411 -0.0222,-0.0236 -0.0563,-0.0607 -0.0821,-0.0821 -0.24702,-0.19554 -0.66824,-0.28732 -1.23146,-0.28732 -0.63708,0 -1.1083,0.10422 -1.43671,0.30787 -0.3218,0.20353 -0.61985,0.57624 -0.88251,1.1083 0,0 -2.48348,0 -2.48348,0 0,0 0.22579,-0.49257 0.22579,-0.49257 0.29554,-0.68308 0.64781,-1.2495 1.08775,-1.68305 0.44006,-0.43343 1.03444,-0.76926 1.72403,-1.00567 0.52852,-0.17442 1.10567,-0.29017 1.72403,-0.32841 z m 10.40582,0 c 0.0926,-0.0113 0.19395,0 0.28732,0 0.59759,0 1.1575,0.17978 1.68294,0.5542 0,0 0.30786,0.22579 0.30786,0.22579 0,0 -1.27244,2.09343 -1.27244,2.09343 0,0 -0.34896,-0.24634 -0.34896,-0.24634 -0.25616,-0.16415 -0.51802,-0.24623 -0.80043,-0.24623 -0.24954,0 -0.49588,0.0887 -0.73891,0.24623 -0.24953,0.16426 -0.43103,0.38183 -0.59518,0.67737 -0.26929,0.50569 -0.47773,1.07211 -0.61573,1.68294 0,0 -1.12885,5.04892 -1.12885,5.04892 1.2e-4,0 -2.38074,0 -2.38074,0 0,0 2.19604,-9.8515 2.19604,-9.8515 0,0 2.2166,0 2.2166,0 0,0 -0.0558,0.29873 -0.0821,0.41037 0.10514,-0.0788 0.20936,-0.18709 0.30787,-0.24622 0.313,-0.18984 0.63388,-0.30833 0.96469,-0.34896 z m 7.03972,0 c 0.14326,-0.0109 0.28447,0 0.43104,0 1.3398,0 2.36031,0.46961 3.01702,1.39573 0.42042,0.59758 0.63628,1.33648 0.63628,2.21659 0,0.48594 -0.0805,1.00898 -0.20524,1.58031 0,0 -0.16415,0.71836 -0.16415,0.71836 0,0 -6.02754,0 -6.69099,0 -0.0131,0.13789 -0.041,0.28572 -0.041,0.41049 0,0.51231 0.11164,0.91538 0.32841,1.21091 0.0337,0.046 0.0859,0.10274 0.12306,0.14372 0.0216,0.023 0.0594,0.0607 0.0822,0.0821 0.2936,0.26688 0.69313,0.41048 1.19037,0.41048 0.48594,0 0.91287,-0.1339 1.31354,-0.38994 0.38093,-0.24303 0.7389,-0.63137 1.0672,-1.16994 0,0 2.56556,0 2.56556,0 0,0 -0.24623,0.49257 -0.24623,0.49257 -0.48605,0.98524 -1.17073,1.75359 -2.01146,2.29878 -0.85374,0.54507 -1.85291,0.84141 -2.97593,0.84141 -1.45143,0 -2.51133,-0.4695 -3.18129,-1.39561 -0.66333,-0.90637 -0.82006,-2.15918 -0.47201,-3.73538 0.35467,-1.60258 1.04174,-2.88324 2.07287,-3.77648 0.93011,-0.80134 1.99457,-1.24585 3.16074,-1.33408 z m -35.93773,0.18481 c 0,0 2.44227,0 2.44227,0 0,0 0.30136,5.84604 0.30786,5.93142 0.0985,-0.20935 0.175,-0.38549 0.18481,-0.41049 0,0 2.68861,-5.52093 2.68861,-5.52093 0,0 2.23715,0 2.23715,0 0,0 0.20524,5.77549 0.20524,5.80825 0.0656,-0.11815 3.05812,-5.80825 3.05812,-5.80825 0,0 2.42184,0 2.42184,0 0,0 -5.33624,9.8515 -5.33624,9.8515 0,0 -2.19616,0 -2.19616,0 0,0 -0.21255,-5.34195 -0.22568,-5.64411 -0.90636,1.85873 -2.75025,5.64411 -2.75025,5.64411 0,0 -2.25769,0 -2.25769,0 0,0 -0.77988,-9.8515 -0.77988,-9.8515 z m -57.34457,1.86763 c -0.56573,0.0239 -1.07953,0.22784 -1.55976,0.61573 -0.38093,0.30216 -0.63788,0.71676 -0.84153,1.16983 0,1.1e-4 4.04325,0 4.04325,0 0.007,-0.0721 0.0205,-0.16004 0.0205,-0.22568 0,-0.37442 -0.0666,-0.66505 -0.18469,-0.86207 -0.28903,-0.47282 -0.71756,-0.69781 -1.35464,-0.69781 -0.0381,0 -0.0854,-0.002 -0.12317,0 z m 10.69314,0 c -0.56573,0.0239 -1.07964,0.22784 -1.55988,0.61573 -0.38092,0.30216 -0.63126,0.71676 -0.84152,1.16983 0,1.1e-4 4.04336,0 4.04336,0 0.006,-0.0721 0.0204,-0.16004 0.0204,-0.22568 0,-0.37442 -0.0599,-0.66505 -0.1847,-0.86207 -0.0573,-0.096 -0.13492,-0.19155 -0.20524,-0.26678 -0.27419,-0.28332 -0.65158,-0.43103 -1.14939,-0.43103 -0.0381,0 -0.0854,-0.002 -0.12306,0 z m 82.71233,0 c -0.58183,0.0179 -1.12519,0.21495 -1.6214,0.61573 -0.37442,0.30216 -0.63138,0.71676 -0.84153,1.16983 0,1.1e-4 4.02281,0 4.02281,0 0.007,-0.0721 0.0204,-0.16004 0.0204,-0.22568 0,-0.37442 -0.0599,-0.66505 -0.1847,-0.86207 -0.28241,-0.46631 -0.71744,-0.69119 -1.35464,-0.69781 -0.0188,2.3e-4 -0.0223,-5.7e-4 -0.041,0 z m -53.77333,0.0411 c -0.54291,0.0645 -1.04768,0.31209 -1.51879,0.73879 -0.56482,0.51231 -0.97439,1.31685 -1.21092,2.38086 -0.0985,0.44656 -0.1436,0.8284 -0.1436,1.16982 0,0.46631 0.0895,0.83251 0.26677,1.1083 0.0473,0.0709 0.10982,0.14566 0.16415,0.20524 0.292,0.31004 0.69975,0.47213 1.21092,0.47213 0.66334,0 1.24791,-0.24713 1.80622,-0.75945 0.56482,-0.51881 0.96789,-1.33157 1.21092,-2.42183 0.22328,-0.99826 0.19212,-1.74367 -0.12317,-2.2166 -0.30216,-0.45968 -0.74381,-0.67726 -1.35463,-0.67726 -0.10365,0 -0.2073,-0.012 -0.30787,0 z m 37.08724,3.59167 c -0.55831,0.15113 -1.18386,0.2783 -2.01146,0.38994 -0.61733,0.092 -1.05739,0.18892 -1.31354,0.28743 -0.22328,0.0919 -0.40307,0.21917 -0.55409,0.38994 -0.14452,0.16415 -0.24143,0.33652 -0.28732,0.53366 -0.0131,0.0788 -0.0205,0.16004 -0.0205,0.22568 0,0.005 -1.1e-4,0.0153 0,0.0205 6.9e-4,0.0156 -0.002,0.0465 0,0.0615 0.004,0.0298 0.0123,0.0749 0.0205,0.10262 0.003,0.009 0.0171,0.0322 0.0204,0.0411 0.007,0.0177 0.0116,0.0447 0.0205,0.0615 0.009,0.0167 0.03,0.0457 0.0411,0.0616 0.0172,0.0236 0.0406,0.0599 0.0615,0.0821 0.16426,0.1839 0.49176,0.26678 0.96469,0.26678 0.51882,0 1.01801,-0.0985 1.4777,-0.3283 0.45318,-0.2234 0.81846,-0.55672 1.08774,-0.94415 0.19703,-0.27591 0.35467,-0.70032 0.49268,-1.25201 z m -110.47601,-17.13049 12.97408,-56.872 7.63227,0 -11.49133,50.43219 29.63348,0 -1.48276,6.43981 -37.26574,0" />
      <path
         id="path2"
         style="fill:none;stroke:#008033;stroke-width:3.28386545;stroke-linecap:butt;stroke-linejoin:miter;stroke-miterlimit:4;"
         d="m 657.13929,595.58958 c 0.26666,0.68536 0.53332,1.3697 0.81093,2.03897 0.42773,0.90933 0.92212,1.77962 1.51639,2.59227 3.21051,4.36412 8.58716,6.75365 15.41365,7.3485 0,0 7.34291,0 7.34291,0 2.32184,-0.18105 4.75463,-0.51871 7.27635,-1.01196 4.34917,-0.85042 8.95941,-2.15677 13.74726,-3.90261 3.62705,-1.32244 7.3541,-2.88712 11.13674,-4.70566 8.23717,-3.94873 16.74659,-9.0416 25.09494,-15.18751 2.74946,-2.02243 5.38784,-4.09759 7.92063,-6.20768 2.32184,-1.9319 4.54917,-3.8937 6.67649,-5.8772 5.93771,-5.72218 10.42009,-11.53375 12.95848,-16.63666 2.64398,-5.31398 3.17158,-9.85744 1.00544,-12.71967 -1.32758,-1.75691 -3.54931,-2.69843 -6.40983,-2.92 12.88622,-9.6692 20.3959,-21.39849 17.70204,-28.79368 -0.85545,-2.36008 -2.73838,-4.12087 -5.43783,-5.09458 -1.19973,-0.43149 -2.54958,-0.70489 -4.02144,-0.82931 0,0 -3.96586,0 -3.96586,0 -5.53783,0.39941 -13.59087,2.38234 -20.42272,5.73052" />
    </g>
    <g
       id="g3"
       style="fill:#008033"
       transform="matrix(1.705222,0,0,1.705222,1975.9379,2328.3877)">
      <path
         id="path3"
         transform="translate(-451.3678,-427.5077)"
         d="m 0,36 c 0,0 7.46,0 7.46,0 0,0 3.35,-14 3.35,-14 0,0 12.12,0 12.12,0 0,0 1.56,-6 1.56,-6 0,0 -12.17,0 -12.17,0 0,0 2.02,-9 2.02,-9 0,0 12.95,0 12.95,0 0,0 1.56,-7 1.56,-7 C 28.85,0 8.4,0 8.4,0 8.4,0 0,36 0,36 z" />
      <path
         id="path4"
         transform="translate(-425.4178,-417.5077)"
         d="m 7.51,26 c 0,0 2.24,-9.4 2.24,-9.4 1.18,-5.09 3.67,-9.6 8.38,-9.6 0.42,0 0.83,0.21 1.14,0.26 0,0 1.82,-7.21 1.82,-7.21 -0.42,0 -0.88,-0.05 -1.4,-0.05 -3.47,0 -6.38,2.44 -8.32,5.94 0,0 -0.2,0 -0.2,0 C 11.46,4.23 11.71,2.61 11.9,1 11.9,1 5.47,1 5.47,1 5.1,3.08 4.53,7.15 3.66,10.82 3.66,10.82 0,26 0,26 c 0,0 7.51,0 7.51,0 z" />
      <path
         id="path5"
         transform="translate(-404.7878,-417.5077)"
         d="M 20.06,19.25 C 17.99,20.26 15.63,20 12.88,20 10.71,20 9.03,19.62 8.11,18.88 7.63,18.07 7.43,16.81 7.47,16 17.6,16.27 23.99,13.93 24.31,7.53 24.55,2.7 21.02,0 15.89,0 6.73,0 0.73,8.08 0.34,15.86 0,22.65 3.52,26 10.78,26 c 2.79,0 6.49,-0.32 9.52,-1.23 0,0 -0.24,-5.52 -0.24,-5.52 z M 17.32,7.53 C 17.2,9.91 14.26,10.05 8.47,10 9.1,7.91 11.22,6 14.69,6 c 1.71,0 2.69,0.65 2.63,1.53 z" />
      <path
         id="path6"
         transform="translate(-378.2678,-417.5077)"
         d="M 20.05,19.25 C 17.98,20.26 15.62,20 12.88,20 10.7,20 9.03,19.62 8.11,18.88 7.63,18.07 7.42,16.81 7.46,16 17.6,16.27 23.98,13.93 24.31,7.53 24.55,2.7 21.02,0 15.89,0 6.72,0 0.72,8.08 0.33,15.86 0,22.65 3.52,26 10.77,26 c 2.8,0 6.5,-0.32 9.53,-1.23 0,0 -0.25,-5.52 -0.25,-5.52 z M 17.32,7.53 C 17.2,9.91 14.26,10.05 8.46,10 9.1,7.91 11.21,6 14.68,6 c 1.71,0 2.7,0.65 2.64,1.53 z" />
      <path
         id="path7"
         transform="translate(-342.3578,-417.5077)"
         d="M 22.74,26 C 22.8,22.83 23.56,17.85 24.35,14.58 24.35,14.58 27.56,1 27.56,1 25.52,0.31 22.34,0 19.28,0 6.86,0 0.7,9.2 0.27,17.82 0,23.23 2.93,26 7.49,26 c 2.95,0 6.28,-1.43 8.87,-5.73 0,0 0.11,0 0.11,0 -0.2,2.07 -0.44,4.08 -0.57,5.73 0,0 6.84,0 6.84,0 z M 17.61,11.72 C 16.15,18.08 13.17,20 10.95,20 8.88,20 7.98,18.53 8.1,16.39 8.34,11.56 12.16,6 16.98,6 c 0.78,0 1.39,-0.14 1.96,-0.28 0,0 -1.33,6 -1.33,6 z" />
      <path
         id="path8"
         transform="translate(-314.7278,-417.5077)"
         d="m 0,24.82 c 1.44,1.12 4.46,1.13 7.61,1.18 6.73,0.05 11.81,-2.89 12.11,-8.29 0.17,-3.6 -2.62,-5.73 -5.35,-7.16 C 12.4,9.6 11.41,8.69 11.46,7.63 11.53,6.2 12.87,6 14.84,6 c 2.22,0 4,0.27 5.02,0.47 0,0 2.02,-5.42 2.02,-5.42 C 20.73,0.36 18.43,0 15.48,0 8.95,0 4.17,3.45 3.9,8.69 c -0.16,3.24 2.17,5.42 4.99,6.9 2.28,1.17 3.06,2.07 3,3.34 C 11.82,20.21 10.68,20 8.61,20 6.18,20 3.49,19.68 2.07,19.46 2.07,19.46 0,24.82 0,24.82 z" />
      <path
         id="path9"
         transform="translate(-282.2778,-428.5077)"
         d="m 7.45,37 c 0,0 6.05,-25 6.05,-25 0,0 -7.41,0 -7.41,0 0,0 -6.09,25 -6.09,25 0,0 7.45,0 7.45,0 z M 10.92,9 C 13.46,9 15.72,6.9 15.86,3.3 15.98,0.86 14.4,0 12.07,0 9.64,0 7.42,1.58 7.29,3.94 7.17,6.32 8.75,9 10.92,9 z" />
      <path
         id="path10"
         transform="translate(-267.9878,-416.8177)"
         d="m 7.46,25.31 c 0,0 2.64,-11.26 2.64,-11.26 1.37,-5.73 4.32,-7.74 6.75,-7.74 1.92,0 2.48,0.82 2.39,2.01 -0.05,0.96 -0.2,1.97 -0.4,2.87 0,0 -3.36,14.12 -3.36,14.12 0,0 7.46,0 7.46,0 0,0 3.54,-14.81 3.54,-14.81 C 26.75,9.22 27.05,7.31 27.11,6.15 27.33,1.64 25.08,0 20.94,0 c -3.32,0 -6.55,1.54 -9.1,4.88 0,0 -0.1,0 -0.1,0 0,0 0.68,-4.57 0.68,-4.57 0,0 -6.58,0 -6.58,0 C 5.41,2.45 4.86,5.04 4.08,8.06 4.08,8.06 0,25.31 0,25.31 c 0,0 7.46,0 7.46,0 z" />
      <path
         id="path11"
         transform="translate(-228.4278,-427.5077)"
         d="m 0,36 c 0,0 7.46,0 7.46,0 0,0 3.36,-14 3.36,-14 0,0 12.11,0 12.11,0 0,0 1.56,-6 1.56,-6 0,0 -12.17,0 -12.17,0 0,0 2.02,-9 2.02,-9 0,0 12.95,0 12.95,0 0,0 1.56,-7 1.56,-7 C 28.85,0 8.4,0 8.4,0 8.4,0 0,36 0,36 z" />
      <path
         id="path12"
         transform="translate(-202.4778,-417.5077)"
         d="m 7.51,26 c 0,0 2.24,-9.4 2.24,-9.4 1.18,-5.09 3.67,-9.6 8.38,-9.6 0.42,0 0.83,0.21 1.14,0.26 0,0 1.82,-7.21 1.82,-7.21 -0.42,0 -0.88,-0.05 -1.4,-0.05 -3.47,0 -6.38,2.44 -8.32,5.94 0,0 -0.2,0 -0.2,0 C 11.46,4.23 11.71,2.61 11.9,1 11.9,1 5.47,1 5.47,1 5.11,3.08 4.53,7.15 3.66,10.82 3.66,10.82 0,26 0,26 c 0,0 7.51,0 7.51,0 z" />
      <path
         id="path13"
         transform="translate(-181.8478,-417.5077)"
         d="M 20.06,19.25 C 17.99,20.26 15.63,20 12.88,20 10.71,20 9.03,19.62 8.11,18.88 7.63,18.07 7.43,16.81 7.47,16 17.6,16.27 23.99,13.93 24.31,7.53 24.55,2.7 21.02,0 15.89,0 6.73,0 0.73,8.08 0.34,15.86 0,22.65 3.53,26 10.78,26 c 2.79,0 6.5,-0.32 9.52,-1.23 0,0 -0.24,-5.52 -0.24,-5.52 z M 17.32,7.53 C 17.2,9.91 14.26,10.05 8.47,10 9.1,7.91 11.22,6 14.69,6 c 1.71,0 2.69,0.65 2.63,1.53 z" />
      <path
         id="path14"
         transform="translate(-155.3278,-417.5077)"
         d="M 20.05,19.25 C 17.98,20.26 15.62,20 12.88,20 10.7,20 9.03,19.62 8.11,18.88 7.63,18.07 7.42,16.81 7.46,16 17.6,16.27 23.98,13.93 24.31,7.53 24.55,2.7 21.02,0 15.89,0 6.72,0 0.72,8.08 0.33,15.86 0,22.65 3.52,26 10.77,26 c 2.8,0 6.5,-0.32 9.53,-1.23 0,0 -0.25,-5.52 -0.25,-5.52 z M 17.32,7.53 C 17.2,9.91 14.26,10.05 8.46,10 9.1,7.91 11.21,6 14.68,6 c 1.71,0 2.7,0.65 2.64,1.53 z" />
      <path
         id="path15"
         transform="translate(-128.9478,-428.5077)"
         d="M 23.31,0 C 23.31,0 20.5,11.36 20.5,11.36 19.48,10.94 18.15,11 17.11,11 7.53,11 0.75,19.2 0.3,28.08 0,34.34 3.34,37 7.64,37 c 3.01,0 6.18,-1.33 8.58,-4.77 0,0 0.1,0 0.1,0 0,0 -0.57,4.77 -0.57,4.77 0,0 6.78,0 6.78,0 0.31,-3 0.96,-6.57 1.69,-9.83 0,0 6.49,-27.17 6.49,-27.17 0,0 -7.4,0 -7.4,0 z M 17.47,24.42 C 16.3,29.35 13.54,31 11.36,31 9.19,31 7.98,29.49 8.13,26.8 8.38,21.82 11.8,17 16.25,17 c 1.25,0 2.32,0.19 2.91,0.47 0,0 -1.69,6.95 -1.69,6.95 z" />
      <path
         id="path16"
         transform="translate(-99.2378,-417.5077)"
         d="M 10.61,26 C 19.31,26 26.02,19.41 26.49,10.44 26.78,4.5 23.08,0 16.25,0 7.23,0 0.76,7.3 0.31,16.12 0,22.54 4.14,26 10.61,26 z m 1.17,-6 C 9.24,20 7.84,18.38 7.99,15.96 8.19,11.93 10.68,6 14.97,6 c 2.96,0 3.87,2.27 3.75,4.5 -0.22,4.4 -2.9,9.5 -6.94,9.5 z" />
      <path
         id="path17"
         transform="translate(-70.6778,-417.5077)"
         d="M 7.2,26 C 7.2,26 9.9,14.58 9.9,14.58 11.03,9.49 13.85,6 16.38,6 c 1.82,0 2.32,1.33 2.23,3.07 -0.05,0.9 -0.25,1.91 -0.46,2.91 0,0 -3.34,14.02 -3.34,14.02 0,0 7.2,0 7.2,0 0,0 2.7,-11.47 2.7,-11.47 C 25.95,9.28 28.61,6 31.09,6 c 1.71,0 2.42,1.22 2.34,2.96 -0.05,1.01 -0.26,2.12 -0.52,3.13 0,0 -3.24,13.91 -3.24,13.91 0,0 7.25,0 7.25,0 0,0 3.49,-14.81 3.49,-14.81 0.27,-1.33 0.58,-3.4 0.63,-4.46 C 41.26,2.33 39.11,0 35.23,0 31.91,0 28.68,1.5 26.23,4.66 26.14,2.38 24.51,0 20.47,0 17.2,0 14.08,1.48 11.58,4.83 c 0,0 -0.1,0 -0.1,0 0,0 0.67,-3.83 0.67,-3.83 0,0 -6.42,0 -6.42,0 C 5.31,3.14 4.8,5.73 4.02,8.75 4.02,8.75 0,26 0,26 c 0,0 7.2,0 7.2,0 z" />
    </g>
  </g>
  <path
     style="fill:#cccccc;stroke-width:0.720035"
     d="m 537.61792,277.90677 c -6.62922,-1.24814 -15.67906,-4.16428 -19.05387,-6.13974 -2.34249,-1.37119 -6.42029,-1.39389 -250.39217,-1.39389 -222.690149,0 -248.0109,-0.11305 -248.0109,-1.10733 0,-0.84741 49.935758,-227.122239 55.80826,-252.885014 l 1.189932,-5.220254 H 406.50915 735.85913 l 9.54875,-3.1765614 c 16.0593,-5.3423845 25.05455,-7.07953629 38.6514,-7.46433228 12.738,-0.36048957 17.01616,0.20496315 23.61816,3.12165608 5.07351,2.2414329 10.55391,7.5265876 12.92902,12.4684796 2.5639,5.334511 3.1544,15.35377 1.32105,22.412088 -3.7475,14.427495 -17.22734,33.81805 -33.35872,47.986106 l -6.44042,5.656501 1.89491,1.001879 c 4.36521,2.307978 7.32967,5.371785 9.53816,9.857852 2.02294,4.10913 2.29086,5.35629 2.27308,10.57992 -0.0259,7.54152 -1.5691,13.41683 -5.94375,22.62518 -10.10972,21.28035 -29.66609,43.11943 -60.67658,67.75905 -47.6519,37.86216 -100.7208,64.06954 -147.74905,72.96393 -10.59825,2.00443 -35.40281,2.54439 -43.84722,0.95448 z m 37.15475,-9.35039 c 47.91632,-7.12499 106.70467,-36.79231 158.20395,-79.83701 23.79146,-19.88564 40.31065,-39.21574 48.7648,-57.06268 6.59415,-13.92037 6.6069,-23.67775 0.0374,-28.55502 -3.2727,-2.42965 -6.06147,-3.225537 -13.32108,-3.80168 -10.22968,-0.811861 -10.23738,-0.556745 0.25842,-8.555074 5.17317,-3.942264 13.76181,-11.567895 19.40307,-17.227492 29.15717,-29.25235 34.20613,-55.193934 12.19963,-62.683056 -11.46253,-3.9008695 -34.67804,-0.714567 -55.80271,7.658856 -40.24314,15.951637 -73.47964,42.272068 -89.16518,70.611107 -1.26037,2.27711 -2.14158,4.140201 -1.95825,4.140201 0.18334,0 3.50727,-2.058659 7.38652,-4.574793 28.15472,-18.261538 56.03408,-29.986887 71.29981,-29.986887 11.79022,0 14.28427,5.077452 8.30568,16.908762 -3.16394,6.261295 -8.18571,12.686052 -17.10684,21.886176 -11.22416,11.57517 -20.44336,19.25407 -34.20444,28.48973 -14.38739,9.65601 -35.83117,26.75705 -30.9615,24.69126 34.0799,-14.45723 56.54888,-20.52031 68.71045,-18.54096 6.52806,1.06247 7.61326,2.07833 7.61326,7.12687 0,7.29313 -13.41125,20.47568 -35.64174,35.03392 -54.62771,35.77446 -115.22304,52.20542 -143.42074,38.88982 -22.96803,-10.84605 -22.79217,-38.21713 0.47068,-73.257 14.92506,-22.48101 41.68208,-49.462592 69.50649,-70.089822 21.96891,-16.286337 47.5586,-31.509959 69.63165,-41.424725 3.84373,-1.726526 6.8653,-3.262434 6.7146,-3.41313 -1.1642,-1.164199 -37.70712,15.853331 -52.58509,24.488144 -57.80969,33.551342 -107.10612,80.677593 -132.02897,126.216643 -26.16232,47.80382 -17.69963,84.23161 21.5036,92.56263 7.93207,1.68563 25.88471,1.83705 36.18649,0.30521 z M 142.92695,245.09719 c 3.61174,-0.98657 7.23035,-3.67882 8.65966,-6.44281 l 1.09779,-2.12288 h -2.594 c -1.92217,0 -3.15345,0.55944 -4.75411,2.1601 -3.71536,3.71537 -8.77419,2.68162 -9.69,-1.9801 l -0.45972,-2.34011 h 9.00044 9.00044 l 0.45002,-2.25011 c 0.68959,-3.44797 0.5524,-4.87687 -0.72712,-7.57327 -1.42597,-3.005 -4.23262,-4.57732 -8.17069,-4.57732 -4.15134,0 -7.26114,1.50627 -10.20122,4.9411 -2.89433,3.38136 -4.21211,7.08182 -4.21211,11.828 0,3.92101 2.44889,7.33397 5.99999,8.36207 3.09126,0.89496 3.30772,0.89481 6.60063,-0.004 z m 30.67461,-1.05368 c 2.03433,-1.04055 6.40719,-5.69311 6.40719,-6.81704 0,-1.59956 -4.55295,-0.6398 -6.95034,1.46513 -4.1695,3.66087 -9.61047,2.37474 -9.61047,-2.2717 v -2.04851 h 8.56339 c 9.68492,0 9.43749,0.15446 9.43749,-5.89117 0,-3.14919 -0.31445,-3.92774 -2.44812,-6.06141 -2.14907,-2.14907 -2.90021,-2.44812 -6.14898,-2.44812 -8.49232,0 -14.67949,6.82211 -14.76857,16.28414 -0.0425,4.51602 1.75554,7.39995 5.43223,8.71286 2.70872,0.96725 7.19129,0.55652 10.08618,-0.92418 z m 47.05251,-0.22126 c 3.93635,-1.74124 6.9535,-5.67186 7.39619,-9.63546 0.52483,-4.69904 -1.36549,-6.56665 -9.02461,-8.91618 -7.00769,-2.1497 -8.0554,-2.75004 -8.0554,-4.61578 0,-2.45609 3.41046,-4.28431 7.99215,-4.28431 4.45645,0 5.68852,0.92546 5.68852,4.27287 0,1.26309 0.44847,1.48741 2.97378,1.48741 h 2.97378 l -0.37026,-3.285 c -0.45928,-4.07467 -2.4754,-6.34465 -6.68088,-7.52212 -6.58632,-1.84405 -13.94934,1.0083 -16.75285,6.48987 -3.23206,6.3195 -1.02848,9.45423 8.80003,12.5186 6.46766,2.01651 7.36198,2.80579 6.6035,5.82784 -0.60369,2.40528 -3.89474,3.97168 -8.34459,3.97168 -2.93508,0 -4.02207,-0.3534 -5.43602,-1.76736 -0.97205,-0.97205 -1.76737,-2.43012 -1.76737,-3.24016 0,-1.19766 -0.46171,-1.47279 -2.4716,-1.47279 -3.03248,0 -3.70656,1.51615 -2.40413,5.40745 2.10239,6.28139 10.60085,8.42558 18.87976,4.76344 z m 26.10718,0.98553 c 4.63664,-1.37694 8.34641,-5.32434 9.89059,-10.52417 1.4026,-4.72305 1.40844,-6.64856 0.029,-9.55551 -3.23921,-6.82614 -14.46201,-6.23701 -19.73034,1.03573 -5.41892,7.48058 -4.22052,17.44011 2.32643,19.3343 3.21295,0.92958 3.40093,0.92229 7.48432,-0.29035 z m 92.69773,-0.78492 c 1.87198,-0.91971 2.195,-0.91344 2.73591,0.0531 0.36431,0.65098 1.62201,1.09595 3.09767,1.09595 2.45154,0 2.48434,-0.0413 2.48434,-3.13086 0,-1.72198 0.63594,-6.16898 1.41319,-9.88222 1.62535,-7.76489 1.37575,-9.66588 -1.4618,-11.13323 -5.20024,-2.68915 -14.4346,-0.28481 -17.38053,4.52536 l -1.43318,2.34011 h 2.79082 c 1.88688,0 3.18474,-0.46005 4.00696,-1.42034 2.42686,-2.83436 8.5031,-2.66569 9.06492,0.25164 0.3802,1.97419 -0.47547,2.4508 -5.97202,3.32644 -6.34215,1.01033 -9.55841,2.53549 -11.27165,5.345 -3.52771,5.78505 0.26272,11.00186 7.28266,10.02322 1.38607,-0.19323 3.47529,-0.82061 4.64271,-1.39417 z m 48.71301,0.0207 c 2.03433,-1.04057 6.40719,-5.69313 6.40719,-6.81706 0,-0.38223 -1.10913,-0.69497 -2.46474,-0.69497 -1.77854,0 -3.06611,0.60138 -4.62483,2.1601 -3.74713,3.74713 -9.47124,2.37419 -9.47124,-2.2717 v -2.04851 h 8.56339 c 9.68492,0 9.43749,0.15446 9.43749,-5.89117 0,-3.14919 -0.31445,-3.92774 -2.44812,-6.06141 -2.14907,-2.14907 -2.90021,-2.44812 -6.14899,-2.44812 -7.0482,0 -12.64851,4.7561 -14.45187,12.27334 -2.068,8.62043 2.41074,14.25879 10.44837,13.15362 1.58407,-0.21781 3.72308,-0.82718 4.75335,-1.35414 z m -294.888317,-6.07196 1.492193,-6.84034 7.613134,-0.20354 7.61313,-0.20354 0.72509,-2.8566 0.72508,-2.85661 h -7.4838 c -4.250897,0 -7.483811,-0.29574 -7.483811,-0.6846 0,-0.37653 0.350866,-2.32062 0.779698,-4.32021 l 0.779704,-3.63561 h 8.940769 c 6.66735,0 8.94327,-0.22886 8.9506,-0.90005 0.006,-0.49502 0.20521,-1.62908 0.44401,-2.52012 l 0.43415,-1.62008 H 105.2228 c -11.426066,0 -11.596282,0.023 -11.975618,1.62008 -1.59207,6.70279 -6.842983,30.88971 -6.842983,31.52036 0,0.4702 1.086628,0.69799 2.693641,0.56467 l 2.69364,-0.22348 z m 23.706857,5.58027 c 0.20477,-0.89105 1.03688,-4.53622 1.84914,-8.1004 0.81225,-3.56417 1.93832,-7.18477 2.50237,-8.04578 1.2888,-1.96733 3.48057,-2.69344 5.25831,-1.74202 1.15751,0.61948 1.57803,0.34372 2.72574,-1.78744 1.18706,-2.20425 1.22197,-2.60534 0.27861,-3.2017 -1.4335,-0.9062 -4.79514,-0.8848 -6.52605,0.0416 -0.96005,0.5138 -1.39274,0.5138 -1.39274,0 0,-0.40994 -1.08322,-0.74536 -2.40717,-0.74536 h -2.40718 l -2.64835,12.06059 c -1.4566,6.63332 -2.64147,12.3036 -2.63307,12.60061 0.008,0.29701 1.14317,0.54003 2.52169,0.54003 2.0089,0 2.5803,-0.32158 2.8787,-1.62008 z m 151.9335,-8.64042 2.15105,-9.90048 h 2.26518 c 1.74042,0 2.36577,-0.37532 2.69935,-1.62008 0.78007,-2.91082 0.51873,-3.42017 -1.7548,-3.42017 -1.96021,0 -2.15176,-0.18222 -1.70304,-1.62008 0.68039,-2.18019 1.7382,-2.80718 4.0317,-2.38964 1.63591,0.29781 2.03605,0.017 2.70338,-1.89732 0.43079,-1.23577 0.61148,-2.41864 0.40153,-2.62859 -0.20995,-0.20995 -1.98729,-0.38173 -3.94965,-0.38173 -4.26318,0 -6.7682,1.92324 -8.0418,6.17411 -0.64009,2.13643 -1.18547,2.74325 -2.46551,2.74325 -1.83579,0 -2.04854,0.23911 -2.72283,3.06015 -0.421,1.76133 -0.27289,1.9801 1.34052,1.9801 0.99759,0 1.8138,0.12727 1.8138,0.28283 0,0.15555 -0.97204,4.5645 -2.1601,9.79766 -1.18806,5.23315 -2.16011,9.66166 -2.16011,9.84112 0,0.17947 1.21506,0.22574 2.70013,0.10283 l 2.70014,-0.22348 z m 17.6499,7.74037 c 0,-2.20811 -0.22287,-2.52012 -1.80009,-2.52012 -2.18096,0 -2.17767,0.11435 -0.23907,-8.32509 1.49979,-6.52917 1.63767,-6.79564 3.51619,-6.79564 1.41893,0 2.07427,-0.44434 2.38935,-1.62008 0.75491,-2.81695 0.50371,-3.42017 -1.42432,-3.42017 -1.66614,0 -1.82476,-0.21268 -1.40527,-1.88409 0.97913,-3.90113 1.2896,-6.03629 0.87773,-6.03629 -0.23408,0 -1.55036,0.53636 -2.92508,1.19191 -1.89345,0.90293 -2.64719,1.81947 -3.10873,3.78019 -0.44418,1.88695 -1.04169,2.65061 -2.20518,2.81835 -0.87775,0.12655 -1.60034,0.61257 -1.60575,1.08005 -0.006,0.46749 -0.20521,1.579 -0.444,2.47005 -0.34268,1.27871 -0.13531,1.62008 0.98416,1.62008 1.38881,0 1.38049,0.17945 -0.39993,8.62684 -1.76416,8.37024 -1.77911,8.67007 -0.50271,10.08049 0.9748,1.07714 2.21912,1.45365 4.80412,1.45365 h 3.48858 z m 17.45428,-4.86023 3.78675,-7.38036 0.17354,3.60017 c 0.0955,1.9801 0.36178,5.30126 0.59184,7.38036 0.40985,3.70392 0.46578,3.78019 2.77186,3.78019 2.30548,0 2.48829,-0.24888 8.94863,-12.18335 3.62728,-6.70085 6.59506,-12.37112 6.59506,-12.60061 0,-0.2295 -1.1311,-0.41727 -2.51356,-0.41727 -2.46162,0 -2.58764,0.14762 -6.0989,7.14463 -1.97194,3.92955 -3.91899,7.35084 -4.32678,7.60287 -0.48555,0.30008 -0.74482,-1.60654 -0.75126,-5.52456 -0.0136,-8.24414 -0.34895,-9.22294 -3.16042,-9.22294 -2.1895,0 -2.44214,0.32471 -6.21632,7.9896 l -3.93407,7.9896 -0.46882,-3.8494 c -0.25785,-2.11716 -0.50086,-5.71249 -0.54003,-7.9896 l -0.0712,-4.1402 h -2.9631 -2.96311 l 0.41831,3.78018 c 0.23008,2.07911 0.60217,6.37231 0.82688,9.54047 0.84134,11.8618 0.84709,11.88058 3.63853,11.88058 2.40565,0 2.56724,-0.19063 6.25618,-7.38036 z m 56.67264,0 c 2.38215,-10.7109 4.17282,-13.39641 8.25022,-12.37305 1.45048,0.36404 1.96408,0.0531 2.89913,-1.75507 1.069,-2.06722 1.05356,-2.24181 -0.26059,-2.94512 -1.7804,-0.95285 -4.08133,-0.95373 -5.85917,-0.002 -0.96004,0.5138 -1.39273,0.5138 -1.39273,0 0,-0.41005 -1.11223,-0.74547 -2.4716,-0.74547 -2.86381,0 -2.40018,-1.10424 -5.44175,12.96063 -1.24178,5.74228 -2.38924,10.84553 -2.54988,11.34055 -0.1991,0.61347 0.57984,0.90005 2.44642,0.90005 h 2.73852 z m 136.22023,-35.46173 c 3.00689,-12.16549 10.51186,-28.544 19.93561,-43.50656 l 4.2732,-6.78478 -2.11448,-6.17585 C 515.234,134.81811 507.8428,108.30053 504.84943,95.039054 c -5.6851,-25.186643 -8.63055,-46.23352 -9.37052,-66.957689 l -0.46278,-12.96063 -2.66623,7.920385 c -14.5576,43.245246 -16.52485,103.97063 -5.21031,160.83249 0.60145,3.02258 2.44646,11.00386 4.10004,17.73619 2.85952,11.64209 3.03711,12.09977 3.63211,9.36045 0.34407,-1.58407 1.26627,-5.47226 2.04934,-8.64042 z M 259.78272,189.43738 c 2.49168,-1.15057 5.30258,-3.00972 6.24646,-4.13146 1.86622,-2.21787 1.54786,-0.96665 10.37069,-40.75889 l 5.62759,-25.38124 h -23.91602 -23.91601 l -0.4329,2.70013 c -0.23809,1.48508 -0.64402,3.75319 -0.90207,5.04025 l -0.46917,2.34011 h 12.69062 c 11.55261,0 12.69062,0.11176 12.69062,1.24622 0,1.11396 -9.61368,45.51312 -10.52678,48.61621 -0.34492,1.17216 -2.32852,1.26006 -28.43626,1.26006 h -28.06547 l 0.44643,-2.34012 c 0.24554,-1.28706 6.35752,-29.07141 13.5822,-61.743 l 13.13575,-59.402885 28.21246,-0.188367 c 15.51687,-0.103601 28.21247,-0.09396 28.21247,0.02144 0,0.237701 -6.24338,28.81484 -6.8401,31.308443 l -0.38768,1.620079 h 10.76319 10.76319 l 0.84712,-4.140201 c 0.46591,-2.277111 2.10896,-9.775606 3.65122,-16.663327 1.54226,-6.887719 2.80411,-13.567349 2.80411,-14.843623 0,-3.160819 -2.22598,-5.74331 -6.30804,-7.318345 -3.14867,-1.214889 -6.30638,-1.316656 -40.85425,-1.316656 -37.02115,0 -37.48982,0.01811 -41.71426,1.61206 -4.03684,1.523165 -7.74453,4.261717 -9.02817,6.668342 -0.31685,0.594029 -6.96826,30.00411 -14.78092,65.35573 -12.72067,57.56001 -14.11216,64.4994 -13.31792,66.41686 1.02558,2.47596 4.31075,4.71555 8.34213,5.68706 1.61176,0.38841 18.67248,0.6248 39.89765,0.55282 l 37.08181,-0.12577 z m 50.8332,-26.88948 6.43551,-28.98141 28.86339,-0.0143 c 30.90549,-0.0153 36.71801,-0.45163 42.02924,-3.15525 6.64524,-3.38271 6.07806,-1.8155 14.68333,-40.572024 4.28591,-19.302916 7.79256,-35.639741 7.79256,-36.304066 0,-1.943326 -3.34711,-5.371736 -6.65765,-6.81937 -2.85281,-1.247481 -5.9765,-1.353825 -45.55622,-1.550923 l -42.49339,-0.211608 -9.28529,41.973634 c -5.10691,23.085507 -12.4199,56.157687 -16.25109,73.493737 l -6.96578,31.52011 10.48493,-0.19858 10.48494,-0.19858 z m 159.21301,27.00131 c -0.23054,-1.28706 -0.65907,-3.79818 -0.95227,-5.58027 l -0.5331,-3.24016 -25.98245,-0.36001 -25.98246,-0.36002 14.90367,-67.32327 14.90366,-67.323275 -10.08611,-0.200532 c -5.54737,-0.110292 -10.30752,0.05171 -10.57812,0.360017 -0.38219,0.435429 -30.12017,133.83806 -32.10647,144.02752 l -0.45618,2.34012 h 38.6445 38.64451 z M 152.9191,187.74913 c 0.46229,-1.57977 3.32849,-13.86896 3.32849,-14.27129 0,-0.16331 -17.26983,-0.38073 -38.37741,-0.48318 L 79.492753,172.8084 94.333426,107.64523 109.1741,42.482065 99.850831,42.280472 c -5.127794,-0.110877 -9.407292,-0.110877 -9.509992,0 -0.102701,0.110876 -7.530779,32.44116 -16.506841,71.845078 -8.976062,39.40391 -16.497241,72.37251 -16.713731,73.26356 l -0.393617,1.62008 h 47.91186 c 45.00986,0 47.9342,-0.0763 48.28059,-1.26006 z M 704.91426,24.121172 c 0.59403,-0.383891 0.75604,-0.697983 0.36002,-0.697983 -0.39602,0 -1.20606,0.314092 -1.80009,0.697983 -0.59403,0.383891 -0.75604,0.697984 -0.36002,0.697984 0.39602,0 1.20606,-0.314093 1.80009,-0.697984 z"
     id="path1490" />
  <path
     style="fill:#cccccc;stroke-width:0.720035"
     d="m 319.93759,120.43448 c 0.22137,-0.89579 3.35366,-15.07536 6.96063,-31.510158 3.60697,-16.434799 6.72394,-30.44848 6.92659,-31.141514 0.34256,-1.171436 2.28947,-1.260061 27.68128,-1.260061 21.39221,0 27.30387,0.195103 27.27158,0.900044 -0.0227,0.495024 -3.20278,15.156737 -7.06691,32.581583 l -7.02569,31.681536 -27.57499,0.18864 -27.57499,0.18865 z"
     id="path1529" />
  <path
     style="fill:#cccccc;stroke-width:0.720035"
     d="m 137.52668,229.03514 c 0,-0.55883 0.99691,-1.85489 2.21535,-2.88014 3.76961,-3.17192 8.58518,-1.96733 8.58518,2.14752 0,1.69609 -0.16236,1.74866 -5.40026,1.74866 -4.16902,0 -5.40027,-0.23166 -5.40027,-1.01604 z"
     id="path1568" />
  <path
     style="fill:#cccccc;stroke-width:0.720035"
     d="m 164.88801,229.3713 c 0,-1.62902 3.40769,-4.43564 5.85924,-4.82575 2.06427,-0.32848 2.94129,-0.0945 4.1402,1.10436 0.83662,0.83662 1.52112,2.16916 1.52112,2.9612 0,1.32007 -0.48002,1.44007 -5.76028,1.44007 -3.16815,0 -5.76028,-0.30595 -5.76028,-0.67988 z"
     id="path1607" />
  <path
     style="fill:#cccccc;stroke-width:0.720035"
     d="m 240.24327,239.53495 c -1.58907,-1.7559 -1.49608,-6.22347 0.20765,-9.97604 3.1973,-7.04228 11.58726,-6.81536 11.54552,0.31226 -0.02,3.4066 -2.19612,8.27074 -4.3867,9.80508 -2.23715,1.56696 -5.88382,1.49701 -7.36647,-0.1413 z"
     id="path1646" />
  <path
     style="fill:#cccccc;stroke-width:0.720035"
     d="m 332.41616,240.37168 c -1.00522,-1.00521 -0.41552,-3.1274 1.14005,-4.10279 0.89105,-0.5587 2.91614,-1.23148 4.50022,-1.49505 1.58408,-0.26358 3.47915,-0.65595 4.21128,-0.87194 1.11032,-0.32756 1.25029,-0.11215 0.84373,1.29845 -0.85683,2.97289 -4.39558,5.65136 -7.46649,5.65136 -1.51182,0 -2.96478,-0.21601 -3.22879,-0.48003 z"
     id="path1724" />
  <path
     style="fill:#cccccc;stroke-width:0.720035"
     d="m 379.45844,229.64383 c 0,-2.19198 4.23075,-5.35293 7.1646,-5.35293 1.8849,0 4.35596,2.45078 4.35596,4.32021 0,1.32007 -0.48002,1.44007 -5.76028,1.44007 -3.16815,0 -5.76028,-0.18331 -5.76028,-0.40735 z"
     id="path1763" />
  <path
     style="fill:#cccccc;stroke-width:0.720035"
     d="M 0.02499983,356.95735 C 0.03874969,356.26432 3.2013109,342.25063 7.0529134,325.81584 l 7.0029146,-29.88146 17.813293,-0.19258 c 9.797312,-0.10593 17.803182,0.0561 17.790823,0.36001 -0.01236,0.30394 -0.599855,3.14473 -1.305546,6.31289 l -1.283075,5.76028 -11.176243,0.19769 -11.176243,0.19769 -1.240924,5.9226 c -0.682509,3.25744 -1.405846,6.48964 -1.607416,7.18267 -0.33705,1.15884 0.469466,1.26007 10.04001,1.26007 h 10.406499 l -1.446604,5.76028 -1.446604,5.76028 H 29.120876 c -9.193629,0 -10.342111,0.13566 -10.666894,1.26006 -0.200184,0.69303 -1.205376,4.82423 -2.23376,9.18044 -1.028384,4.35621 -2.194984,9.13545 -2.592444,10.62052 l -0.722654,2.70013 H 6.4525619 c -5.67479745,0 -6.44954855,-0.15188 -6.42756207,-1.26006 z"
     id="path1802" />
  <path
     style="fill:#cccccc;stroke-width:0.720035"
     d="m 43.922135,357.89388 c 0,-0.17795 1.432556,-6.26262 3.183457,-13.5215 2.592312,-10.7472 6.176998,-27.59622 6.176998,-29.0336 0,-0.17791 2.636167,-0.32347 5.85815,-0.32347 h 5.85815 l -0.441985,3.22463 -0.441984,3.22463 2.684228,-2.97715 c 3.133727,-3.47571 7.337264,-5.5941 11.144639,-5.6164 1.485072,-0.009 2.700132,0.15792 2.700132,0.37026 0,0.21234 -0.687817,3.12848 -1.528481,6.48031 l -1.52848,6.09425 H 75.11949 c -4.667838,0 -9.156726,3.62156 -11.610102,9.36684 -0.762495,1.78559 -2.453316,7.69888 -3.757381,13.14063 l -2.371027,9.8941 h -6.729423 c -3.701182,0 -6.729422,-0.14559 -6.729422,-0.32353 z"
     id="path1841" />
  <path
     style="fill:#cccccc;stroke-width:0.720035"
     d="m 91.422941,357.2816 c -5.165284,-1.16818 -8.116878,-3.33273 -10.083119,-7.39444 -1.361794,-2.8131 -1.545144,-4.17213 -1.288126,-9.5479 0.244594,-5.11589 0.712274,-7.14964 2.544506,-11.06503 2.991753,-6.39323 7.228756,-10.84574 13.04599,-13.70956 4.139734,-2.03798 5.461988,-2.33186 10.528768,-2.34006 9.99956,-0.0162 14.79492,3.8926 14.79492,12.05964 0,9.82349 -6.39243,14.42706 -21.421042,15.42656 -6.36461,0.42329 -6.660324,0.51732 -6.660324,2.11785 0,0.9521 0.699135,2.11881 1.620079,2.70358 2.196261,1.39455 10.884447,2.10947 15.295517,1.25862 4.35338,-0.83972 4.65937,-0.50807 4.67443,5.06658 l 0.011,4.08054 -3.42016,0.73045 c -5.9847,1.27817 -15.402178,1.57215 -19.642459,0.61317 z m 15.459399,-28.85135 c 2.36687,-1.55083 2.34856,-3.17786 -0.046,-4.08826 -3.56872,-1.35683 -10.02573,1.05418 -11.82449,4.4152 -0.841402,1.57217 -0.82346,1.57697 4.591421,1.22947 3.354509,-0.21528 6.141829,-0.81126 7.279059,-1.55641 z"
     id="path1880" />
  <path
     style="fill:#cccccc;stroke-width:0.720035"
     d="m 137.04167,357.51057 c -7.282,-1.54927 -11.02671,-5.58501 -11.96084,-12.89039 -1.47328,-11.52176 5.73444,-24.52276 16.24593,-29.30378 3.69076,-1.67869 5.49546,-2.0434 10.24061,-2.0695 4.85512,-0.0267 6.25817,0.25118 8.92883,1.76841 3.89028,2.21011 5.83188,5.63009 5.83188,10.27239 0,9.62316 -6.91249,14.51855 -21.79479,15.43495 -6.71179,0.41329 -7.01408,0.50234 -6.59775,1.94361 0.23997,0.83075 1.04362,2.03825 1.78588,2.68332 1.82358,1.58478 10.82045,2.38528 15.36166,1.3668 1.93364,-0.43367 3.60276,-0.69648 3.70916,-0.58402 0.1064,0.11246 0.42151,2.35742 0.70025,4.9888 l 0.50678,4.78432 -3.54445,0.76015 c -5.19157,1.11339 -15.95038,1.58166 -19.41315,0.84494 z m 12.89715,-28.13008 c 1.48041,-0.41114 3.02496,-1.37032 3.43234,-2.13151 1.06228,-1.98488 -1.99158,-3.92213 -5.22078,-3.31187 -3.0122,0.56926 -6.71138,2.83024 -7.72294,4.72034 -0.75189,1.40493 -0.60173,1.4784 3.0142,1.47458 2.09303,-0.002 5.01676,-0.3404 6.49718,-0.75154 z"
     id="path1919" />
  <path
     style="fill:#cccccc;stroke-width:0.720035"
     d="m 194.7544,357.54835 c -6.0698,-1.45568 -8.66261,-5.63965 -8.50952,-13.73164 0.22328,-11.8019 6.80086,-22.34089 17.06685,-27.34551 6.46128,-3.14985 13.17454,-4.09066 22.11178,-3.09881 3.99958,0.44387 7.42131,0.95639 7.60386,1.13894 0.18254,0.18254 -1.12703,6.60791 -2.91016,14.27861 -3.5924,15.45387 -4.73269,21.79591 -4.74082,26.36732 l -0.005,3.06015 h -6.35954 -6.35955 l 0.3315,-4.1402 0.3315,-4.1402 -3.13512,3.08058 c -4.3554,4.27962 -9.80192,5.87938 -15.42534,4.53076 z m 15.07526,-13.05504 c 2.70638,-2.37623 4.69442,-6.8681 6.51596,-14.72244 0.60772,-2.62044 1.10495,-5.06834 1.10495,-5.43978 0,-1.93222 -7.24859,0.21886 -10.5728,3.13756 -3.23525,2.84059 -6.70671,9.9679 -6.70747,13.77124 -0.001,5.68017 4.98335,7.35902 9.65936,3.25342 z"
     id="path1958" />
  <path
     style="fill:#cccccc;stroke-width:0.720035"
     d="m 237.71713,357.52326 c -2.12003,-0.33371 -4.14285,-0.895 -4.49514,-1.24729 -0.37403,-0.37403 0.16133,-2.6616 1.28669,-5.49802 1.78293,-4.49377 2.0656,-4.82912 3.77511,-4.47875 2.99489,0.61382 13.56042,0.80185 14.1131,0.25117 1.26679,-1.26219 -0.5592,-3.95282 -4.13594,-6.09441 -7.30825,-4.37585 -9.86967,-8.87975 -8.50107,-14.94795 2.09049,-9.26894 13.59022,-14.41009 26.67988,-11.92768 2.10295,0.39881 3.94848,0.85005 4.10118,1.00275 0.15269,0.15269 -0.46868,2.41604 -1.38084,5.02966 l -1.65848,4.75204 -6.2719,-0.17452 c -5.24669,-0.14599 -6.48322,0.0385 -7.56468,1.12882 -1.24457,1.25475 -1.20857,1.37555 0.96575,3.24016 1.24219,1.06525 3.63032,2.74686 5.30696,3.73691 10.86029,6.41295 8.88804,19.71327 -3.57525,24.11057 -3.83555,1.35326 -13.47458,1.93048 -18.64537,1.11654 z"
     id="path1997" />
  <path
     style="fill:#cccccc;stroke-width:0.720035"
     d="m 288.16793,356.95735 c 0.17703,-0.69303 2.5446,-10.41351 5.26127,-21.60105 l 4.93938,-20.34099 h 6.75181 c 6.08537,0 6.7168,0.12437 6.39717,1.26006 -0.19506,0.69304 -2.55522,10.41351 -5.24482,21.60105 l -4.89018,20.34099 h -6.76826 c -6.08856,0 -6.73593,-0.12654 -6.44637,-1.26006 z"
     id="path2036" />
  <path
     style="fill:#cccccc;stroke-width:0.720035"
     d="m 303.176,308.57626 c -0.76934,-0.76934 -1.79604,-2.72467 -2.28156,-4.34517 -1.20418,-4.0192 0.42114,-7.55093 4.20197,-9.13066 3.12817,-1.30703 7.75926,-0.91424 9.47734,0.80384 2.44715,2.44715 0.62277,10.44128 -2.9547,12.94703 -2.26937,1.58954 -6.72358,1.44444 -8.44305,-0.27504 z"
     id="path2075" />
  <path
     style="fill:#cccccc;stroke-width:0.720035"
     d="m 312.53334,357.31737 c 0.021,-0.49503 2.23038,-10.1345 4.90976,-21.42104 l 4.87161,-20.521 5.97709,-0.21053 5.9771,-0.21052 -0.48525,3.23588 -0.48525,3.23588 2.17527,-2.03201 c 3.32743,-3.10828 7.15051,-4.64047 12.37383,-4.95909 8.72604,-0.5323 11.9401,2.81741 11.23104,11.70504 -0.33811,4.238 -3.32546,18.12729 -6.31856,29.3773 l -0.71837,2.70013 h -6.45257 c -5.30547,0 -6.45256,-0.1954 -6.45256,-1.09917 0,-0.60455 1.31398,-6.62638 2.91996,-13.38184 1.60598,-6.75546 2.82104,-13.47018 2.70013,-14.9216 -0.20406,-2.44974 -0.40051,-2.65301 -2.73995,-2.83515 -3.36985,-0.26236 -6.63227,1.85057 -8.94155,5.79105 -1.15051,1.96319 -2.88088,7.58392 -4.55702,14.80247 l -2.70221,11.63749 -6.66033,0.003 c -4.8703,0.002 -6.65007,-0.23854 -6.62217,-0.89668 z"
     id="path2114" />
  <path
     style="fill:#cccccc;stroke-width:0.720035"
     d="m 380.19818,356.95735 c 0.0108,-0.69303 3.17053,-14.70672 7.02153,-31.14151 l 7.00182,-29.88146 17.81968,-0.19258 c 9.80083,-0.10593 17.81968,-0.045 17.81968,0.13532 0,0.46208 -2.149,9.87478 -2.60222,11.39781 -0.33585,1.12864 -1.52113,1.26007 -11.36436,1.26007 h -10.9894 l -1.24472,5.94028 c -0.6846,3.26716 -1.40965,6.50732 -1.61122,7.20035 -0.33705,1.15884 0.46947,1.26007 10.04001,1.26007 h 10.4065 l -1.4466,5.76028 -1.4466,5.76028 h -10.30293 c -9.19363,0 -10.34211,0.13566 -10.66689,1.26006 -0.20018,0.69303 -1.20538,4.82423 -2.23376,9.18044 -1.02838,4.35621 -2.19498,9.13545 -2.59244,10.62052 l -0.72266,2.70013 h -6.45256 c -5.67278,0 -6.45018,-0.15228 -6.43286,-1.26006 z"
     id="path2153" />
  <path
     style="fill:#cccccc;stroke-width:0.720035"
     d="m 424.10061,357.82992 c 0,-0.21311 1.43915,-6.33193 3.1981,-13.59737 2.60199,-10.74761 6.16236,-27.44131 6.16236,-28.89377 0,-0.17791 2.62891,-0.32347 5.84203,-0.32347 h 5.84204 l -0.49505,3.3012 -0.49504,3.3012 2.7534,-3.05373 c 3.19773,-3.5465 7.38154,-5.67052 11.21382,-5.69296 1.48507,-0.009 2.70013,0.15792 2.70013,0.37026 0,0.21234 -0.67821,3.09016 -1.50712,6.39515 l -1.50712,6.00907 -3.57384,0.3434 c -7.03283,0.67577 -10.38205,5.90219 -14.30834,22.32803 l -2.36652,9.90048 h -6.72942 c -3.70119,0 -6.72943,-0.17437 -6.72943,-0.38749 z"
     id="path2192" />
  <path
     style="fill:#cccccc;stroke-width:0.720035"
     d="m 471.60142,357.2816 c -5.16529,-1.16818 -8.11688,-3.33273 -10.08312,-7.39444 -1.36179,-2.8131 -1.54514,-4.17213 -1.28813,-9.5479 0.2446,-5.11589 0.71228,-7.14964 2.54451,-11.06503 2.99175,-6.39323 7.22876,-10.84574 13.04599,-13.70956 4.13973,-2.03798 5.46198,-2.33186 10.52877,-2.34006 9.99956,-0.0162 14.79492,3.8926 14.79492,12.05964 0,9.82349 -6.39243,14.42706 -21.42104,15.42656 -6.36461,0.42329 -6.66033,0.51732 -6.66033,2.11785 0,0.9521 0.69914,2.11881 1.62008,2.70358 2.1972,1.39515 10.88512,2.10934 15.30018,1.25775 1.97978,-0.38187 3.74731,-0.5466 3.92783,-0.36608 0.18052,0.18052 0.45933,2.38741 0.61959,4.9042 l 0.29138,4.57598 -3.49917,0.7474 c -6.05638,1.2936 -15.45935,1.59403 -19.72146,0.63011 z m 15.4594,-28.85135 c 2.36687,-1.55083 2.34856,-3.17786 -0.046,-4.08826 -3.56872,-1.35683 -10.02573,1.05418 -11.82449,4.4152 -0.8414,1.57217 -0.82346,1.57697 4.59142,1.22947 3.35451,-0.21528 6.14182,-0.81126 7.27906,-1.55641 z"
     id="path2231" />
  <path
     style="fill:#cccccc;stroke-width:0.720035"
     d="m 517.22015,357.51057 c -9.51971,-2.02536 -13.49023,-8.98801 -11.66223,-20.45076 0.97681,-6.12526 3.5232,-11.3062 7.75725,-15.78309 4.19235,-4.43278 8.41384,-6.74592 14.31379,-7.84313 10.89124,-2.02544 18.8776,2.98957 18.8776,11.85411 0,9.62316 -6.91249,14.51855 -21.79479,15.43495 -6.71179,0.41329 -7.01408,0.50234 -6.59776,1.94361 0.23998,0.83075 1.04363,2.03825 1.78589,2.68332 1.82357,1.58478 10.82044,2.38528 15.36165,1.3668 1.93365,-0.43367 3.59483,-0.69648 3.69152,-0.58402 0.0967,0.11246 0.40012,2.35993 0.67427,4.99437 l 0.49846,4.78989 -3.51848,0.75458 c -5.16905,1.10857 -15.93171,1.57454 -19.38717,0.83937 z m 12.89714,-28.13008 c 1.48041,-0.41114 3.02497,-1.37032 3.43235,-2.13151 1.06227,-1.98488 -1.99158,-3.92213 -5.22078,-3.31187 -3.0122,0.56926 -6.71139,2.83024 -7.72294,4.72034 -0.7519,1.40493 -0.60173,1.4784 3.0142,1.47458 2.09303,-0.002 5.01676,-0.3404 6.49717,-0.75154 z"
     id="path2270" />
  <path
     style="fill:#cccccc;stroke-width:0.720035"
     d="m 559.10717,357.54747 c -5.72251,-1.38428 -8.36194,-5.15101 -8.84109,-12.61708 -0.59546,-9.27856 2.95829,-17.95289 10.04183,-24.51099 5.47835,-5.07199 10.5103,-7.02238 18.38561,-7.12627 l 5.90568,-0.0779 2.34773,-9.54046 2.34772,-9.54046 h 6.70104 c 6.58198,0 6.69427,0.0288 6.3204,1.62007 -0.20935,0.89105 -2.82306,11.82658 -5.80825,24.30119 -2.98518,12.4746 -6.00636,26.08326 -6.71373,30.24147 l -1.28613,7.56036 -6.0672,0.20552 -6.0672,0.20553 0.26756,-3.36416 0.26756,-3.36417 -2.86092,2.29911 c -4.43646,3.56524 -9.91285,4.92447 -14.94061,3.70825 z m 14.41336,-12.00517 c 2.76345,-1.81069 4.70123,-5.58885 6.54064,-12.75254 0.93403,-3.63765 1.70474,-7.00424 1.71267,-7.48132 0.008,-0.47708 -1.06724,-1.07034 -2.38929,-1.31836 -2.87759,-0.53984 -7.17523,1.07694 -9.96463,3.74869 -4.43384,4.24686 -6.69387,14.35155 -3.90084,17.4409 1.6657,1.84242 5.47922,2.01525 8.00145,0.36263 z"
     id="path2309" />
  <path
     style="fill:#cccccc;stroke-width:0.720035"
     d="m 612.71418,357.27802 c -9.48966,-2.67898 -13.51245,-9.69625 -11.56974,-20.182 2.43891,-13.16399 12.13847,-22.69548 24.39984,-23.97705 8.73411,-0.91289 15.3862,2.25261 18.61896,8.86012 1.74094,3.55836 1.87392,4.43338 1.5246,10.03243 -0.49731,7.97133 -3.19621,13.74328 -8.83665,18.89832 -6.37421,5.82567 -16.54935,8.51022 -24.13701,6.36818 z m 13.25588,-12.74973 c 5.35685,-4.70338 7.75756,-15.32536 4.25657,-18.83328 -1.95768,-1.96156 -5.70019,-2.12445 -8.38548,-0.36498 -3.8095,2.49607 -7.02273,9.44944 -7.11256,15.39142 -0.0397,2.62724 0.29354,3.60491 1.58534,4.65095 2.59101,2.09807 6.71584,1.73749 9.65613,-0.84411 z"
     id="path2348" />
  <path
     style="fill:#cccccc;stroke-width:0.720035"
     d="m 649.09923,356.23731 c 0.27711,-1.08905 2.53747,-10.72852 5.02305,-21.42104 l 4.51922,-19.44094 5.91937,-0.21016 5.91938,-0.21016 -0.49147,2.23763 -0.49147,2.23764 3.48779,-2.49299 c 3.65979,-2.61594 7.77721,-4.08209 11.40816,-4.06226 3.58173,0.0196 7.91721,2.40527 8.96412,4.93273 l 0.934,2.25488 2.76155,-2.4949 c 5.09989,-4.60745 14.25033,-5.94352 18.59952,-2.71576 4.77906,3.5468 4.83018,8.58309 0.28854,28.4247 l -3.41985,14.94073 h -6.61972 -6.61972 l 1.04392,-4.50022 c 0.57415,-2.47512 2.00349,-8.59215 3.1763,-13.59341 2.13171,-9.09037 2.57658,-13.24017 1.58132,-14.75092 -1.12267,-1.70417 -3.51145,-1.74741 -5.91456,-0.10706 -3.93034,2.68283 -6.19699,7.76462 -9.24943,20.73705 l -2.7894,11.85454 -6.64588,0.20779 c -6.09711,0.19063 -6.61464,0.10144 -6.26748,-1.08005 1.6607,-5.65189 6.21658,-26.59599 6.21658,-28.57862 0,-2.47517 -1.49288,-4.75322 -3.11158,-4.74809 -0.46674,0.002 -1.88745,0.63611 -3.15715,1.41029 -3.64736,2.22391 -6.39798,7.92569 -8.86909,18.38476 -1.21677,5.15003 -2.53322,10.57874 -2.92545,12.06381 l -0.71315,2.70013 h -6.53061 -6.53062 z"
     id="path2387" />
</svg>
