<?xml version="1.0" encoding="UTF-8"?>
<svg xmlns="http://www.w3.org/2000/svg" xmlns:xlink="http://www.w3.org/1999/xlink" width="128pt" height="36pt" viewBox="0 0 128 36" version="1.1">
<g id="surface1">
<path style=" stroke:none;fill-rule:nonzero;fill:rgb(0%,0%,0%);fill-opacity:1;" d="M 0 0.00390625 L 128 0.00390625 L 128 35.996094 L 0 35.996094 Z M 0 0.00390625 "/>
<path style=" stroke:none;fill-rule:nonzero;fill:rgb(100%,100%,100%);fill-opacity:1;" d="M 122.253906 25.839844 C 122.003906 25.90625 121.792969 25.945312 121.582031 25.945312 C 120.832031 25.945312 120.480469 25.632812 120.480469 24.726562 L 120.480469 17.882812 C 120.480469 14.289062 117.566406 12.539062 114.125 12.539062 C 111.496094 12.539062 110.078125 12.855469 107.269531 13.96875 L 106.644531 17.59375 L 110.296875 17.976562 L 110.816406 16.203125 C 111.566406 15.820312 112.308594 15.75 113.265625 15.75 C 115.859375 15.75 115.898438 17.667969 115.898438 19.273438 L 115.898438 19.796875 C 115.078125 19.691406 114.15625 19.660156 113.265625 19.660156 C 109.613281 19.660156 105.8125 20.566406 105.8125 24.441406 C 105.8125 27.71875 108.433594 28.949219 110.746094 28.949219 C 113.335938 28.949219 114.96875 27.414062 115.890625 25.808594 C 116.101562 27.726562 117.273438 28.949219 119.40625 28.949219 C 120.398438 28.949219 121.425781 28.671875 122.277344 28.210938 Z M 112.421875 25.738281 C 111.039062 25.738281 110.539062 24.933594 110.539062 23.917969 C 110.539062 22.207031 111.960938 21.753906 113.59375 21.753906 C 114.335938 21.753906 115.15625 21.859375 115.902344 21.960938 C 115.796875 24.585938 114.054688 25.738281 112.421875 25.738281 Z M 106.273438 4.578125 L 99.347656 28.601562 L 94.835938 28.601562 L 101.761719 4.578125 Z M 96.972656 4.578125 L 90.046875 28.601562 L 85.542969 28.601562 L 92.46875 4.578125 Z M 77.746094 12.855469 L 82.539062 12.855469 L 82.539062 18.507812 L 77.746094 18.507812 Z M 77.746094 22.945312 L 82.539062 22.945312 L 82.539062 28.601562 L 77.746094 28.601562 Z M 70.769531 22.734375 L 74.394531 23.082031 L 73.402344 28.601562 L 59.410156 28.601562 L 58.949219 26.230469 L 67.757812 16.277344 L 62.753906 16.277344 L 62.042969 18.71875 L 58.738281 18.367188 L 59.308594 12.847656 L 73.371094 12.847656 L 73.726562 15.222656 L 64.84375 25.179688 L 70.027344 25.179688 Z M 47.828125 12.539062 C 42.074219 12.539062 39.230469 16.347656 39.230469 20.953125 C 39.230469 25.984375 42.644531 28.949219 47.578125 28.949219 C 52.691406 28.949219 56.382812 25.769531 56.382812 20.742188 C 56.382812 16.339844 53.574219 12.539062 47.828125 12.539062 Z M 47.71875 25.492188 C 45.234375 25.492188 43.957031 23.398438 43.957031 20.671875 C 43.957031 17.699219 45.40625 15.996094 47.757812 15.996094 C 49.921875 15.996094 51.660156 17.425781 51.660156 20.601562 C 51.660156 23.605469 50.097656 25.492188 47.71875 25.492188 Z M 35.109375 25.179688 L 37.242188 25.179688 L 37.242188 28.601562 L 30.527344 28.601562 L 30.527344 19.734375 C 30.527344 17.007812 29.605469 15.964844 27.796875 15.964844 C 25.59375 15.964844 24.703125 17.5 24.703125 19.703125 L 24.703125 25.179688 L 26.835938 25.179688 L 26.835938 28.601562 L 20.128906 28.601562 L 20.128906 19.734375 C 20.128906 17.007812 19.207031 15.964844 17.394531 15.964844 C 15.195312 15.964844 14.304688 17.5 14.304688 19.703125 L 14.304688 25.179688 L 17.355469 25.179688 L 17.355469 28.601562 L 7.597656 28.601562 L 7.597656 25.179688 L 9.726562 25.179688 L 9.726562 16.273438 L 7.597656 16.273438 L 7.597656 12.847656 L 14.304688 12.847656 L 14.304688 15.222656 C 15.265625 13.546875 16.933594 12.535156 19.167969 12.535156 C 21.476562 12.535156 23.601562 13.617188 24.390625 15.921875 C 25.28125 13.824219 27.089844 12.535156 29.613281 12.535156 C 32.488281 12.535156 35.117188 14.246094 35.117188 17.976562 L 35.117188 25.179688 Z M 35.109375 25.179688 "/>
</g>
</svg>
