<?xml version="1.0" encoding="UTF-8" standalone="no"?>
<svg
   width="128pt"
   height="36pt"
   viewBox="0 0 128 36"
   version="1.1"
   id="svg829"
   sodipodi:docname="mozilla-grey.svg"
   inkscape:version="1.1 (c4e8f9e, 2021-05-24)"
   xmlns:inkscape="http://www.inkscape.org/namespaces/inkscape"
   xmlns:sodipodi="http://sodipodi.sourceforge.net/DTD/sodipodi-0.dtd"
   xmlns="http://www.w3.org/2000/svg"
   xmlns:svg="http://www.w3.org/2000/svg">
  <defs
     id="defs833" />
  <sodipodi:namedview
     id="namedview831"
     pagecolor="#505050"
     bordercolor="#ffffff"
     borderopacity="1"
     inkscape:pageshadow="0"
     inkscape:pageopacity="0"
     inkscape:pagecheckerboard="1"
     inkscape:document-units="pt"
     showgrid="false"
     showguides="false"
     inkscape:zoom="5.6179809"
     inkscape:cx="91.580945"
     inkscape:cy="24.652985"
     inkscape:window-width="1312"
     inkscape:window-height="997"
     inkscape:window-x="49"
     inkscape:window-y="25"
     inkscape:window-maximized="0"
     inkscape:current-layer="svg829" />
  <g
     id="surface1"
     transform="translate(-0.0043135,0.03508725)"
     style="fill:#cccccc;fill-opacity:1">
    <path
       style="fill:#cccccc;fill-opacity:1;fill-rule:nonzero;stroke:none"
       d="M 0,0.00390625 H 128 V 35.996094 H 0 Z m 0,0"
       id="path824" />
    <path
       style="fill:#cccccc;fill-opacity:1;fill-rule:nonzero;stroke:none"
       d="m 122.25391,25.839844 c -0.25,0.06641 -0.46094,0.105468 -0.67188,0.105468 -0.75,0 -1.10156,-0.3125 -1.10156,-1.21875 v -6.84375 c 0,-3.59375 -2.91406,-5.34375 -6.35547,-5.34375 -2.62891,0 -4.04687,0.316407 -6.85547,1.429688 l -0.625,3.625 3.65235,0.382812 0.51953,-1.773437 c 0.75,-0.382813 1.49218,-0.453125 2.44922,-0.453125 2.59375,0 2.63281,1.917969 2.63281,3.523438 v 0.523437 c -0.82031,-0.105469 -1.74219,-0.136719 -2.63281,-0.136719 -3.65235,0 -7.45313,0.90625 -7.45313,4.78125 0,3.277344 2.62109,4.507813 4.93359,4.507813 2.58985,0 4.22266,-1.535157 5.14454,-3.140625 0.21093,1.917968 1.38281,3.140625 3.51562,3.140625 0.99219,0 2.01953,-0.277344 2.87109,-0.738281 z m -9.83203,-0.101563 c -1.38282,0 -1.88282,-0.804687 -1.88282,-1.820312 0,-1.710938 1.42188,-2.164063 3.05469,-2.164063 0.74219,0 1.5625,0.105469 2.30859,0.207032 -0.10546,2.625 -1.84765,3.777343 -3.48046,3.777343 z M 106.27344,4.578125 99.347656,28.601562 H 94.835938 L 101.76172,4.578125 Z m -9.300784,0 -6.925781,24.023437 H 85.542969 L 92.46875,4.578125 Z m -19.226562,8.277344 h 4.792968 v 5.652343 h -4.792968 z m 0,10.089843 h 4.792968 v 5.65625 h -4.792968 z m -6.976563,-0.210937 3.625,0.347656 -0.992187,5.519531 H 59.410156 l -0.460937,-2.371093 8.808593,-9.953125 h -5.003906 l -0.710937,2.441406 -3.304688,-0.351562 0.570313,-5.519532 h 14.0625 l 0.355468,2.375 -8.882812,9.957032 h 5.183594 z M 47.828125,12.539062 c -5.753906,0 -8.597656,3.808594 -8.597656,8.414063 0,5.03125 3.414062,7.996094 8.347656,7.996094 5.113281,0 8.804687,-3.179688 8.804687,-8.207031 0,-4.402344 -2.808593,-8.203126 -8.554687,-8.203126 z M 47.71875,25.492188 c -2.484375,0 -3.761719,-2.09375 -3.761719,-4.820313 0,-2.972656 1.449219,-4.675781 3.800781,-4.675781 2.164063,0 3.902344,1.429687 3.902344,4.605468 0,3.003907 -1.5625,4.890626 -3.941406,4.890626 z m -12.609375,-0.3125 h 2.132813 v 3.421874 h -6.714844 v -8.867187 c 0,-2.726563 -0.921875,-3.769531 -2.730469,-3.769531 -2.203125,0 -3.09375,1.535156 -3.09375,3.738281 v 5.476563 h 2.132813 v 3.421874 h -6.707032 v -8.867187 c 0,-2.726563 -0.921875,-3.769531 -2.734375,-3.769531 -2.199219,0 -3.089843,1.535156 -3.089843,3.738281 v 5.476563 h 3.050781 v 3.421874 H 7.597656 v -3.421874 h 2.128906 v -8.90625 H 7.597656 v -3.425782 h 6.707032 v 2.375 c 0.960937,-1.675781 2.628906,-2.6875 4.863281,-2.6875 2.308593,0 4.433593,1.082032 5.222656,3.386719 0.890625,-2.097656 2.699219,-3.386719 5.222656,-3.386719 2.875,0 5.503907,1.710938 5.503907,5.441406 v 7.203126 z m 0,0"
       id="path826" />
  </g>
  <path
     style="fill:#ffffff;fill-opacity:1;stroke:#cccccc;stroke-width:0.237333"
     d="M 10.145994,35.866978 V 33.55298 h 1.423999 1.423999 V 27.678983 21.804987 H 11.569993 10.145994 V 19.490988 17.17699 h 4.449997 4.449997 v 1.459531 1.459531 l 0.897655,-1.007147 c 2.137386,-2.398093 6.033868,-3.0987 9.192143,-1.652793 1.114655,0.510305 2.499243,1.840819 3.023501,2.905418 l 0.375019,0.761542 0.541638,-0.959729 c 2.786,-4.936522 11.136846,-4.472406 13.238416,0.735754 0.393768,0.975847 0.411603,1.239153 0.463584,6.844386 l 0.05406,5.829497 h 1.41498 1.414982 v 2.317055 2.317054 l -4.494497,-0.04756 -4.494498,-0.04756 -0.089,-7.119996 c -0.09801,-7.840369 -0.10841,-7.915462 -1.227323,-8.856965 -0.539026,-0.453561 -1.545482,-0.840921 -2.190413,-0.843036 -0.166507,-5.52e-4 -0.727206,0.08858 -1.246,0.198066 -0.733987,0.154895 -1.101662,0.362943 -1.657232,0.93774 -1.116456,1.155097 -1.19908,1.582151 -1.286729,6.650696 l -0.07772,4.494498 h 1.439713 1.439711 v 2.313998 2.313999 H 31.343955 26.90993 l -0.0728,-6.897496 c -0.06315,-5.983351 -0.113455,-7.003567 -0.379544,-7.697832 -0.683617,-1.783658 -2.234786,-2.576383 -4.211728,-2.152405 -1.275856,0.273622 -2.073932,0.918244 -2.640395,2.132702 -0.456606,0.978931 -0.466758,1.084088 -0.530262,5.492536 l -0.06474,4.494498 h 2.064765 2.064765 v 2.313998 2.313999 H 16.64299 10.145994 Z"
     id="path5245"
     transform="scale(0.75)" />
  <path
     style="fill:#ffffff;fill-opacity:1;stroke:#cccccc;stroke-width:0.237333"
     d="m 61.831385,38.515604 c -2.744844,-0.246063 -5.277498,-1.430119 -6.918331,-3.234432 -1.764282,-1.940061 -2.573909,-4.248321 -2.578455,-7.351215 -0.0049,-3.32684 1.024212,-6.077284 3.023367,-8.080575 2.163305,-2.167781 4.687167,-3.101142 8.365995,-3.093868 3.891023,0.0077 6.116118,0.827335 8.373126,3.084343 2.170714,2.170714 3.046612,4.424661 3.040498,7.824097 -0.0059,3.301921 -0.86564,5.513135 -2.961856,7.618104 -2.510195,2.52068 -6.028431,3.620447 -10.344344,3.233546 z m 4.123812,-5.151953 c 1.040129,-0.535269 1.859007,-1.542824 2.409294,-2.964418 0.560399,-1.447716 0.569693,-4.325819 0.01855,-5.746248 -0.846455,-2.181542 -2.331139,-3.199239 -4.671666,-3.202259 -1.11958,-0.0014 -1.510886,0.08108 -2.312776,0.487761 -1.850785,0.938627 -2.666844,2.637322 -2.672245,5.562496 -0.0045,2.445198 0.461914,3.854694 1.675641,5.063604 1.095884,1.091535 1.749761,1.338068 3.418841,1.28902 0.942923,-0.02771 1.472233,-0.149216 2.134356,-0.489956 z"
     id="path5284"
     transform="scale(0.75)" />
  <path
     style="fill:#ffffff;fill-opacity:1;stroke:#cccccc;stroke-width:0.237333"
     d="m 79.123641,37.780477 c -0.0512,-0.220275 -0.202288,-0.937082 -0.335749,-1.592903 l -0.242656,-1.192404 5.79463,-6.550591 5.794629,-6.550592 -3.173729,-0.04871 c -1.74555,-0.02679 -3.20265,-0.01979 -3.237999,0.01556 -0.03535,0.03535 -0.263867,0.731116 -0.507817,1.54615 -0.243951,0.815033 -0.467389,1.505721 -0.496529,1.534862 -0.0936,0.0936 -4.200757,-0.387818 -4.319216,-0.506277 -0.09856,-0.09856 0.264659,-4.234833 0.570965,-6.502082 l 0.102204,-0.756499 h 9.391533 9.391534 l 0.09763,0.489499 c 0.0537,0.269225 0.153455,0.983916 0.221681,1.588202 l 0.124044,1.098702 -5.894973,6.599793 -5.894974,6.599794 h 3.431175 3.431175 l 0.429634,-1.531734 c 0.236298,-0.842454 0.540096,-1.574123 0.675105,-1.625931 0.252593,-0.09693 4.522996,0.281934 4.654376,0.412928 0.06829,0.06809 -0.688194,4.622778 -1.084109,6.527234 l -0.175769,0.8455 H 88.543583 79.21673 Z"
     id="path5323"
     transform="scale(0.75)" />
  <path
     style="fill:#ffffff;fill-opacity:1;stroke:#cccccc;stroke-width:0.237333"
     d="M 103.59594,20.914987 V 17.17699 h 3.204 3.20399 v 3.737997 3.737998 h -3.20399 -3.204 z"
     id="path5362"
     transform="scale(0.75)" />
  <path
     style="fill:#ffffff;fill-opacity:1;stroke:#cccccc;stroke-width:0.237333"
     d="m 103.59594,34.353979 v -3.826997 h 3.204 3.20399 v 3.826997 3.826998 h -3.20399 -3.204 z"
     id="path5401"
     transform="scale(0.75)" />
  <path
     style="fill:#ffffff;fill-opacity:1;stroke:#cccccc;stroke-width:0.237333"
     d="m 114.09483,38.047477 c -0.002,-0.07343 2.05555,-7.282421 4.57168,-16.01999 L 123.2413,6.1409963 h 2.99331 c 1.64632,0 2.9953,0.060075 2.99772,0.1334999 0.002,0.073425 -2.05382,7.2824208 -4.56945,16.0199908 l -4.57386,15.88649 h -2.99554 c -1.64755,0 -2.99695,-0.06007 -2.99865,-0.1335 z"
     id="path5440"
     transform="scale(0.75)" />
  <path
     style="fill:#ffffff;fill-opacity:1;stroke:#cccccc;stroke-width:0.237333"
     d="m 126.64417,37.339644 c 0.13615,-0.467315 2.13783,-7.417862 4.44818,-15.445657 2.31036,-8.027795 4.28402,-14.8563163 4.38592,-15.1744911 l 0.18526,-0.5784996 h 3.01558 3.01559 l -0.10219,0.4071553 c -0.0562,0.2239354 -2.1221,7.4129064 -4.59088,15.9754904 l -4.48868,15.568335 -3.05816,0.04867 -3.05815,0.04867 z"
     id="path5479"
     transform="scale(0.75)" />
  <path
     style="fill:#ffffff;fill-opacity:1;stroke:#cccccc;stroke-width:0.237333"
     d="m 146.43836,38.515343 c -2.38899,-0.337894 -4.39067,-1.834928 -5.03572,-3.766161 -0.44573,-1.334506 -0.40375,-3.350832 0.0939,-4.507533 0.71804,-1.66913 2.39887,-2.912559 4.84082,-3.581087 0.90128,-0.246741 1.8655,-0.311478 4.67289,-0.313734 l 3.53729,-0.0028 -0.0878,-1.546898 c -0.16017,-2.820744 -1.07641,-3.716229 -3.77596,-3.690419 -0.78693,0.0075 -1.74709,0.109069 -2.1337,0.225656 -0.66206,0.199653 -0.72368,0.279052 -1.06004,1.365819 -0.19642,0.634614 -0.37685,1.18334 -0.40096,1.219392 -0.0241,0.03605 -1.12907,-0.03605 -2.45546,-0.16023 -1.91038,-0.178852 -2.41162,-0.280605 -2.41162,-0.489567 0,-0.145084 0.17435,-1.252858 0.38744,-2.46172 l 0.38744,-2.197931 1.18338,-0.452196 c 4.73561,-1.809577 9.55907,-1.97071 12.77018,-0.426602 1.2773,0.614209 2.75387,2.180176 3.25682,3.454011 0.40619,1.028781 0.42318,1.26594 0.47807,6.673684 0.0313,3.083848 0.0946,5.779218 0.14072,5.98971 0.10235,0.467466 0.968,0.802574 1.69671,0.656833 l 0.52523,-0.105047 v 1.634258 1.634258 l -0.77571,0.343134 c -1.04148,0.460698 -2.8474,0.69798 -3.96619,0.521123 -1.88032,-0.297238 -3.13796,-1.372981 -3.62065,-3.096983 l -0.2256,-0.80575 -0.48386,0.66373 c -1.82656,2.505521 -4.50706,3.651719 -7.53753,3.223094 z m 5.48978,-4.744413 c 1.31125,-0.674112 2.23009,-2.043672 2.4989,-3.724685 l 0.11715,-0.732614 -1.19008,-0.127446 c -3.93973,-0.421909 -5.8812,0.461412 -5.8812,2.675796 0,1.037552 0.39041,1.765516 1.17416,2.189381 0.59752,0.323149 2.40801,0.168408 3.28107,-0.280432 z"
     id="path5518"
     transform="scale(0.75)" />
</svg>
