<?xml version="1.0" encoding="UTF-8"?>
<svg xmlns="http://www.w3.org/2000/svg" xmlns:xlink="http://www.w3.org/1999/xlink" width="128pt" height="127pt" viewBox="0 0 128 127" version="1.1">
<g id="surface1">
<path style=" stroke:none;fill-rule:nonzero;fill:rgb(0%,0%,0%);fill-opacity:1;" d="M 128 63.5 C 128 98.570312 99.347656 127 64 127 C 28.652344 127 0 98.570312 0 63.5 C 0 28.429688 28.652344 0 64 0 C 99.347656 0 128 28.429688 128 63.5 Z M 128 63.5 "/>
<path style=" stroke:none;fill-rule:nonzero;fill:rgb(100%,100%,100%);fill-opacity:1;" d="M 114.9375 63.5 C 114.9375 91.414062 92.132812 114.039062 64 114.039062 C 35.867188 114.039062 13.0625 91.414062 13.0625 63.5 C 13.0625 35.585938 35.867188 12.960938 64 12.960938 C 92.132812 12.960938 114.9375 35.585938 114.9375 63.5 Z M 114.9375 63.5 "/>
<path style=" stroke:none;fill-rule:nonzero;fill:rgb(0%,0%,0%);fill-opacity:1;" d="M 99.917969 63.5 C 99.917969 83.183594 83.835938 99.136719 64 99.136719 C 44.164062 99.136719 28.082031 83.183594 28.082031 63.5 C 28.082031 43.816406 44.164062 27.863281 64 27.863281 C 83.835938 27.863281 99.917969 43.816406 99.917969 63.5 Z M 99.917969 63.5 "/>
<path style=" stroke:none;fill-rule:nonzero;fill:rgb(100%,100%,100%);fill-opacity:1;" d="M 83.59375 63.5 C 83.59375 74.234375 74.820312 82.9375 64 82.9375 C 53.179688 82.9375 44.40625 74.234375 44.40625 63.5 C 44.40625 52.765625 53.179688 44.0625 64 44.0625 C 74.820312 44.0625 83.59375 52.765625 83.59375 63.5 Z M 83.59375 63.5 "/>
<path style=" stroke:none;fill-rule:nonzero;fill:rgb(100%,100%,100%);fill-opacity:1;" d="M 80.328125 55.078125 L 100.570312 55.078125 L 100.570312 71.277344 L 80.328125 71.277344 Z M 80.328125 55.078125 "/>
<path style=" stroke:none;fill-rule:nonzero;fill:rgb(100%,100%,100%);fill-opacity:1;" d="M 84.96875 28.441406 L 99.285156 42.644531 L 42.484375 99 L 28.167969 84.796875 Z M 84.96875 28.441406 "/>
<path style=" stroke:none;fill-rule:nonzero;fill:rgb(0%,0%,0%);fill-opacity:1;" d="M 98.359375 17.746094 L 109.90625 29.199219 L 29.09375 109.378906 L 17.546875 97.925781 Z M 98.359375 17.746094 "/>
</g>
</svg>
