<?xml version="1.0" encoding="UTF-8" standalone="no"?>
<svg
   width="128pt"
   height="127pt"
   viewBox="0 0 128 127"
   version="1.1"
   id="svg24"
   sodipodi:docname="unlicense-grey.svg"
   inkscape:version="1.1 (c4e8f9e, 2021-05-24)"
   xmlns:inkscape="http://www.inkscape.org/namespaces/inkscape"
   xmlns:sodipodi="http://sodipodi.sourceforge.net/DTD/sodipodi-0.dtd"
   xmlns="http://www.w3.org/2000/svg"
   xmlns:svg="http://www.w3.org/2000/svg">
  <defs
     id="defs28" />
  <sodipodi:namedview
     id="namedview26"
     pagecolor="#505050"
     bordercolor="#ffffff"
     borderopacity="1"
     inkscape:pageshadow="0"
     inkscape:pageopacity="0"
     inkscape:pagecheckerboard="1"
     inkscape:document-units="pt"
     showgrid="false"
     inkscape:zoom="3.9882384"
     inkscape:cx="86.629725"
     inkscape:cy="95.154792"
     inkscape:window-width="1312"
     inkscape:window-height="997"
     inkscape:window-x="49"
     inkscape:window-y="25"
     inkscape:window-maximized="0"
     inkscape:current-layer="surface1" />
  <g
     id="surface1">
    <path
       style="fill:#cccccc;fill-opacity:1;fill-rule:nonzero;stroke:none"
       d="m 128.0686,63.501964 c 0,35.070315 -28.652345,63.500006 -63.999998,63.500006 -35.347656,0 -64.00000056,-28.429691 -64.00000056,-63.500006 0,-35.070312 28.65234456,-63.50000017 64.00000056,-63.50000017 35.347653,0 63.999998,28.42968817 63.999998,63.50000017 z m 0,0"
       id="path9" />
    <path
       style=" stroke:none;fill-rule:nonzero;fill:rgb(100%,100%,100%);fill-opacity:1;"
       d="M 114.9375 63.5 C 114.9375 91.414062 92.132812 114.039062 64 114.039062 C 35.867188 114.039062 13.0625 91.414062 13.0625 63.5 C 13.0625 35.585938 35.867188 12.960938 64 12.960938 C 92.132812 12.960938 114.9375 35.585938 114.9375 63.5 Z M 114.9375 63.5 "
       id="path11" />
    <path
       style=" stroke:none;fill-rule:nonzero;fill:rgb(0%,0%,0%);fill-opacity:1;"
       d="M 99.917969 63.5 C 99.917969 83.183594 83.835938 99.136719 64 99.136719 C 44.164062 99.136719 28.082031 83.183594 28.082031 63.5 C 28.082031 43.816406 44.164062 27.863281 64 27.863281 C 83.835938 27.863281 99.917969 43.816406 99.917969 63.5 Z M 99.917969 63.5 "
       id="path13" />
    <path
       style=" stroke:none;fill-rule:nonzero;fill:rgb(100%,100%,100%);fill-opacity:1;"
       d="M 83.59375 63.5 C 83.59375 74.234375 74.820312 82.9375 64 82.9375 C 53.179688 82.9375 44.40625 74.234375 44.40625 63.5 C 44.40625 52.765625 53.179688 44.0625 64 44.0625 C 74.820312 44.0625 83.59375 52.765625 83.59375 63.5 Z M 83.59375 63.5 "
       id="path15" />
    <path
       style=" stroke:none;fill-rule:nonzero;fill:rgb(100%,100%,100%);fill-opacity:1;"
       d="M 80.328125 55.078125 L 100.570312 55.078125 L 100.570312 71.277344 L 80.328125 71.277344 Z M 80.328125 55.078125 "
       id="path17" />
    <path
       style=" stroke:none;fill-rule:nonzero;fill:rgb(100%,100%,100%);fill-opacity:1;"
       d="M 84.96875 28.441406 L 99.285156 42.644531 L 42.484375 99 L 28.167969 84.796875 Z M 84.96875 28.441406 "
       id="path19" />
    <path
       style="mix-blend-mode:normal;fill:#cccccc;fill-opacity:1;fill-rule:nonzero;stroke:#cccccc;stroke-width:1;stroke-miterlimit:4;stroke-dasharray:none;stroke-opacity:1"
       d="M 98.359375,17.746094 109.90625,29.199219 29.09375,109.37891 17.546875,97.925781 Z m 0,0"
       id="path21" />
    <path
       style="fill:#cccccc;stroke-width:0.175671"
       d="m 42.371048,105.73026 c -7.490762,-14.964089 -6.404304,-33.00461 2.832526,-47.033778 1.785958,-2.712566 3.453057,-4.750072 5.964161,-7.289318 7.45243,-7.53595 16.77701,-12.242549 27.391771,-13.826047 2.518163,-0.375657 8.517489,-0.520888 11.120606,-0.269207 5.885998,0.569084 11.133098,2.003499 16.293498,4.454202 1.23189,0.585034 2.23981,1.116503 2.23981,1.181043 0,0.06454 -3.75596,3.815417 -8.346564,8.335284 l -8.346561,8.217939 -1.53494,-0.281201 c -4.368671,-0.800335 -9.092775,-0.424772 -13.392742,1.064713 -1.918434,0.664536 -5.146337,2.372527 -6.763339,3.578711 -5.459249,4.072261 -9.014648,9.818038 -10.214243,16.506941 -0.415683,2.317833 -0.410626,6.206521 0.01128,8.669608 l 0.326524,1.906269 -1.122432,1.091822 c -0.617336,0.600502 -4.378053,4.317006 -8.357147,8.258899 l -7.234716,7.16707 -0.867486,-1.73295 z"
       id="path4625"
       transform="scale(0.75)" />
    <path
       style="fill:#cccccc;stroke-width:0.175671"
       d="m 81.423569,132.08232 c -6.777827,-0.72447 -12.1367,-2.21571 -17.332965,-4.82332 l -1.782299,-0.8944 5.429361,-5.44192 c 2.986148,-2.99306 6.756695,-6.71385 8.378994,-8.26843 l 2.949634,-2.8265 1.617816,0.28428 c 3.719642,0.65361 7.139081,0.54955 10.831,-0.32958 7.286654,-1.73513 13.64828,-6.73002 17.05084,-13.387619 l 0.7383,-1.444585 h 11.40022 c 6.27012,0 11.40022,0.04612 11.40022,0.102484 0,0.344396 -0.79764,3.119764 -1.38722,4.82678 -2.42286,7.01495 -6.08548,12.89905 -11.2611,18.09126 -2.76961,2.77848 -4.47036,4.17513 -7.7251,6.34383 -5.71377,3.80721 -12.32391,6.30648 -19.679598,7.4408 -1.784165,0.27513 -9.027997,0.49796 -10.628103,0.32692 z"
       id="path4664"
       transform="scale(0.75)" />
    <path
       style="fill:#cccccc;stroke-width:0.175671"
       d="m 115.76728,73.372034 c 0,-0.194931 11.58586,-11.514952 11.68445,-11.416355 0.21167,0.211667 2.39517,4.969959 2.80694,6.116884 0.4936,1.374869 1.36022,4.130593 1.56067,4.96271 l 0.11637,0.483095 h -8.08422 c -4.44632,0 -8.08421,-0.06585 -8.08421,-0.146334 z"
       id="path4703"
       transform="scale(0.75)" />
  </g>
</svg>
